# This file uses centimeters as units for non-parametric coordinates.

mtllib CroixChateau_Text.mtl
g default
v -1.299197 0.563413 2.600435
v -0.640056 0.479219 1.669638
v -1.532223 0.479219 0.921781
v -2.333622 0.563413 1.733307
v -1.299197 -0.563413 2.600435
v -2.333622 -0.563413 1.733307
v -1.532223 -0.479219 0.921781
v -0.640056 -0.479219 1.669638
v 2.333622 0.563413 -1.733307
v 2.333622 -0.563413 -1.733307
v 1.299197 -0.563413 -2.600435
v 1.299197 0.563413 -2.600435
v 0.390303 -0.451490 -1.374990
v 0.390303 0.451490 -1.374990
v 0.005592 -0.457072 -0.912129
v 0.005592 0.457072 -0.912129
v 1.285743 0.451490 -0.624418
v 1.285743 -0.451490 -0.624418
v -0.007387 0.470067 0.915989
v -0.755668 0.457072 0.000386
v -0.761474 -0.470067 0.005976
v -0.007387 -0.470067 0.915989
v 0.753750 0.457072 -0.004990
v 0.752483 -0.470067 -0.003423
v 2.317428 0.563413 1.754902
v 1.523587 0.479219 0.935949
v 0.624561 0.479219 1.675521
v 1.275018 0.563413 2.612383
v 2.317428 -0.563413 1.754902
v 1.275018 -0.563413 2.612383
v 0.624561 -0.479219 1.675521
v 1.523587 -0.479219 0.935949
v -1.275018 0.563413 -2.612383
v -1.275018 -0.563413 -2.612383
v -2.317428 -0.563413 -1.754902
v -2.317428 0.563413 -1.754902
v -1.279870 -0.451490 -0.636309
v -1.279870 0.451490 -0.636309
v -0.377528 0.451490 -1.378565
v -0.377528 -0.451490 -1.378565
vt 1.000000 0.377438
vt 0.201485 0.196999
vt 0.764475 0.479803
vt 1.000000 0.006475
vt 0.002287 0.000000
vt 0.168252 0.000000
vt 0.323575 0.074718
vt 0.180438 0.074718
vt 0.000000 0.252428
vt 0.831748 0.000000
vt 0.997713 0.000000
vt 0.000000 -0.001722
vt 0.763168 0.099326
vt 0.803925 0.202426
vt 0.674578 0.094372
vt 0.202426 0.196075
vt 0.266257 0.590295
vt 0.619511 0.099326
vt 0.803001 0.201485
vt 0.800917 0.199384
vt 0.498856 0.082839
vt 0.324683 0.082839
vt 0.197076 0.201407
vt 0.500655 0.082839
vt 0.000000 0.348762
vt 0.798593 0.197076
vt 0.765314 0.525136
vt 0.000000 0.007400
vt 0.164119 0.000000
vt 0.000000 0.000000
vt 0.179312 0.074718
vt 0.320863 0.074718
vt 1.000000 0.338586
vt 1.000000 0.000000
vt 0.835881 0.000000
vt 1.000000 0.000925
vt 0.621787 0.099326
vt 0.199384 0.199083
vt 0.259340 0.636380
vt 0.763852 0.099326
vt 0.882810 0.208055
vt 0.751605 0.657925
vt 0.640054 0.659036
vt 0.753469 0.209344
vt 0.411935 0.809042
vt 0.236384 0.214494
vt 0.107042 0.215783
vt 0.299978 0.810157
vt 0.640019 0.707793
vt 0.504625 0.778377
vt 0.503823 0.778385
vt 0.368513 0.779732
vt 0.756690 0.209312
vt 0.642167 0.659015
vt 0.752482 0.657916
vt 0.884593 0.208038
vt 0.299445 0.810162
vt 0.105260 0.215800
vt 0.233163 0.214526
vt 0.410161 0.809059
vt 0.196262 0.214089
vt 0.785912 0.196261
vt 0.738771 0.576009
vt 0.262935 0.802262
vt 0.748076 0.787059
vt 0.755664 0.477311
vt 0.244035 0.480995
vt 0.753091 0.798416
vt 0.258173 0.802515
vt 0.198443 0.200027
vt 0.799973 0.198442
vt 0.741375 0.635111
vt 0.256795 0.801408
vt 0.744790 0.800123
vt 0.802211 0.180484
vt 0.180485 0.197790
vt 0.236496 0.539855
vt 0.768012 0.803644
vt 0.249293 0.818082
vt 0.755578 0.533538
vt 0.243950 0.529722
vt 0.748685 0.802630
vt 0.246828 0.798886
vt 0.810418 0.188452
vt 0.188452 0.189582
vt 0.235453 0.480764
vt 0.760021 0.808505
vt 0.248278 0.811441
vt 0.258941 0.581235
vt 0.740978 0.581476
vt 0.248914 0.800641
vt 0.743849 0.798979
vt 0.257561 0.633300
vt 0.739571 0.638389
vt 0.252840 0.798174
vt 0.740810 0.803325
vt 1.000000 -0.001722
vt 1.000000 0.252428
vt -0.000000 0.000925
vt -0.000000 0.338586
vt -0.000000 0.006475
vt -0.000000 0.377438
vt 1.000000 0.007400
vt 1.000000 0.348762
vn 0.113602 0.595320 0.795417
vn 0.577454 0.707901 0.406723
vn -0.497919 0.708315 -0.500366
vn -0.803025 0.595330 0.027066
vn 0.113602 -0.595320 0.795417
vn -0.803025 -0.595330 0.027066
vn -0.501481 -0.707389 -0.498114
vn 0.577454 -0.707901 0.406723
vn 0.113602 0.595320 0.795417
vn 0.113602 -0.595320 0.795417
vn 0.577454 -0.707901 0.406723
vn 0.577454 0.707901 0.406723
vn 0.801813 0.596505 -0.035754
vn 0.801813 -0.596505 -0.035754
vn -0.104799 -0.596485 -0.795753
vn -0.104799 0.596485 -0.795753
vn -0.104799 0.596485 -0.795753
vn -0.104799 -0.596485 -0.795753
vn -0.573368 -0.703186 -0.420451
vn -0.573368 0.703186 -0.420451
vn -0.803025 0.595330 0.027066
vn -0.803025 -0.595330 0.027066
vn 0.113602 -0.595320 0.795417
vn 0.113602 0.595320 0.795417
vn -0.573368 -0.703186 -0.420451
vn 0.001054 -0.922195 -0.386724
vn 0.001121 0.925218 -0.379434
vn -0.573368 0.703186 -0.420451
vn 0.512137 0.702477 0.494208
vn 0.801813 0.596505 -0.035754
vn -0.104799 0.596485 -0.795753
vn -0.573368 0.703186 -0.420451
vn -0.573368 -0.703186 -0.420451
vn -0.104799 -0.596485 -0.795753
vn 0.801813 -0.596505 -0.035754
vn 0.517215 -0.700887 0.491168
vn 0.517215 -0.700887 0.491168
vn 0.801813 -0.596505 -0.035754
vn 0.801813 0.596505 -0.035754
vn 0.512137 0.702477 0.494208
vn 0.577454 0.707901 0.406723
vn -0.000888 0.928185 0.372118
vn -0.471559 0.881731 -0.013477
vn -0.497919 0.708315 -0.500366
vn -0.501481 -0.707389 -0.498114
vn -0.471204 -0.881812 -0.019380
vn -0.000821 -0.925219 0.379431
vn 0.577454 -0.707901 0.406723
vn 0.577454 -0.707901 0.406723
vn -0.000821 -0.925219 0.379431
vn -0.000888 0.928185 0.372118
vn 0.577454 0.707901 0.406723
vn -0.501481 -0.707389 -0.498114
vn -0.803025 -0.595330 0.027066
vn -0.803025 0.595330 0.027066
vn -0.497919 0.708315 -0.500366
vn -0.471204 -0.881812 -0.019380
vn -0.501481 -0.707389 -0.498114
vn -0.497919 0.708315 -0.500366
vn -0.471559 0.881731 -0.013477
vn 0.472795 0.881153 -0.005836
vn 0.512137 0.702477 0.494208
vn -0.573368 0.703186 -0.420451
vn 0.001121 0.925218 -0.379434
vn 0.001054 -0.922195 -0.386724
vn -0.573368 -0.703186 -0.420451
vn 0.517215 -0.700887 0.491168
vn 0.464621 -0.885466 -0.008761
vn 0.464621 -0.885466 -0.008761
vn 0.517215 -0.700887 0.491168
vn 0.512137 0.702477 0.494208
vn 0.472795 0.881153 -0.005836
vn 0.802712 0.595372 0.034439
vn 0.503351 0.708945 -0.493998
vn -0.579729 0.708494 0.402430
vn -0.121024 0.595409 0.794255
vn 0.802712 -0.595372 0.034439
vn -0.121024 -0.595409 0.794255
vn -0.579729 -0.708494 0.402430
vn 0.506493 -0.707782 -0.492453
vn 0.802712 0.595372 0.034439
vn 0.802712 -0.595372 0.034439
vn 0.506493 -0.707782 -0.492453
vn 0.503351 0.708945 -0.493998
vn 0.112322 0.596525 -0.794696
vn 0.112322 -0.596525 -0.794696
vn -0.801447 -0.596514 -0.043054
vn -0.801447 0.596514 -0.043054
vn -0.801447 0.596514 -0.043054
vn -0.801447 -0.596514 -0.043054
vn -0.524932 -0.703405 0.479237
vn -0.518451 0.703876 0.485558
vn -0.121024 0.595409 0.794255
vn -0.121024 -0.595409 0.794255
vn 0.802712 -0.595372 0.034439
vn 0.802712 0.595372 0.034439
vn -0.524932 -0.703405 0.479237
vn -0.471204 -0.881812 -0.019380
vn -0.471559 0.881731 -0.013477
vn -0.518451 0.703876 0.485558
vn 0.576197 0.703584 -0.415892
vn 0.112322 0.596525 -0.794696
vn -0.801447 0.596514 -0.043054
vn -0.518451 0.703876 0.485558
vn -0.524932 -0.703405 0.479237
vn -0.801447 -0.596514 -0.043054
vn 0.112322 -0.596525 -0.794696
vn 0.576197 -0.703584 -0.415892
vn 0.576197 -0.703584 -0.415892
vn 0.112322 -0.596525 -0.794696
vn 0.112322 0.596525 -0.794696
vn 0.576197 0.703584 -0.415892
vn 0.503351 0.708945 -0.493998
vn 0.472795 0.881153 -0.005836
vn -0.000888 0.928185 0.372118
vn -0.579729 0.708494 0.402430
vn -0.579729 -0.708494 0.402430
vn -0.000821 -0.925219 0.379431
vn 0.464621 -0.885466 -0.008761
vn 0.506493 -0.707782 -0.492453
vn 0.506493 -0.707782 -0.492453
vn 0.464621 -0.885466 -0.008761
vn 0.472795 0.881153 -0.005836
vn 0.503351 0.708945 -0.493998
vn -0.579729 -0.708494 0.402430
vn -0.121024 -0.595409 0.794255
vn -0.121024 0.595409 0.794255
vn -0.579729 0.708494 0.402430
vn -0.000821 -0.925219 0.379431
vn -0.579729 -0.708494 0.402430
vn -0.579729 0.708494 0.402430
vn -0.000888 0.928185 0.372118
vn 0.001121 0.925218 -0.379434
vn 0.576197 0.703584 -0.415892
vn -0.518451 0.703876 0.485558
vn -0.471559 0.881731 -0.013477
vn -0.471204 -0.881812 -0.019380
vn -0.524932 -0.703405 0.479237
vn 0.576197 -0.703584 -0.415892
vn 0.001054 -0.922195 -0.386724
vn 0.001054 -0.922195 -0.386724
vn 0.576197 -0.703584 -0.415892
vn 0.576197 0.703584 -0.415892
vn 0.001121 0.925218 -0.379434
vn 0.001121 0.925218 -0.379434
vn -0.471559 0.881731 -0.013477
vn -0.000888 0.928185 0.372118
vn 0.472795 0.881153 -0.005836
vn 0.001054 -0.922195 -0.386724
vn 0.464621 -0.885466 -0.008761
vn -0.000821 -0.925219 0.379431
vn -0.471204 -0.881812 -0.019380
s off
g CroixChateau:Box001
usemtl EtoileChateau:phong2SG
f 1/41/1 2/42/2 3/43/3 4/44/4
f 5/5/5 6/6/6 7/7/7 8/8/8
f 1/2/9 5/19/10 8/80/11 2/81/12
f 9/9/13 10/12/14 11/97/15 12/98/16
f 12/14/17 11/16/18 13/93/19 14/94/20
f 4/1/21 6/4/22 5/101/23 1/102/24
f 13/93/25 15/95/26 16/96/27 14/94/28
f 17/45/29 9/46/30 12/47/31 14/48/32
f 13/13/33 11/11/34 10/10/35 18/18/36
f 18/17/37 10/61/38 9/62/39 17/63/40
f 2/42/41 19/49/42 20/50/43 3/43/44
f 7/7/45 21/21/46 22/22/47 8/8/48
f 8/80/49 22/82/50 19/83/51 2/81/52
f 7/3/53 6/84/54 4/85/55 3/86/56
f 21/87/57 7/3/58 3/86/59 20/88/60
f 23/51/61 17/45/62 14/48/63 16/52/64
f 15/15/65 13/13/66 18/18/67 24/24/68
f 24/64/69 18/17/70 17/63/71 23/65/72
f 25/53/73 26/54/74 27/55/75 28/56/76
f 29/29/77 30/30/78 31/31/79 32/32/80
f 25/23/81 29/26/82 32/66/83 26/67/84
f 33/33/85 34/36/86 35/99/87 36/100/88
f 36/20/89 35/38/90 37/89/91 38/90/92
f 28/25/93 30/28/94 29/103/95 25/104/96
f 37/89/97 21/91/98 20/92/99 38/90/100
f 39/57/101 33/58/102 36/59/103 38/60/104
f 37/37/105 35/35/106 34/34/107 40/40/108
f 40/39/109 34/70/110 33/71/111 39/72/112
f 26/54/113 23/51/114 19/49/115 27/55/116
f 31/31/117 22/22/118 24/24/119 32/32/120
f 32/66/121 24/68/122 23/69/123 26/67/124
f 31/27/125 30/75/126 28/76/127 27/77/128
f 22/78/129 31/27/130 27/77/131 19/79/132
f 16/52/133 39/57/134 38/60/135 20/50/136
f 21/21/137 37/37/138 40/40/139 15/15/140
f 15/73/141 40/39/142 39/72/143 16/74/144
f 16/52/145 20/50/146 19/49/147 23/51/148
f 15/15/149 24/24/150 22/22/151 21/21/152
