# 3ds Max Wavefront OBJ Exporter v0.97b - (c)2007 guruware
# File Created: 01.06.2020 18:58:49

mtllib monticule_sable.mtl

#
# object monticule
#

v  -10.7911 2.2911 4.4876
v  -8.8973 2.3823 7.4000
v  -5.5677 3.0224 9.2615
v  -4.4487 7.6718 3.7000
v  0.0000 3.3028 10.4865
v  0.0000 9.2657 3.7000
v  5.5677 3.0224 9.2615
v  4.4487 7.6718 3.7000
v  8.8973 2.3823 7.4000
v  10.7911 2.2911 4.4876
v  -10.7911 2.3915 -0.0000
v  -4.4487 8.7465 -0.0000
v  0.0000 10.5648 -0.0000
v  4.4487 8.7465 -0.0000
v  10.7911 2.3915 -0.0000
v  -10.7911 2.2911 -4.4876
v  -4.4487 7.6718 -3.7000
v  0.0000 9.2657 -3.7000
v  4.4487 7.6718 -3.7000
v  10.7911 2.2911 -4.4876
v  -8.8973 2.3823 -7.4000
v  -5.5677 3.0224 -9.2615
v  0.0000 3.4052 -10.3718
v  5.5677 3.0224 -9.2615
v  8.8973 2.3823 -7.4000
# 25 vertices

vn -0.6247 0.7616 0.1721
vn -0.2621 0.9547 0.1405
vn -0.3018 0.7605 0.5750
vn -0.4386 0.8080 0.3934
vn 0.0000 0.7512 0.6600
vn 0.0000 0.8730 0.4878
vn 0.3018 0.7605 0.5750
vn 0.4386 0.8080 0.3934
vn 0.2621 0.9547 0.1405
vn 0.6247 0.7616 0.1721
vn -0.7078 0.7064 -0.0000
vn -0.5383 0.8427 -0.0000
vn 0.0000 1.0000 -0.0000
vn 0.5383 0.8427 -0.0000
vn 0.7078 0.7064 -0.0000
vn -0.6247 0.7616 -0.1721
vn -0.4386 0.8080 -0.3934
vn 0.0000 0.8730 -0.4878
vn 0.4386 0.8080 -0.3934
vn 0.6247 0.7616 -0.1721
vn -0.2621 0.9547 -0.1405
vn -0.3037 0.7602 -0.5744
vn 0.0000 0.7513 -0.6600
vn 0.3037 0.7602 -0.5744
vn 0.2621 0.9547 -0.1405
# 25 vertex normals

vt 0.0000 0.2500 0.0000
vt 0.0000 0.0000 0.0000
vt 0.2500 0.0000 0.0000
vt 0.2500 0.2500 0.0000
vt 0.5000 0.0000 0.0000
vt 0.5000 0.2500 0.0000
vt 0.7500 0.0000 0.0000
vt 0.7500 0.2500 0.0000
vt 1.0000 0.0000 0.0000
vt 1.0000 0.2500 0.0000
vt 0.0000 0.5000 0.0000
vt 0.2500 0.5000 0.0000
vt 0.5000 0.5000 0.0000
vt 0.7500 0.5000 0.0000
vt 1.0000 0.5000 0.0000
vt 0.0000 0.7500 0.0000
vt 0.2500 0.7500 0.0000
vt 0.5000 0.7500 0.0000
vt 0.7500 0.7500 0.0000
vt 1.0000 0.7500 0.0000
vt 0.0000 1.0000 0.0000
vt 0.2500 1.0000 0.0000
vt 0.5000 1.0000 0.0000
vt 0.7500 1.0000 0.0000
vt 1.0000 1.0000 0.0000
# 25 texture coords

o monticule
g monticule
usemtl wire_224086086
s 1
f 1/1/1 2/2/2 3/3/3 4/4/4 
f 4/4/4 3/3/3 5/5/5 6/6/6 
f 6/6/6 5/5/5 7/7/7 8/8/8 
f 8/8/8 7/7/7 9/9/9 10/10/10 
f 11/11/11 1/1/1 4/4/4 12/12/12 
f 12/12/12 4/4/4 6/6/6 13/13/13 
f 13/13/13 6/6/6 8/8/8 14/14/14 
f 14/14/14 8/8/8 10/10/10 15/15/15 
f 16/16/16 11/11/11 12/12/12 17/17/17 
f 17/17/17 12/12/12 13/13/13 18/18/18 
f 18/18/18 13/13/13 14/14/14 19/19/19 
f 19/19/19 14/14/14 15/15/15 20/20/20 
f 21/21/21 16/16/16 17/17/17 22/22/22 
f 22/22/22 17/17/17 18/18/18 23/23/23 
f 23/23/23 18/18/18 19/19/19 24/24/24 
f 24/24/24 19/19/19 20/20/20 25/25/25 
# 16 polygons

