# 3ds Max Wavefront OBJ Exporter v0.97b - (c)2007 guruware
# File Created: 29.02.2020 18:21:49

mtllib panier.mtl

#
# object panier
#

v  34.3088 0.0000 51.6187
v  34.3088 -1.5839 46.9012
v  38.5871 0.0000 46.8114
v  35.3774 3.2128 44.3582
v  31.5652 1.6767 44.4342
v  31.5652 3.2128 48.1154
v  38.5871 22.5140 46.8114
v  34.3088 23.2832 51.6187
v  12.4565 27.3770 52.2973
v  12.4565 40.9156 51.5981
v  5.7960 40.9156 51.5981
v  5.7960 27.3770 52.2973
v  12.0937 27.8540 48.6897
v  12.0937 39.0614 48.5227
v  6.1588 27.8540 48.6897
v  6.1588 39.0614 48.5227
v  12.0937 48.7701 45.1051
v  6.1588 48.7701 45.1051
v  6.1588 52.0248 35.6703
v  12.0937 52.0248 35.6703
v  12.4565 52.2733 47.7194
v  12.4565 56.4186 35.6703
v  5.7960 56.4186 35.6703
v  5.7960 52.2733 47.7194
v  12.4565 0.0000 52.2973
v  12.4565 -1.5839 47.3790
v  31.5652 24.1009 48.1154
v  12.0937 3.2128 48.6897
v  35.3774 23.3956 44.3582
v  12.0937 1.6767 44.8386
v  -16.0563 0.0000 51.6187
v  -20.3346 0.0000 46.8114
v  -16.0563 -1.5839 46.9012
v  -17.1248 3.2128 44.3582
v  -13.3127 3.2128 48.1154
v  -13.3127 1.6767 44.4342
v  -16.0563 23.2832 51.6187
v  -20.3346 22.5140 46.8114
v  6.1588 3.2128 48.6897
v  6.1588 1.6767 44.8386
v  5.7960 0.0000 52.2973
v  5.7960 -1.5839 47.3790
v  -13.3127 24.1009 48.1154
v  -20.3346 0.0000 24.5292
v  -16.0563 -1.5839 24.4394
v  -13.3127 1.6767 26.9064
v  -17.1248 3.2128 26.9824
v  -17.1248 23.3956 44.3582
v  12.0937 1.6767 26.5020
v  6.1588 1.6767 26.5020
v  5.7960 -1.5839 23.9615
v  38.5871 0.0000 24.5292
v  38.5871 22.5140 24.5292
v  35.3774 23.3956 26.9824
v  31.5652 1.6767 26.9064
v  -20.3346 22.5140 24.5292
v  -17.1248 23.3956 26.9824
v  34.3088 0.0000 19.7219
v  34.3088 -1.5839 24.4394
v  35.3774 3.2128 26.9824
v  31.5652 3.2128 23.2252
v  34.3088 23.2832 19.7219
v  5.7960 27.3770 19.0433
v  5.7960 40.9156 19.7425
v  12.4565 40.9156 19.7425
v  12.4565 27.3770 19.0433
v  12.0937 39.0614 22.8179
v  12.0937 27.8540 22.6509
v  6.1588 39.0614 22.8179
v  6.1588 27.8540 22.6509
v  12.0937 48.7701 26.2355
v  6.1588 48.7701 26.2355
v  12.4565 52.2733 23.6211
v  5.7960 52.2733 23.6211
v  12.4565 -1.5839 23.9615
v  12.4565 0.0000 19.0433
v  31.5652 24.1009 23.2252
v  12.0937 3.2128 22.6509
v  -16.0563 0.0000 19.7219
v  -13.3127 3.2128 23.2252
v  -16.0563 23.2832 19.7219
v  6.1588 3.2128 22.6509
v  5.7960 0.0000 19.0433
v  -13.3127 24.1009 23.2252
v  9.6449 29.2235 22.6296
v  9.6449 29.2235 48.7110
v  31.8883 25.3392 48.1154
v  31.8883 25.3392 23.2252
v  -14.1787 40.6033 44.3582
v  -10.7133 38.9873 48.1154
v  -10.7133 38.9873 23.2252
v  -14.1787 40.6033 26.9824
v  35.6436 24.6770 44.3582
v  35.6436 24.6770 26.9824
v  31.5077 23.1724 48.1154
v  8.9737 27.1284 48.7110
v  8.9737 27.1284 22.6296
v  31.5077 23.1724 23.2252
v  -11.6566 36.9998 23.2252
v  -11.6566 36.9998 48.1154
v  -15.1085 38.6094 44.3582
v  -15.1085 38.6094 26.9824
v  35.2616 22.5105 26.9824
v  35.2616 22.5105 44.3582
# 104 vertices

vn 0.3497 -0.5161 0.7819
vn 0.1745 -0.9722 0.1560
vn 0.8074 -0.5116 0.2939
vn -0.8066 0.4963 -0.3211
vn -0.1866 0.9641 -0.1887
vn -0.3282 0.4946 -0.8048
vn 0.7935 0.5417 0.2774
vn 0.4077 0.5686 0.7145
vn 0.3353 0.3280 0.8832
vn 0.7123 0.1308 0.6896
vn -0.7123 0.1308 0.6896
vn -0.3353 0.3280 0.8832
vn 0.3799 0.2757 -0.8830
vn 0.7033 -0.1216 -0.7004
vn -0.3799 0.2757 -0.8830
vn -0.7033 -0.1216 -0.7004
vn 0.7854 -0.4360 -0.4395
vn -0.7854 -0.4360 -0.4395
vn -0.7558 -0.6548 0.0000
vn 0.7558 -0.6548 0.0000
vn 0.6450 0.5386 0.5420
vn 0.6663 0.7457 -0.0000
vn -0.6663 0.7457 -0.0000
vn -0.6450 0.5386 0.5420
vn 0.0125 -0.5861 0.8102
vn 0.0017 -0.9877 0.1562
vn -0.0571 0.8302 -0.5546
vn -0.0122 0.5586 -0.8294
vn -0.4094 0.8751 -0.2583
vn -0.0020 0.9818 -0.1898
vn -0.3497 -0.5161 0.7819
vn -0.8074 -0.5116 0.2939
vn -0.1745 -0.9722 0.1560
vn 0.8066 0.4963 -0.3211
vn 0.3282 0.4946 -0.8048
vn 0.1866 0.9641 -0.1887
vn -0.4077 0.5686 0.7145
vn -0.7935 0.5417 0.2774
vn 0.0122 0.5586 -0.8294
vn 0.0020 0.9818 -0.1898
vn -0.0125 -0.5861 0.8102
vn -0.0017 -0.9877 0.1562
vn 0.0571 0.8302 -0.5546
vn -0.8074 -0.5116 -0.2939
vn -0.1745 -0.9722 -0.1560
vn 0.1866 0.9641 0.1887
vn 0.8066 0.4963 0.3211
vn 0.4094 0.8751 -0.2583
vn -0.0020 0.9818 0.1898
vn 0.0020 0.9818 0.1898
vn -0.0017 -0.9877 -0.1562
vn 0.8074 -0.5116 -0.2939
vn 0.7935 0.5417 -0.2774
vn -0.4094 0.8751 0.2583
vn -0.1866 0.9641 0.1887
vn -0.7935 0.5417 -0.2774
vn 0.4094 0.8751 0.2583
vn 0.3497 -0.5161 -0.7819
vn 0.1745 -0.9722 -0.1560
vn -0.8066 0.4963 0.3211
vn -0.3282 0.4946 0.8048
vn 0.4077 0.5686 -0.7145
vn -0.3353 0.3280 -0.8832
vn -0.7123 0.1308 -0.6896
vn 0.7123 0.1308 -0.6896
vn 0.3353 0.3280 -0.8832
vn 0.7033 -0.1216 0.7004
vn 0.3799 0.2757 0.8830
vn -0.7033 -0.1216 0.7004
vn -0.3799 0.2757 0.8830
vn 0.7854 -0.4360 0.4395
vn -0.7854 -0.4360 0.4395
vn 0.6450 0.5386 -0.5420
vn -0.6450 0.5386 -0.5420
vn 0.0017 -0.9877 -0.1562
vn 0.0125 -0.5861 -0.8102
vn -0.0571 0.8302 0.5546
vn -0.0122 0.5586 0.8294
vn -0.3497 -0.5161 -0.7819
vn 0.3282 0.4946 0.8048
vn -0.4077 0.5686 -0.7145
vn 0.0122 0.5586 0.8294
vn -0.0125 -0.5861 -0.8102
vn 0.0571 0.8302 0.5546
vn 0.2036 0.6355 -0.7447
vn 0.2036 0.6355 0.7447
vn 0.4077 0.5714 0.7122
vn 0.4077 0.5714 -0.7122
vn -0.3833 0.8734 0.3005
vn -0.0007 0.7025 0.7117
vn -0.0007 0.7025 -0.7117
vn -0.3833 0.8734 -0.3005
vn 0.8150 0.4957 0.2999
vn 0.8150 0.4957 -0.2999
vn 0.1889 -0.6758 0.7124
vn -0.2226 -0.6949 0.6838
vn -0.2226 -0.6949 -0.6838
vn 0.1889 -0.6758 -0.7124
vn -0.5452 -0.4409 -0.7130
vn -0.5452 -0.4409 0.7130
vn -0.9156 -0.2679 0.2997
vn -0.9156 -0.2679 -0.2997
vn 0.5964 -0.7446 -0.2999
vn 0.5964 -0.7446 0.2999
# 104 vertex normals

vt 0.9152 0.0184 0.0000
vt 0.9152 0.0185 0.0000
vt 0.9856 0.0184 0.0000
vt 0.9328 0.0271 0.0000
vt 0.8701 0.0301 0.0000
vt 0.8701 0.0271 0.0000
vt 0.9856 0.5536 0.0000
vt 0.9152 0.5665 0.0000
vt 0.5558 0.6353 0.0000
vt 0.5558 0.7331 0.0000
vt 0.4463 0.7331 0.0000
vt 0.4463 0.6353 0.0000
vt 0.5498 0.3258 0.0000
vt 0.5498 0.3560 0.0000
vt 0.4522 0.3258 0.0000
vt 0.4522 0.3560 0.0000
vt 0.5498 0.5192 0.0000
vt 0.4522 0.5192 0.0000
vt 0.4522 0.5740 0.0000
vt 0.5498 0.5740 0.0000
vt 0.5558 0.9241 0.0000
vt 0.5558 0.9650 0.0000
vt 0.4463 0.9650 0.0000
vt 0.4463 0.9241 0.0000
vt 0.5558 0.0184 0.0000
vt 0.5558 0.0185 0.0000
vt 0.8701 0.2627 0.0000
vt 0.5498 0.0271 0.0000
vt 0.9328 0.2508 0.0000
vt 0.5498 0.0301 0.0000
vt 0.0869 0.0184 0.0000
vt 0.0165 0.0184 0.0000
vt 0.0869 0.0185 0.0000
vt 0.0693 0.0271 0.0000
vt 0.1320 0.0271 0.0000
vt 0.1320 0.0301 0.0000
vt 0.0869 0.5665 0.0000
vt 0.0165 0.5536 0.0000
vt 0.4522 0.0271 0.0000
vt 0.4522 0.0301 0.0000
vt 0.4463 0.0184 0.0000
vt 0.4463 0.0185 0.0000
vt 0.1320 0.2627 0.0000
vt 0.0693 0.2508 0.0000
vt 0.5233 0.6213 0.0000
vt 0.5233 0.4817 0.0000
vt 0.8754 0.4712 0.0000
vt 0.8754 0.6108 0.0000
vt 0.0873 0.4850 0.0000
vt 0.1504 0.4851 0.0000
vt 0.1504 0.6247 0.0000
vt 0.0873 0.6246 0.0000
vt 0.9372 0.4601 0.0000
vt 0.9372 0.5997 0.0000
vt 0.8691 0.0123 0.0000
vt 0.5286 0.0227 0.0000
vt 0.5286 0.4452 0.0000
vt 0.8691 0.4348 0.0000
vt 0.1509 0.4483 0.0000
vt 0.1509 0.0258 0.0000
vt 0.0880 0.0257 0.0000
vt 0.0880 0.4482 0.0000
vt 0.9309 0.4237 0.0000
vt 0.9309 0.0012 0.0000
# 64 texture coords

o panier
g panier
usemtl Material__10
s 2
f 1/1/1 2/2/2 3/3/3 
s 132098
f 4/4/4 5/5/5 6/6/6 
s 72
f 3/3/3 7/7/7 8/8/8 1/1/1 
s 32
f 9/9/9 10/10/10 11/11/11 12/12/12 
s 128
f 9/9/9 13/13/13 14/14/14 10/10/10 
s 32
f 13/13/13 15/15/15 16/16/16 14/14/14 
s 41
f 17/17/17 18/18/18 19/19/19 20/20/20 
s 22
f 21/21/21 17/17/17 20/20/20 22/22/22 
s 41
f 21/21/21 22/22/22 23/23/23 24/24/24 
s 2
f 1/1/1 25/25/25 26/26/26 2/2/2 
s 8
f 8/8/8 9/9/9 25/25/25 1/1/1 
s 256
f 27/27/27 13/13/13 9/9/9 8/8/8 
s 8713
f 6/6/6 28/28/28 13/13/13 27/27/27 
s 276
f 29/29/29 27/27/27 8/8/8 7/7/7 
s 2120
f 4/4/4 6/6/6 27/27/27 29/29/29 
s 1456
f 30/30/30 28/28/28 6/6/6 5/5/5 
s 144
f 14/14/14 17/17/17 21/21/21 10/10/10 
s 32
f 16/16/16 18/18/18 17/17/17 14/14/14 
s 2
f 31/31/31 32/32/32 33/33/33 
s 16529
f 34/34/34 35/35/35 36/36/36 
s 72
f 32/32/32 31/31/31 37/37/37 38/38/38 
s 38944
f 39/39/39 28/28/28 30/30/30 40/40/40 
s 8
f 41/41/41 25/25/25 9/9/9 12/12/12 
s 24640
f 15/15/15 13/13/13 28/28/28 39/39/39 
s 256
f 12/12/12 11/11/11 16/16/16 15/15/15 
s 22
f 24/24/24 23/23/23 19/19/19 18/18/18 
s 2
f 31/31/31 33/33/33 42/42/42 41/41/41 
s 8
f 37/37/37 31/31/31 41/41/41 12/12/12 
s 4
f 43/43/43 37/37/37 12/12/12 15/15/15 
s 72
f 35/35/35 43/43/43 15/15/15 39/39/39 
s 2
f 33/33/33 32/32/32 44/32/44 45/33/45 
s 540736
f 34/34/34 36/36/36 46/36/46 47/34/47 
s 133
f 48/44/48 38/38/38 37/37/37 43/43/43 
s 1576
f 34/34/34 48/44/48 43/43/43 35/35/35 
s 2
f 42/42/42 26/26/26 25/25/25 41/41/41 
s 2564
f 40/40/40 30/30/30 49/30/49 50/40/50 
s 2
f 42/42/42 33/33/33 45/33/45 51/42/51 
s 32898
f 40/40/40 36/36/36 35/35/35 39/39/39 
s 32
f 11/11/11 10/10/10 21/21/21 24/24/24 
s 272
f 16/16/16 11/11/11 24/24/24 18/18/18 
s 64
f 7/7/7 3/3/3 52/3/52 53/7/53 
s 144
f 29/29/29 7/7/7 53/7/53 54/29/54 
s 65860
f 30/30/30 5/5/5 55/5/55 49/30/49 
s 64
f 32/32/32 38/38/38 56/38/56 44/32/44 
s 17
f 38/38/38 48/44/48 57/44/57 56/38/56 
s 34
f 48/44/48 34/34/34 47/34/47 57/44/57 
s 2
f 58/1/58 52/3/52 59/2/59 
s 41488
f 60/4/60 61/6/61 55/5/55 
s 72
f 52/3/52 58/1/58 62/8/62 53/7/53 
s 32
f 63/12/63 64/11/64 65/10/65 66/9/66 
s 128
f 66/9/66 65/10/65 67/14/67 68/13/68 
s 32
f 68/13/68 67/14/67 69/16/69 70/15/70 
s 41
f 71/17/71 20/20/20 19/19/19 72/18/72 
s 22
f 73/21/73 22/22/22 20/20/20 71/17/71 
s 41
f 74/24/74 23/23/23 22/22/22 73/21/73 
s 2
f 58/1/58 59/2/59 75/26/75 76/25/76 
s 8
f 62/8/62 58/1/58 76/25/76 66/9/66 
s 2
f 77/27/77 62/8/62 66/9/66 68/13/68 
s 9
f 61/6/61 77/27/77 68/13/68 78/28/78 
s 2
f 59/2/59 52/3/52 3/3/3 2/2/2 
s 229376
f 60/4/60 55/5/55 5/5/5 4/4/4 
s 134
f 54/29/54 53/7/53 62/8/62 77/27/77 
s 4392
f 60/4/60 54/29/54 77/27/77 61/6/61 
s 2
f 75/26/75 59/2/59 2/2/2 26/26/26 
s 24640
f 49/30/49 55/5/55 61/6/61 78/28/78 
s 144
f 67/14/67 65/10/65 73/21/73 71/17/71 
s 32
f 67/14/67 71/17/71 72/18/72 69/16/69 
s 2
f 79/31/79 45/33/45 44/32/44 
s 594176
f 47/34/47 46/36/46 80/35/80 
s 72
f 44/32/44 56/38/56 81/37/81 79/31/79 
s 49824
f 82/39/82 50/40/50 49/30/49 78/28/78 
s 8
f 83/41/83 63/12/63 66/9/66 76/25/76 
s 265217
f 70/15/70 82/39/82 78/28/78 68/13/68 
s 128
f 63/12/63 70/15/70 69/16/69 64/11/64 
s 22
f 74/24/74 72/18/72 19/19/19 23/23/23 
s 2
f 79/31/79 83/41/83 51/42/51 45/33/45 
s 8
f 81/37/81 63/12/63 83/41/83 79/31/79 
s 256
f 84/43/84 70/15/70 63/12/63 81/37/81 
s 262152
f 80/35/80 82/39/82 70/15/70 84/43/84 
s 276
f 57/44/57 84/43/84 81/37/81 56/38/56 
s 10250
f 47/34/47 80/35/80 84/43/84 57/44/57 
s 2
f 51/42/51 83/41/83 76/25/76 75/26/75 
s 229376
f 50/40/50 82/39/82 80/35/80 46/36/46 
s 32
f 64/11/64 74/24/74 73/21/73 65/10/65 
s 144
f 69/16/69 72/18/72 74/24/74 64/11/64 
s 96
f 4/4/4 29/29/29 54/29/54 60/4/60 
s 2
f 26/26/26 42/42/42 51/42/51 75/26/75 
s 131142
f 36/36/36 40/40/40 50/40/50 46/36/46 
s 4
f 85/45/85 86/46/86 87/47/87 88/48/88 
f 89/49/89 90/50/90 91/51/91 92/52/92 
f 90/50/90 86/46/86 85/45/85 91/51/91 
f 93/53/93 94/54/94 88/48/88 87/47/87 
f 95/55/95 96/56/96 97/57/97 98/58/98 
f 99/59/99 100/60/100 101/61/101 102/62/102 
f 97/57/97 96/56/96 100/60/100 99/59/99 
f 98/58/98 103/63/103 104/64/104 95/55/95 
s 1
f 87/47/87 86/46/86 96/56/96 95/55/95 
f 85/45/85 88/48/88 98/58/98 97/57/97 
f 90/50/90 89/49/89 101/61/101 100/60/100 
f 92/52/92 91/51/91 99/59/99 102/62/102 
s 2
f 89/49/89 92/52/92 102/62/102 101/61/101 
s 1
f 86/46/86 90/50/90 100/60/100 96/56/96 
f 91/51/91 85/45/85 97/57/97 99/59/99 
s 2
f 94/54/94 93/53/93 104/64/104 103/63/103 
s 1
f 88/48/88 94/54/94 103/63/103 98/58/98 
f 93/53/93 87/47/87 95/55/95 104/64/104 
# 98 polygons - 8 triangles

