# 3ds Max Wavefront OBJ Exporter v0.97b - (c)2007 guruware
# File Created: 29.02.2020 18:22:45

mtllib tongD.mtl

#
# object tongD
#

v  82.3417 0.0000 15.6286
v  84.0812 0.0000 16.8158
v  82.8949 -0.3410 11.4577
v  80.6861 0.0000 11.4577
v  83.1366 -0.3673 6.2374
v  80.9508 0.0000 5.9919
v  81.1981 0.0000 0.5331
v  83.3498 -0.3415 1.0199
v  82.4401 -0.3322 -4.0917
v  79.7786 0.0000 -2.9435
v  79.2801 0.0000 -7.0433
v  81.8678 0.0199 -9.1476
v  83.8511 0.0000 -13.7779
v  81.5372 0.0000 -12.1556
v  86.1830 0.0000 16.9838
v  88.4671 0.0000 16.6495
v  89.1784 -0.3879 11.4577
v  86.0407 -0.4229 11.4577
v  89.3381 -0.4145 6.9331
v  86.2497 -0.4646 6.5868
v  86.4143 -0.4229 1.7133
v  89.4709 -0.3883 2.4048
v  90.0138 -0.3270 -2.7920
v  86.0844 -0.5980 -4.6529
v  86.0337 -0.4229 -10.9625
v  90.4266 -0.0753 -7.9715
v  89.1154 0.0000 -13.0520
v  86.5039 0.0000 -14.1644
v  84.0812 -1.9595 16.8158
v  86.1830 -1.9595 16.9838
v  80.6861 -1.9595 11.4577
v  82.3417 -1.9595 15.6286
v  91.3952 0.0000 11.4577
v  90.2383 0.0000 15.4147
v  90.2383 -1.9595 15.4147
v  91.3952 -1.9595 11.4577
v  80.9508 -1.9595 5.9919
v  91.6305 0.0000 2.8934
v  91.5205 0.0000 7.1777
v  91.5205 -1.9595 7.1777
v  91.6305 -1.9595 2.8934
v  79.7786 -1.9595 -2.9435
v  81.1981 -1.9595 0.5331
v  93.2726 0.0000 -4.3065
v  92.6489 0.0000 -0.7318
v  92.6489 -1.9595 -0.7318
v  93.2726 -1.9595 -4.3065
v  81.5372 -1.9595 -12.1556
v  79.2801 -1.9595 -7.0433
v  89.1154 -1.9595 -13.0520
v  86.5039 -1.9595 -14.1644
v  90.9530 0.0000 -11.5907
v  90.9530 -1.9595 -11.5907
v  83.8511 -1.9595 -13.7779
v  88.4671 -1.9595 16.6495
v  89.1814 -1.9595 11.4577
v  86.0407 -1.9595 11.4577
v  82.8949 -1.9595 11.4577
v  89.3118 -1.9595 6.9338
v  89.4738 -1.9595 2.4055
v  86.4143 -1.9595 1.7133
v  86.1788 -1.9595 6.5853
v  83.1072 -1.9595 6.2379
v  83.3498 -1.9595 1.0199
v  90.1093 -1.9595 -1.0553
v  90.4874 -1.9595 -4.4934
v  86.5513 -1.9595 -4.8766
v  86.5176 -1.9595 -1.5814
v  82.5522 -1.9595 -2.3450
v  81.9935 -1.9595 -5.6540
v  83.5990 -0.8582 6.6521
v  81.7387 0.6145 3.7151
v  80.9437 1.2594 4.2301
v  83.0510 -0.2668 7.4463
v  80.4588 0.7288 3.3458
v  81.8950 -0.1186 6.0010
v  80.8383 2.1567 0.6542
v  80.9061 2.4569 -1.3036
v  79.9480 3.2006 -1.4067
v  79.8790 2.8579 0.8783
v  79.8117 1.9776 -1.5160
v  79.7311 1.6909 0.6578
v  81.5551 2.3539 -3.3003
v  82.5708 1.9946 -5.3127
v  81.8048 2.6959 -5.9249
v  80.7088 3.0894 -3.7368
v  81.5589 1.5349 -5.7621
v  80.5132 1.9094 -3.6877
v  83.9028 1.2800 -7.1147
v  84.9216 0.5802 -8.4034
v  84.8834 0.8606 -9.9127
v  83.2535 1.9273 -7.8839
v  84.8549 -0.4714 -10.0770
v  82.9323 0.8042 -7.6248
v  86.1331 1.2967 -7.0697
v  86.7493 1.9165 -7.8862
v  87.0417 0.7804 -7.6497
v  87.7570 1.9610 -5.2024
v  88.4685 2.6154 -5.9038
v  88.6782 1.4515 -5.7631
v  89.2584 2.3485 -3.1716
v  90.3632 2.4840 -1.1990
v  91.3445 3.1739 -1.5117
v  90.0592 3.0286 -3.7518
v  91.3695 1.9441 -1.6255
v  90.1929 1.8394 -3.7171
v  90.9698 2.1297 0.8807
v  90.8780 0.9827 3.2906
v  91.5688 1.3036 4.0427
v  91.9909 2.7761 0.8488
v  91.9255 0.7593 2.9688
v  92.0137 1.6026 0.6119
v  90.2065 -0.1339 5.9060
v  90.2150 -0.1383 7.4727
v  91.3105 -0.0535 5.5213
# 115 vertices

vn -0.5954 0.6468 0.4765
vn -0.2486 0.6759 0.6938
vn 0.0945 0.9946 -0.0427
vn -0.6926 0.7118 0.1172
vn 0.0981 0.9952 0.0042
vn -0.6450 0.7636 -0.0302
vn -0.5672 0.8188 0.0886
vn 0.0877 0.9961 -0.0016
vn 0.1055 0.9941 0.0235
vn -0.6755 0.7164 0.1746
vn -0.7522 0.6495 -0.1111
vn 0.0536 0.9982 0.0276
vn -0.2780 0.6569 -0.7008
vn -0.5864 0.6514 -0.4815
vn 0.0232 0.7082 0.7056
vn 0.2714 0.6852 0.6759
vn -0.0943 0.9944 -0.0482
vn 0.0078 0.9991 -0.0424
vn -0.1015 0.9948 -0.0033
vn 0.0074 1.0000 0.0003
vn 0.0093 0.9999 -0.0096
vn -0.0930 0.9957 0.0022
vn -0.1099 0.9937 0.0214
vn 0.0007 1.0000 0.0051
vn 0.0158 0.9952 0.0968
vn -0.0866 0.9956 0.0371
vn 0.3737 0.6846 -0.6258
vn 0.0927 0.6918 -0.7161
vn -0.2519 -0.6536 0.7136
vn 0.0239 -0.6827 0.7303
vn -0.7390 -0.6624 0.1229
vn -0.5954 -0.6468 0.4765
vn 0.6678 0.7366 0.1071
vn 0.6243 0.6394 0.4487
vn 0.6243 -0.6394 0.4487
vn 0.7246 -0.6796 0.1146
vn -0.7060 -0.7075 -0.0331
vn 0.5978 0.7965 0.0911
vn 0.6382 0.7697 0.0175
vn 0.7073 -0.7067 0.0194
vn 0.6693 -0.7361 0.1010
vn -0.7111 -0.6784 0.1848
vn -0.6418 -0.7588 0.1110
vn 0.7449 0.6652 -0.0526
vn 0.6645 0.7322 0.1498
vn 0.7003 -0.6959 0.1590
vn 0.7520 -0.6572 -0.0510
vn -0.5864 -0.6514 -0.4815
vn -0.7500 -0.6520 -0.1113
vn 0.3761 -0.6781 -0.6314
vn 0.0977 -0.6510 -0.7527
vn 0.6277 0.6471 -0.4328
vn 0.6277 -0.6471 -0.4328
vn -0.2778 -0.6586 -0.6994
vn 0.2770 -0.6589 0.6994
vn -0.0000 -1.0000 -0.0000
vn 0.0000 -1.0000 0.0000
vn -0.0000 -1.0000 0.0000
vn 0.7997 0.5553 -0.2281
vn 0.8503 -0.1806 -0.4943
vn -0.2934 0.7589 0.5813
vn 0.5396 0.8407 0.0454
vn -0.7827 -0.6203 0.0502
vn -0.8889 -0.1357 0.4375
vn 0.9926 -0.0201 -0.1195
vn 0.9825 -0.0755 0.1705
vn -0.4276 0.9036 -0.0255
vn -0.4151 0.8575 0.3041
vn -0.6497 -0.7440 -0.1559
vn -0.6798 -0.7272 -0.0951
vn 0.9143 -0.1139 0.3887
vn 0.8410 -0.0671 0.5369
vn -0.2558 0.8797 -0.4009
vn -0.3335 0.9121 -0.2384
vn -0.6358 -0.7499 -0.1828
vn -0.6360 -0.7497 -0.1829
vn 0.7813 -0.0538 0.6219
vn 0.0226 -0.2477 0.9686
vn -0.0134 0.5643 -0.8255
vn -0.1512 0.8500 -0.5046
vn -0.0322 -0.7563 -0.6534
vn -0.6334 -0.7619 -0.1355
vn -0.7433 -0.0190 0.6687
vn 0.1520 0.8498 -0.5048
vn 0.5901 -0.7870 -0.1801
vn -0.7749 -0.0338 0.6311
vn 0.2358 0.8747 -0.4233
vn 0.5592 -0.7949 -0.2356
vn -0.8356 -0.0571 0.5464
vn -0.9217 -0.0055 0.3880
vn 0.4555 0.8797 -0.1368
vn 0.3215 0.8909 -0.3209
vn 0.5526 -0.7852 -0.2794
vn 0.5490 -0.7932 -0.2636
vn -0.9887 0.0322 0.1461
vn -0.9734 -0.1387 -0.1824
vn 0.4236 0.7632 0.4880
vn 0.5311 0.8228 0.2021
vn 0.7307 -0.6618 -0.1678
vn 0.5942 -0.7604 -0.2622
vn -0.9658 0.2029 -0.1613
vn -0.1668 0.9307 0.3254
vn 0.9744 -0.0485 0.2193
# 103 vertex normals

vt 0.1796 0.9798 0.0000
vt 0.2603 0.9798 0.0000
vt 0.2052 0.6842 0.0000
vt 0.1027 0.9798 0.0000
vt 0.2164 0.4900 0.0000
vt 0.1150 0.9798 0.0000
vt 0.1265 0.9798 0.0000
vt 0.2263 0.5025 0.0000
vt 0.1841 0.5071 0.0000
vt 0.0606 0.9798 0.0000
vt 0.0375 0.9798 0.0000
vt 0.1576 0.7772 0.0000
vt 0.2496 0.9798 0.0000
vt 0.1422 0.9798 0.0000
vt 0.3578 0.9798 0.0000
vt 0.4638 0.9798 0.0000
vt 0.4968 0.6510 0.0000
vt 0.3512 0.4217 0.0000
vt 0.5042 0.4856 0.0000
vt 0.3609 0.4056 0.0000
vt 0.3685 0.4259 0.0000
vt 0.5104 0.4983 0.0000
vt 0.5356 0.5281 0.0000
vt 0.3532 0.3407 0.0000
vt 0.3509 0.4258 0.0000
vt 0.5547 0.6506 0.0000
vt 0.4939 0.9798 0.0000
vt 0.3727 0.9798 0.0000
vt 0.2603 0.1072 0.0000
vt 0.3578 0.1072 0.0000
vt 0.1027 0.1072 0.0000
vt 0.1796 0.1072 0.0000
vt 0.5996 0.9798 0.0000
vt 0.5460 0.9798 0.0000
vt 0.5460 0.1072 0.0000
vt 0.5996 0.1072 0.0000
vt 0.1150 0.1072 0.0000
vt 0.6106 0.9798 0.0000
vt 0.6055 0.9798 0.0000
vt 0.6055 0.1072 0.0000
vt 0.6106 0.1072 0.0000
vt 0.0606 0.1072 0.0000
vt 0.1265 0.1072 0.0000
vt 0.6868 0.9798 0.0000
vt 0.6578 0.9798 0.0000
vt 0.6578 0.1072 0.0000
vt 0.6868 0.1072 0.0000
vt 0.1422 0.1072 0.0000
vt 0.0375 0.1072 0.0000
vt 0.4939 0.1072 0.0000
vt 0.3727 0.1072 0.0000
vt 0.5791 0.9798 0.0000
vt 0.5791 0.1072 0.0000
vt 0.2496 0.1072 0.0000
vt 0.4638 0.1072 0.0000
vt 0.4969 0.0433 0.0000
vt 0.3512 0.0268 0.0000
vt 0.2052 0.0412 0.0000
vt 0.5030 0.0433 0.0000
vt 0.5105 0.0433 0.0000
vt 0.3685 0.0268 0.0000
vt 0.3576 0.0268 0.0000
vt 0.2151 0.0412 0.0000
vt 0.2263 0.0412 0.0000
vt 0.5400 0.0433 0.0000
vt 0.5575 0.0433 0.0000
vt 0.3749 0.0268 0.0000
vt 0.3733 0.0268 0.0000
vt 0.1893 0.0412 0.0000
vt 0.1634 0.0412 0.0000
vt 0.8377 0.0792 0.0000
vt 0.8072 0.1925 0.0000
vt 0.7941 0.1646 0.0000
vt 0.8287 0.0363 0.0000
vt 0.7862 0.2125 0.0000
vt 0.8098 0.1144 0.0000
vt 0.8239 0.2499 0.0000
vt 0.8246 0.3006 0.0000
vt 0.8141 0.3033 0.0000
vt 0.8134 0.2440 0.0000
vt 0.8126 0.3061 0.0000
vt 0.8117 0.2498 0.0000
vt 0.8317 0.3524 0.0000
vt 0.8429 0.6002 0.0000
vt 0.8345 0.6161 0.0000
vt 0.8225 0.3637 0.0000
vt 0.8318 0.6118 0.0000
vt 0.8203 0.3625 0.0000
vt 0.8575 0.6469 0.0000
vt 0.8595 0.8934 0.0000
vt 0.8588 0.9750 0.0000
vt 0.8321 0.8653 0.0000
vt 0.8584 0.9839 0.0000
vt 0.8268 0.8513 0.0000
vt 0.8819 0.6457 0.0000
vt 0.8895 0.8654 0.0000
vt 0.8943 0.8527 0.0000
vt 0.8997 0.5973 0.0000
vt 0.9075 0.6155 0.0000
vt 0.9098 0.6119 0.0000
vt 0.9162 0.3491 0.0000
vt 0.9283 0.2979 0.0000
vt 0.9391 0.3060 0.0000
vt 0.9250 0.3641 0.0000
vt 0.9394 0.3090 0.0000
vt 0.9265 0.3632 0.0000
vt 0.9350 0.2440 0.0000
vt 0.9572 0.2155 0.0000
vt 0.9686 0.1748 0.0000
vt 0.9462 0.2448 0.0000
vt 0.9744 0.2329 0.0000
vt 0.9464 0.2510 0.0000
vt 0.9462 0.1196 0.0000
vt 0.9464 0.0348 0.0000
vt 0.9643 0.1404 0.0000
# 115 texture coords

o tongD
g tongD
usemtl Material__3
s 1
f 1/1/1 2/2/2 3/3/3 4/4/4 
f 4/4/4 3/3/3 5/5/5 6/6/6 
f 7/7/7 8/8/8 9/9/9 10/10/10 
f 11/11/11 12/12/12 13/13/13 14/14/14 
f 15/15/15 16/16/16 17/17/17 18/18/18 
f 18/18/18 17/17/17 19/19/19 20/20/20 
f 21/21/21 22/22/22 23/23/23 24/24/24 
f 25/25/25 26/26/26 27/27/27 28/28/28 
s 12
f 15/15/15 2/2/2 29/29/29 30/30/30 
s 6
f 1/1/1 4/4/4 31/31/31 32/32/32 
f 33/33/33 34/34/34 35/35/35 36/36/36 
s 20
f 4/4/4 6/6/6 37/37/37 31/31/31 
s 18
f 38/38/38 39/39/39 40/40/40 41/41/41 
s 10
f 7/7/7 10/10/10 42/42/42 43/43/43 
s 12
f 44/44/44 45/45/45 46/46/46 47/47/47 
s 6
f 11/11/11 14/14/14 48/48/48 49/49/49 
s 20
f 28/28/28 27/27/27 50/50/50 51/51/51 
s 6
f 52/52/52 44/44/44 47/47/47 53/53/53 
s 10
f 14/14/14 13/13/13 54/54/54 48/48/48 
s 18
f 34/34/34 16/16/16 55/55/55 35/35/35 
s 1
f 36/36/36 35/35/35 55/55/55 56/56/56 
f 57/57/57 30/30/30 29/29/29 58/58/58 
f 41/41/41 40/40/40 59/59/56 60/60/56 
f 61/61/57 62/62/57 63/63/56 64/64/56 
f 47/47/47 46/46/46 65/65/56 66/66/58 
f 67/67/57 68/68/57 69/69/58 70/70/56 
f 53/53/53 47/47/47 66/66/58 50/50/50 
f 51/51/51 67/67/57 70/70/56 54/54/54 
f 24/24/24 25/25/25 12/12/12 9/9/9 
f 45/45/45 44/44/44 26/26/26 23/23/23 
s 12
f 10/10/10 11/11/11 49/49/49 42/42/42 
s 10
f 45/45/45 38/38/38 41/41/41 46/46/46 
s 1
f 46/46/46 41/41/41 60/60/56 65/65/56 
f 68/68/57 61/61/57 64/64/56 69/69/58 
f 20/20/20 21/21/21 8/8/8 5/5/5 
f 39/39/39 38/38/38 22/22/22 19/19/19 
s 18
f 6/6/6 7/7/7 43/43/43 37/37/37 
s 20
f 39/39/39 33/33/33 36/36/36 40/40/40 
s 1
f 40/40/40 36/36/36 56/56/56 59/59/56 
f 62/62/57 57/57/57 58/58/58 63/63/56 
f 2/2/2 15/15/15 18/18/18 3/3/3 
f 3/3/3 18/18/18 20/20/20 5/5/5 
f 8/8/8 21/21/21 24/24/24 9/9/9 
f 12/12/12 25/25/25 28/28/28 13/13/13 
s 10
f 2/2/2 1/1/1 32/32/32 29/29/29 
s 12
f 13/13/13 28/28/28 51/51/51 54/54/54 
s 1
f 29/29/29 32/32/32 31/31/31 58/58/58 
f 63/63/56 37/37/37 43/43/43 64/64/56 
f 69/69/58 42/42/42 49/49/49 70/70/56 
f 70/70/56 49/49/49 48/48/48 54/54/54 
f 12/12/12 11/11/11 10/10/10 9/9/9 
f 64/64/56 43/43/43 42/42/42 69/69/58 
f 8/8/8 7/7/7 6/6/6 5/5/5 
f 58/58/58 31/31/31 37/37/37 63/63/56 
f 16/16/16 34/34/34 33/33/33 17/17/17 
f 17/17/17 33/33/33 39/39/39 19/19/19 
f 22/22/22 38/38/38 45/45/45 23/23/23 
f 26/26/26 44/44/44 52/52/52 27/27/27 
s 18
f 27/27/27 52/52/52 53/53/53 50/50/50 
s 20
f 16/16/16 15/15/15 30/30/30 55/55/55 
s 1
f 55/55/55 30/30/30 57/57/57 56/56/56 
f 59/59/56 62/62/57 61/61/57 60/60/56 
f 65/65/56 68/68/57 67/67/57 66/66/58 
f 66/66/58 67/67/57 51/51/51 50/50/50 
f 26/26/26 25/25/25 24/24/24 23/23/23 
f 60/60/56 61/61/57 68/68/57 65/65/56 
f 22/22/22 21/21/21 20/20/20 19/19/19 
f 56/56/56 57/57/57 62/62/57 59/59/56 
f 71/71/59 72/72/60 73/73/61 74/74/62 
s 2
f 74/74/62 73/73/61 75/75/63 76/76/64 
s 4
f 76/76/64 75/75/63 72/72/60 71/71/59 
s 1
f 77/77/65 78/78/66 79/79/67 80/80/68 
s 2
f 80/80/68 79/79/67 81/81/69 82/82/70 
s 4
f 82/82/70 81/81/69 78/78/66 77/77/65 
s 1
f 83/83/71 84/84/72 85/85/73 86/86/74 
s 2
f 86/86/74 85/85/73 87/87/75 88/88/76 
s 4
f 88/88/76 87/87/75 84/84/72 83/83/71 
s 128
f 89/89/77 90/90/78 91/91/79 92/92/80 
s 8
f 92/92/80 91/91/79 93/93/81 94/94/82 
s 16
f 94/94/82 93/93/81 90/90/78 89/89/77 
s 1
f 90/90/78 95/95/83 96/96/84 91/91/79 
s 2
f 91/91/79 96/96/84 97/97/85 93/93/81 
s 32
f 93/93/81 97/97/85 95/95/83 90/90/78 
s 9
f 95/95/83 98/98/86 99/99/87 96/96/84 
s 18
f 96/96/84 99/99/87 100/100/88 97/97/85 
s 36
f 97/97/85 100/100/88 98/98/86 95/95/83 
s 8
f 101/101/89 102/102/90 103/103/91 104/104/92 
s 16
f 104/104/92 103/103/91 105/105/93 106/106/94 
s 4
f 106/106/94 105/105/93 102/102/90 101/101/89 
s 8
f 107/107/95 108/108/96 109/109/97 110/110/98 
s 16
f 110/110/98 109/109/97 111/111/99 112/112/100 
s 4
f 112/112/100 111/111/99 108/108/96 107/107/95 
s 129
f 84/84/72 89/89/77 92/92/80 85/85/73 
s 10
f 85/85/73 92/92/80 94/94/82 87/87/75 
s 20
f 87/87/75 94/94/82 89/89/77 84/84/72 
s 1
f 78/78/66 83/83/71 86/86/74 79/79/67 
s 2
f 79/79/67 86/86/74 88/88/76 81/81/69 
s 4
f 81/81/69 88/88/76 83/83/71 78/78/66 
s 1
f 72/72/60 77/77/65 80/80/68 73/73/61 
s 2
f 73/73/61 80/80/68 82/82/70 75/75/63 
s 4
f 75/75/63 82/82/70 77/77/65 72/72/60 
s 8
f 108/108/96 113/113/101 114/114/102 109/109/97 
s 16
f 109/109/97 114/114/102 115/115/103 111/111/99 
s 4
f 111/111/99 115/115/103 113/113/101 108/108/96 
s 8
f 102/102/90 107/107/95 110/110/98 103/103/91 
s 16
f 103/103/91 110/110/98 112/112/100 105/105/93 
s 4
f 105/105/93 112/112/100 107/107/95 102/102/90 
s 8
f 98/98/86 101/101/89 104/104/92 99/99/87 
s 16
f 99/99/87 104/104/92 106/106/94 100/100/88 
s 4
f 100/100/88 106/106/94 101/101/89 98/98/86 
# 110 polygons

