# This file uses centimeters as units for non-parametric coordinates.

mtllib parasolText02.mtl
g default
v 11.771989 83.265800 81.553633
v 11.771989 80.653397 80.128833
v 11.059589 80.653397 80.319733
v 10.538089 80.653397 80.841233
v 10.347189 80.653397 81.553633
v 10.538089 80.653397 82.266033
v 11.059589 80.653397 82.787533
v 11.771989 80.653397 82.978333
v 12.484389 80.653397 82.787533
v 13.005889 80.653397 82.266033
v 13.196789 80.653397 81.553633
v 13.005889 80.653397 80.841233
v 12.484389 80.653397 80.319733
v 11.771989 78.032501 63.507432
v 2.748889 78.032501 65.925133
v -3.856412 78.032501 72.530533
v -6.274211 78.032501 81.553633
v -3.856412 78.032501 90.576733
v 2.748889 78.032501 97.182033
v 11.771989 78.032501 99.599832
v 20.795089 78.032501 97.182033
v 27.400489 78.032501 90.576733
v 29.818188 78.032501 81.553633
v 27.400489 78.032501 72.530533
v 20.795089 78.032501 65.925133
v 11.771989 72.161003 53.720933
v 11.771989 63.438499 43.818334
v -7.095611 63.438499 48.873832
v -2.144311 72.161003 57.449832
v -20.907712 63.438499 62.685933
v -12.331811 72.161003 67.637233
v -25.963212 63.438499 81.553633
v -16.060611 72.161003 81.553633
v -20.907712 63.438499 100.421233
v -12.331811 72.161003 95.469933
v -7.095611 63.438499 114.233331
v -2.144311 72.161003 105.657333
v 11.771989 63.438499 119.288831
v 11.771989 72.161003 109.386234
v 30.639689 63.438499 114.233331
v 25.688288 72.161003 105.657432
v 44.451689 63.438499 100.421233
v 35.875788 72.161003 95.469933
v 49.507289 63.438499 81.553633
v 39.604689 72.161003 81.553633
v 44.451789 63.438499 62.685933
v 35.875788 72.161003 67.637332
v 30.639689 63.438499 48.873933
v 25.688389 72.161003 57.449832
v 11.771989 59.263000 41.590131
v -4.566411 59.263000 45.968034
v -27.281911 59.263000 85.488733
v -22.904012 59.263000 101.827133
v -10.943412 59.263000 113.787732
v 34.067689 59.263000 114.274232
v 46.028289 59.263000 102.313733
v 50.406188 59.263000 85.975233
v 28.110489 59.263000 45.968034
v -11.250612 59.284901 49.392032
v -22.917913 59.284901 61.059333
v -27.188512 59.284901 76.997233
v -4.165811 59.284901 117.244932
v 11.771989 59.284901 121.515531
v 27.709888 59.284901 117.244932
v 50.733889 59.284901 77.773033
v 46.463389 59.284901 61.835132
v 34.796088 59.284901 50.167833
v 12.187789 0.000000 82.272333
v 11.441789 0.000000 82.029933
v 11.441789 0.000000 81.245533
v 12.187789 0.000000 81.003133
v 12.648889 0.000000 81.637733
v 12.187789 79.986801 81.003133
v 12.648889 79.986801 81.637733
v 11.441789 79.986801 81.245533
v 11.441789 79.986801 82.029933
v 12.187789 79.986801 82.272333
vt 0.047646 0.507459
vt 0.031370 0.647816
vt 0.033265 0.647845
vt 0.038441 0.647923
vt 0.045512 0.648030
vt 0.052583 0.648138
vt 0.057759 0.648216
vt 0.059653 0.648245
vt 0.057759 0.648216
vt 0.052583 0.648138
vt 0.045512 0.648030
vt 0.038441 0.647923
vt 0.033265 0.647845
vt 0.088093 0.648038
vt 0.098657 0.507450
vt 0.097120 0.507450
vt 0.087972 0.648038
vt 0.092922 0.507450
vt 0.087640 0.648038
vt 0.087188 0.507450
vt 0.087188 0.648038
vt 0.081453 0.507450
vt 0.086735 0.648038
vt 0.077255 0.507450
vt 0.086403 0.648038
vt 0.075718 0.507450
vt 0.086282 0.648038
vt 0.077255 0.507450
vt 0.086403 0.648038
vt 0.081453 0.507450
vt 0.086735 0.648038
vt 0.087188 0.507450
vt 0.087188 0.648038
vt 0.092922 0.507450
vt 0.087640 0.648038
vt 0.097120 0.507450
vt 0.087972 0.648038
vt 0.090429 0.648038
vt 0.092474 0.507450
vt 0.091430 0.507450
vt 0.089659 0.648038
vt 0.088577 0.507450
vt 0.087555 0.648038
vt 0.084681 0.507450
vt 0.084681 0.648038
vt 0.080784 0.507450
vt 0.081807 0.648038
vt 0.077932 0.507450
vt 0.079703 0.648038
vt 0.076888 0.507450
vt 0.078933 0.648038
vt 0.077932 0.507450
vt 0.079703 0.648038
vt 0.080784 0.507450
vt 0.081807 0.648038
vt 0.084681 0.507450
vt 0.084681 0.648038
vt 0.088577 0.507450
vt 0.087555 0.648038
vt 0.091430 0.507450
vt 0.089659 0.648038
vt 0.114083 0.507452
vt 0.112040 0.507452
vt 0.111155 0.648040
vt 0.112924 0.648040
vt 0.134912 0.507449
vt 0.127288 0.507450
vt 0.128894 0.648038
vt 0.135496 0.648037
vt 0.140494 0.507449
vt 0.140329 0.648037
vt 0.134912 0.507449
vt 0.140494 0.507449
vt 0.140525 0.648037
vt 0.135692 0.648037
vt 0.127288 0.507450
vt 0.129090 0.648038
vt 0.114083 0.507452
vt 0.112924 0.648040
vt 0.119664 0.507451
vt 0.114307 0.647302
vt 0.119022 0.647302
vt 0.125462 0.647301
vt 0.142537 0.507449
vt 0.141726 0.647300
vt 0.143451 0.647299
vt 0.141726 0.647300
vt 0.119664 0.507451
vt 0.125776 0.647301
vt 0.119335 0.647302
vt 0.114621 0.647302
vt 0.114243 0.521551
vt 0.106820 0.582842
vt 0.109789 0.582838
vt 0.116169 0.521549
vt 0.117902 0.582829
vt 0.121429 0.521543
vt 0.128985 0.582816
vt 0.128615 0.521535
vt 0.140067 0.582804
vt 0.135800 0.521526
vt 0.148179 0.582794
vt 0.141060 0.521520
vt 0.151149 0.582791
vt 0.142986 0.521518
vt 0.148180 0.582794
vt 0.141060 0.521520
vt 0.140067 0.582804
vt 0.135800 0.521526
vt 0.128985 0.582816
vt 0.128615 0.521535
vt 0.117902 0.582829
vt 0.121429 0.521543
vt 0.109789 0.582838
vt 0.116169 0.521549
vt 0.045806 0.648057
vt 0.043340 0.648050
vt 0.035360 0.648026
vt 0.032894 0.648019
vt 0.039350 0.648038
vt 0.033314 0.507431
vt 0.039769 0.507451
vt 0.035779 0.507439
vt 0.043759 0.507462
vt 0.046225 0.507470
vn 0.000000 1.000000 0.000000
vn 0.000000 0.774220 -0.632916
vn -0.316505 0.774211 -0.548108
vn 0.000000 1.000000 0.000000
vn -0.316505 0.774211 -0.548108
vn -0.548108 0.774211 -0.316505
vn 0.000000 1.000000 0.000000
vn -0.548108 0.774211 -0.316505
vn -0.632916 0.774220 0.000000
vn 0.000000 1.000000 0.000000
vn -0.632916 0.774220 0.000000
vn -0.548108 0.774211 0.316505
vn 0.000000 1.000000 0.000000
vn -0.548108 0.774211 0.316505
vn -0.316505 0.774211 0.548108
vn 0.000000 1.000000 0.000000
vn -0.316505 0.774211 0.548108
vn 0.000000 0.774220 0.632916
vn 0.000000 1.000000 0.000000
vn 0.000000 0.774220 0.632916
vn 0.316505 0.774211 0.548108
vn 0.000000 1.000000 0.000000
vn 0.316505 0.774211 0.548108
vn 0.548108 0.774211 0.316505
vn 0.000000 1.000000 0.000000
vn 0.548108 0.774211 0.316505
vn 0.632916 0.774220 0.000000
vn 0.000000 1.000000 0.000000
vn 0.632916 0.774220 0.000000
vn 0.548108 0.774211 -0.316505
vn 0.000000 1.000000 0.000000
vn 0.548108 0.774211 -0.316505
vn 0.316505 0.774211 -0.548108
vn 0.000000 1.000000 0.000000
vn 0.316505 0.774211 -0.548108
vn 0.000000 0.774220 -0.632916
vn 0.000000 0.774220 -0.632916
vn 0.000000 0.854060 -0.520175
vn -0.260088 0.854062 -0.450480
vn -0.316505 0.774211 -0.548108
vn -0.316505 0.774211 -0.548108
vn -0.260088 0.854062 -0.450480
vn -0.450480 0.854062 -0.260088
vn -0.548108 0.774211 -0.316505
vn -0.548108 0.774211 -0.316505
vn -0.450480 0.854062 -0.260088
vn -0.520175 0.854060 -0.000000
vn -0.632916 0.774220 0.000000
vn -0.632916 0.774220 0.000000
vn -0.520175 0.854060 -0.000000
vn -0.450480 0.854062 0.260088
vn -0.548108 0.774211 0.316505
vn -0.548108 0.774211 0.316505
vn -0.450480 0.854062 0.260088
vn -0.260088 0.854062 0.450480
vn -0.316505 0.774211 0.548108
vn -0.316505 0.774211 0.548108
vn -0.260088 0.854062 0.450480
vn 0.000000 0.854060 0.520175
vn 0.000000 0.774220 0.632916
vn 0.000000 0.774220 0.632916
vn 0.000000 0.854060 0.520175
vn 0.260088 0.854062 0.450480
vn 0.316505 0.774211 0.548108
vn 0.316505 0.774211 0.548108
vn 0.260088 0.854062 0.450480
vn 0.450480 0.854062 0.260088
vn 0.548108 0.774211 0.316505
vn 0.548108 0.774211 0.316505
vn 0.450480 0.854062 0.260088
vn 0.520175 0.854060 0.000000
vn 0.632916 0.774220 0.000000
vn 0.632916 0.774220 0.000000
vn 0.520175 0.854060 0.000000
vn 0.450480 0.854062 -0.260088
vn 0.548108 0.774211 -0.316505
vn 0.548108 0.774211 -0.316505
vn 0.450480 0.854062 -0.260088
vn 0.260088 0.854062 -0.450480
vn 0.316505 0.774211 -0.548108
vn 0.316505 0.774211 -0.548108
vn 0.260088 0.854062 -0.450480
vn 0.000000 0.854060 -0.520175
vn 0.000000 0.774220 -0.632916
vn 0.000000 0.640588 -0.767885
vn 0.000000 0.438593 -0.898686
vn -0.439007 0.474108 -0.763213
vn -0.383905 0.640609 -0.665009
vn -0.383905 0.640609 -0.665009
vn -0.439007 0.474108 -0.763213
vn -0.771812 0.459307 -0.439707
vn -0.665009 0.640609 -0.383905
vn -0.665009 0.640609 -0.383905
vn -0.771812 0.459307 -0.439707
vn -0.879771 0.475384 0.003700
vn -0.767885 0.640588 -0.000000
vn -0.767885 0.640588 -0.000000
vn -0.879771 0.475384 0.003700
vn -0.774269 0.451182 0.443782
vn -0.665009 0.640609 0.383905
vn -0.665009 0.640609 0.383905
vn -0.774269 0.451182 0.443782
vn -0.443812 0.470413 0.762721
vn -0.383905 0.640609 0.665009
vn -0.383905 0.640609 0.665009
vn -0.443812 0.470413 0.762721
vn 0.000000 0.439276 0.898352
vn 0.000000 0.640588 0.767885
vn 0.000000 0.640588 0.767885
vn 0.000000 0.439276 0.898352
vn 0.447105 0.469905 0.761109
vn 0.383905 0.640609 0.665009
vn 0.383905 0.640609 0.665009
vn 0.447105 0.469905 0.761109
vn 0.781906 0.442704 0.438904
vn 0.665009 0.640609 0.383905
vn 0.665009 0.640609 0.383905
vn 0.781906 0.442704 0.438904
vn 0.886443 0.462823 -0.003700
vn 0.767885 0.640588 0.000000
vn 0.767885 0.640588 0.000000
vn 0.886443 0.462823 -0.003700
vn 0.777900 0.435400 -0.453100
vn 0.665009 0.640609 -0.383905
vn 0.665009 0.640609 -0.383905
vn 0.777900 0.435400 -0.453100
vn 0.440315 0.461716 -0.770027
vn 0.383905 0.640609 -0.665009
vn 0.383905 0.640609 -0.665009
vn 0.440315 0.461716 -0.770027
vn 0.000000 0.438593 -0.898686
vn 0.000000 0.640588 -0.767885
vn -0.439007 0.474108 -0.763213
vn 0.000000 0.438593 -0.898686
vn 0.000000 0.312715 -0.949847
vn -0.246607 0.303009 -0.920527
vn -0.774269 0.451182 0.443782
vn -0.879771 0.475384 0.003700
vn -0.914887 0.320795 0.245097
vn -0.812779 0.338291 0.474288
vn -0.443812 0.470413 0.762721
vn -0.774269 0.451182 0.443782
vn -0.812779 0.338291 0.474288
vn -0.666277 0.334888 0.666277
vn 0.781906 0.442704 0.438904
vn 0.447105 0.469905 0.761109
vn 0.664802 0.340701 0.664802
vn 0.810288 0.325095 0.487593
vn 0.886443 0.462823 -0.003700
vn 0.781906 0.442704 0.438904
vn 0.810288 0.325095 0.487593
vn 0.925868 0.284990 0.248091
vn 0.000000 0.438593 -0.898686
vn 0.440315 0.461716 -0.770027
vn 0.246607 0.303009 -0.920527
vn 0.000000 0.312715 -0.949847
vn -0.771812 0.459307 -0.439707
vn -0.439007 0.474108 -0.763213
vn -0.660570 0.356784 -0.660570
vn -0.805581 0.355092 -0.474289
vn -0.879771 0.475384 0.003700
vn -0.771812 0.459307 -0.439707
vn -0.805581 0.355092 -0.474289
vn -0.911441 0.331115 -0.244211
vn 0.000000 0.439276 0.898352
vn -0.443812 0.470413 0.762721
vn -0.246507 0.304308 0.920125
vn 0.000000 0.314007 0.949421
vn 0.447105 0.469905 0.761109
vn 0.000000 0.439276 0.898352
vn 0.000000 0.314007 0.949421
vn 0.246507 0.304308 0.920125
vn 0.777900 0.435400 -0.453100
vn 0.886443 0.462823 -0.003700
vn 0.919622 0.305907 -0.246406
vn 0.827061 0.306686 -0.471078
vn 0.440315 0.461716 -0.770027
vn 0.777900 0.435400 -0.453100
vn 0.827061 0.306686 -0.471078
vn 0.677171 0.287888 -0.677171
vn 0.000000 0.854060 -0.520175
vn 0.000000 0.640588 -0.767885
vn -0.383905 0.640609 -0.665009
vn -0.260088 0.854062 -0.450480
vn -0.260088 0.854062 -0.450480
vn -0.383905 0.640609 -0.665009
vn -0.665009 0.640609 -0.383905
vn -0.450480 0.854062 -0.260088
vn -0.450480 0.854062 -0.260088
vn -0.665009 0.640609 -0.383905
vn -0.767885 0.640588 -0.000000
vn -0.520175 0.854060 -0.000000
vn -0.520175 0.854060 -0.000000
vn -0.767885 0.640588 -0.000000
vn -0.665009 0.640609 0.383905
vn -0.450480 0.854062 0.260088
vn -0.450480 0.854062 0.260088
vn -0.665009 0.640609 0.383905
vn -0.383905 0.640609 0.665009
vn -0.260088 0.854062 0.450480
vn -0.260088 0.854062 0.450480
vn -0.383905 0.640609 0.665009
vn 0.000000 0.640588 0.767885
vn 0.000000 0.854060 0.520175
vn 0.000000 0.854060 0.520175
vn 0.000000 0.640588 0.767885
vn 0.383905 0.640609 0.665009
vn 0.260088 0.854062 0.450480
vn 0.260088 0.854062 0.450480
vn 0.383905 0.640609 0.665009
vn 0.665009 0.640609 0.383905
vn 0.450480 0.854062 0.260088
vn 0.450480 0.854062 0.260088
vn 0.665009 0.640609 0.383905
vn 0.767885 0.640588 0.000000
vn 0.520175 0.854060 0.000000
vn 0.520175 0.854060 0.000000
vn 0.767885 0.640588 0.000000
vn 0.665009 0.640609 -0.383905
vn 0.450480 0.854062 -0.260088
vn 0.450480 0.854062 -0.260088
vn 0.665009 0.640609 -0.383905
vn 0.383905 0.640609 -0.665009
vn 0.260088 0.854062 -0.450480
vn 0.260088 0.854062 -0.450480
vn 0.383905 0.640609 -0.665009
vn 0.000000 0.640588 -0.767885
vn 0.000000 0.854060 -0.520175
vn 0.248106 -0.595713 0.763917
vn -0.649808 -0.595707 0.472105
vn -0.649838 -0.595735 -0.472028
vn 0.248312 -0.595729 -0.763838
vn 0.803205 -0.595703 -0.000100
vn 0.803205 -0.595703 -0.000100
vn 0.248312 -0.595729 -0.763838
vn 0.248312 0.595729 -0.763838
vn 0.803205 0.595703 -0.000100
vn 0.248312 -0.595729 -0.763838
vn -0.649838 -0.595735 -0.472028
vn -0.649838 0.595735 -0.472028
vn 0.248312 0.595729 -0.763838
vn -0.649838 -0.595735 -0.472028
vn -0.649808 -0.595707 0.472105
vn -0.649808 0.595707 0.472105
vn -0.649838 0.595735 -0.472028
vn -0.649808 -0.595707 0.472105
vn 0.248106 -0.595713 0.763917
vn 0.248106 0.595713 0.763917
vn -0.649808 0.595707 0.472105
vn 0.248106 -0.595713 0.763917
vn 0.803205 -0.595703 -0.000100
vn 0.803205 0.595703 -0.000100
vn 0.248106 0.595713 0.763917
vn 0.248106 0.595713 0.763917
vn 0.803205 0.595703 -0.000100
vn 0.248312 0.595729 -0.763838
vn -0.649838 0.595735 -0.472028
vn -0.649808 0.595707 0.472105
s off
g parasolText:Sphere001
usemtl phong1SG
f 1/1/1 2/2/2 3/3/3
f 1/1/4 3/3/5 4/4/6
f 1/1/7 4/4/8 5/5/9
f 1/1/10 5/5/11 6/6/12
f 1/1/13 6/6/14 7/7/15
f 1/1/16 7/7/17 8/8/18
f 1/1/19 8/8/20 9/9/21
f 1/1/22 9/9/23 10/10/24
f 1/1/25 10/10/26 11/11/27
f 1/1/28 11/11/29 12/12/30
f 1/1/31 12/12/32 13/13/33
f 1/1/34 13/13/35 2/2/36
f 2/14/37 14/15/38 15/16/39 3/17/40
f 3/17/41 15/16/42 16/18/43 4/19/44
f 4/19/45 16/18/46 17/20/47 5/21/48
f 5/21/49 17/20/50 18/22/51 6/23/52
f 6/23/53 18/22/54 19/24/55 7/25/56
f 7/25/57 19/24/58 20/26/59 8/27/60
f 8/27/61 20/26/62 21/28/63 9/29/64
f 9/29/65 21/28/66 22/30/67 10/31/68
f 10/31/69 22/30/70 23/32/71 11/33/72
f 11/33/73 23/32/74 24/34/75 12/35/76
f 12/35/77 24/34/78 25/36/79 13/37/80
f 13/37/81 25/36/82 14/15/83 2/14/84
f 26/38/85 27/39/86 28/40/87 29/41/88
f 29/41/89 28/40/90 30/42/91 31/43/92
f 31/43/93 30/42/94 32/44/95 33/45/96
f 33/45/97 32/44/98 34/46/99 35/47/100
f 35/47/101 34/46/102 36/48/103 37/49/104
f 37/49/105 36/48/106 38/50/107 39/51/108
f 39/51/109 38/50/110 40/52/111 41/53/112
f 41/53/113 40/52/114 42/54/115 43/55/116
f 43/55/117 42/54/118 44/56/119 45/57/120
f 45/57/121 44/56/122 46/58/123 47/59/124
f 47/59/125 46/58/126 48/60/127 49/61/128
f 49/61/129 48/60/130 27/39/131 26/38/132
f 28/62/133 27/63/134 50/64/135 51/65/136
f 34/66/137 32/67/138 52/68/139 53/69/140
f 36/70/141 34/66/142 53/69/143 54/71/144
f 42/72/145 40/73/146 55/74/147 56/75/148
f 44/76/149 42/72/150 56/75/151 57/77/152
f 27/63/153 48/78/154 58/79/155 50/64/156
f 30/80/157 28/62/158 59/81/159 60/82/160
f 32/67/161 30/80/162 60/82/163 61/83/164
f 38/84/165 36/70/166 62/85/167 63/86/168
f 40/73/169 38/84/170 63/86/171 64/87/172
f 46/88/173 44/76/174 65/89/175 66/90/176
f 48/78/177 46/88/178 66/90/179 67/91/180
f 14/92/181 26/93/182 29/94/183 15/95/184
f 15/95/185 29/94/186 31/96/187 16/97/188
f 16/97/189 31/96/190 33/98/191 17/99/192
f 17/99/193 33/98/194 35/100/195 18/101/196
f 18/101/197 35/100/198 37/102/199 19/103/200
f 19/103/201 37/102/202 39/104/203 20/105/204
f 20/105/205 39/104/206 41/106/207 21/107/208
f 21/107/209 41/106/210 43/108/211 22/109/212
f 22/109/213 43/108/214 45/110/215 23/111/216
f 23/111/217 45/110/218 47/112/219 24/113/220
f 24/113/221 47/112/222 49/114/223 25/115/224
f 25/115/225 49/114/226 26/93/227 14/92/228
f 68/116/229 69/117/230 70/118/231 71/119/232 72/120/233
f 72/120/234 71/119/235 73/121/236 74/122/237
f 71/119/238 70/118/239 75/123/240 73/121/241
f 70/118/242 69/117/243 76/124/244 75/123/245
f 69/117/246 68/116/247 77/125/248 76/124/249
f 68/116/250 72/120/251 74/122/252 77/125/253
f 77/125/254 74/122/255 73/121/256 75/123/257 76/124/258
