# 3ds Max Wavefront OBJ Exporter v0.97b - (c)2007 guruware
# File Created: 08.06.2020 13:42:46

mtllib Nenuphar.mtl

#
# object Nenuphar
#

v  1.8031 0.0000 -0.6542
v  2.4941 0.2663 -0.8884
v  1.3551 0.2663 -0.0000
v  0.9644 0.0000 -0.0000
v  1.0269 0.0000 -1.6256
v  1.4399 0.2663 -2.2075
v  -0.0335 0.0000 -1.8770
v  0.0000 0.2663 -2.5490
v  -1.0939 0.0000 -1.6256
v  -1.4399 0.2663 -2.2075
v  -1.8701 0.0000 -0.9385
v  -2.4941 0.2663 -1.2745
v  -2.1542 0.0000 -0.0000
v  -2.8799 0.2663 -0.0000
v  -1.8701 0.0000 0.9385
v  -2.4941 0.2663 1.2745
v  -1.0939 0.0000 1.6256
v  -1.4399 0.2663 2.2075
v  -0.0335 0.0000 1.8770
v  0.0000 0.2663 2.5490
v  1.0269 0.0000 1.6256
v  1.4399 0.2663 2.2075
v  1.8031 0.0000 0.6542
v  2.4940 0.2663 0.8884
v  1.6599 0.0000 -0.6032
v  0.7991 0.0000 -0.0000
v  0.0000 0.0000 -0.0000
v  0.9442 0.0000 -1.4988
v  -0.0335 0.0000 -1.7307
v  -1.0112 0.0000 -1.4988
v  -1.7269 0.0000 -0.8654
v  -1.9889 0.0000 -0.0000
v  -1.7269 0.0000 0.8654
v  -1.0112 0.0000 1.4988
v  -0.0335 0.0000 1.7307
v  0.9442 0.0000 1.4988
v  1.6599 0.0000 0.6032
v  1.1306 0.2663 -0.0000
v  2.2996 0.2663 -0.8191
v  0.0000 0.2663 -0.0000
v  1.3277 0.2663 -2.0354
v  0.0000 0.2663 -2.3503
v  -1.3277 0.2663 -2.0354
v  -2.2996 0.2663 -1.1751
v  -2.6554 0.2663 -0.0000
v  -2.2996 0.2663 1.1751
v  -1.3277 0.2663 2.0354
v  0.0000 0.2663 2.3503
v  1.3277 0.2663 2.0354
v  2.2996 0.2663 0.8191
v  2.7927 0.6831 -0.9855
v  1.3861 0.6831 -0.0000
v  1.6562 0.6831 -0.0000
v  3.0266 0.6831 -1.0688
v  2.7927 0.6831 0.9855
v  3.0266 0.6831 1.0688
v  1.6232 0.6831 2.4489
v  1.7583 0.6831 2.6560
v  0.0258 0.6831 2.8278
v  0.0258 0.6831 3.0669
v  -1.5716 0.6831 2.4489
v  -1.7067 0.6831 2.6560
v  -2.7410 0.6831 1.4139
v  -2.9750 0.6831 1.5334
v  -3.1691 0.6831 -0.0000
v  -3.4392 0.6831 -0.0000
v  -2.7410 0.6831 -1.4139
v  -2.9750 0.6831 -1.5334
v  -1.5716 0.6831 -2.4489
v  -1.7067 0.6831 -2.6560
v  0.0258 0.6831 -2.8278
v  0.0258 0.6831 -3.0669
v  1.6233 0.6831 -2.4489
v  1.7583 0.6831 -2.6560
# 74 vertices

vn 0.3173 -0.9260 0.2047
vn 0.5724 -0.7927 0.2097
vn 0.6430 -0.7659 0.0000
vn 0.1276 -0.9918 -0.0000
vn 0.1119 -0.9769 -0.1823
vn 0.2679 -0.8630 -0.4284
vn -0.0018 -0.9768 -0.2141
vn -0.0015 -0.8544 -0.5196
vn -0.0968 -0.9767 -0.1915
vn -0.2370 -0.8552 -0.4610
vn -0.1746 -0.9778 -0.1160
vn -0.4231 -0.8633 -0.2750
vn -0.2063 -0.9785 -0.0000
vn -0.4962 -0.8682 -0.0000
vn -0.1746 -0.9778 0.1160
vn -0.4231 -0.8633 0.2750
vn -0.0968 -0.9767 0.1915
vn -0.2370 -0.8552 0.4610
vn -0.0018 -0.9768 0.2141
vn -0.0015 -0.8544 0.5196
vn 0.1119 -0.9769 0.1823
vn 0.2679 -0.8630 0.4284
vn 0.3174 -0.9259 -0.2047
vn 0.5724 -0.7927 -0.2097
vn 0.0000 -1.0000 -0.0000
vn -0.2058 0.9786 -0.0000
vn -0.5004 0.8287 -0.2505
vn 0.0000 1.0000 -0.0000
vn -0.2086 0.9178 0.3379
vn 0.0028 0.9186 0.3952
vn 0.1800 0.9180 0.3534
vn 0.3267 0.9203 0.2152
vn 0.3874 0.9219 -0.0000
vn 0.3267 0.9203 -0.2152
vn 0.1800 0.9180 -0.3534
vn 0.0028 0.9186 -0.3952
vn -0.2086 0.9178 -0.3380
vn -0.5004 0.8287 0.2505
vn -0.1724 0.9850 -0.0054
vn -0.6485 0.7612 -0.0000
vn 0.5735 0.8192 -0.0000
vn 0.9704 0.2414 0.0109
vn -0.1724 0.9850 0.0054
vn 0.9704 0.2413 -0.0109
vn -0.1468 0.9625 -0.2280
vn 0.5207 0.2717 0.8093
vn -0.0016 0.9527 -0.3039
vn 0.0047 0.2956 0.9553
vn 0.1398 0.9538 -0.2659
vn -0.4455 0.2927 0.8461
vn 0.2414 0.9584 -0.1520
vn -0.8127 0.2797 0.5111
vn 0.2766 0.9610 -0.0000
vn -0.9622 0.2724 -0.0000
vn 0.2414 0.9584 0.1520
vn -0.8127 0.2797 -0.5111
vn 0.1398 0.9538 0.2659
vn -0.4455 0.2927 -0.8461
vn -0.0016 0.9527 0.3039
vn 0.0047 0.2956 -0.9553
vn -0.1468 0.9625 0.2280
vn 0.5207 0.2717 -0.8093
# 62 vertex normals

vt 0.9859 0.5273 0.0000
vt 0.9897 0.6108 0.0000
vt 0.9834 0.6108 0.0000
vt 0.9812 0.5273 0.0000
vt 0.9815 0.5273 0.0000
vt 0.9838 0.6108 0.0000
vt 0.9756 0.5273 0.0000
vt 0.9758 0.6108 0.0000
vt 0.9697 0.5273 0.0000
vt 0.9678 0.6108 0.0000
vt 0.9654 0.5273 0.0000
vt 0.9620 0.6108 0.0000
vt 0.9639 0.5273 0.0000
vt 0.9598 0.6108 0.0000
vt 0.9850 0.5273 0.0000
vt 0.9803 0.5273 0.0000
vt 0.9758 0.5273 0.0000
vt 0.9811 0.5273 0.0000
vt 0.9702 0.5273 0.0000
vt 0.9662 0.5273 0.0000
vt 0.9648 0.5273 0.0000
vt 0.9821 0.6108 0.0000
vt 0.9886 0.6108 0.0000
vt 0.9758 0.5299 0.0000
vt 0.9832 0.6108 0.0000
vt 0.9684 0.6108 0.0000
vt 0.9631 0.6108 0.0000
vt 0.9611 0.6108 0.0000
vt 0.9913 0.6751 0.0000
vt 0.9835 0.6751 0.0000
vt 0.9850 0.6751 0.0000
vt 0.9927 0.6751 0.0000
vt 0.9848 0.6751 0.0000
vt 0.9856 0.6751 0.0000
vt 0.9760 0.6751 0.0000
vt 0.9671 0.6751 0.0000
vt 0.9663 0.6751 0.0000
vt 0.9606 0.6751 0.0000
vt 0.9593 0.6751 0.0000
vt 0.9582 0.6751 0.0000
vt 0.9567 0.6751 0.0000
vt 0.9835 0.6488 0.0000
vt 0.9913 0.6488 0.0000
vt 0.9848 0.6488 0.0000
vt 0.9760 0.6488 0.0000
vt 0.9671 0.6488 0.0000
vt 0.9606 0.6488 0.0000
vt 0.9582 0.6488 0.0000
vt 0.9927 0.6488 0.0000
vt 0.9850 0.6488 0.0000
vt 0.9856 0.6488 0.0000
vt 0.9663 0.6488 0.0000
vt 0.9593 0.6488 0.0000
vt 0.9567 0.6488 0.0000
# 54 texture coords

o Nenuphar
g Nenuphar
usemtl Material__60
s 8
f 1/1/1 2/2/2 3/3/3 4/4/4 
f 1/1/1 5/5/5 6/6/6 2/2/2 
f 5/5/5 7/7/7 8/8/8 6/6/6 
f 9/9/9 10/10/10 8/8/8 7/7/7 
f 11/11/11 12/12/12 10/10/10 9/9/9 
f 13/13/13 14/14/14 12/12/12 11/11/11 
f 13/13/13 15/11/15 16/12/16 14/14/14 
f 15/11/15 17/9/17 18/10/18 16/12/16 
f 17/9/17 19/7/19 20/8/20 18/10/18 
f 21/5/21 22/6/22 20/8/20 19/7/19 
f 23/1/23 24/2/24 22/6/22 21/5/21 
f 23/1/23 4/4/4 3/3/3 24/2/24 
s off
f 25/15/25 26/16/25 27/17/25 
f 28/18/25 25/15/25 27/17/25 
f 29/7/25 28/18/25 27/17/25 
f 30/19/25 29/7/25 27/17/25 
f 31/20/25 30/19/25 27/17/25 
f 32/21/25 31/20/25 27/17/25 
f 33/20/25 32/21/25 27/17/25 
f 34/19/25 33/20/25 27/17/25 
f 35/7/25 34/19/25 27/17/25 
f 36/18/25 35/7/25 27/17/25 
f 37/15/25 36/18/25 27/17/25 
f 26/16/25 37/15/25 27/17/25 
f 38/22/26 39/23/27 40/24/28 
f 39/23/27 41/25/29 40/24/28 
f 41/25/29 42/8/30 40/24/28 
f 42/8/30 43/26/31 40/24/28 
f 43/26/31 44/27/32 40/24/28 
f 44/27/32 45/28/33 40/24/28 
f 45/28/33 46/27/34 40/24/28 
f 46/27/34 47/26/35 40/24/28 
f 47/26/35 48/8/36 40/24/28 
f 48/8/36 49/25/37 40/24/28 
f 49/25/37 50/23/38 40/24/28 
f 50/23/38 38/22/26 40/24/28 
f 25/15/25 1/1/1 4/4/4 26/16/25 
f 28/18/25 5/5/5 1/1/1 25/15/25 
f 28/18/25 29/7/25 7/7/7 5/5/5 
f 30/19/25 9/9/9 7/7/7 29/7/25 
f 31/20/25 11/11/11 9/9/9 30/19/25 
f 32/21/25 13/13/13 11/11/11 31/20/25 
f 32/21/25 33/20/25 15/11/15 13/13/13 
f 33/20/25 34/19/25 17/9/17 15/11/15 
f 34/19/25 35/7/25 19/7/19 17/9/17 
f 36/18/25 21/5/21 19/7/19 35/7/25 
f 37/15/25 23/1/23 21/5/21 36/18/25 
f 37/15/25 26/16/25 4/4/4 23/1/23 
f 51/29/39 52/30/40 53/31/41 54/32/42 
f 55/29/43 56/32/44 53/31/41 52/30/40 
f 57/33/45 58/34/46 56/32/44 55/29/43 
f 57/33/45 59/35/47 60/35/48 58/34/46 
f 61/36/49 62/37/50 60/35/48 59/35/47 
f 63/38/51 64/39/52 62/37/50 61/36/49 
f 65/40/53 66/41/54 64/39/52 63/38/51 
f 65/40/53 67/38/55 68/39/56 66/41/54 
f 67/38/55 69/36/57 70/37/58 68/39/56 
f 69/36/57 71/35/59 72/35/60 70/37/58 
f 73/33/61 74/34/62 72/35/60 71/35/59 
f 51/29/39 54/32/42 74/34/62 73/33/61 
f 39/23/27 38/22/26 52/42/40 51/43/39 
f 50/23/38 55/43/43 52/42/40 38/22/26 
f 50/23/38 49/25/37 57/44/45 55/43/43 
f 49/25/37 48/8/36 59/45/47 57/44/45 
f 47/26/35 61/46/49 59/45/47 48/8/36 
f 46/27/34 63/47/51 61/46/49 47/26/35 
f 45/28/33 65/48/53 63/47/51 46/27/34 
f 45/28/33 44/27/32 67/47/55 65/48/53 
f 44/27/32 43/26/31 69/46/57 67/47/55 
f 42/8/30 71/45/59 69/46/57 43/26/31 
f 41/25/29 73/44/61 71/45/59 42/8/30 
f 39/23/27 51/43/39 73/44/61 41/25/29 
f 2/2/2 54/49/42 53/50/41 3/3/3 
f 2/2/2 6/6/6 74/51/62 54/49/42 
f 6/6/6 8/8/8 72/45/60 74/51/62 
f 10/10/10 70/52/58 72/45/60 8/8/8 
f 12/12/12 68/53/56 70/52/58 10/10/10 
f 14/14/14 66/54/54 68/53/56 12/12/12 
f 14/14/14 16/12/16 64/53/52 66/54/54 
f 16/12/16 18/10/18 62/52/50 64/53/52 
f 18/10/18 20/8/20 60/45/48 62/52/50 
f 22/6/22 58/51/46 60/45/48 20/8/20 
f 24/2/24 56/49/44 58/51/46 22/6/22 
f 24/2/24 3/3/3 53/50/41 56/49/44 
# 60 polygons - 24 triangles

