# This file uses centimeters as units for non-parametric coordinates.

mtllib etoilev2_Text.mtl
g default
v 38.090801 0.901900 148.776660
v 32.772800 1.111400 149.928160
v 31.606300 1.718500 153.478459
v 35.462502 1.096400 153.533460
v 29.063200 0.904800 161.314060
v 32.818401 1.080300 157.280260
v 28.432800 1.084600 155.837460
v 38.213902 0.904000 158.291160
v 29.139400 0.901500 145.898259
v 28.507000 1.103700 151.283859
v 23.493700 0.903200 153.489260
v 28.584000 0.500100 144.244060
v 28.255400 0.000000 143.302260
v 27.955799 0.000000 145.934459
v 23.165600 0.000000 152.452660
v 20.782200 0.000000 153.588160
v 21.771700 0.502000 153.532660
v 23.179100 0.000000 154.705660
v 27.904699 0.000000 161.261060
v 28.255400 0.000000 163.874060
v 28.546801 0.503800 162.935660
v 30.076500 0.000000 161.961860
v 37.748600 0.000000 159.471560
v 40.347099 0.000000 159.945159
v 39.577301 0.502900 159.327260
v 39.086300 0.000000 157.625060
v 39.517101 0.500700 147.781659
v 40.347099 0.000000 147.231160
v 37.748798 0.000000 147.722961
v 27.910400 0.000000 156.277860
v 33.004501 0.000000 157.933060
v 36.152901 0.000000 153.599660
v 39.072300 0.000000 149.550059
v 33.004501 0.000000 149.266360
v 30.049299 0.000000 145.250760
v 27.910400 0.000000 150.921559
v 38.090801 -0.901900 148.776660
v 35.462502 -1.096300 153.533460
v 31.606300 -1.718500 153.478459
v 32.772800 -1.111400 149.928160
v 29.063200 -0.904800 161.314060
v 28.432800 -1.084600 155.837460
v 32.818401 -1.080300 157.280260
v 38.213902 -0.904000 158.291160
v 29.139400 -0.901500 145.898259
v 28.507000 -1.103700 151.283859
v 23.493700 -0.903200 153.489260
v 28.584000 -0.500100 144.244060
v 21.771700 -0.502000 153.532660
v 28.546801 -0.503700 162.935660
v 39.577301 -0.502900 159.327260
v 39.517101 -0.500700 147.781659
vt 0.546660 0.236394
vt 0.555585 0.223167
vt 0.583535 0.318900
vt 0.583535 0.222915
vt 0.643873 0.236427
vt 0.612595 0.222646
vt 0.601401 0.222730
vt 0.620427 0.236427
vt 0.524340 0.236377
vt 0.566089 0.223032
vt 0.583199 0.236411
vt 0.511500 0.183872
vt 0.504205 0.175653
vt 0.524609 0.175653
vt 0.575165 0.175653
vt 0.583955 0.175653
vt 0.583535 0.183905
vt 0.592628 0.175653
vt 0.643452 0.175653
vt 0.663722 0.175653
vt 0.656444 0.183922
vt 0.648898 0.175653
vt 0.629587 0.175653
vt 0.633250 0.175653
vt 0.628460 0.183905
vt 0.615267 0.175653
vt 0.538946 0.183872
vt 0.534677 0.175653
vt 0.538475 0.175653
vt 0.604813 0.216192
vt 0.617653 0.216192
vt 0.584056 0.216192
vt 0.552644 0.175653
vt 0.550442 0.216192
vt 0.519315 0.175653
vt 0.563282 0.216192
vt 0.546643 0.235201
vt 0.583989 0.222108
vt 0.583989 0.320144
vt 0.555686 0.222394
vt 0.645066 0.235251
vt 0.602073 0.221906
vt 0.613401 0.221822
vt 0.621334 0.235234
vt 0.524038 0.235184
vt 0.566325 0.222259
vt 0.583636 0.235217
vt 0.511063 0.181855
vt 0.583972 0.181905
vt 0.657789 0.181922
vt 0.629469 0.181905
vt 0.538828 0.181872
vn 0.184901 0.968204 -0.168501
vn 0.135199 0.898796 -0.416998
vn 0.000200 0.999998 -0.002000
vn 0.440802 0.897604 -0.001200
vn -0.084502 0.968628 0.233707
vn 0.137505 0.896335 0.421516
vn 0.000200 0.999998 -0.002000
vn -0.358696 0.896689 0.259397
vn 0.000200 0.999998 -0.002000
vn 0.137505 0.896335 0.421516
vn 0.220297 0.968086 0.119498
vn 0.440802 0.897604 -0.001200
vn -0.064701 0.967815 -0.243204
vn -0.355092 0.898180 -0.259194
vn 0.000200 0.999998 -0.002000
vn 0.135199 0.898796 -0.416998
vn 0.000200 0.999998 -0.002000
vn -0.355092 0.898180 -0.259194
vn -0.249593 0.967775 -0.033399
vn -0.358696 0.896689 0.259397
vn -0.064701 0.967815 -0.243204
vn 1.000000 0.000000 0.000000
vn -0.315898 0.000000 -0.948793
vn -0.998264 0.000000 -0.058898
vn -0.367301 0.000000 -0.930102
vn -0.999810 0.000000 0.019500
vn 1.000000 0.000000 0.000000
vn -0.249593 0.967775 -0.033399
vn -0.249593 0.967775 -0.033399
vn 1.000000 0.000000 0.000000
vn -0.999810 0.000000 0.019500
vn -0.366212 0.000000 0.930531
vn -0.998045 0.000000 0.062503
vn -0.305106 0.000000 0.952318
vn 1.000000 0.000000 0.000000
vn -0.084502 0.968628 0.233707
vn -0.084502 0.968628 0.233707
vn 1.000000 0.000000 0.000000
vn -0.305106 0.000000 0.952318
vn 0.770789 -0.000000 0.637091
vn -0.248508 0.000000 0.968630
vn 0.801282 0.000000 0.598287
vn 1.000000 0.000000 0.000000
vn 0.220297 0.968086 0.119498
vn 0.220297 0.968086 0.119498
vn 1.000000 0.000000 0.000000
vn 0.801282 0.000000 0.598287
vn 0.843781 0.000000 -0.536688
vn 0.184901 0.968204 -0.168501
vn 1.000000 0.000000 0.000000
vn 0.816682 0.000000 -0.577088
vn -0.250011 0.000000 -0.968243
vn -0.249593 0.967775 -0.033399
vn -0.366212 0.000000 0.930531
vn -0.823633 0.000000 0.567123
vn -0.358696 0.896689 0.259397
vn -0.358696 0.896689 0.259397
vn -0.823633 0.000000 0.567123
vn -0.998045 0.000000 0.062503
vn -0.084502 0.968628 0.233707
vn -0.084502 0.968628 0.233707
vn 0.770789 -0.000000 0.637091
vn 0.319017 0.000000 0.947749
vn 0.137505 0.896335 0.421516
vn 0.137505 0.896335 0.421516
vn 0.319017 0.000000 0.947749
vn -0.248508 0.000000 0.968630
vn 0.220297 0.968086 0.119498
vn 0.220297 0.968086 0.119498
vn 0.843781 0.000000 -0.536688
vn 0.999538 0.000000 -0.030401
vn 0.440802 0.897604 -0.001200
vn 0.440802 0.897604 -0.001200
vn 0.999538 0.000000 -0.030401
vn 0.843633 0.000000 0.536921
vn 0.184901 0.968204 -0.168501
vn 0.184901 0.968204 -0.168501
vn -0.250011 0.000000 -0.968243
vn 0.298987 0.000000 -0.954257
vn 0.135199 0.898796 -0.416998
vn 0.135199 0.898796 -0.416998
vn 0.298987 0.000000 -0.954257
vn 0.772865 0.000000 -0.634571
vn -0.064701 0.967815 -0.243204
vn -0.064701 0.967815 -0.243204
vn -0.998264 0.000000 -0.058898
vn -0.790788 0.000000 -0.612091
vn -0.355092 0.898180 -0.259194
vn -0.355092 0.898180 -0.259194
vn -0.790788 0.000000 -0.612091
vn -0.367301 0.000000 -0.930102
vn -0.249593 0.967775 -0.033399
vn -0.315898 0.000000 -0.948793
vn 1.000000 0.000000 0.000000
vn -0.064701 0.967815 -0.243204
vn 0.772865 0.000000 -0.634571
vn 0.816682 0.000000 -0.577088
vn 1.000000 0.000000 0.000000
vn 0.184901 0.968204 -0.168501
vn 0.843633 0.000000 0.536921
vn 0.184901 -0.968204 -0.168501
vn 0.440802 -0.897604 -0.001200
vn 0.000200 -0.999998 -0.002000
vn 0.135199 -0.898796 -0.416998
vn -0.084502 -0.968628 0.233707
vn -0.358696 -0.896689 0.259397
vn 0.000200 -0.999998 -0.002000
vn 0.137505 -0.896335 0.421516
vn 0.000200 -0.999998 -0.002000
vn 0.440802 -0.897604 -0.001200
vn 0.220297 -0.968086 0.119498
vn 0.137505 -0.896335 0.421516
vn -0.064701 -0.967815 -0.243204
vn 0.135199 -0.898796 -0.416998
vn 0.000200 -0.999998 -0.002000
vn -0.355092 -0.898180 -0.259194
vn 0.000200 -0.999998 -0.002000
vn -0.358696 -0.896689 0.259397
vn -0.249593 -0.967775 -0.033399
vn -0.355092 -0.898180 -0.259194
vn -0.064701 -0.967815 -0.243204
vn -0.998264 0.000000 -0.058898
vn -0.315898 0.000000 -0.948793
vn 1.000000 0.000000 0.000000
vn -0.367301 0.000000 -0.930102
vn -0.249593 -0.967775 -0.033399
vn 1.000000 0.000000 0.000000
vn -0.999810 0.000000 0.019500
vn -0.249593 -0.967775 -0.033399
vn -0.366212 0.000000 0.930531
vn -0.999810 0.000000 0.019500
vn 1.000000 0.000000 0.000000
vn -0.998045 0.000000 0.062503
vn -0.084502 -0.968628 0.233707
vn 1.000000 0.000000 0.000000
vn -0.305106 0.000000 0.952318
vn -0.084502 -0.968628 0.233707
vn 0.770789 -0.000000 0.637091
vn -0.305106 0.000000 0.952318
vn 1.000000 0.000000 0.000000
vn -0.248508 0.000000 0.968630
vn 0.220297 -0.968086 0.119498
vn 1.000000 0.000000 0.000000
vn 0.801282 0.000000 0.598287
vn 0.220297 -0.968086 0.119498
vn 0.843781 0.000000 -0.536688
vn 0.801282 0.000000 0.598287
vn 1.000000 0.000000 0.000000
vn 0.184901 -0.968204 -0.168501
vn -0.250011 0.000000 -0.968243
vn 0.816682 0.000000 -0.577088
vn 1.000000 0.000000 0.000000
vn -0.249593 -0.967775 -0.033399
vn -0.358696 -0.896689 0.259397
vn -0.823633 0.000000 0.567123
vn -0.366212 0.000000 0.930531
vn -0.358696 -0.896689 0.259397
vn -0.084502 -0.968628 0.233707
vn -0.998045 0.000000 0.062503
vn -0.823633 0.000000 0.567123
vn -0.084502 -0.968628 0.233707
vn 0.137505 -0.896335 0.421516
vn 0.319017 0.000000 0.947749
vn 0.770789 -0.000000 0.637091
vn 0.137505 -0.896335 0.421516
vn 0.220297 -0.968086 0.119498
vn -0.248508 0.000000 0.968630
vn 0.319017 0.000000 0.947749
vn 0.220297 -0.968086 0.119498
vn 0.440802 -0.897604 -0.001200
vn 0.999538 0.000000 -0.030401
vn 0.843781 0.000000 -0.536688
vn 0.440802 -0.897604 -0.001200
vn 0.184901 -0.968204 -0.168501
vn 0.843633 0.000000 0.536921
vn 0.999538 0.000000 -0.030401
vn 0.184901 -0.968204 -0.168501
vn 0.135199 -0.898796 -0.416998
vn 0.298987 0.000000 -0.954257
vn -0.250011 0.000000 -0.968243
vn 0.135199 -0.898796 -0.416998
vn -0.064701 -0.967815 -0.243204
vn 0.772865 0.000000 -0.634571
vn 0.298987 0.000000 -0.954257
vn -0.064701 -0.967815 -0.243204
vn -0.355092 -0.898180 -0.259194
vn -0.790788 0.000000 -0.612091
vn -0.998264 0.000000 -0.058898
vn -0.355092 -0.898180 -0.259194
vn -0.249593 -0.967775 -0.033399
vn -0.367301 0.000000 -0.930102
vn -0.790788 0.000000 -0.612091
vn -0.315898 0.000000 -0.948793
vn 0.772865 0.000000 -0.634571
vn -0.064701 -0.967815 -0.243204
vn 1.000000 0.000000 0.000000
vn 0.816682 0.000000 -0.577088
vn 0.843633 0.000000 0.536921
vn 0.184901 -0.968204 -0.168501
vn 1.000000 0.000000 0.000000
s off
g etoilev2:etoilev2
usemtl phong1SG
f 1/1/1 2/2/2 3/3/3 4/4/4
f 5/5/5 6/6/6 3/3/7 7/7/8
f 3/3/9 6/6/10 8/8/11 4/4/12
f 9/9/13 10/10/14 3/3/15 2/2/16
f 3/3/17 10/10/18 11/11/19 7/7/20
f 9/9/21 12/12/22 13/13/23 14/14/24
f 15/15/25 16/16/26 17/17/27 11/11/28
f 11/11/29 17/17/30 16/16/31 18/18/32
f 19/19/33 20/20/34 21/21/35 5/5/36
f 5/5/37 21/21/38 20/20/39 22/22/40
f 23/23/41 24/24/42 25/25/43 8/8/44
f 8/8/45 25/25/46 24/24/47 26/26/48
f 1/1/49 27/27/50 28/28/51 29/29/52
f 11/11/53 18/18/54 30/30/55 7/7/56
f 7/7/57 30/30/58 19/19/59 5/5/60
f 5/5/61 22/22/62 31/31/63 6/6/64
f 6/6/65 31/31/66 23/23/67 8/8/68
f 8/8/69 26/26/70 32/32/71 4/4/72
f 4/4/73 32/32/74 33/33/75 1/1/76
f 1/1/77 29/29/78 34/34/79 2/2/80
f 2/2/81 34/34/82 35/35/83 9/9/84
f 9/9/85 14/14/86 36/36/87 10/10/88
f 10/10/89 36/36/90 15/15/91 11/11/92
f 13/13/93 12/12/94 9/9/95 35/35/96
f 28/28/97 27/27/98 1/1/99 33/33/100
f 37/37/101 38/38/102 39/39/103 40/40/104
f 41/41/105 42/42/106 39/39/107 43/43/108
f 39/39/109 38/38/110 44/44/111 43/43/112
f 45/45/113 40/40/114 39/39/115 46/46/116
f 39/39/117 42/42/118 47/47/119 46/46/120
f 45/45/121 14/14/122 13/13/123 48/48/124
f 15/15/125 47/47/126 49/49/127 16/16/128
f 47/47/129 18/18/130 16/16/131 49/49/132
f 19/19/133 41/41/134 50/50/135 20/20/136
f 41/41/137 22/22/138 20/20/139 50/50/140
f 23/23/141 44/44/142 51/51/143 24/24/144
f 44/44/145 26/26/146 24/24/147 51/51/148
f 37/37/149 29/29/150 28/28/151 52/52/152
f 47/47/153 42/42/154 30/30/155 18/18/156
f 42/42/157 41/41/158 19/19/159 30/30/160
f 41/41/161 43/43/162 31/31/163 22/22/164
f 43/43/165 44/44/166 23/23/167 31/31/168
f 44/44/169 38/38/170 32/32/171 26/26/172
f 38/38/173 37/37/174 33/33/175 32/32/176
f 37/37/177 40/40/178 34/34/179 29/29/180
f 40/40/181 45/45/182 35/35/183 34/34/184
f 45/45/185 46/46/186 36/36/187 14/14/188
f 46/46/189 47/47/190 15/15/191 36/36/192
f 13/13/193 35/35/194 45/45/195 48/48/196
f 28/28/197 33/33/198 37/37/199 52/52/200
