# This file uses centimeters as units for non-parametric coordinates.

mtllib feuille_mangrove_002_Text.mtl
g default
v 209.016616 0.000000 2.584587
v 212.015439 0.000000 4.530494
v 214.484531 0.000000 5.867873
v 214.484531 0.000000 2.933936
v 221.209759 0.000000 6.578395
v 221.209759 0.000000 3.289177
v 228.735885 0.000000 5.210864
v 231.442881 0.000000 3.175605
v 206.841028 0.000000 0.000000
v 214.484531 0.000000 0.000000
v 221.209759 0.000000 0.000000
v 232.001333 0.000000 0.000000
v 209.016616 0.000000 -2.584587
v 214.484531 0.000000 -2.933936
v 221.209759 0.000000 -3.289177
v 231.442881 0.000000 -3.175605
v 212.015439 0.000000 -4.530494
v 214.484531 0.000000 -5.867873
v 221.209759 0.000000 -6.578395
v 228.735885 0.000000 -5.210864
vt 0.849065 0.092650
vt 0.868587 0.082121
vt 0.884663 0.074868
vt 0.884663 0.090756
vt 0.928452 0.071029
vt 0.928452 0.088828
vt 0.977446 0.078435
vt 0.995075 0.089442
vt 0.834884 0.013075
vt 0.884663 0.013075
vt 0.928452 0.013075
vt 0.998710 0.013075
vt 0.849065 0.120620
vt 0.884663 0.122514
vt 0.928452 0.124426
vt 0.995075 0.123811
vt 0.868587 0.131149
vt 0.884663 0.138385
vt 0.928452 0.142225
vt 0.977446 0.134835
vn 0.000000 1.000000 0.000000
vn 0.000000 1.000000 0.000000
vn 0.000000 1.000000 0.000000
vn 0.000000 1.000000 0.000000
vn 0.000000 1.000000 0.000000
vn 0.000000 1.000000 0.000000
vn 0.000000 1.000000 0.000000
vn 0.000000 1.000000 0.000000
vn 0.000000 1.000000 0.000000
vn 0.000000 1.000000 0.000000
vn 0.000000 1.000000 0.000000
vn 0.000000 1.000000 0.000000
vn 0.000000 1.000000 0.000000
vn 0.000000 1.000000 0.000000
vn 0.000000 1.000000 0.000000
vn 0.000000 1.000000 0.000000
vn 0.000000 1.000000 0.000000
vn 0.000000 1.000000 0.000000
vn 0.000000 1.000000 0.000000
vn 0.000000 1.000000 0.000000
vn 0.000000 1.000000 0.000000
vn 0.000000 1.000000 0.000000
vn 0.000000 1.000000 0.000000
vn 0.000000 1.000000 0.000000
vn 0.000000 1.000000 0.000000
vn 0.000000 1.000000 0.000000
vn 0.000000 1.000000 0.000000
vn 0.000000 1.000000 0.000000
vn 0.000000 1.000000 0.000000
vn 0.000000 1.000000 0.000000
vn 0.000000 1.000000 0.000000
vn 0.000000 1.000000 0.000000
vn 0.000000 1.000000 0.000000
vn 0.000000 1.000000 0.000000
vn 0.000000 1.000000 0.000000
vn 0.000000 1.000000 0.000000
vn 0.000000 1.000000 0.000000
vn 0.000000 1.000000 0.000000
vn 0.000000 1.000000 0.000000
vn 0.000000 1.000000 0.000000
vn 0.000000 1.000000 0.000000
vn 0.000000 1.000000 0.000000
vn 0.000000 1.000000 0.000000
vn 0.000000 1.000000 0.000000
vn 0.000000 1.000000 0.000000
vn 0.000000 1.000000 0.000000
vn 0.000000 1.000000 0.000000
vn 0.000000 1.000000 0.000000
s off
g feuille_mangrove_002:Plane002
usemtl phong1SG
f 1/1/1 2/2/2 3/3/3 4/4/4
f 4/4/5 3/3/6 5/5/7 6/6/8
f 6/6/9 5/5/10 7/7/11 8/8/12
f 9/9/13 1/1/14 4/4/15 10/10/16
f 10/10/17 4/4/18 6/6/19 11/11/20
f 11/11/21 6/6/22 8/8/23 12/12/24
f 13/13/25 9/9/26 10/10/27 14/14/28
f 14/14/29 10/10/30 11/11/31 15/15/32
f 15/15/33 11/11/34 12/12/35 16/16/36
f 17/17/37 13/13/38 14/14/39 18/18/40
f 18/18/41 14/14/42 15/15/43 19/19/44
f 19/19/45 15/15/46 16/16/47 20/20/48
