# This file uses centimeters as units for non-parametric coordinates.

mtllib feuille_mangrove_003_Text.mtl
g default
v 217.960057 0.000000 51.433830
v 220.838898 0.000000 52.615070
v 223.209242 0.000000 53.426894
v 223.209242 0.000000 51.645880
v 229.665480 0.000000 53.858200
v 229.665480 0.000000 51.861546
v 236.890526 0.000000 53.028070
v 239.489258 0.000000 51.792591
v 215.871470 0.000000 49.864891
v 223.209242 0.000000 49.864891
v 229.665480 0.000000 49.864891
v 240.025381 0.000000 49.864891
v 217.960057 0.000000 48.295952
v 223.209242 0.000000 48.083901
v 229.665480 0.000000 47.868236
v 239.489258 0.000000 47.937190
v 220.838898 0.000000 47.114712
v 223.209242 0.000000 46.302888
v 229.665480 0.000000 45.871581
v 236.890526 0.000000 46.701712
vt 0.852136 0.263353
vt 0.870598 0.253395
vt 0.885816 0.246553
vt 0.885816 0.261561
vt 0.927226 0.242906
vt 0.927226 0.259738
vt 0.973559 0.249910
vt 0.990229 0.260319
vt 0.838741 0.181791
vt 0.885816 0.181791
vt 0.927226 0.181791
vt 0.993667 0.181791
vt 0.852136 0.289803
vt 0.885816 0.291594
vt 0.927226 0.293418
vt 0.990229 0.292837
vt 0.870598 0.299760
vt 0.885816 0.306603
vt 0.927226 0.310250
vt 0.973559 0.303246
vn 0.000000 1.000000 0.000000
vn 0.000000 1.000000 0.000000
vn 0.000000 1.000000 0.000000
vn 0.000000 1.000000 0.000000
vn 0.000000 1.000000 0.000000
vn 0.000000 1.000000 0.000000
vn 0.000000 1.000000 0.000000
vn 0.000000 1.000000 0.000000
vn 0.000000 1.000000 0.000000
vn 0.000000 1.000000 0.000000
vn 0.000000 1.000000 0.000000
vn 0.000000 1.000000 0.000000
vn 0.000000 1.000000 0.000000
vn 0.000000 1.000000 0.000000
vn 0.000000 1.000000 0.000000
vn 0.000000 1.000000 0.000000
vn 0.000000 1.000000 0.000000
vn 0.000000 1.000000 0.000000
vn 0.000000 1.000000 0.000000
vn 0.000000 1.000000 0.000000
vn 0.000000 1.000000 0.000000
vn 0.000000 1.000000 0.000000
vn 0.000000 1.000000 0.000000
vn 0.000000 1.000000 0.000000
vn 0.000000 1.000000 0.000000
vn 0.000000 1.000000 0.000000
vn 0.000000 1.000000 0.000000
vn 0.000000 1.000000 0.000000
vn 0.000000 1.000000 0.000000
vn 0.000000 1.000000 0.000000
vn 0.000000 1.000000 0.000000
vn 0.000000 1.000000 0.000000
vn 0.000000 1.000000 0.000000
vn 0.000000 1.000000 0.000000
vn 0.000000 1.000000 0.000000
vn 0.000000 1.000000 0.000000
vn 0.000000 1.000000 0.000000
vn 0.000000 1.000000 0.000000
vn 0.000000 1.000000 0.000000
vn 0.000000 1.000000 0.000000
vn 0.000000 1.000000 0.000000
vn 0.000000 1.000000 0.000000
vn 0.000000 1.000000 0.000000
vn 0.000000 1.000000 0.000000
vn 0.000000 1.000000 0.000000
vn 0.000000 1.000000 0.000000
vn 0.000000 1.000000 0.000000
vn 0.000000 1.000000 0.000000
s off
g feuille_mangrove_003:Plane001
usemtl phong1SG
f 1/1/1 2/2/2 3/3/3 4/4/4
f 4/4/5 3/3/6 5/5/7 6/6/8
f 6/6/9 5/5/10 7/7/11 8/8/12
f 9/9/13 1/1/14 4/4/15 10/10/16
f 10/10/17 4/4/18 6/6/19 11/11/20
f 11/11/21 6/6/22 8/8/23 12/12/24
f 13/13/25 9/9/26 10/10/27 14/14/28
f 14/14/29 10/10/30 11/11/31 15/15/32
f 15/15/33 11/11/34 12/12/35 16/16/36
f 17/17/37 13/13/38 14/14/39 18/18/40
f 18/18/41 14/14/42 15/15/43 19/19/44
f 19/19/45 15/15/46 16/16/47 20/20/48
