# 3ds Max Wavefront OBJ Exporter v0.97b - (c)2007 guruware
# File Created: 03.05.2020 22:23:06

mtllib feuille_mangrove_003.mtl

#
# object Plane001
#

v  -54.4480 0.0000 6.6849
v  -42.1819 0.0000 11.7179
v  -32.0824 0.0000 15.1769
v  -32.0824 0.0000 7.5884
v  -4.5738 0.0000 17.0146
v  -4.5738 0.0000 8.5073
v  26.2105 0.0000 13.4776
v  37.2831 0.0000 8.2135
v  -63.3470 0.0000 -0.0000
v  -32.0824 0.0000 -0.0000
v  -4.5738 0.0000 -0.0000
v  39.5674 0.0000 -0.0000
v  -54.4480 0.0000 -6.6849
v  -32.0824 0.0000 -7.5884
v  -4.5738 0.0000 -8.5073
v  37.2831 0.0000 -8.2135
v  -42.1819 0.0000 -11.7179
v  -32.0824 0.0000 -15.1769
v  -4.5738 0.0000 -17.0146
v  26.2105 0.0000 -13.4776
# 20 vertices

vn 0.0000 1.0000 -0.0000
# 1 vertex normals

vt 0.1137 0.6905 0.0000
vt 0.2281 0.6288 0.0000
vt 0.3224 0.5864 0.0000
vt 0.3224 0.6794 0.0000
vt 0.5790 0.5638 0.0000
vt 0.5790 0.6681 0.0000
vt 0.8661 0.6072 0.0000
vt 0.9694 0.6717 0.0000
vt 0.0307 0.1851 0.0000
vt 0.3224 0.1851 0.0000
vt 0.5790 0.1851 0.0000
vt 0.9907 0.1851 0.0000
vt 0.1137 0.8544 0.0000
vt 0.3224 0.8655 0.0000
vt 0.5790 0.8768 0.0000
vt 0.9694 0.8732 0.0000
vt 0.2281 0.9161 0.0000
vt 0.3224 0.9585 0.0000
vt 0.5790 0.9811 0.0000
vt 0.8661 0.9377 0.0000
# 20 texture coords

o Plane001
g Plane001
usemtl Material__2
s 1
f 1/1/1 2/2/1 3/3/1 4/4/1 
f 4/4/1 3/3/1 5/5/1 6/6/1 
f 6/6/1 5/5/1 7/7/1 8/8/1 
f 9/9/1 1/1/1 4/4/1 10/10/1 
f 10/10/1 4/4/1 6/6/1 11/11/1 
f 11/11/1 6/6/1 8/8/1 12/12/1 
f 13/13/1 9/9/1 10/10/1 14/14/1 
f 14/14/1 10/10/1 11/11/1 15/15/1 
f 15/15/1 11/11/1 12/12/1 16/16/1 
f 17/17/1 13/13/1 14/14/1 18/18/1 
f 18/18/1 14/14/1 15/15/1 19/19/1 
f 19/19/1 15/15/1 16/16/1 20/20/1 
# 12 polygons

