# 3ds Max Wavefront OBJ Exporter v0.97b - (c)2007 guruware
# File Created: 03.05.2020 21:27:07

mtllib FeuilleMangrove01.mtl

#
# object Plane002
#

v  -27.4156 3.2245 53.2534
v  -26.9787 3.0112 53.0413
v  -26.9787 3.1136 52.7029
v  -30.5044 4.4801 49.4471
v  -30.6434 4.4301 52.2220
v  -26.9787 3.4279 51.6634
v  -26.9787 3.4779 49.4471
v  -28.7193 3.9474 47.6033
v  -26.9787 2.5284 46.2630
v  -30.2703 4.2144 53.3025
v  -28.6887 4.0134 54.2747
v  -27.2534 2.1795 54.6345
v  -26.9787 2.0454 54.5011
v  -26.5418 3.2245 53.2534
v  -23.4529 4.4801 49.4471
v  -23.3139 4.4301 52.2220
v  -25.2380 3.9474 47.6033
v  -25.2686 4.0134 54.2747
v  -23.6870 4.2144 53.3025
v  -26.7039 2.1795 54.6345
# 20 vertices

vn 0.6425 0.6328 0.4322
vn 0.0000 0.9131 0.4077
vn 0.0000 0.9707 0.2403
vn 0.2734 0.9618 0.0166
vn 0.2722 0.9602 0.0628
vn 0.0000 0.9889 0.1484
vn 0.0000 0.9979 -0.0650
vn 0.3806 0.9161 -0.1260
vn 0.0000 0.9583 -0.2858
vn 0.3139 0.9492 -0.0194
vn 0.3064 0.8991 -0.3126
vn 0.5595 0.6912 0.4573
vn 0.0000 0.8340 0.5518
vn -0.6425 0.6328 0.4322
vn -0.2734 0.9618 0.0166
vn -0.2722 0.9602 0.0628
vn -0.3806 0.9161 -0.1260
vn -0.3064 0.8991 -0.3126
vn -0.3139 0.9492 -0.0194
vn -0.5595 0.6912 0.4573
# 20 vertex normals

vt 0.4408 0.4432 0.0000
vt 0.4948 0.1042 0.0000
vt 0.0590 0.8220 0.0000
vt 0.0418 0.8220 0.0000
vt 0.2796 0.8220 0.0000
vt 0.4948 0.8220 0.0000
vt 0.0879 0.8220 0.0000
vt 0.2834 0.8220 0.0000
vt 0.4608 0.1120 0.0000
vt 0.5488 0.4432 0.0000
vt 0.9306 0.8220 0.0000
vt 0.9478 0.8220 0.0000
vt 0.7099 0.8220 0.0000
vt 0.7061 0.8220 0.0000
vt 0.9016 0.8220 0.0000
vt 0.5287 0.1120 0.0000
# 16 texture coords

o Plane002
g Plane002
usemtl Material__26
s 1
f 1/1/1 2/2/2 3/2/3 
f 4/3/4 5/4/5 6/2/6 7/2/7 
f 8/5/8 7/2/7 9/6/9 
f 8/5/8 4/3/4 7/2/7 
f 3/2/3 10/7/10 11/8/11 1/1/1 
f 3/2/3 6/2/6 5/4/5 10/7/10 
s off
f 2/2/2 1/1/1 12/9/12 13/2/13 
s 1
f 14/10/14 3/2/3 2/2/2 
f 15/11/15 7/2/7 6/2/6 16/12/16 
f 17/13/17 9/6/9 7/2/7 
f 17/13/17 7/2/7 15/11/15 
f 3/2/3 14/10/14 18/14/18 19/15/19 
f 3/2/3 19/15/19 16/12/16 6/2/6 
s off
f 2/2/2 13/2/13 20/16/20 14/10/14 
# 8 polygons - 6 triangles

