# This file uses centimeters as units for non-parametric coordinates.

mtllib FeuilleMangrove01_Text.mtl
g default
v 179.221545 3.224500 2.205370
v 179.658445 3.011200 1.993272
v 179.658445 3.113600 1.654871
v 176.132745 4.480100 -1.600928
v 175.993745 4.430100 1.173971
v 179.658445 3.427900 0.615370
v 179.658445 3.477900 -1.600928
v 177.917846 3.947400 -3.444731
v 179.658445 2.528400 -4.785029
v 176.366845 4.214400 2.254472
v 177.948446 4.013400 3.226671
v 179.383744 2.179500 3.586469
v 179.658445 2.045400 3.453069
v 180.095346 3.224500 2.205370
v 183.184245 4.480100 -1.600928
v 183.323245 4.430100 1.173971
v 181.399144 3.947400 -3.444731
v 181.368545 4.013400 3.226671
v 182.950145 4.214400 2.254472
v 179.933246 2.179500 3.586469
vt 0.906883 0.562886
vt 0.916351 0.503446
vt 0.839937 0.629306
vt 0.836921 0.629306
vt 0.878617 0.629306
vt 0.916351 0.629306
vt 0.845005 0.629306
vt 0.879284 0.629306
vt 0.910389 0.504813
vt 0.925820 0.562886
vt 0.992765 0.629306
vt 0.995781 0.629306
vt 0.954067 0.629306
vt 0.953401 0.629306
vt 0.987680 0.629306
vt 0.922295 0.504813
vt 0.916351 0.503446
vt 0.916351 0.503446
vt 0.916351 0.503446
vt 0.916351 0.503446
vt 0.916351 0.503446
vt 0.916351 0.503446
vt 0.916351 0.503446
vt 0.916351 0.503446
vt 0.916351 0.503446
vt 0.916351 0.503446
vt 0.916351 0.503446
vt 0.916351 0.503446
vt 0.916351 0.503446
vt 0.916351 0.503446
vt 0.916351 0.503446
vt 0.916351 0.503446
vt 0.916351 0.503446
vt 0.916351 0.503446
vn 0.642488 0.632788 0.432192
vn 0.000000 0.913113 0.407706
vn 0.000000 0.970699 0.240300
vn 0.273389 0.961760 0.016599
vn 0.272197 0.960190 0.062799
vn 0.000000 0.988927 0.148404
vn 0.000000 0.997885 -0.064999
vn 0.380605 0.916113 -0.126002
vn 0.000000 0.997885 -0.064999
vn 0.000000 0.958290 -0.285797
vn 0.380605 0.916113 -0.126002
vn 0.273389 0.961760 0.016599
vn 0.000000 0.997885 -0.064999
vn 0.000000 0.970699 0.240300
vn 0.313917 0.949252 -0.019401
vn 0.306403 0.899109 -0.312603
vn 0.642488 0.632788 0.432192
vn 0.000000 0.970699 0.240300
vn 0.000000 0.988927 0.148404
vn 0.272197 0.960190 0.062799
vn 0.313917 0.949252 -0.019401
vn 0.000000 0.913113 0.407706
vn 0.642488 0.632788 0.432192
vn 0.559522 0.691227 0.457318
vn 0.000000 0.833984 0.551789
vn -0.642488 0.632788 0.432192
vn 0.000000 0.970699 0.240300
vn 0.000000 0.913113 0.407706
vn -0.273389 0.961760 0.016599
vn 0.000000 0.997885 -0.064999
vn 0.000000 0.988927 0.148404
vn -0.272197 0.960190 0.062799
vn -0.380605 0.916113 -0.126002
vn 0.000000 0.958290 -0.285797
vn 0.000000 0.997885 -0.064999
vn -0.380605 0.916113 -0.126002
vn 0.000000 0.997885 -0.064999
vn -0.273389 0.961760 0.016599
vn 0.000000 0.970699 0.240300
vn -0.642488 0.632788 0.432192
vn -0.306403 0.899109 -0.312603
vn -0.313917 0.949252 -0.019401
vn 0.000000 0.970699 0.240300
vn -0.313917 0.949252 -0.019401
vn -0.272197 0.960190 0.062799
vn 0.000000 0.988927 0.148404
vn 0.000000 0.913113 0.407706
vn 0.000000 0.833984 0.551789
vn -0.559522 0.691227 0.457318
vn -0.642488 0.632788 0.432192
s off
g FeuilleMangrove01:Plane002
usemtl phong1SG
f 1/1/1 2/2/2 3/17/3
f 4/3/4 5/4/5 6/18/6 7/19/7
f 8/5/8 7/20/9 9/6/10
f 8/5/11 4/3/12 7/21/13
f 3/22/14 10/7/15 11/8/16 1/1/17
f 3/23/18 6/24/19 5/4/20 10/7/21
f 2/2/22 1/1/23 12/9/24 13/25/25
f 14/10/26 3/26/27 2/2/28
f 15/11/29 7/27/30 6/28/31 16/12/32
f 17/13/33 9/6/34 7/29/35
f 17/13/36 7/30/37 15/11/38
f 3/31/39 14/10/40 18/14/41 19/15/42
f 3/32/43 19/15/44 16/12/45 6/33/46
f 2/2/47 13/34/48 20/16/49 14/10/50
