# This file uses centimeters as units for non-parametric coordinates.

mtllib TrouSpawn_Text.mtl
g default
v -2.272002 0.000000 0.774537
v -1.800916 0.000000 1.787955
v -0.755681 0.000000 2.244714
v -0.755681 0.000000 0.774537
v 0.760600 0.000000 2.244714
v 0.760600 0.000000 0.774537
v 1.805835 0.000000 1.787955
v 2.276921 0.000000 0.774537
v -2.272002 0.000000 -0.695639
v -0.755681 0.000000 -0.695639
v 0.760600 0.000000 -0.695639
v 2.276921 0.000000 -0.695639
v -1.800916 0.000000 -1.709057
v -0.755681 0.000000 -2.165815
v 0.760600 0.000000 -2.165815
v 1.805835 0.000000 -1.709057
v -2.693937 0.891421 0.910901
v -2.135443 0.618263 2.112332
v -0.896340 0.850781 2.653844
v 0.901258 0.879982 2.653844
v 2.140362 0.248992 2.112332
v 2.698857 0.618263 0.910901
v -2.693937 0.418227 -0.832003
v 2.698857 0.902234 -0.832003
v -2.135443 0.894622 -2.033434
v -0.896340 0.465113 -2.574907
v 0.901258 0.832003 -2.574907
v 2.140362 0.618263 -2.033434
v -3.398321 0.343740 1.138578
v -2.961863 -0.036892 3.128756
v -1.131121 0.063712 3.511613
v 1.136040 -0.011204 3.799996
v 2.698857 -0.032559 2.653844
v 3.740344 0.229667 1.138578
v -3.665857 0.013469 -1.110860
v 3.508451 0.220337 -1.059640
v -2.949722 0.464566 -2.930320
v -0.886424 0.151160 -3.257859
v 1.309023 0.461287 -3.496115
v 2.966626 0.186295 -2.762178
v -3.870500 -0.954742 1.363326
v -3.548817 -0.954742 3.515517
v -1.363443 -0.954742 3.933666
v 1.220755 -0.954742 4.675254
v 2.954993 -0.954742 3.026278
v 4.421343 -0.954742 1.363326
v -4.420874 -0.954742 -1.431684
v 3.864293 -0.954742 -1.284428
v -3.434042 -0.954742 -3.858125
v -0.847853 -0.954742 -3.856524
v 1.636639 -0.954742 -4.284589
v 3.615692 -0.954742 -3.109549
vt 0.435356 0.064375
vt 0.204208 0.064375
vt 0.269656 0.064375
vt 0.771192 0.702395
vt 0.260849 0.994177
vt 0.708101 0.702395
vt 0.183259 0.847079
vt 0.174710 0.064375
vt 0.599441 0.064375
vt 0.679664 0.702395
vt 0.771192 0.242744
vt 0.148287 0.972292
vt 0.174710 0.064375
vt 0.148287 0.988017
vt 0.269656 0.064375
vt 0.204208 0.064375
vt 0.420136 0.994177
vt 0.183259 0.648223
vt 0.260849 0.847079
vt 0.364602 0.064375
vt 0.373409 1.000000
vt 0.364602 0.064375
vt 0.614660 0.739357
vt 0.430050 0.064375
vt 0.450999 0.995901
vt 0.373409 0.739357
vt 0.459549 0.064375
vt 0.485968 0.764606
vt 0.459549 0.064375
vt 0.485968 0.962180
vt 0.430050 0.064375
vt 0.450999 0.847079
vt 0.246146 0.699245
vt 0.117617 0.494271
vt 0.092891 0.548447
vt 0.074267 0.508104
vt 0.148287 0.496605
vt 0.246146 0.637816
vt 0.391418 0.521391
vt 0.388110 0.632792
vt 0.508922 0.764311
vt 0.530074 0.595539
vt 0.545461 0.762545
vt 0.498063 0.614460
vt 0.231631 0.143040
vt 0.092639 0.143040
vt 0.065634 0.143040
vt 0.017741 0.143040
vt 0.124235 0.143040
vt 0.231631 0.143040
vt 0.412137 0.143040
vt 0.402627 0.143040
vt 0.679664 0.702395
vt 0.771193 0.242744
vt 0.708100 0.702395
vt 0.771193 0.702395
vt 0.862721 0.702395
vt 0.862721 0.242744
vt 0.862721 0.242744
vt 0.862721 0.702395
vt 0.925813 0.702395
vt 0.954249 0.702395
vt 0.954249 0.702395
vt 0.925813 0.702395
vt 0.568841 0.143040
vt 0.568737 0.143040
vt 0.596382 0.143040
vt 0.520496 0.143040
vn 0.563402 0.817303 -0.120801
vn 0.362315 0.853634 -0.374215
vn 0.112194 0.821155 -0.559569
vn 0.000000 1.000000 0.000000
vn 0.000000 1.000000 0.000000
vn 0.112194 0.821155 -0.559569
vn -0.113501 0.817106 -0.565204
vn 0.000000 1.000000 0.000000
vn 0.000000 1.000000 0.000000
vn -0.113501 0.817106 -0.565204
vn -0.203993 0.955766 -0.211892
vn -0.494085 0.863074 -0.104797
vn 0.404218 0.910741 0.084604
vn 0.563402 0.817303 -0.120801
vn 0.000000 1.000000 0.000000
vn 0.000000 1.000000 0.000000
vn 0.000000 1.000000 0.000000
vn 0.000000 1.000000 0.000000
vn 0.000000 1.000000 0.000000
vn 0.000000 1.000000 0.000000
vn 0.000000 1.000000 0.000000
vn 0.000000 1.000000 0.000000
vn -0.494085 0.863074 -0.104797
vn -0.565376 0.815866 0.121295
vn 0.414697 0.803395 0.427297
vn 0.404218 0.910741 0.084604
vn 0.000000 1.000000 0.000000
vn 0.085204 0.896138 0.435519
vn 0.085204 0.896138 0.435519
vn 0.000000 1.000000 0.000000
vn 0.000000 1.000000 0.000000
vn -0.111402 0.823812 0.555808
vn -0.111402 0.823812 0.555808
vn 0.000000 1.000000 0.000000
vn -0.565376 0.815866 0.121295
vn -0.362315 0.853634 0.374215
vn 0.362315 0.853634 -0.374215
vn 0.563402 0.817303 -0.120801
vn 0.109797 0.991577 -0.068698
vn 0.076102 0.996024 -0.046301
vn 0.112194 0.821155 -0.559569
vn 0.362315 0.853634 -0.374215
vn 0.076102 0.996024 -0.046301
vn -0.064197 0.992752 -0.101595
vn -0.113501 0.817106 -0.565204
vn 0.112194 0.821155 -0.559569
vn -0.064197 0.992752 -0.101595
vn 0.164205 0.972528 -0.165005
vn -0.494085 0.863074 -0.104797
vn -0.203993 0.955766 -0.211892
vn 0.083400 0.995003 -0.054900
vn -0.256999 0.952395 0.163999
vn -0.203993 0.955766 -0.211892
vn -0.113501 0.817106 -0.565204
vn 0.164205 0.972528 -0.165005
vn 0.083400 0.995003 -0.054900
vn 0.563402 0.817303 -0.120801
vn 0.404218 0.910741 0.084604
vn 0.111097 0.991073 0.073698
vn 0.109797 0.991577 -0.068698
vn -0.565376 0.815866 0.121295
vn -0.494085 0.863074 -0.104797
vn -0.256999 0.952395 0.163999
vn -0.105795 0.994354 0.008200
vn 0.404218 0.910741 0.084604
vn 0.414697 0.803395 0.427297
vn 0.127398 0.977383 0.168797
vn 0.111097 0.991073 0.073698
vn 0.414697 0.803395 0.427297
vn 0.085204 0.896138 0.435519
vn 0.112696 0.987161 0.113196
vn 0.127398 0.977383 0.168797
vn 0.085204 0.896138 0.435519
vn -0.111402 0.823812 0.555808
vn -0.100303 0.965026 0.242207
vn 0.112696 0.987161 0.113196
vn -0.111402 0.823812 0.555808
vn -0.362315 0.853634 0.374215
vn -0.122197 0.989277 0.079998
vn -0.100303 0.965026 0.242207
vn -0.362315 0.853634 0.374215
vn -0.565376 0.815866 0.121295
vn -0.105795 0.994354 0.008200
vn -0.122197 0.989277 0.079998
vn 0.076102 0.996024 -0.046301
vn 0.109797 0.991577 -0.068698
vn -0.771169 0.619475 0.146794
vn -0.432679 0.715365 0.548673
vn -0.064197 0.992752 -0.101595
vn 0.076102 0.996024 -0.046301
vn -0.432679 0.715365 0.548673
vn -0.138606 0.592126 0.793835
vn 0.164205 0.972528 -0.165005
vn -0.064197 0.992752 -0.101595
vn -0.138606 0.592126 0.793835
vn 0.198894 0.726477 0.657779
vn -0.256999 0.952395 0.163999
vn 0.083400 0.995003 -0.054900
vn 0.474315 0.713123 0.516217
vn 0.638293 0.742791 0.202098
vn 0.083400 0.995003 -0.054900
vn 0.164205 0.972528 -0.165005
vn 0.198894 0.726477 0.657779
vn 0.474315 0.713123 0.516217
vn 0.109797 0.991577 -0.068698
vn 0.111097 0.991073 0.073698
vn -0.636617 0.770121 -0.040401
vn -0.771169 0.619475 0.146794
vn -0.105795 0.994354 0.008200
vn -0.256999 0.952395 0.163999
vn 0.638293 0.742791 0.202098
vn 0.808671 0.562280 -0.172894
vn 0.111097 0.991073 0.073698
vn 0.127398 0.977383 0.168797
vn -0.441310 0.768618 -0.463111
vn -0.636617 0.770121 -0.040401
vn 0.127398 0.977383 0.168797
vn 0.112696 0.987161 0.113196
vn -0.092898 0.708982 -0.699082
vn -0.441310 0.768618 -0.463111
vn 0.112696 0.987161 0.113196
vn -0.100303 0.965026 0.242207
vn 0.107101 0.751910 -0.650508
vn -0.092898 0.708982 -0.699082
vn -0.100303 0.965026 0.242207
vn -0.122197 0.989277 0.079998
vn 0.529801 0.722001 -0.445001
vn 0.107101 0.751910 -0.650508
vn -0.122197 0.989277 0.079998
vn -0.105795 0.994354 0.008200
vn 0.808671 0.562280 -0.172894
vn 0.529801 0.722001 -0.445001
vn -0.432679 0.715365 0.548673
vn -0.771169 0.619475 0.146794
vn -0.918948 0.361480 0.157691
vn -0.591886 0.603585 0.534187
vn -0.138606 0.592126 0.793835
vn -0.432679 0.715365 0.548673
vn -0.591886 0.603585 0.534187
vn -0.208308 0.414616 0.885834
vn 0.198894 0.726477 0.657779
vn -0.138606 0.592126 0.793835
vn -0.208308 0.414616 0.885834
vn 0.157907 0.679130 0.716832
vn 0.638293 0.742791 0.202098
vn 0.474315 0.713123 0.516217
vn 0.647669 0.433080 0.626870
vn 0.825867 0.517379 0.224191
vn 0.474315 0.713123 0.516217
vn 0.198894 0.726477 0.657779
vn 0.157907 0.679130 0.716832
vn 0.647669 0.433080 0.626870
vn -0.771169 0.619475 0.146794
vn -0.636617 0.770121 -0.040401
vn -0.768832 0.631927 -0.097804
vn -0.918948 0.361480 0.157691
vn 0.808671 0.562280 -0.172894
vn 0.638293 0.742791 0.202098
vn 0.825867 0.517379 0.224191
vn 0.936027 0.313909 -0.159105
vn -0.636617 0.770121 -0.040401
vn -0.441310 0.768618 -0.463111
vn -0.437700 0.591799 -0.676899
vn -0.768832 0.631927 -0.097804
vn -0.441310 0.768618 -0.463111
vn -0.092898 0.708982 -0.699082
vn -0.078296 0.472477 -0.877858
vn -0.437700 0.591799 -0.676899
vn -0.092898 0.708982 -0.699082
vn 0.107101 0.751910 -0.650508
vn 0.173597 0.509490 -0.842784
vn -0.078296 0.472477 -0.877858
vn 0.107101 0.751910 -0.650508
vn 0.529801 0.722001 -0.445001
vn 0.706500 0.540800 -0.456500
vn 0.173597 0.509490 -0.842784
vn 0.529801 0.722001 -0.445001
vn 0.808671 0.562280 -0.172894
vn 0.936027 0.313909 -0.159105
vn 0.706500 0.540800 -0.456500
s off
g TrouSpawn:Plane002
usemtl CroixChateau:phong2SG
f 1/4/1 2/6/2 3/10/3 4/11/4
f 4/11/5 3/10/6 5/53/7 6/54/8
f 6/54/9 5/53/10 7/55/11 8/56/12
f 9/57/13 1/4/14 4/11/15 10/58/16
f 10/58/17 4/11/18 6/54/19 11/59/20
f 11/59/21 6/54/22 8/56/23 12/60/24
f 13/61/25 9/57/26 10/58/27 14/62/28
f 14/62/29 10/58/30 11/59/31 15/63/32
f 15/63/33 11/59/34 12/60/35 16/64/36
f 2/2/37 1/3/38 17/5/39 18/7/40
f 3/8/41 2/2/42 18/7/43 19/12/44
f 5/13/45 3/8/46 19/12/47 20/14/48
f 8/15/49 7/16/50 21/18/51 22/19/52
f 7/16/53 5/13/54 20/14/55 21/18/56
f 1/1/57 9/9/58 23/23/59 17/17/60
f 12/20/61 8/15/62 22/19/63 24/21/64
f 9/22/65 13/24/66 25/25/67 23/26/68
f 13/24/69 14/27/70 26/28/71 25/25/72
f 14/27/73 15/29/74 27/30/75 26/28/76
f 15/29/77 16/31/78 28/32/79 27/30/80
f 16/31/81 12/20/82 24/21/83 28/32/84
f 18/7/85 17/5/86 29/33/87 30/34/88
f 19/12/89 18/7/90 30/34/91 31/35/92
f 20/14/93 19/12/94 31/35/95 32/36/96
f 22/19/97 21/18/98 33/37/99 34/38/100
f 21/18/101 20/14/102 32/36/103 33/37/104
f 17/5/105 23/26/106 35/39/107 29/33/108
f 24/21/109 22/19/110 34/38/111 36/40/112
f 23/26/113 25/25/114 37/41/115 35/39/116
f 25/25/117 26/28/118 38/42/119 37/41/120
f 26/28/121 27/30/122 39/43/123 38/42/124
f 27/30/125 28/32/126 40/44/127 39/43/128
f 28/32/129 24/21/130 36/40/131 40/44/132
f 30/34/133 29/33/134 41/45/135 42/46/136
f 31/35/137 30/34/138 42/46/139 43/47/140
f 32/36/141 31/35/142 43/47/143 44/48/144
f 34/38/145 33/37/146 45/49/147 46/50/148
f 33/37/149 32/36/150 44/48/151 45/49/152
f 29/33/153 35/39/154 47/51/155 41/45/156
f 36/40/157 34/38/158 46/50/159 48/52/160
f 35/39/161 37/41/162 49/65/163 47/51/164
f 37/41/165 38/42/166 50/66/167 49/65/168
f 38/42/169 39/43/170 51/67/171 50/66/172
f 39/43/173 40/44/174 52/68/175 51/67/176
f 40/44/177 36/40/178 48/52/179 52/68/180
