# 3ds Max Wavefront OBJ Exporter v0.97b - (c)2007 guruware
# File Created: 29.02.2020 18:20:57

mtllib pelle.mtl

#
# object pelle
#

v  7.7894 0.0000 -95.3373
v  7.7894 0.0000 -59.2803
v  9.6257 0.0000 -59.3251
v  9.6257 0.0000 -95.3373
v  11.4664 0.0000 -59.2803
v  9.6257 0.0000 -57.8705
v  15.6693 0.0000 -55.4216
v  3.5865 0.0000 -55.4216
v  5.6935 0.0000 -58.5375
v  1.8606 0.0000 -55.9679
v  17.3951 0.0000 -55.9679
v  13.5623 0.0000 -58.5375
v  1.8606 0.0000 -45.1501
v  3.5865 0.0000 -45.1501
v  15.6693 0.0000 -45.1501
v  17.3951 0.0000 -45.1501
v  9.6257 -3.8135 -55.2042
v  15.6693 -3.8135 -52.7553
v  3.5865 -3.8135 -43.6231
v  3.5865 -3.8135 -52.7553
v  15.6693 -3.8135 -43.6231
v  7.7894 -2.2866 -95.3373
v  7.7894 -2.2866 -58.9221
v  11.4664 0.0000 -95.3373
v  11.4664 -2.2866 -58.9221
v  11.4664 -2.2866 -95.3373
v  5.5102 -2.6152 -58.1076
v  13.7456 -2.6152 -58.1076
v  1.8606 -3.0974 -55.3858
v  17.3951 -3.0974 -55.3872
v  1.8606 -3.8135 -43.6271
v  17.3951 -3.8135 -43.6271
v  7.4318 -4.5838 -58.4212
v  4.4120 -4.5838 -57.6784
v  14.8437 -4.5838 -57.6784
v  11.7539 -4.5838 -58.4212
v  1.8606 -4.5838 -55.1088
v  17.3951 -4.5838 -55.1088
v  1.8606 -4.5838 -43.3143
v  17.3951 -4.5838 -43.3143
v  9.6257 -4.5838 -58.4658
v  9.6257 -2.2866 -58.9669
v  9.6257 -3.8135 -43.6231
v  15.6693 -4.5838 -43.3143
v  12.5198 -4.5838 -55.1088
v  3.5865 -4.5838 -43.3143
v  6.5388 -4.5838 -55.1088
v  9.6257 -4.5838 -43.3143
v  9.6257 -4.5838 -55.1088
v  9.6257 -2.2866 -95.3373
v  15.3581 0.0000 -99.2926
v  9.6257 0.0000 -99.2926
v  3.8775 0.0000 -99.2926
v  3.8775 -2.2866 -99.2926
v  15.3581 -2.2866 -99.2926
v  9.6257 -2.2866 -99.2926
v  12.6056 0.0000 -103.9784
v  9.6257 0.0000 -103.9784
v  6.6299 0.0000 -103.9784
v  6.6299 -2.2866 -103.9784
v  12.6056 -2.2866 -103.9784
v  9.6257 -2.2866 -103.9784
# 62 vertices

vn -0.5507 0.8035 0.2263
vn -0.4530 0.8437 -0.2880
vn 0.0000 1.0000 -0.0000
vn 0.4530 0.8437 -0.2880
vn 0.0000 0.9313 0.3643
vn -0.2680 0.9319 0.2445
vn 0.2681 0.9319 0.2445
vn -0.3389 0.6367 -0.6926
vn -0.7008 0.5784 -0.4175
vn 0.7008 0.5785 -0.4174
vn 0.3389 0.6367 -0.6926
vn -0.6000 0.6623 0.4487
vn 0.6001 0.6625 0.4484
vn -0.6001 0.6625 0.4484
vn 0.6000 0.6623 0.4487
vn 0.0001 0.8406 0.5416
vn -0.6698 0.6915 0.2705
vn 0.2105 0.5914 0.7784
vn 0.6699 0.6915 0.2704
vn -0.2105 0.5914 0.7784
vn -0.5507 -0.8035 0.2263
vn -0.4269 -0.4209 -0.8004
vn 0.5514 0.8031 0.2258
vn 0.4276 -0.4226 -0.7991
vn 0.5514 -0.8031 0.2258
vn -0.4511 -0.0361 -0.8918
vn 0.4510 -0.0362 -0.8918
vn -0.8884 -0.0844 -0.4512
vn 0.8883 -0.0846 -0.4515
vn -0.7085 0.2636 0.6546
vn 0.7085 0.2636 0.6546
vn -0.0946 -0.7499 -0.6548
vn -0.4555 -0.5982 -0.6593
vn 0.4544 -0.5981 -0.6602
vn 0.0912 -0.7521 -0.6527
vn -0.7109 -0.6541 -0.2584
vn 0.7109 -0.6542 -0.2582
vn -0.5597 -0.4628 0.6874
vn 0.5597 -0.4628 0.6874
vn 0.0002 -0.7748 -0.6322
vn -0.0000 -0.7836 -0.6213
vn 0.0000 0.8283 0.5603
vn 0.0000 -0.5603 0.8283
vn 0.0000 -1.0000 -0.0000
vn 0.7995 0.5925 0.0990
vn -0.7995 0.5923 0.1000
vn -0.7995 -0.5923 0.1000
vn 0.7995 -0.5925 0.0990
vn 0.3934 0.6106 -0.6874
vn 0.0000 0.7071 -0.7071
vn -0.3934 0.6105 -0.6874
vn -0.3934 -0.6105 -0.6874
vn 0.3934 -0.6106 -0.6874
vn 0.0000 -0.7071 -0.7071
# 54 vertex normals

vt 0.1683 0.4031 0.0000
vt 0.1683 0.6275 0.0000
vt 0.1397 0.6268 0.0000
vt 0.1397 0.4031 0.0000
vt 0.1110 0.6275 0.0000
vt 0.1397 0.6500 0.0000
vt 0.0456 0.6889 0.0000
vt 0.2337 0.6889 0.0000
vt 0.2009 0.6394 0.0000
vt 0.2606 0.6802 0.0000
vt 0.0188 0.6802 0.0000
vt 0.0784 0.6394 0.0000
vt 0.2606 0.9494 0.0000
vt 0.2337 0.6799 0.0000
vt 0.0456 0.6799 0.0000
vt 0.0188 0.9494 0.0000
vt 0.1397 0.0284 0.0000
vt 0.0456 0.0673 0.0000
vt 0.2337 0.4627 0.0000
vt 0.2337 0.0673 0.0000
vt 0.0456 0.4627 0.0000
vt 0.1683 0.6332 0.0000
vt 0.1110 0.4031 0.0000
vt 0.1110 0.6332 0.0000
vt 0.2038 0.6462 0.0000
vt 0.0756 0.6462 0.0000
vt 0.2606 0.6895 0.0000
vt 0.0188 0.6895 0.0000
vt 0.2606 0.9736 0.0000
vt 0.0188 0.9736 0.0000
vt 0.1739 0.6412 0.0000
vt 0.2209 0.6530 0.0000
vt 0.0585 0.6530 0.0000
vt 0.1066 0.6412 0.0000
vt 0.2606 0.6939 0.0000
vt 0.0188 0.6939 0.0000
vt 0.2606 0.9786 0.0000
vt 0.0188 0.9786 0.0000
vt 0.1397 0.6405 0.0000
vt 0.1397 0.6325 0.0000
vt 0.1397 0.4627 0.0000
vt 0.0456 0.9786 0.0000
vt 0.0946 0.6939 0.0000
vt 0.2337 0.9786 0.0000
vt 0.1878 0.6939 0.0000
vt 0.1397 0.9786 0.0000
vt 0.1397 0.6939 0.0000
vt 0.0505 0.3402 0.0000
vt 0.1397 0.3402 0.0000
vt 0.2292 0.3402 0.0000
vt 0.0933 0.2656 0.0000
vt 0.1397 0.2656 0.0000
vt 0.1863 0.2656 0.0000
# 53 texture coords

o pelle
g pelle
usemtl Material__2
s 2129941
f 1/1/1 2/2/2 3/3/3 4/4/3 
s 134287424
f 5/5/4 3/3/3 6/6/5 7/7/6 
s 942176
f 8/8/7 2/2/2 9/9/8 10/10/9 
s 3833936
f 5/5/4 7/7/6 11/11/10 12/12/11 
s 104865792
f 8/8/7 10/10/9 13/13/12 14/14/13 
s 840957952
f 11/11/10 7/7/6 15/15/14 16/16/15 
s 67375108
f 7/7/6 6/6/5 17/17/16 18/18/17 
s 1426063616
f 8/8/7 14/14/13 19/19/18 20/20/19 
s 2483030144
f 15/15/14 7/7/6 18/18/17 21/21/20 
s 2820
f 2/2/2 1/1/1 22/1/21 23/22/22 
s 1416
f 24/23/23 5/5/4 25/24/24 26/23/25 
s 1578248
f 9/9/8 2/2/2 23/22/22 27/25/26 
s 1051300
f 5/5/4 12/12/11 28/26/27 25/24/24 
s 1132549
f 10/10/9 9/9/8 27/25/26 29/27/28 
s 115745
f 12/12/11 11/11/10 30/28/29 28/26/27 
s 41943065
f 13/13/12 10/10/9 29/27/28 31/29/30 
s 545261577
f 11/11/10 16/16/15 32/30/31 30/28/29 
s 2232544
f 27/25/26 23/22/22 33/31/32 34/32/33 
s 792656
f 25/24/24 28/26/27 35/33/34 36/34/35 
s 434180
f 29/27/28 27/25/26 34/32/33 37/35/36 
s 6685696
f 28/26/27 30/28/29 38/36/37 35/33/34 
s 536584
f 31/29/30 29/27/28 37/35/36 39/37/38 
s 69216256
f 30/28/29 32/30/31 40/38/39 38/36/37 
s 139281
f 25/24/24 36/34/35 41/39/40 42/40/41 
s 2283012097
f 21/21/20 18/18/17 17/17/16 43/41/42 
s 67113600
f 38/36/37 40/38/39 44/42/43 45/43/44 
s 62920130
f 32/30/31 16/16/15 15/15/14 21/21/20 
s 15747970
f 13/13/12 31/29/30 19/19/18 14/14/13 
s 525696
f 46/44/43 39/37/38 37/35/36 47/45/44 
s 21505
f 44/42/43 48/46/43 49/47/44 45/43/44 
s 54372
f 39/37/38 46/44/43 19/19/18 31/29/30 
s 41588
f 32/30/31 21/21/20 44/42/43 40/38/39 
s 2130690
f 47/45/44 37/35/36 34/32/33 33/31/32 
s 4718978
f 38/36/37 45/43/44 36/34/35 35/33/34 
s 42244
f 45/43/44 49/47/44 41/39/40 36/34/35 
s 73816
f 46/44/43 48/46/43 43/41/42 19/19/18 
s 197634
f 26/23/25 25/24/24 42/40/41 50/4/44 
s 73739
f 3/3/3 5/5/4 24/23/23 4/4/3 
s 144703648
f 3/3/3 2/2/2 8/8/7 6/6/5 
s 553648262
f 6/6/5 8/8/7 20/20/19 17/17/16 
s 278561
f 41/39/40 33/31/32 23/22/22 42/40/41 
s 1778917376
f 17/17/16 20/20/19 19/19/18 43/41/42 
s 67713
f 48/46/43 46/44/43 47/45/44 49/47/44 
s 264716
f 49/47/44 47/45/44 33/31/32 41/39/40 
s 1228808
f 48/46/43 44/42/43 21/21/20 43/41/42 
s 51202
f 42/40/41 23/22/22 22/1/21 50/4/44 
s 4674
f 4/4/3 24/23/23 51/48/45 52/49/3 
s 616
f 22/1/21 1/1/1 53/50/46 54/50/47 
s 340
f 24/23/23 26/23/25 55/48/48 51/48/45 
s 32793
f 50/4/44 22/1/21 54/50/47 56/49/44 
s 37024
f 1/1/1 4/4/3 52/49/3 53/50/46 
s 65573
f 26/23/25 50/4/44 56/49/44 55/48/48 
s 2569
f 52/49/3 51/48/45 57/51/49 58/52/50 
s 65606
f 54/50/47 53/50/46 59/53/51 60/53/52 
s 32920
f 51/48/45 55/48/48 61/51/53 57/51/49 
s 5138
f 56/49/44 54/50/47 60/53/52 62/52/54 
s 8325
f 53/50/46 52/49/3 58/52/50 59/53/51 
s 17568
f 55/48/48 56/49/44 62/52/54 61/51/53 
s 78080
f 62/52/54 60/53/52 59/53/51 58/52/50 
s 51456
f 61/51/53 62/52/54 58/52/50 57/51/49 
# 60 polygons

