# 3ds Max Wavefront OBJ Exporter v0.97b - (c)2007 guruware
# File Created: 08.06.2020 13:44:01

mtllib PousseV2.mtl

#
# object PousseV2
#

v  -0.2971 5.7497 -0.1694
v  -0.2806 5.7401 -0.0760
v  -0.2144 5.7019 -0.1400
v  -0.3100 5.7571 -0.2900
v  -0.1694 5.6759 0.1145
v  -0.0953 5.6331 0.0427
v  0.0037 5.5760 0.2805
v  0.1008 5.5199 0.3065
v  -0.1483 5.6638 -0.2041
v  -0.2929 5.7472 -0.4030
v  -0.0211 5.5903 -0.0291
v  0.1829 5.4725 0.2517
v  -0.1935 5.6898 -0.4028
v  -0.0822 5.6256 -0.2682
v  0.0530 5.5475 -0.1009
v  0.2439 5.4373 0.1679
v  -0.0929 5.6318 -0.3673
v  -0.0161 5.5874 -0.3322
v  0.1271 5.5047 -0.1727
v  0.2386 5.4404 0.0530
v  -0.2337 5.6538 0.7242
v  -0.1516 5.6065 0.7133
v  -0.2011 5.6350 0.6316
v  -0.3388 5.7145 0.7284
v  0.0224 5.5060 0.6020
v  -0.0331 5.5380 0.5105
v  0.1807 5.4146 0.4173
v  0.2116 5.3967 0.3079
v  -0.2506 5.6636 0.5500
v  -0.4348 5.7700 0.6989
v  -0.0886 5.5701 0.4189
v  0.1715 5.4199 0.2087
v  -0.4260 5.7649 0.5846
v  -0.3001 5.6922 0.4683
v  -0.1441 5.6021 0.3274
v  0.1045 5.4586 0.1312
v  -0.3866 5.7421 0.4720
v  -0.3496 5.7208 0.3867
v  -0.1996 5.6341 0.2359
v  0.0049 5.5161 0.1273
v  0.9225 4.9177 0.4141
v  0.8805 4.9102 0.3288
v  0.8242 4.9003 0.4104
v  0.9673 4.9256 0.5267
v  0.7098 4.8802 0.1780
v  0.6467 4.8690 0.2695
v  0.4774 4.8392 0.0694
v  0.3641 4.8192 0.0733
v  0.7679 4.8904 0.4921
v  0.9774 4.9273 0.6410
v  0.5836 4.8579 0.3610
v  0.2879 4.8057 0.1508
v  0.8682 4.9081 0.6705
v  0.7116 4.8805 0.5737
v  0.5205 4.8468 0.4526
v  0.2422 4.7977 0.2500
v  0.7486 4.8870 0.6662
v  0.6553 4.8705 0.6554
v  0.4574 4.8356 0.5441
v  0.2774 4.8039 0.3594
v  0.2665 0.0000 -0.0175
v  0.4016 0.0000 0.0385
v  0.4576 0.0000 0.1736
v  0.4016 0.0000 0.3088
v  0.2665 0.0000 0.3647
v  0.1313 0.0000 0.3088
v  0.0753 0.0000 0.1736
v  0.1313 0.0000 0.0385
v  0.2665 5.6367 0.1736
# 69 vertices

vn 0.5109 0.8596 -0.0019
vn 0.5000 0.8660 0.0003
vn 0.4998 0.8661 0.0003
vn 0.5003 0.8659 -0.0002
vn 0.5001 0.8660 -0.0001
vn 0.5000 0.8660 0.0001
vn 0.5004 0.8658 -0.0008
vn 0.4999 0.8661 0.0001
vn 0.5000 0.8660 -0.0003
vn 0.5000 0.8660 0.0002
vn 0.5000 0.8661 -0.0003
vn 0.5002 0.8659 -0.0003
vn 0.5001 0.8660 -0.0000
vn 0.4998 0.8661 0.0001
vn 0.4959 0.8683 0.0133
vn 0.5003 0.8658 -0.0000
vn 0.4990 0.8666 0.0004
vn 0.5005 0.8656 0.0132
vn 0.4996 0.8663 -0.0005
vn 0.4999 0.8661 -0.0002
vn 0.5003 0.8658 0.0006
vn 0.4999 0.8661 -0.0003
vn 0.5000 0.8660 0.0000
vn 0.4994 0.8664 -0.0007
vn 0.5001 0.8660 0.0001
vn 0.5003 0.8659 0.0001
vn 0.5002 0.8659 0.0002
vn 0.5002 0.8659 0.0001
vn 0.4998 0.8661 -0.0003
vn 0.4906 0.8714 -0.0048
vn 0.5000 0.8660 0.0004
vn -0.1847 0.9828 0.0045
vn -0.1736 0.9848 -0.0003
vn -0.1747 0.9846 0.0007
vn -0.1739 0.9848 0.0006
vn -0.1737 0.9848 0.0002
vn -0.1738 0.9848 0.0002
vn -0.1739 0.9848 0.0005
vn -0.1734 0.9848 -0.0002
vn -0.1736 0.9848 0.0002
vn -0.1736 0.9848 -0.0002
vn -0.1738 0.9848 -0.0001
vn -0.1734 0.9849 -0.0003
vn -0.1735 0.9848 -0.0003
vn -0.1736 0.9848 -0.0053
vn -0.1741 0.9847 0.0006
vn -0.1740 0.9847 0.0006
vn -0.1734 0.9848 -0.0000
vn 0.0001 -0.6175 -0.7866
vn 0.5562 -0.6175 -0.5562
vn 0.7866 -0.6175 -0.0001
vn 0.5561 -0.6175 0.5563
vn 0.0001 -0.6176 0.7865
vn -0.5560 -0.6174 0.5564
vn -0.7866 -0.6175 -0.0001
vn -0.5561 -0.6175 -0.5563
vn 0.0000 1.0000 -0.0000
# 57 vertex normals

vt 0.0606 0.9631 0.0000
vt 0.0806 0.9603 0.0000
vt 0.0806 0.9664 0.0000
vt 0.0362 0.9671 0.0000
vt 0.1353 0.9588 0.0000
vt 0.1353 0.9657 0.0000
vt 0.1965 0.9617 0.0000
vt 0.2186 0.9659 0.0000
vt 0.0813 0.8898 0.0000
vt 0.0182 0.8898 0.0000
vt 0.1369 0.8898 0.0000
vt 0.2261 0.8898 0.0000
vt 0.0362 0.9779 0.0000
vt 0.0806 0.9786 0.0000
vt 0.1353 0.9794 0.0000
vt 0.2186 0.9791 0.0000
vt 0.0606 0.9820 0.0000
vt 0.0806 0.9848 0.0000
vt 0.1353 0.9862 0.0000
vt 0.1965 0.9834 0.0000
vt 0.8565 0.3522 0.0000
vt 0.9093 0.3522 0.0000
vt 0.9311 0.3522 0.0000
vt 0.8037 0.3522 0.0000
vt 0.7818 0.3522 0.0000
vt 0.8565 0.4822 0.0000
# 26 texture coords

o PousseV2
g PousseV2
usemtl Material__60
s 1
f 1/1/1 2/2/2 3/3/3 4/4/4 
f 2/2/2 5/5/5 6/6/6 3/3/3 
f 6/6/6 5/5/5 7/7/7 8/8/5 
f 4/4/4 3/3/3 9/9/8 10/10/9 
f 3/3/3 6/6/6 11/11/10 9/9/8 
f 11/11/10 6/6/6 8/8/5 12/12/6 
f 13/13/11 10/10/9 9/9/8 14/14/12 
f 14/14/12 9/9/8 11/11/10 15/15/13 
f 11/11/10 12/12/6 16/16/14 15/15/13 
f 17/17/15 13/13/11 14/14/12 18/18/16 
f 18/18/16 14/14/12 15/15/13 19/19/5 
f 15/15/13 16/16/14 20/20/17 19/19/5 
f 21/1/18 22/2/19 23/3/20 24/4/21 
f 22/2/19 25/5/22 26/6/23 23/3/20 
f 26/6/23 25/5/22 27/7/24 28/8/25 
f 24/4/21 23/3/20 29/9/25 30/10/26 
f 23/3/20 26/6/23 31/11/6 29/9/25 
f 31/11/6 26/6/23 28/8/25 32/12/27 
f 33/13/20 30/10/26 29/9/25 34/14/28 
f 34/14/28 29/9/25 31/11/6 35/15/29 
f 31/11/6 32/12/27 36/16/6 35/15/29 
f 37/17/30 33/13/20 34/14/28 38/18/25 
f 38/18/25 34/14/28 35/15/29 39/19/22 
f 35/15/29 36/16/6 40/20/31 39/19/22 
f 41/1/32 42/2/33 43/3/33 44/4/34 
f 42/2/33 45/5/35 46/6/36 43/3/33 
f 46/6/36 45/5/35 47/7/37 48/8/38 
f 44/4/34 43/3/33 49/9/39 50/10/40 
f 43/3/33 46/6/36 51/11/41 49/9/39 
f 51/11/41 46/6/36 48/8/38 52/12/42 
f 53/13/43 50/10/40 49/9/39 54/14/36 
f 54/14/36 49/9/39 51/11/41 55/15/37 
f 51/11/41 52/12/42 56/16/44 55/15/37 
f 57/17/45 53/13/43 54/14/36 58/18/46 
f 58/18/46 54/14/36 55/15/37 59/19/47 
f 55/15/37 56/16/44 60/20/48 59/19/47 
f 61/21/49 62/22/50 63/23/51 64/22/52 65/21/53 66/24/54 67/25/55 68/24/56 
s 8
f 63/23/51 62/22/50 69/26/57 
f 62/22/50 61/21/49 69/26/57 
f 61/21/49 68/24/56 69/26/57 
f 68/24/56 67/25/55 69/26/57 
f 67/25/55 66/24/54 69/26/57 
f 66/24/54 65/21/53 69/26/57 
f 65/21/53 64/22/52 69/26/57 
f 64/22/52 63/23/51 69/26/57 
# 37 polygons - 8 triangles

