# Blender v2.79 (sub 0) OBJ File: ''
# www.blender.org
mtllib Cone2.mtl
o pCylinder1
v 0.299662 2.442129 -0.412449
v 0.484863 2.442129 -0.157542
v 1.843052 -2.442129 -0.598844
v 1.139069 -2.442129 -1.567793
v 0.000000 2.442129 -0.509815
v -0.000000 -2.442129 -1.937899
v -0.299662 2.442129 -0.412449
v -1.139068 -2.442129 -1.567793
v -0.484863 2.442129 -0.157541
v -1.843052 -2.442129 -0.598844
v -0.484863 2.442129 0.157541
v -1.843052 -2.442129 0.598843
v -0.299662 2.442129 0.412449
v -1.139068 -2.442129 1.567792
v 0.000000 2.442129 0.509815
v -0.000000 -2.442129 1.937898
v 0.299662 2.442129 0.412449
v 1.139068 -2.442129 1.567792
v 0.484863 2.442129 0.157541
v 1.843052 -2.442129 0.598843
vt 0.400000 0.688440
vt 0.375000 0.688440
vt 0.375000 0.312500
vt 0.400000 0.312500
vt 0.425000 0.688440
vt 0.425000 0.312500
vt 0.450000 0.688440
vt 0.450000 0.312500
vt 0.475000 0.688440
vt 0.475000 0.312500
vt 0.500000 0.688440
vt 0.500000 0.312500
vt 0.525000 0.688440
vt 0.525000 0.312500
vt 0.550000 0.688440
vt 0.550000 0.312500
vt 0.575000 0.688440
vt 0.575000 0.312500
vt 0.600000 0.688440
vt 0.600000 0.312500
vt 0.625000 0.688440
vt 0.625000 0.312500
vn 0.5642 0.2806 -0.7765
vn 0.9128 0.2806 -0.2966
vn -0.0000 0.2806 -0.9598
vn -0.5642 0.2806 -0.7765
vn -0.9128 0.2806 -0.2966
vn -0.9128 0.2806 0.2966
vn -0.5642 0.2806 0.7765
vn 0.0000 0.2806 0.9598
vn 0.5642 0.2806 0.7765
vn 0.9128 0.2806 0.2966
usemtl initialShadingGroup
s 1
f 1/1/1 2/2/2 3/3/2 4/4/1
f 5/5/3 1/1/1 4/4/1 6/6/3
f 7/7/4 5/5/3 6/6/3 8/8/4
f 9/9/5 7/7/4 8/8/4 10/10/5
f 11/11/6 9/9/5 10/10/5 12/12/6
f 13/13/7 11/11/6 12/12/6 14/14/7
f 15/15/8 13/13/7 14/14/7 16/16/8
f 17/17/9 15/15/8 16/16/8 18/18/9
f 19/19/10 17/17/9 18/18/9 20/20/10
f 2/21/2 19/19/10 20/20/10 3/22/2
