# 3ds Max Wavefront OBJ Exporter v0.97b - (c)2007 guruware
# File Created: 08.06.2020 13:40:11

mtllib Canoe.mtl

#
# object canoe001
#

v  20.7338 0.7263 -0.5821
v  23.1466 0.9091 -0.4920
v  15.1319 0.0000 -3.5196
v  16.0216 0.0000 -2.2167
v  0.0000 0.0000 3.6068
v  0.0000 0.0000 4.5652
v  15.1319 0.0000 3.5196
v  16.0216 0.0000 2.2167
v  0.0000 0.0000 -4.5652
v  0.0000 0.0000 -3.6068
v  20.6915 0.7263 0.5821
v  23.1466 0.9091 0.4920
v  22.3052 -1.1288 -0.4693
v  14.6604 -1.1288 -3.3572
v  0.0000 -1.1288 4.3545
v  14.6604 -1.1288 3.3572
v  0.0000 -1.1288 -4.3545
v  22.3052 -1.1288 0.4693
v  20.7281 -2.5333 -0.0000
v  11.4179 -2.5333 -2.2403
v  0.0000 -2.5333 2.9059
v  11.4179 -2.5333 2.2403
v  0.0000 -2.5333 -2.9059
v  11.4174 -2.7903 -0.0000
v  0.0000 -3.1178 -0.0000
v  13.0781 -1.9704 -1.4969
v  16.5416 -1.9704 -0.3931
v  13.0781 -1.9704 1.4969
v  0.0000 -1.9704 2.4357
v  0.0000 -1.9704 -2.4357
v  16.5106 -1.9704 0.3931
v  0.0000 -2.3697 -0.0000
v  13.0764 -2.0890 0.0004
v  -20.7338 0.7263 -0.5821
v  -16.0216 0.0000 -2.2167
v  -15.1319 0.0000 -3.5196
v  -23.1466 0.9091 -0.4920
v  -15.1319 0.0000 3.5196
v  -16.0216 0.0000 2.2167
v  -23.1466 0.9091 0.4920
v  -20.6915 0.7263 0.5821
v  -14.6604 -1.1288 -3.3572
v  -22.3052 -1.1288 -0.4693
v  -14.6604 -1.1288 3.3572
v  -22.3052 -1.1288 0.4693
v  -11.4179 -2.5333 -2.2403
v  -20.7281 -2.5333 -0.0000
v  -11.4179 -2.5333 2.2403
v  -11.4174 -2.7903 -0.0000
v  -16.5416 -1.9704 -0.3931
v  -13.0781 -1.9704 -1.4969
v  -13.0781 -1.9704 1.4969
v  -16.5106 -1.9704 0.3931
v  -13.0764 -2.0890 0.0004
v  4.8730 -0.9380 3.6210
v  4.8730 -0.9380 -3.6210
v  6.9311 -0.9380 -3.6210
v  6.9311 -0.9380 3.6210
v  6.9311 -0.2673 -3.6210
v  4.8730 -0.2673 -3.6210
v  4.8730 -0.2673 3.6210
v  6.9311 -0.2673 3.6210
v  -6.9311 -0.9380 -3.6210
v  -4.8730 -0.9380 -3.6210
v  -4.8730 -0.9380 3.6210
v  -6.9311 -0.9380 3.6210
v  -4.8730 -0.2673 3.6210
v  -4.8730 -0.2673 -3.6210
v  -6.9311 -0.2673 -3.6210
v  -6.9311 -0.2673 3.6210
# 70 vertices

vn -0.2156 0.9750 -0.0537
vn 0.7375 0.4992 -0.4549
vn 0.1982 0.5764 -0.7927
vn -0.2221 0.8867 0.4055
vn 0.0000 0.8809 -0.4734
vn 0.0000 0.6228 0.7824
vn 0.1982 0.5764 0.7927
vn -0.2237 0.8868 -0.4044
vn 0.0000 0.6228 -0.7824
vn 0.0000 0.8809 0.4734
vn -0.2203 0.9744 0.0448
vn 0.7378 0.4987 0.4549
vn 0.6873 -0.5090 -0.5181
vn 0.1834 -0.5387 -0.8223
vn 0.0000 -0.4676 0.8839
vn 0.1834 -0.5387 0.8223
vn 0.0000 -0.4676 -0.8839
vn 0.6873 -0.5090 0.5181
vn 0.3663 -0.9305 -0.0000
vn 0.0432 -0.8928 -0.4484
vn -0.0000 -0.8807 0.4736
vn 0.0432 -0.8928 0.4484
vn -0.0000 -0.8807 -0.4736
vn 0.0281 -0.9996 -0.0000
vn 0.0000 -1.0000 -0.0000
vn -0.0714 0.8219 0.5651
vn -0.3147 0.8582 0.4055
vn -0.0717 0.8219 -0.5651
vn 0.0000 0.8172 -0.5763
vn 0.0000 0.8172 0.5763
vn -0.3063 0.8567 -0.4151
vn 0.0000 1.0000 0.0000
vn -0.0237 0.9997 -0.0001
vn 0.2156 0.9750 -0.0537
vn 0.2221 0.8867 0.4055
vn -0.1982 0.5764 -0.7927
vn -0.7375 0.4992 -0.4549
vn -0.1982 0.5764 0.7927
vn 0.2237 0.8868 -0.4044
vn -0.7378 0.4987 0.4549
vn 0.2203 0.9744 0.0448
vn -0.1834 -0.5387 -0.8223
vn -0.6873 -0.5090 -0.5181
vn -0.1834 -0.5387 0.8223
vn -0.6873 -0.5090 0.5181
vn -0.0432 -0.8928 -0.4484
vn -0.3663 -0.9305 -0.0000
vn -0.0432 -0.8928 0.4484
vn -0.0281 -0.9996 -0.0000
vn 0.3147 0.8582 0.4055
vn 0.0714 0.8219 0.5651
vn 0.0717 0.8219 -0.5651
vn 0.3063 0.8567 -0.4151
vn 0.0237 0.9997 -0.0001
vn -0.7071 -0.7071 -0.0000
vn 0.7071 -0.7071 -0.0000
vn 0.7071 0.7071 -0.0000
vn -0.7071 0.7071 -0.0000
# 58 vertex normals

vt 0.9695 0.8696 0.0000
vt 0.9802 0.8677 0.0000
vt 0.9444 0.8677 0.0000
vt 0.9484 0.8696 0.0000
vt 0.8769 0.8696 0.0000
vt 0.8769 0.8677 0.0000
vt 0.9693 0.8696 0.0000
vt 0.9765 0.8103 0.0000
vt 0.9423 0.8330 0.0000
vt 0.8769 0.8330 0.0000
vt 0.9694 0.7699 0.0000
vt 0.9278 0.7938 0.0000
vt 0.8769 0.7938 0.0000
vt 0.9278 0.7699 0.0000
vt 0.8769 0.7699 0.0000
vt 0.9484 0.8838 0.0000
vt 0.9353 0.9760 0.0000
vt 0.9507 0.9906 0.0000
vt 0.9695 0.8838 0.0000
vt 0.8769 0.8838 0.0000
vt 0.8769 0.9760 0.0000
vt 0.9693 0.8838 0.0000
vt 0.9506 0.9906 0.0000
vt 0.8769 0.9906 0.0000
vt 0.9352 0.9906 0.0000
vt 0.7843 0.8696 0.0000
vt 0.8053 0.8696 0.0000
vt 0.8093 0.8677 0.0000
vt 0.7735 0.8677 0.0000
vt 0.7845 0.8696 0.0000
vt 0.8114 0.8330 0.0000
vt 0.7773 0.8103 0.0000
vt 0.8259 0.7938 0.0000
vt 0.7843 0.7699 0.0000
vt 0.8259 0.7699 0.0000
vt 0.8030 0.9906 0.0000
vt 0.8185 0.9760 0.0000
vt 0.8053 0.8838 0.0000
vt 0.7843 0.8838 0.0000
vt 0.7845 0.8838 0.0000
vt 0.8031 0.9906 0.0000
vt 0.8185 0.9906 0.0000
vt 0.8541 0.9646 0.0000
vt 0.8443 0.9646 0.0000
vt 0.8443 0.8977 0.0000
vt 0.8541 0.8977 0.0000
vt 0.9101 0.9646 0.0000
vt 0.9004 0.9646 0.0000
vt 0.9004 0.8977 0.0000
vt 0.9101 0.8977 0.0000
# 50 texture coords

o canoe001
g canoe001
usemtl Material__60
s 1
f 1/1/1 2/2/2 3/3/3 4/4/4 
f 5/5/5 6/6/6 7/3/7 8/4/8 
f 3/3/3 9/6/9 10/5/10 4/4/4 
f 1/1/1 11/7/11 12/2/12 2/2/2 
f 11/7/11 8/4/8 7/3/7 12/2/12 
s off
f 3/3/3 2/2/2 13/8/13 14/9/14 
f 6/6/6 15/10/15 16/9/16 7/3/7 
f 9/6/9 3/3/3 14/9/14 17/10/17 
f 12/2/12 18/8/18 13/8/13 2/2/2 
f 7/3/7 16/9/16 18/8/18 12/2/12 
f 14/9/14 13/8/13 19/11/19 20/12/20 
f 15/10/15 21/13/21 22/12/22 16/9/16 
f 17/10/17 14/9/14 20/12/20 23/13/23 
f 13/8/13 18/8/18 19/11/19 
f 16/9/16 22/12/22 19/11/19 18/8/18 
f 20/12/20 24/14/24 25/15/25 23/13/23 
f 22/12/22 21/13/21 25/15/25 24/14/24 
f 4/16/4 26/17/26 27/18/27 1/19/1 
f 5/20/5 8/16/8 28/17/28 29/21/29 
f 10/20/10 30/21/30 26/17/26 4/16/4 
f 11/22/11 1/19/1 27/18/27 31/23/31 
f 8/16/8 11/22/11 31/23/31 28/17/28 
f 26/17/26 30/21/30 32/24/32 33/25/33 
f 28/17/28 33/25/33 32/24/32 29/21/29 
f 28/17/28 31/23/31 33/25/33 
f 33/25/33 31/23/31 27/18/27 
f 33/25/33 27/18/27 26/17/26 
f 20/12/20 19/11/19 24/14/24 
f 24/14/24 19/11/19 22/12/22 
s 1
f 34/26/34 35/27/35 36/28/36 37/29/37 
f 38/28/38 6/6/6 5/5/5 39/27/39 
f 36/28/36 35/27/35 10/5/10 9/6/9 
f 40/29/40 41/30/41 34/26/34 37/29/37 
f 38/28/38 39/27/39 41/30/41 40/29/40 
s off
f 36/28/36 42/31/42 43/32/43 37/29/37 
f 44/31/44 15/10/15 6/6/6 38/28/38 
f 9/6/9 17/10/17 42/31/42 36/28/36 
f 43/32/43 45/32/45 40/29/40 37/29/37 
f 45/32/45 44/31/44 38/28/38 40/29/40 
f 42/31/42 46/33/46 47/34/47 43/32/43 
f 48/33/48 21/13/21 15/10/15 44/31/44 
f 17/10/17 23/13/23 46/33/46 42/31/42 
f 43/32/43 47/34/47 45/32/45 
f 47/34/47 48/33/48 44/31/44 45/32/45 
f 25/15/25 49/35/49 46/33/46 23/13/23 
f 48/33/48 49/35/49 25/15/25 21/13/21 
f 50/36/50 51/37/51 35/38/35 34/39/34 
f 5/20/5 29/21/29 52/37/52 39/38/39 
f 51/37/51 30/21/30 10/20/10 35/38/35 
f 41/40/41 53/41/53 50/36/50 34/39/34 
f 39/38/39 52/37/52 53/41/53 41/40/41 
f 51/37/51 54/42/54 32/24/32 30/21/30 
f 32/24/32 54/42/54 52/37/52 29/21/29 
f 52/37/52 54/42/54 53/41/53 
f 54/42/54 50/36/50 53/41/53 
f 54/42/54 51/37/51 50/36/50 
f 46/33/46 49/35/49 47/34/47 
f 49/35/49 48/33/48 47/34/47 
s 2
f 55/43/55 56/43/55 57/44/56 58/44/56 
s 4
f 59/45/57 60/46/58 61/46/58 62/45/57 
s 16
f 61/46/58 60/46/58 56/43/55 55/43/55 
s 64
f 59/45/57 62/45/57 58/44/56 57/44/56 
s 2
f 63/47/55 64/48/56 65/48/56 66/47/55 
s 4
f 67/49/57 68/49/57 69/50/58 70/50/58 
s 16
f 64/48/56 68/49/57 67/49/57 65/48/56 
s 64
f 66/47/55 70/50/58 69/50/58 63/47/55 
# 54 polygons - 12 triangles

