# 3ds Max Wavefront OBJ Exporter v0.97b - (c)2007 guruware
# File Created: 29.02.2020 18:21:13

mtllib bouteille.mtl

#
# object bouteille
#

v  54.9338 -10.7086 -60.1979
v  50.8609 -10.7086 -58.5108
v  46.7879 -10.7086 -60.1979
v  45.1008 -10.7086 -64.2709
v  46.7879 -10.7086 -68.3439
v  50.8609 -10.7086 -70.0309
v  54.9338 -10.7086 -68.3439
v  56.6209 -10.7086 -64.2709
v  54.9338 17.2370 -68.3439
v  56.6209 17.2370 -64.2709
v  50.8609 17.2370 -70.0309
v  46.7879 17.2370 -68.3439
v  45.1008 17.2370 -64.2709
v  46.7879 17.2370 -60.1979
v  50.8609 17.2370 -58.5108
v  54.9338 17.2370 -60.1979
v  52.6420 23.0009 -66.0520
v  53.3797 23.0009 -64.2709
v  50.8609 23.0009 -66.7897
v  49.0798 23.0009 -66.0520
v  48.3420 23.0009 -64.2709
v  49.0798 23.0009 -62.4898
v  50.8609 23.0009 -61.7520
v  52.6420 23.0009 -62.4898
v  52.6420 29.5903 -66.0520
v  53.3797 29.5903 -64.2709
v  50.8609 29.5903 -66.7897
v  49.0798 29.5903 -66.0520
v  48.3420 29.5903 -64.2709
v  49.0798 29.5903 -62.4898
v  50.8609 29.5903 -61.7520
v  52.6420 29.5903 -62.4898
v  53.0517 29.8838 -66.3622
v  53.9591 29.8838 -64.2709
v  50.8609 29.8838 -67.2284
v  48.6700 29.8838 -66.3622
v  47.7626 29.8838 -64.2709
v  48.6700 29.8838 -62.1796
v  50.8609 29.8838 -61.3134
v  53.0517 29.8838 -62.1796
v  53.0517 32.6389 -66.3622
v  53.9591 32.6389 -64.2709
v  50.8609 32.6389 -67.2284
v  48.6700 32.6389 -66.3622
v  47.7626 32.6389 -64.2709
v  48.6700 32.6389 -62.1796
v  50.8609 32.6389 -61.3134
v  53.0517 32.6389 -62.1796
v  52.6299 33.0735 -66.0520
v  53.3626 33.0735 -64.2709
v  50.8609 33.0735 -66.7897
v  49.0918 33.0735 -66.0520
v  48.3591 33.0735 -64.2709
v  49.0918 33.0735 -62.4898
v  50.8609 33.0735 -61.7520
v  52.6299 33.0735 -62.4898
v  49.9085 36.3813 -63.0670
v  51.7854 36.4021 -63.3649
v  51.2960 31.0100 -63.6369
v  50.0146 30.9895 -63.5750
v  51.2386 36.3870 -64.6602
v  49.6614 36.3999 -64.6171
v  50.0425 30.9963 -64.2117
v  50.9147 30.9958 -64.1994
v  49.7163 31.0243 -63.3460
v  49.0324 36.4401 -63.1685
v  50.4103 36.4491 -61.8949
v  50.7301 31.0365 -62.8910
v  52.2999 36.4443 -62.4895
v  53.3105 36.4512 -64.3501
v  52.1927 31.0148 -64.1648
v  51.7979 31.0262 -63.3532
v  52.2705 36.4330 -65.8790
v  49.8247 36.4419 -66.4277
v  50.6468 31.0278 -65.4522
v  51.8370 30.9967 -65.4731
v  48.5363 41.8075 -65.4784
v  46.5013 41.8798 -62.4222
v  47.8034 39.9144 -62.7773
v  49.1054 39.7193 -65.0120
v  53.5965 41.8531 -60.6683
v  53.0646 39.8426 -61.4380
v  50.1024 39.8764 -60.7894
v  49.7175 41.8675 -59.6248
v  49.2084 41.8222 -67.8165
v  44.9055 41.8411 -64.7678
v  46.3091 39.2399 -65.0577
v  49.2812 39.7541 -67.3368
v  53.4917 41.8318 -67.3527
v  53.1134 39.7916 -66.9252
v  54.4741 39.8483 -64.4974
v  55.5130 41.8565 -64.5954
v  51.8455 41.7784 -65.5862
v  51.5387 39.6556 -65.0914
v  52.2880 39.6968 -63.0391
v  52.8877 41.7958 -62.6506
v  49.3542 41.7725 -61.8616
v  50.1744 39.5106 -62.3531
v  49.5633 31.0578 -63.5789
v  47.6985 36.4547 -64.3317
v  51.8663 30.9212 -63.3441
v  52.3478 36.2825 -63.0678
v  50.0540 36.2935 -62.4425
v  50.1291 30.9321 -62.9407
v  49.6720 30.9285 -64.7380
v  49.3114 36.2837 -65.1489
v  51.5985 36.2905 -65.1894
v  51.2564 30.9287 -64.7449
v  50.2727 36.2576 -61.2922
v  48.4198 36.2624 -63.0591
v  49.1150 30.9136 -63.1338
v  50.7055 30.9072 -62.2573
v  52.8317 30.9187 -64.1291
v  53.9266 36.2565 -64.3858
v  52.6975 36.2602 -62.0133
v  52.2424 30.9127 -62.8967
v  50.3640 30.9118 -66.0226
v  49.6360 36.2615 -67.0199
v  52.6248 36.2662 -66.3942
v  52.2160 30.9283 -65.9932
v  46.6442 39.2197 -62.6123
v  48.4782 39.3142 -66.0111
v  53.6761 39.2464 -60.6604
v  49.7701 39.2254 -59.6278
v  47.2899 36.2547 -64.7920
v  45.9358 39.0271 -65.5409
v  49.1412 39.2751 -68.2506
v  53.5081 39.2799 -67.5700
v  55.5863 39.2370 -64.5833
v  52.2005 39.3543 -66.0744
v  53.3472 39.3290 -62.4564
v  50.3255 39.4053 -61.7323
v  49.5744 41.6050 -59.0508
v  45.9259 41.5985 -62.3292
v  49.0574 30.8959 -63.9486
v  48.2053 41.6368 -66.0076
v  53.9758 41.6126 -60.2023
v  49.0359 41.6290 -68.4096
v  44.5555 41.6190 -65.2649
v  56.1094 41.6108 -64.6492
v  53.8164 41.6239 -67.8725
v  53.4386 41.6430 -62.3472
v  52.2069 41.6522 -66.1080
v  49.5121 41.6553 -61.2451
# 144 vertices

vn 0.5490 -0.6303 0.5490
vn -0.0000 -0.6303 0.7764
vn -0.5490 -0.6302 0.5490
vn -0.7763 -0.6303 -0.0000
vn -0.5490 -0.6302 -0.5490
vn 0.0000 -0.6303 -0.7763
vn 0.5490 -0.6303 -0.5490
vn 0.7764 -0.6303 0.0000
vn 0.6866 0.2394 -0.6865
vn 0.9709 0.2394 0.0000
vn -0.0000 0.2394 -0.9709
vn -0.6865 0.2394 -0.6865
vn -0.9709 0.2394 0.0000
vn -0.6865 0.2394 0.6866
vn -0.0000 0.2394 0.9709
vn 0.6865 0.2394 0.6865
vn 0.6808 0.2699 -0.6809
vn 0.9629 0.2699 -0.0000
vn -0.0000 0.2699 -0.9629
vn -0.6809 0.2699 -0.6809
vn -0.9629 0.2699 0.0000
vn -0.6809 0.2699 0.6809
vn 0.0000 0.2699 0.9629
vn 0.6809 0.2699 0.6808
vn 0.5759 -0.5603 -0.5953
vn 0.8075 -0.5899 -0.0000
vn 0.0000 -0.5265 -0.8502
vn -0.5759 -0.5604 -0.5953
vn -0.8075 -0.5899 -0.0000
vn -0.5759 -0.5603 0.5953
vn 0.0000 -0.5265 0.8501
vn 0.5759 -0.5603 0.5953
vn 0.6243 -0.4540 -0.6358
vn 0.8818 -0.4717 0.0000
vn -0.0000 -0.4304 -0.9026
vn -0.6243 -0.4540 -0.6358
vn -0.8818 -0.4717 -0.0000
vn -0.6243 -0.4540 0.6358
vn 0.0000 -0.4304 0.9026
vn 0.6243 -0.4540 0.6358
vn 0.6467 0.3877 -0.6568
vn 0.9110 0.4125 0.0000
vn -0.0000 0.3561 -0.9345
vn -0.6467 0.3877 -0.6568
vn -0.9110 0.4125 -0.0000
vn -0.6467 0.3877 0.6568
vn 0.0000 0.3561 0.9345
vn 0.6467 0.3877 0.6568
vn 0.2824 0.9100 -0.3035
vn 0.3755 0.9268 0.0000
vn -0.0000 0.8900 -0.4560
vn -0.2824 0.9100 -0.3035
vn -0.3755 0.9268 0.0000
vn -0.2824 0.9100 0.3035
vn 0.0000 0.8900 0.4560
vn 0.2824 0.9100 0.3035
vn -0.8222 0.1148 -0.5576
vn -0.8670 0.1439 -0.4771
vn -0.8921 0.1032 -0.4399
vn -0.7808 0.0434 -0.6233
vn -0.5363 0.1324 0.8336
vn 0.5464 0.1461 0.8247
vn 0.5507 0.1010 0.8285
vn -0.4668 0.1031 0.8783
vn 0.9160 0.1281 -0.3801
vn 0.9483 0.2500 -0.1956
vn 0.2102 0.2591 -0.9427
vn -0.0088 0.1805 -0.9835
vn -0.6113 0.2748 -0.7422
vn -0.9617 0.2704 0.0452
vn -0.9750 0.1969 -0.1034
vn -0.6880 0.1760 -0.7041
vn -0.5442 0.2476 0.8016
vn 0.2646 0.2564 0.9297
vn 0.4807 0.2257 0.8473
vn -0.5927 0.1069 0.7983
vn 0.1693 0.9592 0.2263
vn -0.0450 0.9988 -0.0210
vn 0.8633 0.4831 -0.1462
vn 0.4976 0.2539 0.8294
vn -0.1152 0.9820 -0.1497
vn -0.5777 0.3926 -0.7156
vn 0.2208 0.4361 -0.8724
vn 0.0320 0.9956 -0.0880
vn 0.0877 0.9372 0.3375
vn -0.3292 0.5924 0.7354
vn -0.0979 0.0113 0.9951
vn 0.2545 0.2566 0.9324
vn -0.1606 0.9558 0.2461
vn -0.5241 0.3144 0.7915
vn -0.9150 0.4023 0.0310
vn -0.1132 0.9935 0.0066
vn -0.1524 0.9615 0.2286
vn -0.5482 0.2153 0.8081
vn -0.8750 0.2600 -0.4084
vn -0.1070 0.9924 -0.0611
vn -0.7783 0.5457 -0.3104
vn -0.8455 0.0039 -0.5339
vn 0.2348 0.2134 0.9483
vn -0.0187 0.1931 0.9810
vn 0.8902 -0.1028 0.4439
vn 0.8614 -0.2473 0.4436
vn -0.5452 -0.1130 0.8307
vn -0.5392 -0.0854 0.8379
vn -0.5765 -0.1010 -0.8108
vn -0.5303 -0.2447 -0.8117
vn 0.5564 -0.2284 -0.7989
vn 0.5414 -0.1037 -0.8343
vn -0.2162 -0.3718 0.9028
vn -0.9151 -0.3615 0.1785
vn -0.9200 -0.1248 0.3715
vn -0.0334 -0.1800 0.9831
vn 0.9774 -0.1968 0.0774
vn 0.9294 -0.3665 -0.0434
vn 0.5969 -0.3514 0.7213
vn 0.6865 -0.1750 0.7057
vn -0.4561 -0.2227 -0.8616
vn -0.2601 -0.3172 -0.9120
vn 0.5409 -0.2879 -0.7903
vn 0.5830 -0.1052 -0.8056
vn -0.9078 -0.3994 0.1280
vn -0.4995 -0.2011 -0.8426
vn 0.5968 -0.3470 0.7235
vn -0.2296 -0.3656 0.9020
vn -0.9266 -0.3739 0.0394
vn -0.8862 -0.4470 -0.1219
vn -0.2577 -0.2295 -0.9386
vn 0.5023 -0.2994 -0.8112
vn 0.9367 -0.3423 -0.0741
vn 0.5763 -0.1634 -0.8008
vn 0.8545 -0.1984 0.4800
vn -0.4430 -0.2451 0.8624
vn -0.2233 0.3745 0.9000
vn -0.9346 0.3214 0.1527
vn -0.9345 -0.2721 0.2295
vn -0.4500 0.5070 -0.7351
vn 0.5783 0.4044 0.7085
vn -0.2186 0.5043 -0.8354
vn -0.9602 0.2527 -0.1189
vn 0.9157 0.3939 -0.0801
vn 0.4623 0.4465 -0.7661
vn 0.7679 0.4846 0.4190
vn 0.4865 0.5320 -0.6930
vn -0.5089 0.3700 0.7772
# 144 vertex normals

vt 0.3445 0.0268 0.0000
vt 0.2366 0.0268 0.0000
vt 0.1288 0.0268 0.0000
vt 0.0841 0.0268 0.0000
vt 0.3892 0.0268 0.0000
vt 0.3445 0.6280 0.0000
vt 0.3892 0.6280 0.0000
vt 0.2366 0.6280 0.0000
vt 0.1288 0.6280 0.0000
vt 0.0841 0.6280 0.0000
vt 0.2838 0.7519 0.0000
vt 0.3033 0.7519 0.0000
vt 0.2366 0.7519 0.0000
vt 0.1895 0.7519 0.0000
vt 0.1699 0.7519 0.0000
vt 0.2838 0.2881 0.0000
vt 0.3033 0.2881 0.0000
vt 0.2366 0.2881 0.0000
vt 0.1895 0.2881 0.0000
vt 0.1699 0.2881 0.0000
vt 0.2947 0.4229 0.0000
vt 0.3187 0.4229 0.0000
vt 0.2366 0.4229 0.0000
vt 0.1786 0.4229 0.0000
vt 0.1546 0.4229 0.0000
vt 0.2947 0.9593 0.0000
vt 0.3187 0.9593 0.0000
vt 0.2366 0.9593 0.0000
vt 0.1786 0.9593 0.0000
vt 0.1546 0.9593 0.0000
vt 0.2835 0.4518 0.0000
vt 0.3029 0.4518 0.0000
vt 0.2366 0.4518 0.0000
vt 0.1898 0.4518 0.0000
vt 0.1704 0.4518 0.0000
vt 0.8472 0.3632 0.0000
vt 0.8812 0.3648 0.0000
vt 0.8724 0.0377 0.0000
vt 0.8491 0.0361 0.0000
vt 0.8713 0.3636 0.0000
vt 0.8427 0.3646 0.0000
vt 0.8496 0.0367 0.0000
vt 0.8655 0.0366 0.0000
vt 0.8437 0.0388 0.0000
vt 0.8313 0.3677 0.0000
vt 0.8563 0.3684 0.0000
vt 0.8621 0.0398 0.0000
vt 0.8906 0.3681 0.0000
vt 0.9089 0.3686 0.0000
vt 0.8886 0.0381 0.0000
vt 0.8815 0.0390 0.0000
vt 0.8900 0.3672 0.0000
vt 0.8457 0.3679 0.0000
vt 0.8606 0.0391 0.0000
vt 0.8822 0.0367 0.0000
vt 0.8223 0.9381 0.0000
vt 0.7854 0.9437 0.0000
vt 0.8090 0.6650 0.0000
vt 0.8326 0.6498 0.0000
vt 0.9141 0.9417 0.0000
vt 0.9044 0.6594 0.0000
vt 0.8507 0.6621 0.0000
vt 0.8437 0.9428 0.0000
vt 0.8345 0.9393 0.0000
vt 0.7565 0.9407 0.0000
vt 0.7819 0.6125 0.0000
vt 0.8358 0.6525 0.0000
vt 0.9122 0.9400 0.0000
vt 0.9053 0.6555 0.0000
vt 0.9300 0.6599 0.0000
vt 0.9488 0.9419 0.0000
vt 0.8823 0.9358 0.0000
vt 0.8768 0.6449 0.0000
vt 0.8904 0.6481 0.0000
vt 0.9012 0.9372 0.0000
vt 0.8372 0.9354 0.0000
vt 0.8520 0.6336 0.0000
vt 0.8409 0.0414 0.0000
vt 0.8071 0.3689 0.0000
vt 0.8827 0.0308 0.0000
vt 0.8914 0.3555 0.0000
vt 0.8498 0.3563 0.0000
vt 0.8512 0.0317 0.0000
vt 0.8429 0.0314 0.0000
vt 0.8364 0.3556 0.0000
vt 0.8779 0.3561 0.0000
vt 0.8717 0.0314 0.0000
vt 0.8538 0.3535 0.0000
vt 0.8202 0.3539 0.0000
vt 0.8328 0.0302 0.0000
vt 0.8617 0.0297 0.0000
vt 0.9002 0.0306 0.0000
vt 0.9201 0.3534 0.0000
vt 0.8978 0.3537 0.0000
vt 0.8895 0.0301 0.0000
vt 0.8555 0.0301 0.0000
vt 0.8423 0.3538 0.0000
vt 0.8965 0.3542 0.0000
vt 0.8891 0.0314 0.0000
vt 0.7880 0.6109 0.0000
vt 0.8213 0.6183 0.0000
vt 0.9155 0.6130 0.0000
vt 0.8447 0.6114 0.0000
vt 0.7997 0.3533 0.0000
vt 0.7752 0.5959 0.0000
vt 0.8333 0.6152 0.0000
vt 0.9125 0.6156 0.0000
vt 0.9502 0.6123 0.0000
vt 0.8888 0.6214 0.0000
vt 0.9096 0.6194 0.0000
vt 0.8548 0.6254 0.0000
vt 0.8411 0.9224 0.0000
vt 0.7750 0.9218 0.0000
vt 0.8318 0.0288 0.0000
vt 0.8163 0.9248 0.0000
vt 0.9210 0.9229 0.0000
vt 0.8314 0.9242 0.0000
vt 0.7501 0.9234 0.0000
vt 0.9597 0.9228 0.0000
vt 0.9181 0.9238 0.0000
vt 0.9112 0.9253 0.0000
vt 0.8889 0.9260 0.0000
vt 0.8400 0.9263 0.0000
# 123 texture coords

o bouteille
g bouteille
usemtl Material__6
s 1
f 1/1/1 2/2/2 3/3/3 4/4/4 5/3/5 6/2/6 7/1/7 8/5/8 
s 8
f 8/5/8 7/1/7 9/6/9 10/7/10 
f 7/1/7 6/2/6 11/8/11 9/6/9 
f 6/2/6 5/3/5 12/9/12 11/8/11 
f 5/3/5 4/4/4 13/10/13 12/9/12 
f 4/4/4 3/3/3 14/9/14 13/10/13 
f 3/3/3 2/2/2 15/8/15 14/9/14 
f 2/2/2 1/1/1 16/6/16 15/8/15 
f 1/1/1 8/5/8 10/7/10 16/6/16 
f 10/7/10 9/6/9 17/11/17 18/12/18 
f 9/6/9 11/8/11 19/13/19 17/11/17 
f 11/8/11 12/9/12 20/14/20 19/13/19 
f 12/9/12 13/10/13 21/15/21 20/14/20 
f 13/10/13 14/9/14 22/14/22 21/15/21 
f 14/9/14 15/8/15 23/13/23 22/14/22 
f 15/8/15 16/6/16 24/11/24 23/13/23 
f 16/6/16 10/7/10 18/12/18 24/11/24 
s 9
f 18/12/18 17/11/17 25/16/25 26/17/26 
s 10
f 17/11/17 19/13/19 27/18/27 25/16/25 
s 9
f 19/13/19 20/14/20 28/19/28 27/18/27 
s 10
f 20/14/20 21/15/21 29/20/29 28/19/28 
s 9
f 21/15/21 22/14/22 30/19/30 29/20/29 
s 10
f 22/14/22 23/13/23 31/18/31 30/19/30 
s 9
f 23/13/23 24/11/24 32/16/32 31/18/31 
s 10
f 24/11/24 18/12/18 26/17/26 32/16/32 
s 85
f 26/17/26 25/16/25 33/21/33 34/22/34 
s 178
f 25/16/25 27/18/27 35/23/35 33/21/33 
s 101
f 27/18/27 28/19/28 36/24/36 35/23/35 
s 150
f 28/19/28 29/20/29 37/25/37 36/24/36 
s 305
f 29/20/29 30/19/30 38/24/38 37/25/37 
s 102
f 30/19/30 31/18/31 39/23/39 38/24/38 
s 209
f 31/18/31 32/16/32 40/21/40 39/23/39 
s 166
f 32/16/32 26/17/26 34/22/34 40/21/40 
s 6472
f 34/22/34 33/21/33 41/26/41 42/27/42 
s 18304
f 33/21/33 35/23/35 43/28/43 41/26/41 
s 10824
f 35/23/35 36/24/36 44/29/44 43/28/43 
s 21640
f 36/24/36 37/25/37 45/30/45 44/29/44 
s 75520
f 37/25/37 38/24/38 46/29/46 45/30/45 
s 6668
f 38/24/38 39/23/39 47/28/47 46/29/46 
s 11536
f 39/23/39 40/21/40 48/26/48 47/28/47 
s 17960
f 40/21/40 34/22/34 42/27/42 48/26/48 
s 2240515
f 42/27/42 41/26/41 49/31/49 50/32/50 
s 278578
f 41/26/41 43/28/43 51/33/51 49/31/49 
s 565284
f 43/28/43 44/29/44 52/34/52 51/33/51 
s 1097745
f 44/29/44 45/30/45 53/35/53 52/34/52 
s 4259890
f 45/30/45 46/29/46 54/34/54 53/35/53 
s 8409184
f 46/29/46 47/28/47 55/33/55 54/34/54 
s 16818368
f 47/28/47 48/26/48 56/31/56 55/33/55 
s 33570945
f 48/26/48 42/27/42 50/32/50 56/31/56 
s 64880640
f 49/31/49 51/33/51 52/34/52 53/35/53 54/34/54 55/33/55 56/31/56 50/32/50 
s 416
f 57/36/57 58/37/58 59/38/59 60/39/60 
s 16385
f 61/40/61 62/41/62 63/42/63 64/43/64 
s 8193
f 65/44/65 66/45/66 67/46/67 68/47/68 
s 4097
f 69/48/69 70/49/70 71/50/71 72/51/72 
s 521
f 73/52/73 74/53/74 75/54/75 76/55/76 
s 4560
f 77/56/77 78/57/78 79/58/79 80/59/80 
s 100736
f 81/60/81 82/61/82 83/62/83 84/63/84 
s 4416
f 85/64/85 86/65/86 87/66/87 88/67/88 
s 74832
f 89/68/89 90/69/90 91/70/91 92/71/92 
s 138308
f 93/72/93 94/73/94 95/74/95 96/75/96 
s 36
f 97/76/97 96/75/96 95/74/95 98/77/98 
s 147472
f 93/72/93 77/56/77 80/59/80 94/73/94 
s 77824
f 66/45/66 79/58/79 83/62/83 67/46/67 
s 36880
f 81/60/81 92/71/92 91/70/91 82/61/82 
s 70272
f 89/68/89 85/64/85 88/67/88 90/69/90 
s 129
f 65/44/65 63/42/63 62/41/62 66/45/66 
s 257
f 69/48/69 72/51/72 68/47/68 67/46/67 
s 72
f 99/78/99 75/54/75 74/53/74 100/79/100 
s 1025
f 73/52/73 76/55/76 71/50/71 70/49/70 
s 1281
f 61/40/61 64/43/64 59/38/59 58/37/58 
s 22
f 101/80/101 102/81/102 103/82/103 104/83/104 
s 33
f 105/84/105 106/85/106 107/86/107 108/87/108 
f 109/88/109 110/89/110 111/90/111 112/91/112 
s 9
f 113/92/113 114/93/114 115/94/115 116/95/116 
s 4105
f 117/96/117 118/97/118 119/98/119 120/99/120 
s 6228
f 110/89/110 121/100/121 122/101/122 106/85/106 
s 12688
f 109/88/109 115/94/115 123/102/123 124/103/124 
s 164
f 125/104/125 126/105/126 127/106/127 118/97/118 
s 1648
f 114/93/114 119/98/119 128/107/128 129/108/129 
s 3016
f 102/81/102 107/86/107 130/109/130 131/110/131 
s 514
f 102/81/102 131/110/131 132/111/132 103/82/103 
s 4384
f 106/85/106 122/101/122 130/109/130 107/86/107 
s 10272
f 133/112/133 134/113/134 121/100/121 124/103/124 
s 4136
f 114/93/114 129/108/129 123/102/123 115/94/115 
s 4992
f 118/97/118 127/106/127 128/107/128 119/98/119 
s 5
f 106/85/106 105/84/105 111/90/111 110/89/110 
s 17
f 112/91/112 116/95/116 115/94/115 109/88/109 
s 40
f 118/97/118 117/96/117 135/114/135 125/104/125 
s 17
f 113/92/113 120/99/120 119/98/119 114/93/114 
s 13
f 101/80/101 108/87/108 107/86/107 102/81/102 
s 9
f 57/36/57 60/39/60 104/83/104 103/82/103 
s 1546
f 78/57/78 77/56/77 136/115/136 134/113/134 
s 147969
f 81/60/81 84/63/84 133/112/133 137/116/137 
s 8
f 86/65/86 85/64/85 138/117/138 139/118/139 
s 17
f 100/79/100 87/66/87 126/105/126 125/104/125 
s 278534
f 89/68/89 92/71/92 140/119/140 141/120/141 
s 860161
f 93/72/93 96/75/96 142/121/142 143/122/143 
s 524288
f 96/75/96 97/76/97 144/123/144 142/121/142 
s 8
f 97/76/97 98/77/98 132/111/132 144/123/144 
s 3
f 77/56/77 93/72/93 143/122/143 136/115/136 
s 131080
f 84/63/84 78/57/78 134/113/134 133/112/133 
s 262145
f 92/71/92 81/60/81 137/116/137 140/119/140 
s 11
f 85/64/85 89/68/89 141/120/141 138/117/138 
s 1
f 99/78/99 100/79/100 125/104/125 135/114/135 
s 4560
f 79/58/79 66/45/66 62/41/62 80/59/80 
s 100736
f 82/61/82 69/48/69 67/46/67 83/62/83 
s 4416
f 87/66/87 100/79/100 74/53/74 88/67/88 
s 74832
f 90/69/90 73/52/73 70/49/70 91/70/91 
s 138308
f 94/73/94 61/40/61 58/37/58 95/74/95 
s 36
f 95/74/95 58/37/58 57/36/57 98/77/98 
s 147472
f 80/59/80 62/41/62 61/40/61 94/73/94 
s 77824
f 79/58/79 78/57/78 84/63/84 83/62/83 
s 36880
f 91/70/91 70/49/70 69/48/69 82/61/82 
s 70272
f 88/67/88 74/53/74 73/52/73 90/69/90 
s 6228
f 121/100/121 134/113/134 136/115/136 122/101/122 
s 12688
f 123/102/123 137/116/137 133/112/133 124/103/124 
s 164
f 126/105/126 139/118/139 138/117/138 127/106/127 
s 1648
f 128/107/128 141/120/141 140/119/140 129/108/129 
s 3016
f 130/109/130 143/122/143 142/121/142 131/110/131 
s 514
f 131/110/131 142/121/142 144/123/144 132/111/132 
s 4384
f 122/101/122 136/115/136 143/122/143 130/109/130 
s 10272
f 121/100/121 110/89/110 109/88/109 124/103/124 
s 4136
f 129/108/129 140/119/140 137/116/137 123/102/123 
s 4992
f 127/106/127 138/117/138 141/120/141 128/107/128 
s 17
f 87/66/87 86/65/86 139/118/139 126/105/126 
s 8
f 98/77/98 57/36/57 103/82/103 132/111/132 
# 126 polygons

