# 3ds Max Wavefront OBJ Exporter v0.97b - (c)2007 guruware
# File Created: 04.06.2020 11:18:11

mtllib poisson.mtl

#
# object Box007
#

v  -2.4998 0.0870 0.0625
v  -2.4998 0.0870 -0.0625
v  -1.2188 0.3634 -0.0652
v  -1.2188 0.3634 0.0652
v  -0.6476 0.1296 0.2666
v  -0.6476 0.1296 -0.2666
v  0.0000 -0.0529 -0.3028
v  0.0000 -0.0529 0.3028
v  0.8126 0.1605 -0.2543
v  0.8126 0.1605 0.2543
v  1.6251 0.4949 -0.1479
v  1.6251 0.4949 0.1479
v  -2.4998 1.2499 0.0625
v  -1.2188 0.9735 0.0652
v  -1.2188 0.9735 -0.0652
v  -2.4998 1.2499 -0.0625
v  -0.6476 1.3369 0.2666
v  0.0000 1.5194 0.3028
v  0.0000 1.5194 -0.3028
v  -0.6476 1.3369 -0.2666
v  -0.4118 1.7436 0.0278
v  0.0175 1.9375 0.0278
v  0.0175 1.9375 -0.0278
v  -0.4118 1.7436 -0.0278
v  0.8126 1.3061 0.2543
v  1.6251 0.8420 0.1479
v  1.6251 0.8420 -0.1479
v  0.8126 1.3061 -0.2543
v  0.1719 1.4667 0.0939
v  0.1719 1.4667 -0.0939
v  0.6406 1.4200 0.0939
v  0.6406 1.4200 -0.0939
v  1.0220 0.7109 0.4439
v  1.0220 0.9331 0.3156
v  0.8295 0.8220 0.3156
v  0.8295 0.5998 0.3156
v  1.0220 0.4887 0.3156
v  1.2144 0.5998 0.3156
v  1.2144 0.8220 0.3156
v  1.0220 0.9331 0.0591
v  0.8295 0.8220 0.0591
v  0.8295 0.5998 0.0591
v  1.0220 0.4887 0.0591
v  1.2144 0.5998 0.0591
v  1.2144 0.8220 0.0591
v  1.0220 0.7109 -0.0692
v  1.0220 0.7109 -0.4639
v  0.8295 0.8220 -0.3357
v  1.0220 0.9331 -0.3357
v  0.8295 0.5998 -0.3357
v  1.0220 0.4887 -0.3357
v  1.2144 0.5998 -0.3357
v  1.2144 0.8220 -0.3357
v  0.8295 0.8220 -0.0791
v  1.0220 0.9331 -0.0791
v  0.8295 0.5998 -0.0791
v  1.0220 0.4887 -0.0791
v  1.2144 0.5998 -0.0791
v  1.2144 0.8220 -0.0791
v  1.0220 0.7109 0.0491
# 60 vertices

vn -0.5179 -0.6411 0.5664
vn -0.5179 -0.6411 -0.5664
vn -0.2070 -0.6576 -0.7244
vn -0.2070 -0.6576 0.7244
vn -0.3316 -0.6371 0.6958
vn -0.3316 -0.6371 -0.6958
vn -0.0054 -0.7464 -0.6654
vn -0.0054 -0.7464 0.6654
vn 0.2817 -0.6691 -0.6877
vn 0.2817 -0.6691 0.6877
vn 0.7036 -0.4458 -0.5534
vn 0.7036 -0.4458 0.5534
vn -0.5179 0.6411 0.5664
vn -0.2706 0.6114 0.7437
vn -0.2706 0.6114 -0.7437
vn -0.5179 0.6411 -0.5664
vn -0.3774 0.6342 0.6748
vn 0.0013 0.7494 0.6621
vn 0.0013 0.7494 -0.6621
vn -0.3774 0.6342 -0.6748
vn -0.8528 0.0157 0.5220
vn 0.0948 0.8148 0.5720
vn 0.0948 0.8148 -0.5720
vn -0.8528 0.0157 -0.5220
vn 0.3724 0.6068 0.7023
vn 0.7263 0.3968 0.5612
vn 0.7263 0.3968 -0.5612
vn 0.3724 0.6068 -0.7023
vn 0.0829 0.8666 0.4921
vn 0.0829 0.8666 -0.4921
vn 0.4050 0.8621 0.3044
vn 0.4050 0.8621 -0.3044
vn -0.0000 0.0000 1.0000
vn 0.0000 0.8973 0.4413
vn -0.7771 0.4487 0.4413
vn -0.7771 -0.4487 0.4413
vn -0.0000 -0.8973 0.4413
vn 0.7771 -0.4487 0.4413
vn 0.7771 0.4487 0.4413
vn 0.0000 0.8974 -0.4413
vn -0.7771 0.4487 -0.4413
vn -0.7771 -0.4487 -0.4413
vn 0.0000 -0.8973 -0.4413
vn 0.7771 -0.4487 -0.4413
vn 0.7771 0.4487 -0.4413
vn 0.0000 0.0000 -1.0000
vn -0.0000 0.0000 -1.0000
vn -0.0000 0.8973 -0.4414
vn 0.0000 -0.0000 1.0000
# 49 vertex normals

vt 0.0142 0.0233 0.0000
vt 0.1643 0.0255 0.0000
vt 0.2726 0.0235 0.0000
vt 0.4497 0.0121 0.0000
vt 0.6721 0.0372 0.0000
vt 0.8944 0.0838 0.0000
vt 0.0142 0.6816 0.0000
vt 0.1643 0.7357 0.0000
vt 0.2726 0.7711 0.0000
vt 0.4497 0.8522 0.0000
vt 0.4172 0.9016 0.0000
vt 0.5347 0.9609 0.0000
vt 0.6721 0.7575 0.0000
vt 0.8944 0.7041 0.0000
vt 0.4968 0.8288 0.0000
vt 0.6250 0.8080 0.0000
vt 0.9555 0.0405 0.0000
vt 0.9547 0.1394 0.0000
vt 0.9157 0.1394 0.0000
vt 0.9936 0.1394 0.0000
vt 0.9547 0.1783 0.0000
vt 0.9157 0.1783 0.0000
vt 0.9936 0.1783 0.0000
vt 0.9547 0.1978 0.0000
# 24 texture coords

o Box007
g Box007
usemtl Material__31
s 2
f 1/1/1 2/1/2 3/2/3 4/2/4 
f 5/3/5 6/3/6 7/4/7 8/4/8 
f 8/4/8 7/4/7 9/5/9 10/5/10 
f 10/5/10 9/5/9 11/6/11 12/6/12 
s 4
f 13/7/13 14/8/14 15/8/15 16/7/16 
f 17/9/17 18/10/18 19/10/19 20/9/20 
f 21/11/21 22/12/22 23/12/23 24/11/24 
f 25/13/25 26/14/26 27/14/27 28/13/28 
s 8
f 1/1/1 4/2/4 14/8/14 13/7/13 
f 5/3/5 8/4/8 18/10/18 17/9/17 
f 10/5/10 12/6/12 26/14/26 25/13/25 
s 16
f 12/6/12 11/6/11 27/14/27 26/14/26 
s 32
f 11/6/11 9/5/9 28/13/28 27/14/27 
f 7/4/7 6/3/6 20/9/20 19/10/19 
f 6/3/6 3/2/3 15/8/15 20/9/20 
s 64
f 2/1/2 1/1/1 13/7/13 16/7/16 
s 2
f 3/2/3 6/3/6 5/3/5 4/2/4 
s 4
f 14/8/14 17/9/17 20/9/20 15/8/15 
s 8
f 4/2/4 5/3/5 17/9/17 14/8/14 
s 32
f 3/2/3 2/1/2 16/7/16 15/8/15 
s off
f 19/10/19 18/10/18 29/15/29 30/15/30 
f 18/10/18 25/13/25 31/16/31 29/15/29 
f 25/13/25 28/13/28 32/16/32 31/16/31 
f 28/13/28 19/10/19 30/15/30 32/16/32 
f 30/15/30 29/15/29 21/11/21 24/11/24 
f 29/15/29 31/16/31 22/12/22 21/11/21 
f 31/16/31 32/16/32 23/12/23 22/12/22 
f 32/16/32 30/15/30 24/11/24 23/12/23 
f 18/10/18 8/4/8 10/5/10 25/13/25 
f 28/13/28 9/5/9 7/4/7 19/10/19 
s 1
f 33/17/33 34/18/34 35/19/35 
f 33/17/33 35/19/35 36/19/36 
f 33/17/33 36/19/36 37/18/37 
f 33/17/33 37/18/37 38/20/38 
f 33/17/33 38/20/38 39/20/39 
f 33/17/33 39/20/39 34/18/34 
f 34/18/34 40/21/40 41/22/41 35/19/35 
f 35/19/35 41/22/41 42/22/42 36/19/36 
f 36/19/36 42/22/42 43/21/43 37/18/37 
f 37/18/37 43/21/43 44/23/44 38/20/38 
f 38/20/38 44/23/44 45/23/45 39/20/39 
f 39/20/39 45/23/45 40/21/40 34/18/34 
f 46/24/46 41/22/41 40/21/40 
f 46/24/46 42/22/42 41/22/41 
f 46/24/46 43/21/43 42/22/42 
f 46/24/46 44/23/44 43/21/43 
f 46/24/46 45/23/45 44/23/44 
f 46/24/46 40/21/40 45/23/45 
f 47/17/47 48/19/41 49/18/48 
f 47/17/47 50/19/42 48/19/41 
f 47/17/47 51/18/43 50/19/42 
f 47/17/47 52/20/44 51/18/43 
f 47/17/47 53/20/45 52/20/44 
f 47/17/47 49/18/48 53/20/45 
f 49/18/48 48/19/41 54/22/35 55/21/34 
f 48/19/41 50/19/42 56/22/36 54/22/35 
f 50/19/42 51/18/43 57/21/37 56/22/36 
f 51/18/43 52/20/44 58/23/38 57/21/37 
f 52/20/44 53/20/45 59/23/39 58/23/38 
f 53/20/45 49/18/48 55/21/34 59/23/39 
f 60/24/49 55/21/34 54/22/35 
f 60/24/49 54/22/35 56/22/36 
f 60/24/49 56/22/36 57/21/37 
f 60/24/49 57/21/37 58/23/38 
f 60/24/49 58/23/38 59/23/39 
f 60/24/49 59/23/39 55/21/34 
# 42 polygons - 24 triangles

