# 3ds Max Wavefront OBJ Exporter v0.97b - (c)2007 guruware
# File Created: 01.05.2020 19:20:59

mtllib Bouee.mtl

#
# object Torus001
#

v  -4.7941 0.0000 50.9790
v  -4.7941 5.8577 53.4054
v  10.2213 5.8577 57.4287
v  11.4345 0.0000 55.3275
v  -4.7941 8.2840 59.2630
v  7.2925 8.2840 62.5016
v  -4.7941 5.8577 65.1207
v  4.3636 5.8577 67.5745
v  -4.7941 -0.0000 67.5470
v  3.1505 -0.0000 69.6757
v  -4.7941 -5.8577 65.1207
v  4.3636 -5.8577 67.5745
v  -4.7941 -8.2840 59.2630
v  7.2925 -8.2840 62.5016
v  -4.7941 -5.8577 53.4054
v  10.2213 -5.8577 57.4287
v  21.2133 5.8577 68.4207
v  23.3146 0.0000 67.2076
v  16.1405 8.2840 71.3496
v  11.0676 5.8577 74.2784
v  8.9663 -0.0000 75.4916
v  11.0676 -5.8577 74.2784
v  16.1405 -8.2840 71.3496
v  21.2133 -5.8577 68.4207
v  25.2367 5.8577 83.4361
v  27.6630 0.0000 83.4361
v  19.3790 8.2840 83.4361
v  13.5214 5.8577 83.4361
v  11.0951 -0.0000 83.4361
v  13.5214 -5.8577 83.4361
v  19.3790 -8.2840 83.4361
v  25.2367 -5.8577 83.4361
v  21.2133 5.8577 98.4515
v  23.3146 0.0000 99.6647
v  16.1405 8.2840 95.5227
v  11.0676 5.8577 92.5939
v  8.9663 -0.0000 91.3807
v  11.0676 -5.8577 92.5939
v  16.1405 -8.2840 95.5227
v  21.2133 -5.8577 98.4515
v  10.2213 5.8577 109.4435
v  11.4345 0.0000 111.5448
v  7.2925 8.2840 104.3707
v  4.3636 5.8577 99.2978
v  3.1505 -0.0000 97.1965
v  4.3636 -5.8577 99.2978
v  7.2925 -8.2840 104.3707
v  10.2213 -5.8577 109.4435
v  -4.7941 5.8577 113.4669
v  -4.7941 0.0000 115.8932
v  -4.7941 8.2840 107.6092
v  -4.7941 5.8577 101.7516
v  -4.7941 -0.0000 99.3253
v  -4.7941 -5.8577 101.7516
v  -4.7941 -8.2840 107.6092
v  -4.7941 -5.8577 113.4669
v  -19.8095 5.8577 109.4435
v  -21.0226 0.0000 111.5448
v  -16.8806 8.2840 104.3707
v  -13.9518 5.8577 99.2978
v  -12.7386 -0.0000 97.1965
v  -13.9518 -5.8577 99.2978
v  -16.8806 -8.2840 104.3707
v  -19.8095 -5.8577 109.4435
v  -30.8015 5.8577 98.4515
v  -32.9027 0.0000 99.6647
v  -25.7286 8.2840 95.5227
v  -20.6557 5.8577 92.5939
v  -18.5545 -0.0000 91.3807
v  -20.6557 -5.8577 92.5939
v  -25.7286 -8.2840 95.5227
v  -30.8015 -5.8577 98.4515
v  -34.8248 5.8577 83.4361
v  -37.2512 0.0000 83.4361
v  -28.9672 8.2840 83.4361
v  -23.1095 5.8577 83.4361
v  -20.6832 -0.0000 83.4361
v  -23.1095 -5.8577 83.4361
v  -28.9672 -8.2840 83.4361
v  -34.8248 -5.8577 83.4361
v  -30.8015 5.8577 68.4207
v  -32.9027 0.0000 67.2076
v  -25.7286 8.2840 71.3496
v  -20.6557 5.8577 74.2784
v  -18.5545 -0.0000 75.4916
v  -20.6557 -5.8577 74.2784
v  -25.7286 -8.2840 71.3496
v  -30.8015 -5.8577 68.4207
v  -19.8095 5.8577 57.4287
v  -21.0226 0.0000 55.3275
v  -16.8806 8.2840 62.5016
v  -13.9518 5.8577 67.5745
v  -12.7386 -0.0000 69.6757
v  -13.9518 -5.8577 67.5745
v  -16.8806 -8.2840 62.5016
v  -19.8095 -5.8577 57.4287
# 96 vertices

vn -0.0000 0.0000 -1.0000
vn -0.0000 0.6768 -0.7362
vn 0.3681 0.6768 -0.6375
vn 0.5000 0.0000 -0.8660
vn -0.0000 0.9980 -0.0635
vn 0.0318 0.9980 -0.0550
vn 0.0000 0.7402 0.6724
vn -0.3362 0.7402 0.5823
vn 0.0000 0.0000 1.0000
vn -0.5000 0.0000 0.8660
vn 0.0000 -0.7402 0.6724
vn -0.3362 -0.7402 0.5823
vn -0.0000 -0.9980 -0.0635
vn 0.0318 -0.9980 -0.0550
vn -0.0000 -0.6768 -0.7362
vn 0.3681 -0.6768 -0.6375
vn 0.6375 0.6768 -0.3681
vn 0.8660 0.0000 -0.5000
vn 0.0550 0.9980 -0.0318
vn -0.5823 0.7402 0.3362
vn -0.8660 0.0000 0.5000
vn -0.5823 -0.7402 0.3362
vn 0.0550 -0.9980 -0.0318
vn 0.6375 -0.6768 -0.3681
vn 0.7362 0.6768 -0.0000
vn 1.0000 0.0000 -0.0000
vn 0.0635 0.9980 -0.0000
vn -0.6724 0.7402 -0.0000
vn -1.0000 -0.0000 -0.0000
vn -0.6724 -0.7402 -0.0000
vn 0.0635 -0.9980 -0.0000
vn 0.7362 -0.6768 -0.0000
vn 0.6375 0.6768 0.3681
vn 0.8660 0.0000 0.5000
vn 0.0550 0.9980 0.0318
vn -0.5823 0.7402 -0.3362
vn -0.8660 0.0000 -0.5000
vn -0.5823 -0.7402 -0.3362
vn 0.0550 -0.9980 0.0318
vn 0.6375 -0.6768 0.3681
vn 0.3681 0.6768 0.6375
vn 0.5000 0.0000 0.8660
vn 0.0318 0.9980 0.0550
vn -0.3362 0.7402 -0.5823
vn -0.5000 0.0000 -0.8660
vn -0.3362 -0.7402 -0.5823
vn 0.0318 -0.9980 0.0550
vn 0.3681 -0.6768 0.6375
vn -0.0000 0.6768 0.7362
vn -0.0000 0.0000 1.0000
vn 0.0000 0.9980 0.0635
vn 0.0000 0.7402 -0.6724
vn 0.0000 0.0000 -1.0000
vn 0.0000 -0.7402 -0.6724
vn 0.0000 -0.9980 0.0635
vn -0.0000 -0.6768 0.7362
vn -0.3681 0.6768 0.6375
vn -0.0318 0.9980 0.0550
vn 0.3362 0.7402 -0.5823
vn 0.5000 -0.0000 -0.8660
vn 0.3362 -0.7402 -0.5823
vn -0.0318 -0.9980 0.0550
vn -0.3681 -0.6768 0.6375
vn -0.6375 0.6768 0.3681
vn -0.0550 0.9980 0.0318
vn 0.5823 0.7402 -0.3362
vn 0.8660 -0.0000 -0.5000
vn 0.5823 -0.7402 -0.3362
vn -0.0550 -0.9980 0.0318
vn -0.6375 -0.6768 0.3681
vn -0.7362 0.6768 0.0000
vn -1.0000 0.0000 0.0000
vn -0.0635 0.9980 -0.0000
vn 0.6724 0.7402 -0.0000
vn 0.6724 -0.7402 -0.0000
vn -0.0635 -0.9980 0.0000
vn -0.7362 -0.6768 0.0000
vn -0.6375 0.6768 -0.3681
vn -0.0550 0.9980 -0.0318
vn 0.5823 0.7402 0.3362
vn 0.8660 -0.0000 0.5000
vn 0.5823 -0.7402 0.3362
vn -0.0550 -0.9980 -0.0318
vn -0.6375 -0.6768 -0.3681
vn -0.3681 0.6768 -0.6375
vn -0.0318 0.9980 -0.0550
vn 0.3362 0.7402 0.5823
vn 0.5000 -0.0000 0.8660
vn 0.3362 -0.7402 0.5823
vn -0.0318 -0.9980 -0.0550
vn -0.3681 -0.6768 -0.6375
# 91 vertex normals

vt 0.5137 0.3920 0.0000
vt 0.4323 0.3920 0.0000
vt 0.4338 0.0810 0.0000
vt 0.5158 0.0810 0.0000
vt 0.3505 0.3920 0.0000
vt 0.3515 0.0810 0.0000
vt 0.2707 0.3920 0.0000
vt 0.2712 0.0810 0.0000
vt 0.1923 0.3920 0.0000
vt 0.1923 0.0810 0.0000
vt 0.8329 0.3920 0.0000
vt 0.7530 0.3920 0.0000
vt 0.7566 0.0810 0.0000
vt 0.8370 0.0810 0.0000
vt 0.6753 0.3920 0.0000
vt 0.6785 0.0810 0.0000
vt 0.5955 0.3920 0.0000
vt 0.5981 0.0810 0.0000
vt 0.4323 0.3916 0.0000
vt 0.5137 0.3916 0.0000
vt 0.3505 0.3916 0.0000
vt 0.2707 0.3916 0.0000
vt 0.1923 0.3916 0.0000
vt 0.7530 0.3916 0.0000
vt 0.8329 0.3916 0.0000
vt 0.6753 0.3916 0.0000
vt 0.5955 0.3916 0.0000
vt 0.5103 0.6795 0.0000
vt 0.4297 0.6795 0.0000
vt 0.4313 0.9571 0.0000
vt 0.5124 0.9571 0.0000
vt 0.3498 0.6795 0.0000
vt 0.3508 0.9571 0.0000
vt 0.2718 0.6795 0.0000
vt 0.2723 0.9571 0.0000
vt 0.1952 0.6795 0.0000
vt 0.1952 0.9571 0.0000
vt 0.8221 0.6795 0.0000
vt 0.7440 0.6795 0.0000
vt 0.7476 0.9571 0.0000
vt 0.8262 0.9571 0.0000
vt 0.6682 0.6795 0.0000
vt 0.6713 0.9571 0.0000
vt 0.5902 0.6795 0.0000
vt 0.5928 0.9571 0.0000
vt 0.4297 0.6774 0.0000
vt 0.5103 0.6774 0.0000
vt 0.3498 0.6774 0.0000
vt 0.2718 0.6774 0.0000
vt 0.1952 0.6774 0.0000
vt 0.7440 0.6774 0.0000
vt 0.8221 0.6774 0.0000
vt 0.6682 0.6774 0.0000
vt 0.5902 0.6774 0.0000
vt 0.5139 0.3916 0.0000
vt 0.4314 0.3916 0.0000
vt 0.4330 0.0800 0.0000
vt 0.5159 0.0800 0.0000
vt 0.3496 0.3916 0.0000
vt 0.3507 0.0800 0.0000
vt 0.2698 0.3916 0.0000
vt 0.2703 0.0800 0.0000
vt 0.1914 0.3916 0.0000
vt 0.1914 0.0800 0.0000
vt 0.8330 0.3916 0.0000
vt 0.7531 0.3916 0.0000
vt 0.7567 0.0800 0.0000
vt 0.8371 0.0800 0.0000
vt 0.6755 0.3916 0.0000
vt 0.6786 0.0800 0.0000
vt 0.5956 0.3916 0.0000
vt 0.5982 0.0800 0.0000
vt 0.4314 0.3912 0.0000
vt 0.5139 0.3912 0.0000
vt 0.3496 0.3912 0.0000
vt 0.2698 0.3912 0.0000
vt 0.1914 0.3912 0.0000
vt 0.7531 0.3912 0.0000
vt 0.8330 0.3912 0.0000
vt 0.6755 0.3912 0.0000
vt 0.5956 0.3912 0.0000
vt 0.5062 0.6804 0.0000
vt 0.4256 0.6804 0.0000
vt 0.4272 0.9594 0.0000
vt 0.5082 0.9594 0.0000
vt 0.3457 0.6804 0.0000
vt 0.3467 0.9594 0.0000
vt 0.2677 0.6804 0.0000
vt 0.2682 0.9594 0.0000
vt 0.1911 0.6804 0.0000
vt 0.1911 0.9594 0.0000
vt 0.8180 0.6804 0.0000
vt 0.7400 0.6804 0.0000
vt 0.7435 0.9594 0.0000
vt 0.8221 0.9594 0.0000
vt 0.6641 0.6804 0.0000
vt 0.6672 0.9594 0.0000
vt 0.5861 0.6804 0.0000
vt 0.5887 0.9594 0.0000
vt 0.4256 0.6783 0.0000
vt 0.5062 0.6783 0.0000
vt 0.3457 0.6783 0.0000
vt 0.2677 0.6783 0.0000
vt 0.1911 0.6783 0.0000
vt 0.7400 0.6783 0.0000
vt 0.8180 0.6783 0.0000
vt 0.6641 0.6783 0.0000
vt 0.5861 0.6783 0.0000
vt 0.5139 0.3920 0.0000
vt 0.4314 0.3920 0.0000
vt 0.4330 0.0809 0.0000
vt 0.5159 0.0809 0.0000
vt 0.3496 0.3920 0.0000
vt 0.3507 0.0809 0.0000
vt 0.2698 0.3920 0.0000
vt 0.2703 0.0809 0.0000
vt 0.1914 0.3920 0.0000
vt 0.1914 0.0809 0.0000
vt 0.8330 0.3920 0.0000
vt 0.7531 0.3920 0.0000
vt 0.7567 0.0809 0.0000
vt 0.8371 0.0809 0.0000
vt 0.6755 0.3920 0.0000
vt 0.6786 0.0809 0.0000
vt 0.5956 0.3920 0.0000
vt 0.5982 0.0809 0.0000
vt 0.5094 0.6786 0.0000
vt 0.4289 0.6786 0.0000
vt 0.4304 0.9617 0.0000
vt 0.5115 0.9617 0.0000
vt 0.3490 0.6786 0.0000
vt 0.3500 0.9617 0.0000
vt 0.2709 0.6786 0.0000
vt 0.2715 0.9617 0.0000
vt 0.1943 0.6786 0.0000
vt 0.1944 0.9617 0.0000
vt 0.8213 0.6786 0.0000
vt 0.7432 0.6786 0.0000
vt 0.7468 0.9617 0.0000
vt 0.8254 0.9617 0.0000
vt 0.6673 0.6786 0.0000
vt 0.6705 0.9617 0.0000
vt 0.5893 0.6786 0.0000
vt 0.5919 0.9617 0.0000
vt 0.4289 0.6792 0.0000
vt 0.5094 0.6792 0.0000
vt 0.3490 0.6792 0.0000
vt 0.2709 0.6792 0.0000
vt 0.1943 0.6792 0.0000
vt 0.7432 0.6792 0.0000
vt 0.8213 0.6792 0.0000
vt 0.6673 0.6792 0.0000
vt 0.5893 0.6792 0.0000
# 153 texture coords

o Torus001
g Torus001
usemtl Material__30
s 1
f 1/1/1 2/2/2 3/3/3 4/4/4 
f 2/2/2 5/5/5 6/6/6 3/3/3 
f 5/5/5 7/7/7 8/8/8 6/6/6 
f 7/7/7 9/9/9 10/10/10 8/8/8 
f 9/11/9 11/12/11 12/13/12 10/14/10 
f 11/12/11 13/15/13 14/16/14 12/13/12 
f 13/15/13 15/17/15 16/18/16 14/16/14 
f 15/17/15 1/1/1 4/4/4 16/18/16 
f 4/4/4 3/3/3 17/19/17 18/20/18 
f 3/3/3 6/6/6 19/21/19 17/19/17 
f 6/6/6 8/8/8 20/22/20 19/21/19 
f 8/8/8 10/10/10 21/23/21 20/22/20 
f 10/14/10 12/13/12 22/24/22 21/25/21 
f 12/13/12 14/16/14 23/26/23 22/24/22 
f 14/16/14 16/18/16 24/27/24 23/26/23 
f 16/18/16 4/4/4 18/20/18 24/27/24 
f 18/28/18 17/29/17 25/30/25 26/31/26 
f 17/29/17 19/32/19 27/33/27 25/30/25 
f 19/32/19 20/34/20 28/35/28 27/33/27 
f 20/34/20 21/36/21 29/37/29 28/35/28 
f 21/38/21 22/39/22 30/40/30 29/41/29 
f 22/39/22 23/42/23 31/43/31 30/40/30 
f 23/42/23 24/44/24 32/45/32 31/43/31 
f 24/44/24 18/28/18 26/31/26 32/45/32 
f 26/31/26 25/30/25 33/46/33 34/47/34 
f 25/30/25 27/33/27 35/48/35 33/46/33 
f 27/33/27 28/35/28 36/49/36 35/48/35 
f 28/35/28 29/37/29 37/50/37 36/49/36 
f 29/41/29 30/40/30 38/51/38 37/52/37 
f 30/40/30 31/43/31 39/53/39 38/51/38 
f 31/43/31 32/45/32 40/54/40 39/53/39 
f 32/45/32 26/31/26 34/47/34 40/54/40 
f 34/55/34 33/56/33 41/57/41 42/58/42 
f 33/56/33 35/59/35 43/60/43 41/57/41 
f 35/59/35 36/61/36 44/62/44 43/60/43 
f 36/61/36 37/63/37 45/64/45 44/62/44 
f 37/65/37 38/66/38 46/67/46 45/68/45 
f 38/66/38 39/69/39 47/70/47 46/67/46 
f 39/69/39 40/71/40 48/72/48 47/70/47 
f 40/71/40 34/55/34 42/58/42 48/72/48 
f 42/58/42 41/57/41 49/73/49 50/74/50 
f 41/57/41 43/60/43 51/75/51 49/73/49 
f 43/60/43 44/62/44 52/76/52 51/75/51 
f 44/62/44 45/64/45 53/77/53 52/76/52 
f 45/68/45 46/67/46 54/78/54 53/79/53 
f 46/67/46 47/70/47 55/80/55 54/78/54 
f 47/70/47 48/72/48 56/81/56 55/80/55 
f 48/72/48 42/58/42 50/74/50 56/81/56 
f 50/82/50 49/83/49 57/84/57 58/85/10 
f 49/83/49 51/86/51 59/87/58 57/84/57 
f 51/86/51 52/88/52 60/89/59 59/87/58 
f 52/88/52 53/90/53 61/91/60 60/89/59 
f 53/92/53 54/93/54 62/94/61 61/95/60 
f 54/93/54 55/96/55 63/97/62 62/94/61 
f 55/96/55 56/98/56 64/99/63 63/97/62 
f 56/98/56 50/82/50 58/85/10 64/99/63 
f 58/85/10 57/84/57 65/100/64 66/101/21 
f 57/84/57 59/87/58 67/102/65 65/100/64 
f 59/87/58 60/89/59 68/103/66 67/102/65 
f 60/89/59 61/91/60 69/104/67 68/103/66 
f 61/95/60 62/94/61 70/105/68 69/106/67 
f 62/94/61 63/97/62 71/107/69 70/105/68 
f 63/97/62 64/99/63 72/108/70 71/107/69 
f 64/99/63 58/85/10 66/101/21 72/108/70 
f 66/109/21 65/110/64 73/111/71 74/112/72 
f 65/110/64 67/113/65 75/114/73 73/111/71 
f 67/113/65 68/115/66 76/116/74 75/114/73 
f 68/115/66 69/117/67 77/118/26 76/116/74 
f 69/119/67 70/120/68 78/121/75 77/122/26 
f 70/120/68 71/123/69 79/124/76 78/121/75 
f 71/123/69 72/125/70 80/126/77 79/124/76 
f 72/125/70 66/109/21 74/112/72 80/126/77 
f 74/112/72 73/111/71 81/56/78 82/55/37 
f 73/111/71 75/114/73 83/59/79 81/56/78 
f 75/114/73 76/116/74 84/61/80 83/59/79 
f 76/116/74 77/118/26 85/63/81 84/61/80 
f 77/122/26 78/121/75 86/66/82 85/65/81 
f 78/121/75 79/124/76 87/69/83 86/66/82 
f 79/124/76 80/126/77 88/71/84 87/69/83 
f 80/126/77 74/112/72 82/55/37 88/71/84 
f 82/127/37 81/128/78 89/129/85 90/130/45 
f 81/128/78 83/131/79 91/132/86 89/129/85 
f 83/131/79 84/133/80 92/134/87 91/132/86 
f 84/133/80 85/135/81 93/136/88 92/134/87 
f 85/137/81 86/138/82 94/139/89 93/140/88 
f 86/138/82 87/141/83 95/142/90 94/139/89 
f 87/141/83 88/143/84 96/144/91 95/142/90 
f 88/143/84 82/127/37 90/130/45 96/144/91 
f 90/130/45 89/129/85 2/145/2 1/146/1 
f 89/129/85 91/132/86 5/147/5 2/145/2 
f 91/132/86 92/134/87 7/148/7 5/147/5 
f 92/134/87 93/136/88 9/149/9 7/148/7 
f 93/140/88 94/139/89 11/150/11 9/151/9 
f 94/139/89 95/142/90 13/152/13 11/150/11 
f 95/142/90 96/144/91 15/153/15 13/152/13 
f 96/144/91 90/130/45 1/146/1 15/153/15 
# 96 polygons

