# 3ds Max Wavefront OBJ Exporter v0.97b - (c)2007 guruware
# File Created: 08.06.2020 13:44:27

mtllib Tronc.mtl

#
# object Tronc
#

v  -26.5913 24.5787 14.6239
v  -29.5959 13.3909 13.6504
v  -11.0465 10.7810 8.5126
v  -8.5512 18.1662 9.2987
v  -31.7832 8.8501 3.1748
v  -11.1872 7.4260 1.4337
v  -30.9659 15.4971 -6.3274
v  -8.8326 11.4562 -4.8591
v  -27.9613 26.6849 -5.3540
v  -6.3372 18.8414 -4.0730
v  -25.7740 31.2257 5.1216
v  -6.1965 22.1964 3.0058
v  8.5334 3.5973 13.5106
v  11.3971 10.1198 14.0492
v  7.1893 0.8069 7.0732
v  8.7089 4.5390 1.1743
v  11.5727 11.0614 1.7130
v  12.9168 13.8518 8.1504
v  30.2712 4.1130 6.5651
v  30.2204 10.2346 6.1670
v  29.6621 0.7045 1.5008
v  29.0023 3.4177 -3.9616
v  28.9515 9.5394 -4.3598
v  29.5606 12.9478 0.7045
v  37.6367 3.3724 4.4370
v  38.1522 9.4832 4.2694
v  39.0504 0.0379 -0.5145
v  40.9796 2.8142 -5.6337
v  40.0814 12.2594 -0.8497
v  41.4951 8.9250 -5.8013
v  55.2339 3.5633 10.8912
v  56.0342 8.6828 10.8246
v  55.5580 0.8327 6.4988
v  56.6824 3.2217 2.0397
v  57.4827 8.3412 1.9731
v  57.1586 11.0718 6.3656
v  55.1125 4.3015 8.9218
v  55.6349 7.6429 8.8783
v  55.3241 2.5193 6.0549
v  56.0579 4.0785 3.1445
v  56.5803 7.4200 3.1010
v  56.3688 9.2022 5.9679
v  31.8748 8.3799 -6.9914
v  32.2953 4.0424 -6.7415
v  37.5441 7.9142 -7.6023
v  37.5492 3.7660 -7.5700
v  36.3961 7.0405 -17.2643
v  36.3753 3.0003 -15.2499
v  39.4565 8.4338 -13.6323
v  39.4046 4.4058 -12.0552
v  47.6076 2.2070 -21.0581
v  47.5924 -0.7471 -19.5852
v  49.8453 3.2257 -18.4025
v  49.8073 0.2805 -17.2493
v  54.1813 -1.8853 -25.4752
v  54.1712 -3.8334 -24.5039
v  55.6569 -1.2135 -23.7239
v  55.6319 -3.1557 -22.9635
v  -41.1063 25.5684 20.7604
v  -40.3882 18.0703 19.0058
v  -34.2117 24.8956 11.8716
v  -41.9572 25.0758 16.9596
v  -36.2367 17.3553 11.2155
v  -41.4732 20.0223 15.7770
v  -39.7804 6.0304 16.8084
v  -41.2356 3.0095 9.8391
v  -42.5027 8.2267 15.0257
v  -37.7108 14.2950 4.1553
v  -43.4835 6.1907 10.3286
v  -42.2286 4.7610 -3.4798
v  -41.7441 8.7013 -9.1126
v  -44.2316 7.5956 -3.0436
v  -37.1600 18.7748 -2.2489
v  -43.9050 10.2512 -6.8399
v  -40.8325 21.1052 -8.3234
v  -38.8336 28.5484 -7.6758
v  -43.2577 22.8447 -5.7728
v  -35.1349 26.3151 -1.5929
v  -41.9105 27.8611 -5.3363
v  -29.8743 40.2568 -7.1244
v  -28.2924 43.5408 0.4518
v  -33.2191 39.5097 -4.5812
v  -33.6608 29.3755 5.4674
v  -32.1530 41.7230 0.5249
v  -31.8701 39.1300 13.7434
v  -32.2717 35.8638 18.4125
v  -34.4930 37.8949 13.7930
v  -34.7637 35.6936 16.9398
v  -51.6519 5.7217 -8.6859
v  -51.4512 8.0751 -10.7269
v  -52.0226 7.4432 -6.8851
v  -51.8873 9.0293 -8.2607
v  -53.2936 0.8060 23.3836
v  -55.4703 -1.3606 21.1150
v  -54.0558 1.9261 21.9976
v  -55.5229 0.4659 20.4686
v  -61.4470 5.5931 25.7343
v  -61.8812 4.1821 24.1263
v  -61.4655 6.1438 24.7729
v  -61.7581 5.1928 23.6892
v  -33.7472 44.1094 14.3080
v  -34.8089 42.9334 17.9296
v  -35.6340 43.4301 14.2377
v  -36.3495 42.6375 16.6785
v  -49.6366 22.6848 20.9573
v  -49.3222 19.4026 20.1893
v  -50.0090 22.4692 19.2935
v  -49.7971 20.2571 18.7759
v  -54.3266 23.5733 21.8013
v  -54.9616 22.3605 21.5901
v  -54.3533 23.4499 21.1096
v  -54.7812 22.6324 20.9673
v  -44.3452 25.9076 -15.3571
v  -42.8233 29.6601 -15.4459
v  -45.7109 27.1940 -14.5163
v  -44.6852 29.7232 -14.5761
v  -46.4822 30.0979 -19.4339
v  -45.6610 32.6499 -19.0227
v  -47.3890 30.7269 -18.6109
v  -46.8356 32.4469 -18.3337
v  -36.9715 46.8897 -9.3607
v  -36.3303 47.8616 -5.3151
v  -38.7063 46.3413 -8.2398
v  -38.2741 46.9964 -5.5133
v  -39.6017 51.2006 -11.7297
v  -38.9154 53.1029 -9.7369
v  -40.6457 51.2276 -10.7365
v  -40.1832 52.5096 -9.3934
v  -31.8439 20.8355 4.4425
v  -20.3356 24.0423 12.8308
v  -19.5913 29.1501 6.2567
v  -13.5501 21.2494 11.2517
v  -12.2663 25.9095 5.0715
v  -14.1589 29.4165 18.8984
v  -13.6325 33.1573 14.0151
v  -9.1222 27.3898 17.7669
v  -8.1864 30.8147 13.1885
v  -13.7231 29.5771 17.5828
v  -13.3382 32.3123 14.0121
v  -10.0403 28.0952 16.7554
v  -9.3561 30.5994 13.4078
# 141 vertices

vn 0.3678 0.2161 0.9044
vn 0.2356 -0.5282 0.8158
vn -0.1165 -0.5865 0.8015
vn 0.2380 0.3407 0.9095
vn 0.0905 -0.9891 -0.1158
vn -0.1852 -0.9716 -0.1470
vn 0.0783 -0.3382 -0.9378
vn 0.0593 -0.4125 -0.9090
vn 0.2808 0.3433 -0.8963
vn 0.3418 0.4875 -0.8035
vn 0.5783 0.8075 0.1162
vn 0.4457 0.8948 0.0251
vn -0.0782 -0.5656 0.8210
vn 0.1811 0.3082 0.9339
vn -0.1902 -0.9817 0.0048
vn -0.0702 -0.5182 -0.8524
vn 0.1143 0.5764 -0.8092
vn 0.2530 0.9476 0.1950
vn 0.2511 -0.4273 0.8686
vn 0.2787 0.5713 0.7720
vn -0.0235 -0.9976 0.0651
vn -0.3075 -0.6189 -0.7228
vn -0.2990 0.5210 -0.7995
vn 0.0184 0.9935 -0.1127
vn -0.0343 -0.5179 0.8548
vn 0.0083 0.5546 0.8321
vn -0.0367 -0.9976 -0.0594
vn 0.2770 -0.5984 -0.7518
vn 0.0635 0.9905 -0.1220
vn 0.3044 0.4912 -0.8161
vn 0.4707 -0.3948 0.7891
vn 0.5412 0.3264 0.7750
vn 0.6237 -0.7569 0.1953
vn 0.8315 -0.4285 -0.3534
vn 0.8855 0.2363 -0.4000
vn 0.7444 0.6484 0.1594
vn 0.9986 -0.0512 0.0154
vn 0.9714 -0.2361 0.0237
vn 0.9807 0.0706 0.1824
vn 0.9301 -0.0201 0.3668
vn 0.9024 -0.2290 0.3650
vn 0.9266 -0.3289 0.1822
vn -0.5084 0.6130 -0.6048
vn -0.5255 -0.6857 -0.5037
vn 0.4798 0.7735 -0.4141
vn 0.3471 -0.8450 -0.4069
vn -0.5112 0.4298 -0.7443
vn -0.5472 -0.7858 -0.2883
vn 0.3181 0.9404 0.1207
vn 0.6455 -0.4763 0.5970
vn -0.2282 0.3812 -0.8959
vn -0.4383 -0.8871 -0.1448
vn 0.5933 0.7781 0.2063
vn 0.4095 -0.3908 0.8244
vn 0.1135 0.1059 -0.9879
vn 0.0377 -0.8854 -0.4633
vn 0.8701 0.4558 -0.1877
vn 0.7847 -0.5651 0.2547
vn 0.0684 0.6785 0.7314
vn -0.0431 -0.8340 0.5501
vn -0.9101 0.3925 -0.1329
vn -0.3563 0.7601 -0.5434
vn -0.9783 0.1784 -0.1051
vn -0.5579 -0.3808 -0.7374
vn 0.4621 -0.2384 0.8542
vn 0.0464 -0.8666 -0.4968
vn -0.4700 0.7785 0.4159
vn -0.9490 0.3027 0.0882
vn -0.7629 0.1952 -0.6163
vn 0.0307 -0.9717 0.2342
vn 0.2314 -0.1327 -0.9638
vn -0.6175 0.0510 0.7849
vn -0.9615 0.1358 0.2388
vn -0.4230 0.8832 -0.2025
vn -0.2001 -0.7842 -0.5874
vn 0.4108 0.8640 -0.2910
vn -0.8290 -0.3555 0.4317
vn -0.8407 0.4069 0.3573
vn -0.5163 0.6202 0.5906
vn 0.4565 0.0345 -0.8890
vn 0.6108 0.6626 0.4334
vn -0.8882 -0.3180 -0.3318
vn -0.9719 0.2314 0.0436
vn -0.5963 0.3043 0.7428
vn 0.6809 0.5874 -0.4374
vn 0.3037 -0.0117 0.9527
vn -0.7984 0.1589 -0.5807
vn -0.8419 -0.2131 0.4957
vn -0.5203 -0.8126 -0.2626
vn -0.4362 0.1668 -0.8842
vn -0.7924 -0.0654 0.6064
vn -0.6938 0.7155 0.0822
vn 0.3933 -0.1891 0.8998
vn -0.3020 -0.9504 -0.0741
vn 0.0115 0.9991 0.0403
vn -0.5314 0.1510 -0.8336
vn -0.3295 0.2877 0.8993
vn -0.8606 -0.5087 0.0234
vn -0.3152 0.9488 0.0223
vn -0.6453 0.4283 -0.6326
vn 0.4194 0.8269 -0.3747
vn 0.0431 0.5454 0.8371
vn -0.6223 0.5309 -0.5752
vn -0.9080 0.3263 0.2630
vn 0.0220 0.6008 0.7991
vn -0.1905 -0.8915 0.4111
vn -0.2882 0.6616 -0.6923
vn -0.4262 -0.4550 -0.7819
vn -0.2947 0.6912 0.6599
vn -0.8057 -0.3898 0.4460
vn -0.4416 0.7683 -0.4633
vn -0.7871 -0.0050 -0.6168
vn -0.0107 -0.7818 -0.6235
vn 0.8163 0.4542 -0.3568
vn -0.9609 -0.2332 0.1490
vn -0.3802 0.7719 0.5096
vn -0.0898 -0.3676 -0.9256
vn 0.3052 0.7938 -0.5261
vn -0.9693 -0.0161 -0.2452
vn -0.6314 0.7747 0.0334
vn 0.4186 -0.0914 -0.9036
vn 0.2608 0.8423 0.4717
vn -0.7555 -0.5808 -0.3031
vn -0.7685 -0.0272 0.6393
vn -0.0332 0.0979 -0.9946
vn 0.3581 0.9300 -0.0825
vn -0.9416 0.0692 -0.3294
vn -0.6851 0.6613 0.3054
vn -0.9636 0.2507 0.0925
vn -0.0369 0.3185 0.9472
vn 0.1033 0.9946 -0.0027
vn 0.3647 -0.5255 0.7687
vn 0.5742 0.7028 -0.4199
vn -0.1632 0.2977 0.9406
vn 0.0053 0.9706 0.2405
vn 0.6857 -0.1089 0.7197
vn 0.8477 0.5297 0.0290
vn 0.6583 0.6414 0.3941
vn 0.5604 0.3607 0.7455
vn 0.2513 0.8339 0.4914
vn 0.1774 0.5124 0.8402
# 141 vertex normals

vt 0.6938 0.0895 0.0000
vt 0.6626 0.0895 0.0000
vt 0.6598 0.1173 0.0000
vt 0.6816 0.1173 0.0000
vt 0.6002 0.0895 0.0000
vt 0.6184 0.1173 0.0000
vt 0.5690 0.0895 0.0000
vt 0.5988 0.1173 0.0000
vt 0.6206 0.1173 0.0000
vt 0.6621 0.1173 0.0000
vt 0.6620 0.1432 0.0000
vt 0.6812 0.1432 0.0000
vt 0.6237 0.1432 0.0000
vt 0.6045 0.1432 0.0000
vt 0.6670 0.1601 0.0000
vt 0.6770 0.1601 0.0000
vt 0.6371 0.1601 0.0000
vt 0.6173 0.1601 0.0000
vt 0.6274 0.1601 0.0000
vt 0.6572 0.1601 0.0000
vt 0.6632 0.1710 0.0000
vt 0.6749 0.1710 0.0000
vt 0.6354 0.1710 0.0000
vt 0.6194 0.1710 0.0000
vt 0.6589 0.1710 0.0000
vt 0.6312 0.1710 0.0000
vt 0.6665 0.1928 0.0000
vt 0.6769 0.1928 0.0000
vt 0.6417 0.1928 0.0000
vt 0.6273 0.1928 0.0000
vt 0.6378 0.1928 0.0000
vt 0.6626 0.1928 0.0000
vt 0.6578 0.1340 0.0000
vt 0.6651 0.1340 0.0000
vt 0.6404 0.1340 0.0000
vt 0.6303 0.1340 0.0000
vt 0.6376 0.1340 0.0000
vt 0.6550 0.1340 0.0000
vt 0.5974 0.1507 0.0000
vt 0.5792 0.1593 0.0000
vt 0.5654 0.1698 0.0000
vt 0.5535 0.1798 0.0000
vt 0.7109 0.0697 0.0000
vt 0.6875 0.0734 0.0000
vt 0.6735 0.0565 0.0000
vt 0.6907 0.0693 0.0000
vt 0.6525 0.0565 0.0000
vt 0.6748 0.0717 0.0000
vt 0.6522 0.0784 0.0000
vt 0.6107 0.0784 0.0000
vt 0.6454 0.0744 0.0000
vt 0.6104 0.0565 0.0000
vt 0.6175 0.0744 0.0000
vt 0.5489 0.0782 0.0000
vt 0.5304 0.0782 0.0000
vt 0.5550 0.0746 0.0000
vt 0.5894 0.0565 0.0000
vt 0.5425 0.0746 0.0000
vt 0.5612 0.0751 0.0000
vt 0.5819 0.0751 0.0000
vt 0.5747 0.0711 0.0000
vt 0.5887 0.0711 0.0000
vt 0.6182 0.0827 0.0000
vt 0.6633 0.0827 0.0000
vt 0.6255 0.0783 0.0000
vt 0.6560 0.0783 0.0000
vt 0.7148 0.0779 0.0000
vt 0.7301 0.0779 0.0000
vt 0.7098 0.0750 0.0000
vt 0.7201 0.0750 0.0000
vt 0.5162 0.0664 0.0000
vt 0.5115 0.0661 0.0000
vt 0.5282 0.0652 0.0000
vt 0.5250 0.0650 0.0000
vt 0.6594 0.0620 0.0000
vt 0.6417 0.0602 0.0000
vt 0.6543 0.0608 0.0000
vt 0.6423 0.0596 0.0000
vt 0.6726 0.0496 0.0000
vt 0.6614 0.0497 0.0000
vt 0.6690 0.0495 0.0000
vt 0.6615 0.0496 0.0000
vt 0.7260 0.0738 0.0000
vt 0.7400 0.0723 0.0000
vt 0.7224 0.0716 0.0000
vt 0.7318 0.0706 0.0000
vt 0.6972 0.0597 0.0000
vt 0.6869 0.0613 0.0000
vt 0.6884 0.0595 0.0000
vt 0.6814 0.0606 0.0000
vt 0.6984 0.0532 0.0000
vt 0.6942 0.0529 0.0000
vt 0.6948 0.0533 0.0000
vt 0.6920 0.0531 0.0000
vt 0.5337 0.0699 0.0000
vt 0.5427 0.0706 0.0000
vt 0.5391 0.0676 0.0000
vt 0.5451 0.0681 0.0000
vt 0.5206 0.0662 0.0000
vt 0.5288 0.0664 0.0000
vt 0.5250 0.0648 0.0000
vt 0.5305 0.0649 0.0000
vt 0.6141 0.0716 0.0000
vt 0.6364 0.0716 0.0000
vt 0.6167 0.0694 0.0000
vt 0.6316 0.0694 0.0000
vt 0.6090 0.0671 0.0000
vt 0.6234 0.0671 0.0000
vt 0.6129 0.0656 0.0000
vt 0.6225 0.0656 0.0000
vt 0.6314 0.0496 0.0000
vt 0.6911 0.0913 0.0000
vt 0.6707 0.0914 0.0000
vt 0.6844 0.1012 0.0000
vt 0.6656 0.1020 0.0000
vt 0.7144 0.0798 0.0000
vt 0.7240 0.0671 0.0000
# 117 texture coords

o Tronc
g Tronc
usemtl Material__60
s off
f 1/1/1 2/2/2 3/3/3 4/4/4 
f 5/5/5 6/6/6 3/3/3 2/2/2 
f 7/7/7 8/8/8 6/6/6 5/5/5 
f 9/5/9 10/9/10 8/8/8 7/7/7 
f 9/5/9 11/2/11 12/10/12 10/9/10 
f 4/4/4 3/3/3 13/11/13 14/12/14 
f 3/3/3 6/6/6 15/13/15 13/11/13 
f 6/6/6 8/8/8 16/14/16 15/13/15 
f 10/9/10 17/13/17 16/14/16 8/8/8 
f 12/10/12 18/11/18 17/13/17 10/9/10 
f 4/4/4 14/12/14 18/11/18 12/10/12 
f 14/12/14 13/11/13 19/15/19 20/16/20 
f 15/13/15 21/17/21 19/15/19 13/11/13 
f 16/14/16 22/18/22 21/17/21 15/13/15 
f 17/13/17 23/19/23 22/18/22 16/14/16 
f 17/13/17 18/11/18 24/20/24 23/19/23 
f 18/11/18 14/12/14 20/16/20 24/20/24 
f 19/15/19 25/21/25 26/22/26 20/16/20 
f 21/17/21 27/23/27 25/21/25 19/15/19 
f 22/18/22 28/24/28 27/23/27 21/17/21 
f 23/19/23 24/20/24 29/25/29 30/26/30 
f 24/20/24 20/16/20 26/22/26 29/25/29 
f 26/22/26 25/21/25 31/27/31 32/28/32 
f 25/21/25 27/23/27 33/29/33 31/27/31 
f 27/23/27 28/24/28 34/30/34 33/29/33 
f 30/26/30 35/31/35 34/30/34 28/24/28 
f 29/25/29 36/32/36 35/31/35 30/26/30 
f 26/22/26 32/28/32 36/32/36 29/25/29 
f 31/27/31 37/33/37 38/34/38 32/28/32 
f 33/29/33 39/35/39 37/33/37 31/27/31 
f 34/30/34 40/36/40 39/35/39 33/29/33 
f 34/30/34 35/31/35 41/37/41 40/36/40 
f 35/31/35 36/32/36 42/38/42 41/37/41 
f 36/32/36 32/28/32 38/34/38 42/38/42 
f 41/37/41 42/38/42 38/34/38 37/33/37 39/35/39 40/36/40 
f 22/18/22 23/19/23 43/39/43 44/39/44 
f 23/19/23 30/26/30 45/39/45 43/39/43 
f 28/24/28 46/39/46 45/39/45 30/26/30 
f 28/24/28 22/18/22 44/39/44 46/39/46 
f 43/39/43 47/40/47 48/40/48 44/39/44 
f 45/39/45 49/40/49 47/40/47 43/39/43 
f 45/39/45 46/39/46 50/40/50 49/40/49 
f 46/39/46 44/39/44 48/40/48 50/40/50 
f 48/40/48 47/40/47 51/41/51 52/41/52 
f 49/40/49 53/41/53 51/41/51 47/40/47 
f 50/40/50 54/41/54 53/41/53 49/40/49 
f 50/40/50 48/40/48 52/41/52 54/41/54 
f 52/41/52 51/41/51 55/42/55 56/42/56 
f 51/41/51 53/41/53 57/42/57 55/42/55 
f 54/41/54 58/42/58 57/42/57 53/41/53 
f 52/41/52 56/42/56 58/42/58 54/41/54 
f 56/42/56 55/42/55 57/42/57 58/42/58 
f 1/1/1 59/43/59 60/44/60 2/2/2 
f 61/45/61 62/46/62 59/43/59 1/1/1 
f 61/45/61 63/47/63 64/48/64 62/46/62 
f 63/47/63 2/2/2 60/44/60 64/48/64 
f 2/2/2 65/49/65 66/50/66 5/5/5 
f 63/47/63 67/51/67 65/49/65 2/2/2 
f 68/52/68 69/53/69 67/51/67 63/47/63 
f 68/52/68 5/5/5 66/50/66 69/53/69 
f 5/5/5 70/54/70 71/55/71 7/7/7 
f 68/52/68 72/56/72 70/54/70 5/5/5 
f 73/57/73 74/58/74 72/56/72 68/52/68 
f 73/57/73 7/7/7 71/55/71 74/58/74 
f 9/5/9 7/7/7 75/59/75 76/60/76 
f 73/57/73 77/61/77 75/59/75 7/7/7 
f 78/52/78 79/62/79 77/61/77 73/57/73 
f 78/52/78 9/5/9 76/60/76 79/62/79 
f 11/2/11 9/5/9 80/63/80 81/64/81 
f 9/5/9 78/52/78 82/65/82 80/63/80 
f 83/47/83 84/66/84 82/65/82 78/52/78 
f 11/2/11 81/64/81 84/66/84 83/47/83 
f 11/2/11 85/67/85 86/68/86 1/1/1 
f 83/47/83 87/69/87 85/67/85 11/2/11 
f 61/45/61 88/70/88 87/69/87 83/47/83 
f 61/45/61 1/1/1 86/68/86 88/70/88 
f 71/55/71 70/54/70 89/71/89 90/72/90 
f 72/56/72 91/73/91 89/71/89 70/54/70 
f 74/58/74 92/74/92 91/73/91 72/56/72 
f 74/58/74 71/55/71 90/72/90 92/74/92 
s 1
f 92/74/92 90/72/90 89/71/89 91/73/91 
s off
f 65/49/65 93/75/93 94/76/94 66/50/66 
f 67/51/67 95/77/95 93/75/93 65/49/65 
f 67/51/67 69/53/69 96/78/96 95/77/95 
f 69/53/69 66/50/66 94/76/94 96/78/96 
f 93/75/93 97/79/97 98/80/98 94/76/94 
f 95/77/95 99/81/99 97/79/97 93/75/93 
f 95/77/95 96/78/96 100/82/100 99/81/99 
f 96/78/96 94/76/94 98/80/98 100/82/100 
s 1
f 100/82/100 98/80/98 97/79/97 99/81/99 
s off
f 85/67/85 101/83/101 102/84/102 86/68/86 
f 85/67/85 87/69/87 103/85/103 101/83/101 
f 87/69/87 88/70/88 104/86/104 103/85/103 
f 88/70/88 86/68/86 102/84/102 104/86/104 
s 1
f 104/86/104 102/84/102 101/83/101 103/85/103 
s off
f 59/43/59 105/87/105 106/88/106 60/44/60 
f 62/46/62 107/89/107 105/87/105 59/43/59 
f 62/46/62 64/48/64 108/90/108 107/89/107 
f 64/48/64 60/44/60 106/88/106 108/90/108 
f 105/87/105 109/91/109 110/92/110 106/88/106 
f 105/87/105 107/89/107 111/93/111 109/91/109 
f 107/89/107 108/90/108 112/94/112 111/93/111 
f 108/90/108 106/88/106 110/92/110 112/94/112 
s 1
f 112/94/112 110/92/110 109/91/109 111/93/111 
s off
f 76/60/76 75/59/75 113/95/113 114/96/114 
f 75/59/75 77/61/77 115/97/115 113/95/113 
f 79/62/79 116/98/116 115/97/115 77/61/77 
f 76/60/76 114/96/114 116/98/116 79/62/79 
f 114/96/114 113/95/113 117/99/117 118/100/118 
f 115/97/115 119/101/119 117/99/117 113/95/113 
f 116/98/116 120/102/120 119/101/119 115/97/115 
f 116/98/116 114/96/114 118/100/118 120/102/120 
s 1
f 118/100/118 117/99/117 119/101/119 120/102/120 
s off
f 80/63/80 121/103/121 122/104/122 81/64/81 
f 82/65/82 123/105/123 121/103/121 80/63/80 
f 82/65/82 84/66/84 124/106/124 123/105/123 
f 84/66/84 81/64/81 122/104/122 124/106/124 
f 121/103/121 125/107/125 126/108/126 122/104/122 
f 121/103/121 123/105/123 127/109/127 125/107/125 
f 123/105/123 124/106/124 128/110/128 127/109/127 
f 122/104/122 126/108/126 128/110/128 124/106/124 
s 1
f 128/110/128 126/108/126 125/107/125 127/109/127 
s off
f 61/45/61 129/111/129 63/47/63 
f 83/47/83 78/52/78 129/111/129 
f 73/57/73 68/52/68 129/111/129 
f 129/111/129 68/52/68 63/47/63 
f 61/45/61 83/47/83 129/111/129 
f 129/111/129 78/52/78 73/57/73 
f 1/1/1 130/112/130 131/113/131 11/2/11 
f 4/4/4 132/114/132 130/112/130 1/1/1 
f 4/4/4 12/10/12 133/115/133 132/114/132 
f 11/2/11 131/113/131 133/115/133 12/10/12 
f 130/112/130 134/116/134 135/116/135 131/113/131 
f 132/114/132 136/116/136 134/116/134 130/112/130 
f 132/114/132 133/115/133 137/116/137 136/116/136 
f 133/115/133 131/113/131 135/116/135 137/116/137 
f 135/116/135 134/116/134 138/117/138 139/117/139 
f 134/116/134 136/116/136 140/117/140 138/117/138 
f 137/116/137 141/117/141 140/117/140 136/116/136 
f 135/116/135 139/117/139 141/117/141 137/116/137 
s 1
f 139/117/139 138/117/138 140/117/140 141/117/141 
# 135 polygons - 6 triangles

