# This file uses centimeters as units for non-parametric coordinates.

mtllib parasolText.mtl
g default
v -0.935400 83.265800 0.958100
v -0.935400 80.653397 -0.466700
v -1.647800 80.653397 -0.275800
v -2.169300 80.653397 0.245700
v -2.360200 80.653397 0.958100
v -2.169300 80.653397 1.670500
v -1.647800 80.653397 2.192000
v -0.935400 80.653397 2.382800
v -0.223000 80.653397 2.192000
v 0.298500 80.653397 1.670500
v 0.489400 80.653397 0.958100
v 0.298500 80.653397 0.245700
v -0.223000 80.653397 -0.275800
v -0.935400 78.032501 -17.088100
v -9.958500 78.032501 -14.670400
v -16.563801 78.032501 -8.065000
v -18.981600 78.032501 0.958100
v -16.563801 78.032501 9.981200
v -9.958500 78.032501 16.586500
v -0.935400 78.032501 19.004299
v 8.087700 78.032501 16.586500
v 14.693100 78.032501 9.981200
v 17.110800 78.032501 0.958100
v 14.693100 78.032501 -8.065000
v 8.087700 78.032501 -14.670400
v -0.935400 72.161003 -26.874599
v -0.935400 63.438499 -36.777199
v -19.802999 63.438499 -31.721701
v -14.851700 72.161003 -23.145700
v -33.615101 63.438499 -17.909599
v -25.039200 72.161003 -12.958300
v -38.670601 63.438499 0.958100
v -28.768000 72.161003 0.958100
v -33.615101 63.438499 19.825701
v -25.039200 72.161003 14.874400
v -19.802999 63.438499 33.637798
v -14.851700 72.161003 25.061800
v -0.935400 63.438499 38.693298
v -0.935400 72.161003 28.790701
v 17.932301 63.438499 33.637798
v 12.980900 72.161003 25.061899
v 31.744301 63.438499 19.825701
v 23.168400 72.161003 14.874400
v 36.799900 63.438499 0.958100
v 26.897301 72.161003 0.958100
v 31.744400 63.438499 -17.909599
v 23.168400 72.161003 -12.958200
v 17.932301 63.438499 -31.721600
v 12.981000 72.161003 -23.145700
v -0.935400 59.263000 -39.005402
v -17.273800 59.263000 -34.627499
v -39.989300 59.263000 4.893200
v -35.611401 59.263000 21.231600
v -23.650801 59.263000 33.192200
v 21.360300 59.263000 33.678699
v 33.320900 59.263000 21.718201
v 37.698799 59.263000 5.379700
v 15.403100 59.263000 -34.627499
v -23.958000 59.284901 -31.203501
v -35.625301 59.284901 -19.536200
v -39.895901 59.284901 -3.598300
v -16.873199 59.284901 36.649399
v -0.935400 59.284901 40.919998
v 15.002500 59.284901 36.649399
v 38.026501 59.284901 -2.822500
v 33.756001 59.284901 -18.760401
v 22.088699 59.284901 -30.427700
v -0.519600 0.000000 1.676800
v -1.265600 0.000000 1.434400
v -1.265600 0.000000 0.650000
v -0.519600 0.000000 0.407600
v -0.058500 0.000000 1.042200
v -0.519600 79.986801 0.407600
v -0.058500 79.986801 1.042200
v -1.265600 79.986801 0.650000
v -1.265600 79.986801 1.434400
v -0.519600 79.986801 1.676800
vt 0.236572 0.000060
vt 0.524271 1.000000
vt 0.599411 0.000000
vt 0.588481 0.000000
vt 0.523408 1.000000
vt 0.558620 0.000000
vt 0.521051 1.000000
vt 0.517830 0.000000
vt 0.517830 1.000000
vt 0.477040 0.000000
vt 0.514610 1.000000
vt 0.447180 0.000000
vt 0.512252 1.000000
vt 0.710278 0.100298
vt 0.657475 0.536258
vt 0.678597 0.536234
vt 0.723973 0.100283
vt 0.736302 0.536168
vt 0.761389 0.100240
vt 0.815131 0.536077
vt 0.812500 0.100181
vt 0.893959 0.535987
vt 0.863610 0.100122
vt 0.951664 0.535920
vt 0.901025 0.100080
vt 0.540883 1.000000
vt 0.709134 0.000010
vt 0.694603 0.000012
vt 0.555429 0.000000
vt 0.688308 1.000013
vt 0.548003 0.000000
vt 0.700891 1.000011
vt 0.535406 1.000000
vt 0.857295 -0.000006
vt 0.527714 0.000000
vt 0.803065 0.000000
vt 0.520442 1.000000
vt 0.814484 0.999999
vt 0.500000 0.000000
vt 0.861445 0.999994
vt 0.500000 1.000000
vt 0.896995 -0.000010
vt 0.472285 0.000000
vt 0.895823 0.999990
vt 0.479558 1.000000
vt 0.857295 -0.000006
vt 0.451997 0.000000
vt 0.896995 -0.000010
vt 0.464594 1.000000
vt 0.897221 0.999990
vt 0.862844 0.999994
vt 0.803065 0.000000
vt 0.815883 0.999999
vt 0.709134 0.000010
vt 0.700891 1.000011
vt 0.748834 0.000006
vt 0.710732 0.994766
vt 0.744267 0.994762
vt 0.790077 0.994757
vt 0.911526 -0.000012
vt 0.905759 0.994745
vt 0.918034 0.994743
vt 0.905759 0.994745
vt 0.748834 0.000006
vt 0.792307 0.994757
vt 0.746497 0.994762
vt 0.712962 0.994766
vt 0.223481 1.000135
vt 0.205941 1.000082
vt 0.149183 0.999913
vt 0.131643 0.999861
vt 0.177562 0.999998
vt 0.134625 -0.000135
vt 0.180544 0.000002
vt 0.152165 -0.000082
vt 0.208923 0.000087
vt 0.226463 0.000139
vt 0.120800 0.998417
vt 0.134277 0.998622
vt 0.171095 0.999181
vt 0.221391 0.999944
vt 0.271687 1.000708
vt 0.308505 1.001267
vt 0.321975 1.001472
vt 0.308505 1.001267
vt 0.271687 1.000708
vt 0.221391 0.999944
vt 0.171095 0.999181
vt 0.134277 0.998622
vt 0.436250 0.000000
vt 0.511390 1.000000
vt 0.447180 0.000000
vt 0.512252 1.000000
vt 0.477040 0.000000
vt 0.514610 1.000000
vt 0.517830 0.000000
vt 0.517830 1.000000
vt 0.558620 0.000000
vt 0.521051 1.000000
vt 0.588481 0.000000
vt 0.523408 1.000000
vt 0.972787 0.535896
vt 0.914721 0.100064
vt 0.951665 0.535920
vt 0.901025 0.100080
vt 0.893959 0.535987
vt 0.863610 0.100122
vt 0.815131 0.536077
vt 0.812500 0.100181
vt 0.736303 0.536168
vt 0.761389 0.100240
vt 0.678597 0.536234
vt 0.723973 0.100283
vt 0.444571 0.000000
vt 0.459117 1.000000
vt 0.451997 0.000000
vt 0.464594 1.000000
vt 0.472285 0.000000
vt 0.479558 1.000000
vt 0.500000 0.000000
vt 0.500000 1.000000
vt 0.527714 0.000000
vt 0.520441 1.000000
vt 0.548003 0.000000
vt 0.535406 1.000000
vn 0.000000 1.000000 0.000000
vn 0.000000 0.774220 -0.632916
vn -0.316505 0.774211 -0.548108
vn 0.000000 1.000000 0.000000
vn -0.316505 0.774211 -0.548108
vn -0.548108 0.774211 -0.316505
vn 0.000000 1.000000 0.000000
vn -0.548108 0.774211 -0.316505
vn -0.632916 0.774220 0.000000
vn 0.000000 1.000000 0.000000
vn -0.632916 0.774220 0.000000
vn -0.548108 0.774211 0.316505
vn 0.000000 1.000000 0.000000
vn -0.548108 0.774211 0.316505
vn -0.316505 0.774211 0.548108
vn 0.000000 1.000000 0.000000
vn -0.316505 0.774211 0.548108
vn 0.000000 0.774220 0.632916
vn 0.000000 1.000000 0.000000
vn 0.000000 0.774220 0.632916
vn 0.316505 0.774211 0.548108
vn 0.000000 1.000000 0.000000
vn 0.316505 0.774211 0.548108
vn 0.548108 0.774211 0.316505
vn 0.000000 1.000000 0.000000
vn 0.548108 0.774211 0.316505
vn 0.632916 0.774220 0.000000
vn 0.000000 1.000000 0.000000
vn 0.632916 0.774220 0.000000
vn 0.548108 0.774211 -0.316505
vn 0.000000 1.000000 0.000000
vn 0.548108 0.774211 -0.316505
vn 0.316505 0.774211 -0.548108
vn 0.000000 1.000000 0.000000
vn 0.316505 0.774211 -0.548108
vn 0.000000 0.774220 -0.632916
vn 0.000000 0.774220 -0.632916
vn 0.000000 0.854060 -0.520175
vn -0.260088 0.854062 -0.450480
vn -0.316505 0.774211 -0.548108
vn -0.316505 0.774211 -0.548108
vn -0.260088 0.854062 -0.450480
vn -0.450480 0.854062 -0.260088
vn -0.548108 0.774211 -0.316505
vn -0.548108 0.774211 -0.316505
vn -0.450480 0.854062 -0.260088
vn -0.520175 0.854060 -0.000000
vn -0.632916 0.774220 0.000000
vn -0.632916 0.774220 0.000000
vn -0.520175 0.854060 -0.000000
vn -0.450480 0.854062 0.260088
vn -0.548108 0.774211 0.316505
vn -0.548108 0.774211 0.316505
vn -0.450480 0.854062 0.260088
vn -0.260088 0.854062 0.450480
vn -0.316505 0.774211 0.548108
vn -0.316505 0.774211 0.548108
vn -0.260088 0.854062 0.450480
vn 0.000000 0.854060 0.520175
vn 0.000000 0.774220 0.632916
vn 0.000000 0.774220 0.632916
vn 0.000000 0.854060 0.520175
vn 0.260088 0.854062 0.450480
vn 0.316505 0.774211 0.548108
vn 0.316505 0.774211 0.548108
vn 0.260088 0.854062 0.450480
vn 0.450480 0.854062 0.260088
vn 0.548108 0.774211 0.316505
vn 0.548108 0.774211 0.316505
vn 0.450480 0.854062 0.260088
vn 0.520175 0.854060 0.000000
vn 0.632916 0.774220 0.000000
vn 0.632916 0.774220 0.000000
vn 0.520175 0.854060 0.000000
vn 0.450480 0.854062 -0.260088
vn 0.548108 0.774211 -0.316505
vn 0.548108 0.774211 -0.316505
vn 0.450480 0.854062 -0.260088
vn 0.260088 0.854062 -0.450480
vn 0.316505 0.774211 -0.548108
vn 0.316505 0.774211 -0.548108
vn 0.260088 0.854062 -0.450480
vn 0.000000 0.854060 -0.520175
vn 0.000000 0.774220 -0.632916
vn 0.000000 0.640588 -0.767885
vn 0.000000 0.438593 -0.898686
vn -0.439007 0.474108 -0.763213
vn -0.383905 0.640609 -0.665009
vn -0.383905 0.640609 -0.665009
vn -0.439007 0.474108 -0.763213
vn -0.771812 0.459307 -0.439707
vn -0.665009 0.640609 -0.383905
vn -0.665009 0.640609 -0.383905
vn -0.771812 0.459307 -0.439707
vn -0.879771 0.475384 0.003700
vn -0.767885 0.640588 -0.000000
vn -0.767885 0.640588 -0.000000
vn -0.879771 0.475384 0.003700
vn -0.774269 0.451182 0.443782
vn -0.665009 0.640609 0.383905
vn -0.665009 0.640609 0.383905
vn -0.774269 0.451182 0.443782
vn -0.443812 0.470413 0.762721
vn -0.383905 0.640609 0.665009
vn -0.383905 0.640609 0.665009
vn -0.443812 0.470413 0.762721
vn 0.000000 0.439276 0.898352
vn 0.000000 0.640588 0.767885
vn 0.000000 0.640588 0.767885
vn 0.000000 0.439276 0.898352
vn 0.447105 0.469905 0.761109
vn 0.383905 0.640609 0.665009
vn 0.383905 0.640609 0.665009
vn 0.447105 0.469905 0.761109
vn 0.781906 0.442704 0.438904
vn 0.665009 0.640609 0.383905
vn 0.665009 0.640609 0.383905
vn 0.781906 0.442704 0.438904
vn 0.886443 0.462823 -0.003700
vn 0.767885 0.640588 0.000000
vn 0.767885 0.640588 0.000000
vn 0.886443 0.462823 -0.003700
vn 0.777900 0.435400 -0.453100
vn 0.665009 0.640609 -0.383905
vn 0.665009 0.640609 -0.383905
vn 0.777900 0.435400 -0.453100
vn 0.440315 0.461716 -0.770027
vn 0.383905 0.640609 -0.665009
vn 0.383905 0.640609 -0.665009
vn 0.440315 0.461716 -0.770027
vn 0.000000 0.438593 -0.898686
vn 0.000000 0.640588 -0.767885
vn -0.439007 0.474108 -0.763213
vn 0.000000 0.438593 -0.898686
vn 0.000000 0.312715 -0.949847
vn -0.246607 0.303009 -0.920527
vn -0.774269 0.451182 0.443782
vn -0.879771 0.475384 0.003700
vn -0.914887 0.320795 0.245097
vn -0.812779 0.338291 0.474288
vn -0.443812 0.470413 0.762721
vn -0.774269 0.451182 0.443782
vn -0.812779 0.338291 0.474288
vn -0.666277 0.334888 0.666277
vn 0.781906 0.442704 0.438904
vn 0.447105 0.469905 0.761109
vn 0.664802 0.340701 0.664802
vn 0.810288 0.325095 0.487593
vn 0.886443 0.462823 -0.003700
vn 0.781906 0.442704 0.438904
vn 0.810288 0.325095 0.487593
vn 0.925868 0.284990 0.248091
vn 0.000000 0.438593 -0.898686
vn 0.440315 0.461716 -0.770027
vn 0.246607 0.303009 -0.920527
vn 0.000000 0.312715 -0.949847
vn -0.771812 0.459307 -0.439707
vn -0.439007 0.474108 -0.763213
vn -0.660570 0.356784 -0.660570
vn -0.805581 0.355092 -0.474289
vn -0.879771 0.475384 0.003700
vn -0.771812 0.459307 -0.439707
vn -0.805581 0.355092 -0.474289
vn -0.911441 0.331115 -0.244211
vn 0.000000 0.439276 0.898352
vn -0.443812 0.470413 0.762721
vn -0.246507 0.304308 0.920125
vn 0.000000 0.314007 0.949421
vn 0.447105 0.469905 0.761109
vn 0.000000 0.439276 0.898352
vn 0.000000 0.314007 0.949421
vn 0.246507 0.304308 0.920125
vn 0.777900 0.435400 -0.453100
vn 0.886443 0.462823 -0.003700
vn 0.919622 0.305907 -0.246406
vn 0.827061 0.306686 -0.471078
vn 0.440315 0.461716 -0.770027
vn 0.777900 0.435400 -0.453100
vn 0.827061 0.306686 -0.471078
vn 0.677171 0.287888 -0.677171
vn 0.000000 0.854060 -0.520175
vn 0.000000 0.640588 -0.767885
vn -0.383905 0.640609 -0.665009
vn -0.260088 0.854062 -0.450480
vn -0.260088 0.854062 -0.450480
vn -0.383905 0.640609 -0.665009
vn -0.665009 0.640609 -0.383905
vn -0.450480 0.854062 -0.260088
vn -0.450480 0.854062 -0.260088
vn -0.665009 0.640609 -0.383905
vn -0.767885 0.640588 -0.000000
vn -0.520175 0.854060 -0.000000
vn -0.520175 0.854060 -0.000000
vn -0.767885 0.640588 -0.000000
vn -0.665009 0.640609 0.383905
vn -0.450480 0.854062 0.260088
vn -0.450480 0.854062 0.260088
vn -0.665009 0.640609 0.383905
vn -0.383905 0.640609 0.665009
vn -0.260088 0.854062 0.450480
vn -0.260088 0.854062 0.450480
vn -0.383905 0.640609 0.665009
vn 0.000000 0.640588 0.767885
vn 0.000000 0.854060 0.520175
vn 0.000000 0.854060 0.520175
vn 0.000000 0.640588 0.767885
vn 0.383905 0.640609 0.665009
vn 0.260088 0.854062 0.450480
vn 0.260088 0.854062 0.450480
vn 0.383905 0.640609 0.665009
vn 0.665009 0.640609 0.383905
vn 0.450480 0.854062 0.260088
vn 0.450480 0.854062 0.260088
vn 0.665009 0.640609 0.383905
vn 0.767885 0.640588 0.000000
vn 0.520175 0.854060 0.000000
vn 0.520175 0.854060 0.000000
vn 0.767885 0.640588 0.000000
vn 0.665009 0.640609 -0.383905
vn 0.450480 0.854062 -0.260088
vn 0.450480 0.854062 -0.260088
vn 0.665009 0.640609 -0.383905
vn 0.383905 0.640609 -0.665009
vn 0.260088 0.854062 -0.450480
vn 0.260088 0.854062 -0.450480
vn 0.383905 0.640609 -0.665009
vn 0.000000 0.640588 -0.767885
vn 0.000000 0.854060 -0.520175
vn 0.248106 -0.595713 0.763917
vn -0.649808 -0.595707 0.472105
vn -0.649838 -0.595735 -0.472028
vn 0.248312 -0.595729 -0.763838
vn 0.803205 -0.595703 -0.000100
vn 0.803205 -0.595703 -0.000100
vn 0.248312 -0.595729 -0.763838
vn 0.248312 0.595729 -0.763838
vn 0.803205 0.595703 -0.000100
vn 0.248312 -0.595729 -0.763838
vn -0.649838 -0.595735 -0.472028
vn -0.649838 0.595735 -0.472028
vn 0.248312 0.595729 -0.763838
vn -0.649838 -0.595735 -0.472028
vn -0.649808 -0.595707 0.472105
vn -0.649808 0.595707 0.472105
vn -0.649838 0.595735 -0.472028
vn -0.649808 -0.595707 0.472105
vn 0.248106 -0.595713 0.763917
vn 0.248106 0.595713 0.763917
vn -0.649808 0.595707 0.472105
vn 0.248106 -0.595713 0.763917
vn 0.803205 -0.595703 -0.000100
vn 0.803205 0.595703 -0.000100
vn 0.248106 0.595713 0.763917
vn 0.248106 0.595713 0.763917
vn 0.803205 0.595703 -0.000100
vn 0.248312 0.595729 -0.763838
vn -0.649838 0.595735 -0.472028
vn -0.649808 0.595707 0.472105
s off
g parasol:Sphere001
usemtl phong1SG
f 1/1/1 2/78/2 3/79/3
f 1/1/4 3/79/5 4/80/6
f 1/1/7 4/80/8 5/81/9
f 1/1/10 5/81/11 6/82/12
f 1/1/13 6/82/14 7/83/15
f 1/1/16 7/83/17 8/84/18
f 1/1/19 8/84/20 9/85/21
f 1/1/22 9/85/23 10/86/24
f 1/1/25 10/86/26 11/87/27
f 1/1/28 11/87/29 12/88/30
f 1/1/31 12/88/32 13/89/33
f 1/1/34 13/89/35 2/78/36
f 2/2/37 14/3/38 15/4/39 3/5/40
f 3/5/41 15/4/42 16/6/43 4/7/44
f 4/7/45 16/6/46 17/8/47 5/9/48
f 5/9/49 17/8/50 18/10/51 6/11/52
f 6/11/53 18/10/54 19/12/55 7/13/56
f 7/13/57 19/12/58 20/90/59 8/91/60
f 8/91/61 20/90/62 21/92/63 9/93/64
f 9/93/65 21/92/66 22/94/67 10/95/68
f 10/95/69 22/94/70 23/96/71 11/97/72
f 11/97/73 23/96/74 24/98/75 12/99/76
f 12/99/77 24/98/78 25/100/79 13/101/80
f 13/101/81 25/100/82 14/3/83 2/2/84
f 26/26/85 27/29/86 28/31/87 29/33/88
f 29/33/89 28/31/90 30/35/91 31/37/92
f 31/37/93 30/35/94 32/39/95 33/41/96
f 33/41/97 32/39/98 34/43/99 35/45/100
f 35/45/101 34/43/102 36/47/103 37/49/104
f 37/49/105 36/47/106 38/114/107 39/115/108
f 39/115/109 38/114/110 40/116/111 41/117/112
f 41/117/113 40/116/114 42/118/115 43/119/116
f 43/119/117 42/118/118 44/120/119 45/121/120
f 45/121/121 44/120/122 46/122/123 47/123/124
f 47/123/125 46/122/126 48/124/127 49/125/128
f 49/125/129 48/124/130 27/29/131 26/26/132
f 28/27/133 27/28/134 50/30/135 51/32/136
f 34/34/137 32/36/138 52/38/139 53/40/140
f 36/42/141 34/34/142 53/40/143 54/44/144
f 42/46/145 40/48/146 55/50/147 56/51/148
f 44/52/149 42/46/150 56/51/151 57/53/152
f 27/28/153 48/54/154 58/55/155 50/30/156
f 30/56/157 28/27/158 59/57/159 60/58/160
f 32/36/161 30/56/162 60/58/163 61/59/164
f 38/60/165 36/42/166 62/61/167 63/62/168
f 40/48/169 38/60/170 63/62/171 64/63/172
f 46/64/173 44/52/174 65/65/175 66/66/176
f 48/54/177 46/64/178 66/66/179 67/67/180
f 14/14/181 26/15/182 29/16/183 15/17/184
f 15/17/185 29/16/186 31/18/187 16/19/188
f 16/19/189 31/18/190 33/20/191 17/21/192
f 17/21/193 33/20/194 35/22/195 18/23/196
f 18/23/197 35/22/198 37/24/199 19/25/200
f 19/25/201 37/24/202 39/102/203 20/103/204
f 20/103/205 39/102/206 41/104/207 21/105/208
f 21/105/209 41/104/210 43/106/211 22/107/212
f 22/107/213 43/106/214 45/108/215 23/109/216
f 23/109/217 45/108/218 47/110/219 24/111/220
f 24/111/221 47/110/222 49/112/223 25/113/224
f 25/113/225 49/112/226 26/15/227 14/14/228
f 68/68/229 69/69/230 70/70/231 71/71/232 72/72/233
f 72/72/234 71/71/235 73/73/236 74/74/237
f 71/71/238 70/70/239 75/75/240 73/73/241
f 70/70/242 69/69/243 76/76/244 75/75/245
f 69/69/246 68/68/247 77/77/248 76/76/249
f 68/68/250 72/72/251 74/74/252 77/77/253
f 77/77/254 74/74/255 73/73/256 75/75/257 76/76/258
