# This file uses centimeters as units for non-parametric coordinates.

mtllib BernardAgiPinceD.mtl
g default
v 42.796303 28.711201 12.534600
v 47.965599 32.121399 15.497900
v 48.887199 28.686100 35.167999
v 32.457001 17.847000 25.749500
v 54.187698 32.121399 12.596500
v 68.663498 28.686100 25.946102
v 55.240505 28.711201 6.731800
v 72.009598 17.847000 7.305801
v 50.071198 25.300900 3.768500
v 55.579399 7.008000 -2.112804
v 43.849098 25.300900 6.669904
v 35.803101 7.008000 7.109102
v 53.639702 12.666300 43.148201
v 38.616901 2.755800 34.536499
v 71.721901 12.666300 34.716301
v 74.781403 2.755800 17.672699
v 59.758598 -7.154800 9.061000
v 41.676399 -7.154800 17.492901
v 59.948700 -8.469100 46.503700
v 51.401199 -14.108000 41.603901
v 70.237000 -8.469100 41.706200
v 71.977699 -14.108000 32.008904
v 63.430199 -19.746799 27.108999
v 53.141899 -19.746799 31.906496
v 66.407913 -29.338049 48.111984
vt 0.156998 0.260117
vt 0.107427 0.851004
vt 0.210954 0.895182
vt 0.226550 0.299523
vt 0.155963 0.851004
vt 0.226224 0.895182
vt 0.254070 0.260117
vt 0.257091 0.299523
vt 0.303641 0.220802
vt 0.272687 0.287153
vt 0.255105 0.220802
vt 0.257417 0.287153
vt 0.110751 0.205379
vt 0.065426 0.644991
vt 0.109805 0.644991
vt 0.199508 0.205379
vt 0.244832 0.169431
vt 0.200454 0.169431
vt 0.073554 0.144211
vt 0.047766 0.373191
vt 0.073016 0.373191
vt 0.124054 0.144211
vt 0.149843 0.123758
vt 0.124593 0.123758
vt 0.039301 0.088969
vn -0.607063 0.777498 0.164230
vn -0.607063 0.777498 0.164230
vn -0.607063 0.777498 0.164230
vn -0.607063 0.777498 0.164230
vn 0.078317 0.982679 0.167952
vn 0.078317 0.982679 0.167952
vn 0.078317 0.982679 0.167952
vn 0.078317 0.982679 0.167952
vn 0.516020 0.777498 -0.359473
vn 0.516020 0.777498 -0.359473
vn 0.516020 0.777498 -0.359473
vn 0.516020 0.777498 -0.359473
vn 0.268343 0.367140 -0.890618
vn 0.268343 0.367140 -0.890618
vn 0.268343 0.367140 -0.890618
vn 0.268343 0.367140 -0.890618
vn -0.854740 0.367139 -0.366919
vn -0.854740 0.367139 -0.366919
vn -0.854740 0.367139 -0.366919
vn -0.854740 0.367139 -0.366919
vn -0.588224 0.213987 0.779873
vn -0.588224 0.213987 0.779873
vn -0.588224 0.213987 0.779873
vn -0.588224 0.213987 0.779873
vn 0.366079 0.499675 0.785055
vn 0.366079 0.499675 0.785055
vn 0.366079 0.499675 0.785055
vn 0.366079 0.499675 0.785055
vn 0.975520 0.213989 0.050684
vn 0.975520 0.213989 0.050684
vn 0.975520 0.213989 0.050684
vn 0.975520 0.213989 0.050684
vn 0.630661 -0.357387 -0.688870
vn 0.630661 -0.357387 -0.688870
vn 0.630661 -0.357387 -0.688870
vn 0.630661 -0.357387 -0.688870
vn -0.323644 -0.643076 -0.694052
vn -0.323644 -0.643076 -0.694052
vn -0.323644 -0.643076 -0.694052
vn -0.323644 -0.643076 -0.694052
vn -0.933085 -0.357389 0.040318
vn -0.933085 -0.357389 0.040318
vn -0.933085 -0.357389 0.040318
vn -0.933085 -0.357389 0.040318
vn -0.492840 -0.008980 0.870074
vn -0.492840 -0.008980 0.870074
vn -0.492840 -0.008980 0.870074
vn -0.492840 -0.008980 0.870074
vn 0.408004 0.260703 0.874967
vn 0.408004 0.260703 0.874967
vn 0.408004 0.260703 0.874967
vn 0.408004 0.260703 0.874967
vn 0.983307 -0.008982 0.181734
vn 0.983307 -0.008982 0.181734
vn 0.983307 -0.008982 0.181734
vn 0.983307 -0.008982 0.181734
vn 0.657766 -0.548347 -0.516390
vn 0.657766 -0.548347 -0.516390
vn 0.657766 -0.548347 -0.516390
vn 0.657766 -0.548347 -0.516390
vn -0.243080 -0.818031 -0.521285
vn -0.243080 -0.818030 -0.521285
vn -0.243080 -0.818030 -0.521285
vn -0.243080 -0.818030 -0.521285
vn -0.818382 -0.548347 0.171948
vn -0.818382 -0.548347 0.171948
vn -0.818382 -0.548347 0.171948
vn -0.818382 -0.548347 0.171948
vn -0.242402 0.819154 -0.519835
vn -0.242402 0.819154 -0.519835
vn -0.242402 0.819154 -0.519835
vn -0.242402 0.819154 -0.519835
vn -0.242407 0.819146 -0.519845
vn -0.242407 0.819146 -0.519845
vn -0.242407 0.819146 -0.519845
vn -0.242407 0.819146 -0.519845
vn -0.458883 -0.073794 0.885427
vn -0.458883 -0.073794 0.885427
vn -0.458883 -0.073794 0.885427
vn 0.414359 0.196730 0.888597
vn 0.414359 0.196730 0.888597
vn 0.414359 0.196730 0.888597
vn 0.966356 -0.105273 0.234680
vn 0.966355 -0.105273 0.234680
vn 0.966355 -0.105273 0.234680
vn 0.652257 -0.650304 -0.389443
vn 0.652257 -0.650304 -0.389443
vn 0.652257 -0.650304 -0.389443
vn -0.180586 -0.904108 -0.387269
vn -0.180586 -0.904108 -0.387269
vn -0.180586 -0.904108 -0.387269
vn -0.740649 -0.630047 0.233409
vn -0.740649 -0.630047 0.233409
vn -0.740649 -0.630047 0.233409
vn -0.417040 0.161961 -0.894341
vn -0.417040 0.161961 -0.894341
vn -0.417040 0.161961 -0.894341
vn -0.417040 0.161961 -0.894341
s off
g BernardText:Crab1_Crab1_Crab1_Corps_Crabe_002
usemtl BernardText:phong1SG
f 4/1/1 3/2/2 2/3/3 1/4/4
f 3/2/5 6/5/6 5/6/7 2/3/8
f 6/5/9 8/7/10 7/8/11 5/6/12
f 8/7/13 10/9/14 9/10/15 7/8/16
f 12/11/17 4/1/18 1/4/19 11/12/20
f 14/13/21 13/14/22 3/2/23 4/1/24
f 13/14/25 15/15/26 6/5/27 3/2/28
f 15/15/29 16/16/30 8/7/31 6/5/32
f 16/16/33 17/17/34 10/9/35 8/7/36
f 17/17/37 18/18/38 12/11/39 10/9/40
f 18/18/41 14/13/42 4/1/43 12/11/44
f 20/19/45 19/20/46 13/14/47 14/13/48
f 19/20/49 21/21/50 15/15/51 13/14/52
f 21/21/53 22/22/54 16/16/55 15/15/56
f 22/22/57 23/23/58 17/17/59 16/16/60
f 23/23/61 24/24/62 18/18/63 17/17/64
f 24/24/65 20/19/66 14/13/67 18/18/68
f 1/4/69 2/3/70 5/6/71 7/8/72
f 7/8/73 9/10/74 11/12/75 1/4/76
f 19/20/77 20/19/78 25/25/79
f 21/21/80 19/20/81 25/25/82
f 22/22/83 21/21/84 25/25/85
f 23/23/86 22/22/87 25/25/88
f 24/24/89 23/23/90 25/25/91
f 20/19/92 24/24/93 25/25/94
f 9/10/95 10/9/96 12/11/97 11/12/98
