# This file uses centimeters as units for non-parametric coordinates.

mtllib BernardAgiPinceG.mtl
g default
v -41.662796 28.711201 12.534602
v -46.832195 32.121399 15.497898
v -47.753700 28.686100 35.167999
v -31.323601 17.847000 25.749502
v -53.054298 32.121399 12.596500
v -67.530098 28.686100 25.946100
v -54.107101 28.711201 6.731800
v -70.876198 17.847000 7.305800
v -48.937698 25.300900 3.768498
v -54.445999 7.008000 -2.112801
v -42.715603 25.300900 6.669900
v -34.669701 7.008000 7.109098
v -52.506199 12.666300 43.148201
v -37.483398 2.755800 34.536499
v -70.588501 12.666300 34.716301
v -73.648003 2.755800 17.672699
v -58.625198 -7.154800 9.061000
v -40.542900 -7.154800 17.492901
v -58.815201 -8.469100 46.503700
v -50.267700 -14.108000 41.603901
v -69.103500 -8.469100 41.706200
v -70.844299 -14.108000 32.008900
v -62.296799 -19.746799 27.108997
v -52.008499 -19.746799 31.906502
v -65.274467 -29.338049 48.111988
vt 0.226550 0.299523
vt 0.210954 0.895182
vt 0.107427 0.851004
vt 0.156998 0.260117
vt 0.226224 0.895182
vt 0.155963 0.851004
vt 0.257091 0.299523
vt 0.254070 0.260117
vt 0.272687 0.287153
vt 0.303641 0.220802
vt 0.257417 0.287153
vt 0.255105 0.220802
vt 0.065426 0.644991
vt 0.110751 0.205379
vt 0.109805 0.644991
vt 0.199508 0.205379
vt 0.244832 0.169431
vt 0.200454 0.169431
vt 0.047766 0.373191
vt 0.073554 0.144211
vt 0.073016 0.373191
vt 0.124054 0.144211
vt 0.149843 0.123758
vt 0.124593 0.123758
vt 0.039301 0.088969
vn 0.607063 0.777498 0.164230
vn 0.607063 0.777498 0.164230
vn 0.607063 0.777498 0.164230
vn 0.607063 0.777498 0.164230
vn -0.078317 0.982679 0.167952
vn -0.078317 0.982679 0.167952
vn -0.078317 0.982679 0.167952
vn -0.078317 0.982679 0.167952
vn -0.516020 0.777498 -0.359473
vn -0.516020 0.777498 -0.359473
vn -0.516020 0.777498 -0.359473
vn -0.516020 0.777498 -0.359473
vn -0.268341 0.367140 -0.890619
vn -0.268341 0.367140 -0.890619
vn -0.268341 0.367140 -0.890619
vn -0.268341 0.367140 -0.890619
vn 0.854742 0.367135 -0.366917
vn 0.854742 0.367135 -0.366917
vn 0.854742 0.367135 -0.366917
vn 0.854742 0.367135 -0.366917
vn 0.588225 0.213988 0.779872
vn 0.588226 0.213988 0.779872
vn 0.588226 0.213988 0.779872
vn 0.588226 0.213988 0.779872
vn -0.366077 0.499675 0.785056
vn -0.366077 0.499675 0.785056
vn -0.366077 0.499675 0.785056
vn -0.366077 0.499675 0.785056
vn -0.975520 0.213989 0.050684
vn -0.975520 0.213989 0.050684
vn -0.975520 0.213989 0.050684
vn -0.975520 0.213989 0.050684
vn -0.630661 -0.357387 -0.688870
vn -0.630661 -0.357387 -0.688870
vn -0.630661 -0.357387 -0.688870
vn -0.630661 -0.357387 -0.688870
vn 0.323643 -0.643076 -0.694053
vn 0.323643 -0.643076 -0.694053
vn 0.323643 -0.643076 -0.694053
vn 0.323643 -0.643076 -0.694053
vn 0.933087 -0.357385 0.040316
vn 0.933086 -0.357385 0.040316
vn 0.933086 -0.357385 0.040316
vn 0.933086 -0.357385 0.040316
vn 0.492839 -0.008980 0.870074
vn 0.492839 -0.008980 0.870074
vn 0.492840 -0.008980 0.870074
vn 0.492839 -0.008980 0.870074
vn -0.408003 0.260702 0.874967
vn -0.408003 0.260702 0.874967
vn -0.408003 0.260702 0.874967
vn -0.408003 0.260702 0.874967
vn -0.983306 -0.008983 0.181738
vn -0.983306 -0.008983 0.181738
vn -0.983306 -0.008983 0.181738
vn -0.983306 -0.008983 0.181738
vn -0.657766 -0.548348 -0.516390
vn -0.657766 -0.548348 -0.516390
vn -0.657766 -0.548348 -0.516390
vn -0.657766 -0.548348 -0.516390
vn 0.243079 -0.818031 -0.521285
vn 0.243079 -0.818031 -0.521285
vn 0.243079 -0.818031 -0.521285
vn 0.243079 -0.818031 -0.521285
vn 0.818381 -0.548349 0.171947
vn 0.818381 -0.548349 0.171947
vn 0.818381 -0.548349 0.171947
vn 0.818381 -0.548349 0.171947
vn 0.242400 0.819155 -0.519834
vn 0.242400 0.819155 -0.519834
vn 0.242400 0.819155 -0.519834
vn 0.242400 0.819155 -0.519834
vn 0.242405 0.819146 -0.519845
vn 0.242405 0.819146 -0.519845
vn 0.242405 0.819146 -0.519845
vn 0.242405 0.819146 -0.519845
vn 0.458882 -0.073795 0.885427
vn 0.458882 -0.073795 0.885427
vn 0.458882 -0.073795 0.885427
vn -0.414358 0.196731 0.888597
vn -0.414358 0.196731 0.888597
vn -0.414358 0.196731 0.888597
vn -0.966354 -0.105268 0.234687
vn -0.966354 -0.105268 0.234687
vn -0.966354 -0.105268 0.234687
vn -0.652257 -0.650305 -0.389442
vn -0.652257 -0.650305 -0.389442
vn -0.652257 -0.650305 -0.389442
vn 0.180586 -0.904108 -0.387269
vn 0.180586 -0.904108 -0.387269
vn 0.180586 -0.904108 -0.387269
vn 0.740647 -0.630051 0.233404
vn 0.740647 -0.630051 0.233404
vn 0.740647 -0.630051 0.233404
vn 0.417040 0.161959 -0.894342
vn 0.417040 0.161959 -0.894342
vn 0.417040 0.161959 -0.894342
vn 0.417040 0.161959 -0.894342
s off
g BernardText:Crab1_Crab1_Crab1_Corps_Crabe_002
usemtl BernardText:phong1SG
f 1/1/1 2/2/2 3/3/3 4/4/4
f 2/2/5 5/5/6 6/6/7 3/3/8
f 5/5/9 7/7/10 8/8/11 6/6/12
f 7/7/13 9/9/14 10/10/15 8/8/16
f 11/11/17 1/1/18 4/4/19 12/12/20
f 4/4/21 3/3/22 13/13/23 14/14/24
f 3/3/25 6/6/26 15/15/27 13/13/28
f 6/6/29 8/8/30 16/16/31 15/15/32
f 8/8/33 10/10/34 17/17/35 16/16/36
f 10/10/37 12/12/38 18/18/39 17/17/40
f 12/12/41 4/4/42 14/14/43 18/18/44
f 14/14/45 13/13/46 19/19/47 20/20/48
f 13/13/49 15/15/50 21/21/51 19/19/52
f 15/15/53 16/16/54 22/22/55 21/21/56
f 16/16/57 17/17/58 23/23/59 22/22/60
f 17/17/61 18/18/62 24/24/63 23/23/64
f 18/18/65 14/14/66 20/20/67 24/24/68
f 7/7/69 5/5/70 2/2/71 1/1/72
f 1/1/73 11/11/74 9/9/75 7/7/76
f 20/20/77 19/19/78 25/25/79
f 19/19/80 21/21/81 25/25/82
f 21/21/83 22/22/84 25/25/85
f 22/22/86 23/23/87 25/25/88
f 23/23/89 24/24/90 25/25/91
f 24/24/92 20/20/93 25/25/94
f 10/10/95 9/9/96 11/11/97 12/12/98
