# 3ds Max Wavefront OBJ Exporter v0.97b - (c)2007 guruware
# File Created: 08.06.2020 13:39:50

mtllib CaillouV2.mtl

#
# object CaillouV02
#

v  -0.0990 4.8886 1.2689
v  3.3973 3.1500 0.4144
v  -0.0323 3.8969 -1.7644
v  5.0426 -0.6270 -3.0726
v  3.6830 0.0846 -5.4248
v  0.2398 0.2589 -5.5458
v  -3.6738 3.3801 -0.0163
v  -3.3881 -0.0033 -4.2970
v  -4.9574 0.0475 0.2326
v  -0.0722 3.4996 4.2422
v  -3.4761 0.1307 2.7740
v  -0.0182 -0.1149 4.4542
v  3.5950 -0.1424 1.6463
v  0.0439 -4.1206 -0.5630
v  0.0545 -3.1741 -3.7114
v  3.5493 -3.9210 -0.6979
v  -3.5218 -3.6909 0.6403
v  -0.0500 -3.5714 3.3596
# 18 vertices

vn 0.0176 0.9937 0.1104
vn 0.7517 0.6465 0.1299
vn 0.0085 0.8696 -0.4938
vn 0.9645 -0.0856 -0.2499
vn 0.5288 0.1003 -0.8428
vn -0.1318 0.1665 -0.9772
vn -0.7141 0.6993 -0.0314
vn -0.6681 0.0287 -0.7435
vn -0.9964 0.0046 0.0846
vn 0.0339 0.5510 0.8338
vn -0.7063 0.0111 0.7078
vn 0.0982 -0.1192 0.9880
vn 0.8205 -0.0512 0.5694
vn -0.0511 -0.9943 -0.0939
vn -0.0991 -0.7679 -0.6328
vn 0.6215 -0.7822 0.0432
vn -0.6497 -0.7495 0.1273
vn 0.0604 -0.6870 0.7241
# 18 vertex normals

vt 0.6195 0.9904 0.0000
vt 0.6947 0.9460 0.0000
vt 0.6210 0.9650 0.0000
vt 0.7300 0.8495 0.0000
vt 0.7008 0.8285 0.0000
vt 0.6268 0.8721 0.0000
vt 0.5428 0.9518 0.0000
vt 0.5489 0.8654 0.0000
vt 0.5152 0.8667 0.0000
vt 0.6201 0.9549 0.0000
vt 0.5470 0.8689 0.0000
vt 0.6213 0.8626 0.0000
vt 0.6989 0.8619 0.0000
vt 0.6226 0.7603 0.0000
vt 0.6228 0.7845 0.0000
vt 0.6979 0.7654 0.0000
vt 0.5460 0.7713 0.0000
vt 0.6206 0.7743 0.0000
# 18 texture coords

o CaillouV02
g CaillouV02
usemtl Material__60
s off
f 1/1/1 2/2/2 3/3/3 
f 2/2/2 4/4/4 5/5/5 
f 2/2/2 5/5/5 3/3/3 
f 3/3/3 5/5/5 6/6/6 
f 1/1/1 3/3/3 7/7/7 
f 3/3/3 6/6/6 8/8/8 
f 3/3/3 8/8/8 7/7/7 
f 7/7/7 8/8/8 9/9/9 
f 1/1/1 7/7/7 10/10/10 
f 7/7/7 9/9/9 11/11/11 
f 7/7/7 11/11/11 10/10/10 
f 10/10/10 11/11/11 12/12/12 
f 1/1/1 10/10/10 2/2/2 
f 10/10/10 12/12/12 13/13/13 
f 10/10/10 13/13/13 2/2/2 
f 2/2/2 13/13/13 4/4/4 
f 14/14/14 15/15/15 16/16/16 
f 15/15/15 6/6/6 5/5/5 
f 15/15/15 5/5/5 16/16/16 
f 16/16/16 5/5/5 4/4/4 
f 14/14/14 17/17/17 15/15/15 
f 17/17/17 9/9/9 8/8/8 
f 17/17/17 8/8/8 15/15/15 
f 15/15/15 8/8/8 6/6/6 
f 14/14/14 18/18/18 17/17/17 
f 18/18/18 12/12/12 11/11/11 
f 18/18/18 11/11/11 17/17/17 
f 17/17/17 11/11/11 9/9/9 
f 14/14/14 16/16/16 18/18/18 
f 16/16/16 4/4/4 13/13/13 
f 16/16/16 13/13/13 18/18/18 
f 18/18/18 13/13/13 12/12/12 
# 0 polygons - 32 triangles

