# 3ds Max Wavefront OBJ Exporter v0.97b - (c)2007 guruware
# File Created: 08.06.2020 13:39:42

mtllib CaillouV1.mtl

#
# object CaillouV01
#

v  -1.3271 5.0586 -0.2919
v  3.5792 3.8453 0.1144
v  -0.0089 3.4215 -4.0944
v  4.9776 -0.0141 -0.0689
v  3.4171 0.0234 -2.0173
v  0.0054 -0.0311 -4.7129
v  -3.4919 3.4284 0.7618
v  -3.6540 0.1555 -4.0608
v  -5.0224 0.1660 0.8136
v  -0.0595 3.5471 2.9766
v  -3.4945 -0.1025 3.0103
v  -0.0635 -0.0493 5.2871
v  2.5599 -0.0871 4.5780
v  -0.9295 -1.6747 -3.6271
v  3.5415 -1.4462 -0.4269
v  -4.0912 -1.4688 0.4152
v  1.6123 -1.5496 4.3356
v  0.0706 -2.3853 -0.0494
# 18 vertices

vn -0.2706 0.9605 -0.0645
vn 0.7050 0.7092 0.0014
vn 0.0765 0.6261 -0.7759
vn 0.9804 -0.1825 -0.0745
vn 0.6935 -0.1758 -0.6986
vn 0.2561 -0.2320 -0.9384
vn -0.7256 0.6611 0.1906
vn -0.7020 -0.0959 -0.7057
vn -0.9849 -0.0345 0.1695
vn -0.0273 0.7291 0.6839
vn -0.6462 -0.1964 0.7374
vn -0.2096 -0.0768 0.9748
vn 0.6479 -0.0075 0.7617
vn -0.0321 -0.8270 -0.5612
vn 0.5584 -0.8107 -0.1759
vn -0.6118 -0.7873 0.0774
vn 0.2516 -0.7794 0.5738
vn 0.0174 -0.9998 -0.0089
# 18 vertex normals

vt 0.5949 0.9911 0.0000
vt 0.7012 0.9535 0.0000
vt 0.6235 0.9404 0.0000
vt 0.7315 0.8341 0.0000
vt 0.6977 0.8352 0.0000
vt 0.6238 0.8335 0.0000
vt 0.5481 0.9406 0.0000
vt 0.5446 0.8393 0.0000
vt 0.5150 0.8396 0.0000
vt 0.6224 0.9443 0.0000
vt 0.5480 0.8313 0.0000
vt 0.6223 0.8330 0.0000
vt 0.6791 0.8318 0.0000
vt 0.6036 0.7827 0.0000
vt 0.7004 0.7898 0.0000
vt 0.5351 0.7891 0.0000
vt 0.6586 0.7866 0.0000
vt 0.6252 0.7607 0.0000
# 18 texture coords

o CaillouV01
g CaillouV01
usemtl Material__60
s off
f 1/1/1 2/2/2 3/3/3 
f 2/2/2 4/4/4 5/5/5 
f 2/2/2 5/5/5 3/3/3 
f 3/3/3 5/5/5 6/6/6 
f 1/1/1 3/3/3 7/7/7 
f 3/3/3 6/6/6 8/8/8 
f 3/3/3 8/8/8 7/7/7 
f 7/7/7 8/8/8 9/9/9 
f 1/1/1 7/7/7 10/10/10 
f 7/7/7 9/9/9 11/11/11 
f 7/7/7 11/11/11 10/10/10 
f 10/10/10 11/11/11 12/12/12 
f 1/1/1 10/10/10 2/2/2 
f 10/10/10 12/12/12 13/13/13 
f 10/10/10 13/13/13 2/2/2 
f 2/2/2 13/13/13 4/4/4 
f 14/14/14 6/6/6 5/5/5 
f 14/14/14 5/5/5 15/15/15 
f 15/15/15 5/5/5 4/4/4 
f 16/16/16 9/9/9 8/8/8 
f 16/16/16 8/8/8 14/14/14 
f 14/14/14 8/8/8 6/6/6 
f 17/17/17 12/12/12 11/11/11 
f 17/17/17 11/11/11 16/16/16 
f 16/16/16 11/11/11 9/9/9 
f 15/15/15 4/4/4 13/13/13 
f 15/15/15 13/13/13 17/17/17 
f 17/17/17 13/13/13 12/12/12 
f 18/18/18 14/14/14 15/15/15 
f 17/17/17 16/16/16 18/18/18 
f 18/18/18 15/15/15 17/17/17 
f 16/16/16 14/14/14 18/18/18 
# 0 polygons - 32 triangles

