# This file uses centimeters as units for non-parametric coordinates.

mtllib tongD_Text.mtl
g default
v 82.341698 0.000000 -102.357613
v 84.081200 0.000000 -101.170413
v 82.894897 -0.341000 -106.528513
v 80.686096 0.000000 -106.528513
v 83.136597 -0.367300 -111.748813
v 80.950798 0.000000 -111.994313
v 81.198097 0.000000 -117.453113
v 83.349800 -0.341500 -116.966313
v 82.440102 -0.332200 -122.077913
v 79.778603 0.000000 -120.929713
v 79.280098 0.000000 -125.029513
v 81.867798 0.019900 -127.133813
v 83.851097 0.000000 -131.764113
v 81.537201 0.000000 -130.141813
v 86.182999 0.000000 -101.002412
v 88.467102 0.000000 -101.336713
v 89.178398 -0.387900 -106.528513
v 86.040703 -0.422900 -106.528513
v 89.338097 -0.414500 -111.053113
v 86.249702 -0.464600 -111.399413
v 86.414299 -0.422900 -116.272913
v 89.470901 -0.388300 -115.581413
v 90.013802 -0.327000 -120.778213
v 86.084396 -0.598000 -122.639113
v 86.033699 -0.422900 -128.948713
v 90.426598 -0.075300 -125.957713
v 89.115402 0.000000 -131.038213
v 86.503899 0.000000 -132.150613
v 84.081200 -1.959500 -101.170413
v 86.182999 -1.959500 -101.002412
v 80.686096 -1.959500 -106.528513
v 82.341698 -1.959500 -102.357613
v 91.395203 0.000000 -106.528513
v 90.238297 0.000000 -102.571513
v 90.238297 -1.959500 -102.571513
v 91.395203 -1.959500 -106.528513
v 80.950798 -1.959500 -111.994313
v 91.630501 0.000000 -115.092813
v 91.520500 0.000000 -110.808513
v 91.520500 -1.959500 -110.808513
v 91.630501 -1.959500 -115.092813
v 79.778603 -1.959500 -120.929713
v 81.198097 -1.959500 -117.453113
v 93.272598 0.000000 -122.292713
v 92.648903 0.000000 -118.718013
v 92.648903 -1.959500 -118.718013
v 93.272598 -1.959500 -122.292713
v 81.537201 -1.959500 -130.141813
v 79.280098 -1.959500 -125.029513
v 89.115402 -1.959500 -131.038213
v 86.503899 -1.959500 -132.150613
v 90.953003 0.000000 -129.576913
v 90.953003 -1.959500 -129.576913
v 83.851097 -1.959500 -131.764113
v 88.467102 -1.959500 -101.336713
v 89.181396 -1.959500 -106.528513
v 86.040703 -1.959500 -106.528513
v 82.894897 -1.959500 -106.528513
v 89.311798 -1.959500 -111.052413
v 89.473801 -1.959500 -115.580713
v 86.414299 -1.959500 -116.272913
v 86.178802 -1.959500 -111.400913
v 83.107201 -1.959500 -111.748313
v 83.349800 -1.959500 -116.966313
v 90.109299 -1.959500 -119.041513
v 90.487396 -1.959500 -122.479613
v 86.551300 -1.959500 -122.862813
v 86.517601 -1.959500 -119.567613
v 82.552200 -1.959500 -120.331213
v 81.993500 -1.959500 -123.640213
v 83.598999 -0.858200 -111.334113
v 81.738701 0.614500 -114.271113
v 80.943703 1.259400 -113.756113
v 83.051003 -0.266800 -110.539913
v 80.458801 0.728800 -114.640413
v 81.894997 -0.118600 -111.985213
v 80.838303 2.156700 -117.332013
v 80.906097 2.456900 -119.289813
v 79.947998 3.200600 -119.392913
v 79.878998 2.857900 -117.107913
v 79.811699 1.977600 -119.502213
v 79.731102 1.690900 -117.328413
v 81.555099 2.353900 -121.286513
v 82.570801 1.994600 -123.298913
v 81.804802 2.695900 -123.911113
v 80.708801 3.089400 -121.723013
v 81.558899 1.534900 -123.748313
v 80.513199 1.909400 -121.673913
v 83.902802 1.280000 -125.100913
v 84.921600 0.580200 -126.389613
v 84.883400 0.860600 -127.898913
v 83.253502 1.927300 -125.870113
v 84.854897 -0.471400 -128.063213
v 82.932297 0.804200 -125.611013
v 86.133102 1.296700 -125.055913
v 86.749298 1.916500 -125.872413
v 87.041702 0.780400 -125.635913
v 87.757004 1.961000 -123.188613
v 88.468498 2.615400 -123.890013
v 88.678200 1.451500 -123.749313
v 89.258400 2.348500 -121.157813
v 90.363197 2.484000 -119.185213
v 91.344498 3.173900 -119.497913
v 90.059196 3.028600 -121.738013
v 91.369499 1.944100 -119.611713
v 90.192902 1.839400 -121.703313
v 90.969803 2.129700 -117.105513
v 90.877998 0.982700 -114.695613
v 91.568802 1.303600 -113.943513
v 91.990898 2.776100 -117.137413
v 91.925499 0.759300 -115.017413
v 92.013702 1.602600 -117.374313
v 90.206497 -0.133900 -112.080213
v 90.214996 -0.138300 -110.513513
v 91.310501 -0.053500 -112.464913
vt 0.700148 0.314225
vt 0.712506 0.314225
vt 0.704068 0.268956
vt 0.688371 0.314225
vt 0.705783 0.239216
vt 0.690255 0.314225
vt 0.692016 0.314225
vt 0.707299 0.241131
vt 0.700837 0.241835
vt 0.681924 0.314225
vt 0.678386 0.314225
vt 0.696779 0.283198
vt 0.710868 0.314225
vt 0.694420 0.314225
vt 0.727437 0.314225
vt 0.743670 0.314225
vt 0.748724 0.263872
vt 0.726427 0.228757
vt 0.749857 0.238542
vt 0.727912 0.226291
vt 0.729076 0.229400
vt 0.750807 0.240487
vt 0.754666 0.245051
vt 0.726733 0.216352
vt 0.726381 0.229385
vt 0.757591 0.263811
vt 0.748280 0.314225
vt 0.729719 0.314225
vt 0.712506 0.180594
vt 0.727437 0.180594
vt 0.688371 0.180594
vt 0.700148 0.180594
vt 0.764467 0.314225
vt 0.756258 0.314225
vt 0.756258 0.180594
vt 0.764467 0.180594
vt 0.690255 0.180594
vt 0.766151 0.314225
vt 0.765370 0.314225
vt 0.765370 0.180594
vt 0.766151 0.180594
vt 0.681924 0.180594
vt 0.692016 0.180594
vt 0.777821 0.314225
vt 0.773380 0.314225
vt 0.773380 0.180594
vt 0.777821 0.180594
vt 0.694420 0.180594
vt 0.678386 0.180594
vt 0.748280 0.180594
vt 0.729719 0.180594
vt 0.761327 0.314225
vt 0.761327 0.180594
vt 0.710868 0.180594
vt 0.743670 0.180594
vt 0.748739 0.170808
vt 0.726427 0.168282
vt 0.704068 0.170487
vt 0.749673 0.170808
vt 0.750822 0.170808
vt 0.729076 0.168282
vt 0.727407 0.168282
vt 0.705584 0.170487
vt 0.707299 0.170487
vt 0.755340 0.170808
vt 0.758020 0.170808
vt 0.730056 0.168282
vt 0.729811 0.168282
vt 0.701633 0.170487
vt 0.697667 0.170487
vt 0.800930 0.176306
vt 0.796259 0.193657
vt 0.794253 0.189384
vt 0.799551 0.169736
vt 0.793043 0.196720
vt 0.796657 0.181697
vt 0.798816 0.202447
vt 0.798923 0.210211
vt 0.797315 0.210625
vt 0.797208 0.201544
vt 0.797086 0.211054
vt 0.796948 0.202432
vt 0.800011 0.218144
vt 0.801726 0.256092
vt 0.800440 0.258527
vt 0.798602 0.219875
vt 0.800026 0.257869
vt 0.798265 0.219691
vt 0.803962 0.263244
vt 0.804268 0.300993
vt 0.804161 0.313490
vt 0.800072 0.296690
vt 0.804100 0.314853
vt 0.799260 0.294546
vt 0.807698 0.263060
vt 0.808862 0.296705
vt 0.809597 0.294760
vt 0.810424 0.255648
vt 0.811619 0.258435
vt 0.811971 0.257884
vt 0.812951 0.217639
vt 0.814804 0.209798
vt 0.816458 0.211038
vt 0.814299 0.219936
vt 0.816504 0.211498
vt 0.814528 0.219798
vt 0.815830 0.201544
vt 0.819230 0.197179
vt 0.820976 0.190946
vt 0.817545 0.201666
vt 0.821864 0.199844
vt 0.817576 0.202616
vt 0.817545 0.182493
vt 0.817576 0.169507
vt 0.820317 0.185678
vn -0.595429 0.646831 0.476523
vn -0.248600 0.675900 0.693800
vn 0.094501 0.994609 -0.042700
vn -0.692569 0.711768 0.117195
vn -0.692569 0.711768 0.117195
vn 0.094501 0.994609 -0.042700
vn 0.098097 0.995168 0.004200
vn -0.644993 0.763592 -0.030200
vn -0.567200 0.818800 0.088600
vn 0.087704 0.996145 -0.001600
vn 0.105504 0.994141 0.023501
vn -0.675495 0.716395 0.174599
vn -0.752201 0.649501 -0.111100
vn 0.053599 0.998181 0.027599
vn -0.278011 0.656926 -0.700827
vn -0.586391 0.651391 -0.481493
vn 0.023201 0.708215 0.705615
vn 0.271400 0.685201 0.675901
vn -0.094298 0.994377 -0.048199
vn 0.007800 0.999070 -0.042399
vn 0.007800 0.999070 -0.042399
vn -0.094298 0.994377 -0.048199
vn -0.101503 0.994830 -0.003300
vn 0.007400 0.999973 0.000300
vn 0.009300 0.999911 -0.009600
vn -0.092997 0.995664 0.002200
vn -0.109901 0.993712 0.021400
vn 0.000700 0.999987 0.005100
vn 0.015800 0.995179 0.096798
vn -0.086596 0.995553 0.037098
vn 0.373709 0.684616 -0.625814
vn 0.092701 0.691807 -0.716107
vn 0.023201 0.708215 0.705615
vn -0.248600 0.675900 0.693800
vn -0.251916 -0.653642 0.713646
vn 0.023900 -0.682704 0.730304
vn -0.595429 0.646831 0.476523
vn -0.692569 0.711768 0.117195
vn -0.739000 -0.662400 0.122900
vn -0.595429 -0.646831 0.476523
vn 0.667798 0.736597 0.107100
vn 0.624327 0.639427 0.448719
vn 0.624327 -0.639427 0.448719
vn 0.724588 -0.679588 0.114598
vn -0.692569 0.711768 0.117195
vn -0.644993 0.763592 -0.030200
vn -0.705969 -0.707469 -0.033099
vn -0.739000 -0.662400 0.122900
vn 0.597777 0.796470 0.091097
vn 0.638186 0.769683 0.017500
vn 0.707274 -0.706674 0.019399
vn 0.669298 -0.736098 0.101000
vn -0.567200 0.818800 0.088600
vn -0.675495 0.716395 0.174599
vn -0.711085 -0.678386 0.184796
vn -0.641798 -0.758798 0.111000
vn 0.744850 0.665156 -0.052596
vn 0.664461 0.732157 0.149791
vn 0.700308 -0.695908 0.159002
vn 0.751994 -0.657194 -0.051000
vn -0.752201 0.649501 -0.111100
vn -0.586391 0.651391 -0.481493
vn -0.586391 -0.651391 -0.481493
vn -0.750003 -0.652003 -0.111300
vn 0.092701 0.691807 -0.716107
vn 0.373709 0.684616 -0.625814
vn 0.376112 -0.678121 -0.631420
vn 0.097705 -0.651031 -0.752736
vn 0.627681 0.647080 -0.432787
vn 0.744850 0.665156 -0.052596
vn 0.751994 -0.657194 -0.051000
vn 0.627681 -0.647080 -0.432787
vn -0.586391 0.651391 -0.481493
vn -0.278011 0.656926 -0.700827
vn -0.277788 -0.658571 -0.699370
vn -0.586391 -0.651391 -0.481493
vn 0.624327 0.639427 0.448719
vn 0.271400 0.685201 0.675901
vn 0.276995 -0.658887 0.699386
vn 0.624327 -0.639427 0.448719
vn 0.724588 -0.679588 0.114598
vn 0.624327 -0.639427 0.448719
vn 0.276995 -0.658887 0.699386
vn 0.000000 -1.000000 0.000000
vn 0.000000 -1.000000 0.000000
vn 0.023900 -0.682704 0.730304
vn -0.251916 -0.653642 0.713646
vn 0.000000 -1.000000 0.000000
vn 0.669298 -0.736098 0.101000
vn 0.707274 -0.706674 0.019399
vn 0.000000 -1.000000 0.000000
vn 0.000000 -1.000000 0.000000
vn 0.000000 -1.000000 0.000000
vn 0.000000 -1.000000 0.000000
vn 0.000000 -1.000000 0.000000
vn 0.000000 -1.000000 0.000000
vn 0.751994 -0.657194 -0.051000
vn 0.700308 -0.695908 0.159002
vn 0.000000 -1.000000 0.000000
vn 0.000000 -1.000000 0.000000
vn 0.000000 -1.000000 0.000000
vn 0.000000 -1.000000 0.000000
vn 0.000000 -1.000000 0.000000
vn 0.000000 -1.000000 0.000000
vn 0.627681 -0.647080 -0.432787
vn 0.751994 -0.657194 -0.051000
vn 0.000000 -1.000000 0.000000
vn 0.376112 -0.678121 -0.631420
vn 0.097705 -0.651031 -0.752736
vn 0.000000 -1.000000 0.000000
vn 0.000000 -1.000000 0.000000
vn -0.277788 -0.658571 -0.699370
vn 0.000700 0.999987 0.005100
vn 0.015800 0.995179 0.096798
vn 0.053599 0.998181 0.027599
vn 0.105504 0.994141 0.023501
vn 0.664461 0.732157 0.149791
vn 0.744850 0.665156 -0.052596
vn -0.086596 0.995553 0.037098
vn -0.109901 0.993712 0.021400
vn -0.675495 0.716395 0.174599
vn -0.752201 0.649501 -0.111100
vn -0.750003 -0.652003 -0.111300
vn -0.711085 -0.678386 0.184796
vn 0.664461 0.732157 0.149791
vn 0.597777 0.796470 0.091097
vn 0.669298 -0.736098 0.101000
vn 0.700308 -0.695908 0.159002
vn 0.700308 -0.695908 0.159002
vn 0.669298 -0.736098 0.101000
vn 0.000000 -1.000000 0.000000
vn 0.000000 -1.000000 0.000000
vn 0.000000 -1.000000 0.000000
vn 0.000000 -1.000000 0.000000
vn 0.000000 -1.000000 0.000000
vn 0.000000 -1.000000 0.000000
vn 0.007400 0.999973 0.000300
vn 0.009300 0.999911 -0.009600
vn 0.087704 0.996145 -0.001600
vn 0.098097 0.995168 0.004200
vn 0.638186 0.769683 0.017500
vn 0.597777 0.796470 0.091097
vn -0.092997 0.995664 0.002200
vn -0.101503 0.994830 -0.003300
vn -0.644993 0.763592 -0.030200
vn -0.567200 0.818800 0.088600
vn -0.641798 -0.758798 0.111000
vn -0.705969 -0.707469 -0.033099
vn 0.638186 0.769683 0.017500
vn 0.667798 0.736597 0.107100
vn 0.724588 -0.679588 0.114598
vn 0.707274 -0.706674 0.019399
vn 0.707274 -0.706674 0.019399
vn 0.724588 -0.679588 0.114598
vn 0.000000 -1.000000 0.000000
vn 0.000000 -1.000000 0.000000
vn 0.000000 -1.000000 0.000000
vn 0.000000 -1.000000 0.000000
vn 0.000000 -1.000000 0.000000
vn 0.000000 -1.000000 0.000000
vn -0.248600 0.675900 0.693800
vn 0.023201 0.708215 0.705615
vn 0.007800 0.999070 -0.042399
vn 0.094501 0.994609 -0.042700
vn 0.094501 0.994609 -0.042700
vn 0.007800 0.999070 -0.042399
vn 0.007400 0.999973 0.000300
vn 0.098097 0.995168 0.004200
vn 0.087704 0.996145 -0.001600
vn 0.009300 0.999911 -0.009600
vn 0.000700 0.999987 0.005100
vn 0.105504 0.994141 0.023501
vn 0.053599 0.998181 0.027599
vn 0.015800 0.995179 0.096798
vn 0.092701 0.691807 -0.716107
vn -0.278011 0.656926 -0.700827
vn -0.248600 0.675900 0.693800
vn -0.595429 0.646831 0.476523
vn -0.595429 -0.646831 0.476523
vn -0.251916 -0.653642 0.713646
vn -0.278011 0.656926 -0.700827
vn 0.092701 0.691807 -0.716107
vn 0.097705 -0.651031 -0.752736
vn -0.277788 -0.658571 -0.699370
vn -0.251916 -0.653642 0.713646
vn -0.595429 -0.646831 0.476523
vn -0.739000 -0.662400 0.122900
vn 0.000000 -1.000000 0.000000
vn 0.000000 -1.000000 0.000000
vn -0.705969 -0.707469 -0.033099
vn -0.641798 -0.758798 0.111000
vn 0.000000 -1.000000 0.000000
vn 0.000000 -1.000000 0.000000
vn -0.711085 -0.678386 0.184796
vn -0.750003 -0.652003 -0.111300
vn 0.000000 -1.000000 0.000000
vn 0.000000 -1.000000 0.000000
vn -0.750003 -0.652003 -0.111300
vn -0.586391 -0.651391 -0.481493
vn -0.277788 -0.658571 -0.699370
vn 0.053599 0.998181 0.027599
vn -0.752201 0.649501 -0.111100
vn -0.675495 0.716395 0.174599
vn 0.105504 0.994141 0.023501
vn 0.000000 -1.000000 0.000000
vn -0.641798 -0.758798 0.111000
vn -0.711085 -0.678386 0.184796
vn 0.000000 -1.000000 0.000000
vn 0.087704 0.996145 -0.001600
vn -0.567200 0.818800 0.088600
vn -0.644993 0.763592 -0.030200
vn 0.098097 0.995168 0.004200
vn 0.000000 -1.000000 0.000000
vn -0.739000 -0.662400 0.122900
vn -0.705969 -0.707469 -0.033099
vn 0.000000 -1.000000 0.000000
vn 0.271400 0.685201 0.675901
vn 0.624327 0.639427 0.448719
vn 0.667798 0.736597 0.107100
vn -0.094298 0.994377 -0.048199
vn -0.094298 0.994377 -0.048199
vn 0.667798 0.736597 0.107100
vn 0.638186 0.769683 0.017500
vn -0.101503 0.994830 -0.003300
vn -0.092997 0.995664 0.002200
vn 0.597777 0.796470 0.091097
vn 0.664461 0.732157 0.149791
vn -0.109901 0.993712 0.021400
vn -0.086596 0.995553 0.037098
vn 0.744850 0.665156 -0.052596
vn 0.627681 0.647080 -0.432787
vn 0.373709 0.684616 -0.625814
vn 0.373709 0.684616 -0.625814
vn 0.627681 0.647080 -0.432787
vn 0.627681 -0.647080 -0.432787
vn 0.376112 -0.678121 -0.631420
vn 0.271400 0.685201 0.675901
vn 0.023201 0.708215 0.705615
vn 0.023900 -0.682704 0.730304
vn 0.276995 -0.658887 0.699386
vn 0.276995 -0.658887 0.699386
vn 0.023900 -0.682704 0.730304
vn 0.000000 -1.000000 0.000000
vn 0.000000 -1.000000 0.000000
vn 0.000000 -1.000000 0.000000
vn 0.000000 -1.000000 0.000000
vn 0.000000 -1.000000 0.000000
vn 0.000000 -1.000000 0.000000
vn 0.000000 -1.000000 0.000000
vn 0.000000 -1.000000 0.000000
vn 0.000000 -1.000000 0.000000
vn 0.000000 -1.000000 0.000000
vn 0.000000 -1.000000 0.000000
vn 0.000000 -1.000000 0.000000
vn 0.097705 -0.651031 -0.752736
vn 0.376112 -0.678121 -0.631420
vn -0.086596 0.995553 0.037098
vn 0.015800 0.995179 0.096798
vn 0.000700 0.999987 0.005100
vn -0.109901 0.993712 0.021400
vn 0.000000 -1.000000 0.000000
vn 0.000000 -1.000000 0.000000
vn 0.000000 -1.000000 0.000000
vn 0.000000 -1.000000 0.000000
vn -0.092997 0.995664 0.002200
vn 0.009300 0.999911 -0.009600
vn 0.007400 0.999973 0.000300
vn -0.101503 0.994830 -0.003300
vn 0.000000 -1.000000 0.000000
vn 0.000000 -1.000000 0.000000
vn 0.000000 -1.000000 0.000000
vn 0.000000 -1.000000 0.000000
vn 0.799737 0.555326 -0.228111
vn 0.850317 -0.180604 -0.494310
vn -0.293411 0.758929 0.581323
vn 0.539598 0.840698 0.045400
vn 0.539598 0.840698 0.045400
vn -0.293411 0.758929 0.581323
vn -0.782735 -0.620328 0.050202
vn -0.888916 -0.135702 0.437508
vn -0.888916 -0.135702 0.437508
vn -0.782735 -0.620328 0.050202
vn 0.850317 -0.180604 -0.494310
vn 0.799737 0.555326 -0.228111
vn 0.992630 -0.020101 -0.119504
vn 0.982462 -0.075497 0.170493
vn -0.427603 0.903607 -0.025500
vn -0.415081 0.857461 0.304086
vn -0.415081 0.857461 0.304086
vn -0.427603 0.903607 -0.025500
vn -0.649716 -0.744018 -0.155904
vn -0.679803 -0.727203 -0.095100
vn -0.679803 -0.727203 -0.095100
vn -0.649716 -0.744018 -0.155904
vn 0.982462 -0.075497 0.170493
vn 0.992630 -0.020101 -0.119504
vn 0.914298 -0.113900 0.388699
vn 0.840981 -0.067098 0.536888
vn -0.255797 0.879688 -0.400895
vn -0.333503 0.912108 -0.238402
vn -0.333503 0.912108 -0.238402
vn -0.255797 0.879688 -0.400895
vn -0.635798 -0.749897 -0.182799
vn -0.636001 -0.749701 -0.182900
vn -0.636001 -0.749701 -0.182900
vn -0.635798 -0.749897 -0.182799
vn 0.840981 -0.067098 0.536888
vn 0.914298 -0.113900 0.388699
vn 0.781267 -0.053798 0.621874
vn 0.022599 -0.247694 0.968575
vn -0.013400 0.564282 -0.825474
vn -0.151201 0.850007 -0.504604
vn -0.151201 0.850007 -0.504604
vn -0.013400 0.564282 -0.825474
vn -0.032201 -0.756316 -0.653414
vn -0.633385 -0.761882 -0.135497
vn -0.633385 -0.761882 -0.135497
vn -0.032201 -0.756316 -0.653414
vn 0.022599 -0.247694 0.968575
vn 0.781267 -0.053798 0.621874
vn 0.022599 -0.247694 0.968575
vn -0.743294 -0.019000 0.668695
vn 0.151993 0.849763 -0.504778
vn -0.013400 0.564282 -0.825474
vn -0.013400 0.564282 -0.825474
vn 0.151993 0.849763 -0.504778
vn 0.590093 -0.786991 -0.180098
vn -0.032201 -0.756316 -0.653414
vn -0.032201 -0.756316 -0.653414
vn 0.590093 -0.786991 -0.180098
vn -0.743294 -0.019000 0.668695
vn 0.022599 -0.247694 0.968575
vn -0.743294 -0.019000 0.668695
vn -0.774939 -0.033802 0.631132
vn 0.235814 0.874750 -0.423324
vn 0.151993 0.849763 -0.504778
vn 0.151993 0.849763 -0.504778
vn 0.235814 0.874750 -0.423324
vn 0.559178 -0.794869 -0.235591
vn 0.590093 -0.786991 -0.180098
vn 0.590093 -0.786991 -0.180098
vn 0.559178 -0.794869 -0.235591
vn -0.774939 -0.033802 0.631132
vn -0.743294 -0.019000 0.668695
vn -0.835583 -0.057099 0.546389
vn -0.921652 -0.005500 0.387980
vn 0.455485 0.879671 -0.136795
vn 0.321493 0.890881 -0.320893
vn 0.321493 0.890881 -0.320893
vn 0.455485 0.879671 -0.136795
vn 0.552608 -0.785212 -0.279404
vn 0.548986 -0.793179 -0.263593
vn 0.548986 -0.793179 -0.263593
vn 0.552608 -0.785212 -0.279404
vn -0.921652 -0.005500 0.387980
vn -0.835583 -0.057099 0.546389
vn -0.988745 0.032201 0.146107
vn -0.973393 -0.138699 -0.182399
vn 0.423588 0.763179 0.487987
vn 0.531124 0.822836 0.202109
vn 0.531124 0.822836 0.202109
vn 0.423588 0.763179 0.487987
vn 0.730679 -0.661781 -0.167795
vn 0.594191 -0.760388 -0.262196
vn 0.594191 -0.760388 -0.262196
vn 0.730679 -0.661781 -0.167795
vn -0.973393 -0.138699 -0.182399
vn -0.988745 0.032201 0.146107
vn 0.840981 -0.067098 0.536888
vn 0.781267 -0.053798 0.621874
vn -0.151201 0.850007 -0.504604
vn -0.255797 0.879688 -0.400895
vn -0.255797 0.879688 -0.400895
vn -0.151201 0.850007 -0.504604
vn -0.633385 -0.761882 -0.135497
vn -0.635798 -0.749897 -0.182799
vn -0.635798 -0.749897 -0.182799
vn -0.633385 -0.761882 -0.135497
vn 0.781267 -0.053798 0.621874
vn 0.840981 -0.067098 0.536888
vn 0.982462 -0.075497 0.170493
vn 0.914298 -0.113900 0.388699
vn -0.333503 0.912108 -0.238402
vn -0.427603 0.903607 -0.025500
vn -0.427603 0.903607 -0.025500
vn -0.333503 0.912108 -0.238402
vn -0.636001 -0.749701 -0.182900
vn -0.649716 -0.744018 -0.155904
vn -0.649716 -0.744018 -0.155904
vn -0.636001 -0.749701 -0.182900
vn 0.914298 -0.113900 0.388699
vn 0.982462 -0.075497 0.170493
vn 0.850317 -0.180604 -0.494310
vn 0.992630 -0.020101 -0.119504
vn -0.415081 0.857461 0.304086
vn -0.293411 0.758929 0.581323
vn -0.293411 0.758929 0.581323
vn -0.415081 0.857461 0.304086
vn -0.679803 -0.727203 -0.095100
vn -0.782735 -0.620328 0.050202
vn -0.782735 -0.620328 0.050202
vn -0.679803 -0.727203 -0.095100
vn 0.992630 -0.020101 -0.119504
vn 0.850317 -0.180604 -0.494310
vn -0.973393 -0.138699 -0.182399
vn -0.965821 0.202905 -0.161304
vn -0.166808 0.930742 0.325415
vn 0.423588 0.763179 0.487987
vn 0.423588 0.763179 0.487987
vn -0.166808 0.930742 0.325415
vn 0.974449 -0.048502 0.219311
vn 0.730679 -0.661781 -0.167795
vn 0.730679 -0.661781 -0.167795
vn 0.974449 -0.048502 0.219311
vn -0.965821 0.202905 -0.161304
vn -0.973393 -0.138699 -0.182399
vn -0.921652 -0.005500 0.387980
vn -0.988745 0.032201 0.146107
vn 0.531124 0.822836 0.202109
vn 0.455485 0.879671 -0.136795
vn 0.455485 0.879671 -0.136795
vn 0.531124 0.822836 0.202109
vn 0.594191 -0.760388 -0.262196
vn 0.552608 -0.785212 -0.279404
vn 0.552608 -0.785212 -0.279404
vn 0.594191 -0.760388 -0.262196
vn -0.988745 0.032201 0.146107
vn -0.921652 -0.005500 0.387980
vn -0.774939 -0.033802 0.631132
vn -0.835583 -0.057099 0.546389
vn 0.321493 0.890881 -0.320893
vn 0.235814 0.874750 -0.423324
vn 0.235814 0.874750 -0.423324
vn 0.321493 0.890881 -0.320893
vn 0.548986 -0.793179 -0.263593
vn 0.559178 -0.794869 -0.235591
vn 0.559178 -0.794869 -0.235591
vn 0.548986 -0.793179 -0.263593
vn -0.835583 -0.057099 0.546389
vn -0.774939 -0.033802 0.631132
s off
g tongD:tongD
usemtl phong1SG
f 1/1/1 2/2/2 3/3/3 4/4/4
f 4/4/5 3/3/6 5/5/7 6/6/8
f 7/7/9 8/8/10 9/9/11 10/10/12
f 11/11/13 12/12/14 13/13/15 14/14/16
f 15/15/17 16/16/18 17/17/19 18/18/20
f 18/18/21 17/17/22 19/19/23 20/20/24
f 21/21/25 22/22/26 23/23/27 24/24/28
f 25/25/29 26/26/30 27/27/31 28/28/32
f 15/15/33 2/2/34 29/29/35 30/30/36
f 1/1/37 4/4/38 31/31/39 32/32/40
f 33/33/41 34/34/42 35/35/43 36/36/44
f 4/4/45 6/6/46 37/37/47 31/31/48
f 38/38/49 39/39/50 40/40/51 41/41/52
f 7/7/53 10/10/54 42/42/55 43/43/56
f 44/44/57 45/45/58 46/46/59 47/47/60
f 11/11/61 14/14/62 48/48/63 49/49/64
f 28/28/65 27/27/66 50/50/67 51/51/68
f 52/52/69 44/44/70 47/47/71 53/53/72
f 14/14/73 13/13/74 54/54/75 48/48/76
f 34/34/77 16/16/78 55/55/79 35/35/80
f 36/36/81 35/35/82 55/55/83 56/56/84
f 57/57/85 30/30/86 29/29/87 58/58/88
f 41/41/89 40/40/90 59/59/91 60/60/92
f 61/61/93 62/62/94 63/63/95 64/64/96
f 47/47/97 46/46/98 65/65/99 66/66/100
f 67/67/101 68/68/102 69/69/103 70/70/104
f 53/53/105 47/47/106 66/66/107 50/50/108
f 51/51/109 67/67/110 70/70/111 54/54/112
f 24/24/113 25/25/114 12/12/115 9/9/116
f 45/45/117 44/44/118 26/26/119 23/23/120
f 10/10/121 11/11/122 49/49/123 42/42/124
f 45/45/125 38/38/126 41/41/127 46/46/128
f 46/46/129 41/41/130 60/60/131 65/65/132
f 68/68/133 61/61/134 64/64/135 69/69/136
f 20/20/137 21/21/138 8/8/139 5/5/140
f 39/39/141 38/38/142 22/22/143 19/19/144
f 6/6/145 7/7/146 43/43/147 37/37/148
f 39/39/149 33/33/150 36/36/151 40/40/152
f 40/40/153 36/36/154 56/56/155 59/59/156
f 62/62/157 57/57/158 58/58/159 63/63/160
f 2/2/161 15/15/162 18/18/163 3/3/164
f 3/3/165 18/18/166 20/20/167 5/5/168
f 8/8/169 21/21/170 24/24/171 9/9/172
f 12/12/173 25/25/174 28/28/175 13/13/176
f 2/2/177 1/1/178 32/32/179 29/29/180
f 13/13/181 28/28/182 51/51/183 54/54/184
f 29/29/185 32/32/186 31/31/187 58/58/188
f 63/63/189 37/37/190 43/43/191 64/64/192
f 69/69/193 42/42/194 49/49/195 70/70/196
f 70/70/197 49/49/198 48/48/199 54/54/200
f 12/12/201 11/11/202 10/10/203 9/9/204
f 64/64/205 43/43/206 42/42/207 69/69/208
f 8/8/209 7/7/210 6/6/211 5/5/212
f 58/58/213 31/31/214 37/37/215 63/63/216
f 16/16/217 34/34/218 33/33/219 17/17/220
f 17/17/221 33/33/222 39/39/223 19/19/224
f 22/22/225 38/38/226 45/45/227 23/23/228
f 26/26/229 44/44/230 52/52/231 27/27/232
f 27/27/233 52/52/234 53/53/235 50/50/236
f 16/16/237 15/15/238 30/30/239 55/55/240
f 55/55/241 30/30/242 57/57/243 56/56/244
f 59/59/245 62/62/246 61/61/247 60/60/248
f 65/65/249 68/68/250 67/67/251 66/66/252
f 66/66/253 67/67/254 51/51/255 50/50/256
f 26/26/257 25/25/258 24/24/259 23/23/260
f 60/60/261 61/61/262 68/68/263 65/65/264
f 22/22/265 21/21/266 20/20/267 19/19/268
f 56/56/269 57/57/270 62/62/271 59/59/272
f 71/71/273 72/72/274 73/73/275 74/74/276
f 74/74/277 73/73/278 75/75/279 76/76/280
f 76/76/281 75/75/282 72/72/283 71/71/284
f 77/77/285 78/78/286 79/79/287 80/80/288
f 80/80/289 79/79/290 81/81/291 82/82/292
f 82/82/293 81/81/294 78/78/295 77/77/296
f 83/83/297 84/84/298 85/85/299 86/86/300
f 86/86/301 85/85/302 87/87/303 88/88/304
f 88/88/305 87/87/306 84/84/307 83/83/308
f 89/89/309 90/90/310 91/91/311 92/92/312
f 92/92/313 91/91/314 93/93/315 94/94/316
f 94/94/317 93/93/318 90/90/319 89/89/320
f 90/90/321 95/95/322 96/96/323 91/91/324
f 91/91/325 96/96/326 97/97/327 93/93/328
f 93/93/329 97/97/330 95/95/331 90/90/332
f 95/95/333 98/98/334 99/99/335 96/96/336
f 96/96/337 99/99/338 100/100/339 97/97/340
f 97/97/341 100/100/342 98/98/343 95/95/344
f 101/101/345 102/102/346 103/103/347 104/104/348
f 104/104/349 103/103/350 105/105/351 106/106/352
f 106/106/353 105/105/354 102/102/355 101/101/356
f 107/107/357 108/108/358 109/109/359 110/110/360
f 110/110/361 109/109/362 111/111/363 112/112/364
f 112/112/365 111/111/366 108/108/367 107/107/368
f 84/84/369 89/89/370 92/92/371 85/85/372
f 85/85/373 92/92/374 94/94/375 87/87/376
f 87/87/377 94/94/378 89/89/379 84/84/380
f 78/78/381 83/83/382 86/86/383 79/79/384
f 79/79/385 86/86/386 88/88/387 81/81/388
f 81/81/389 88/88/390 83/83/391 78/78/392
f 72/72/393 77/77/394 80/80/395 73/73/396
f 73/73/397 80/80/398 82/82/399 75/75/400
f 75/75/401 82/82/402 77/77/403 72/72/404
f 108/108/405 113/113/406 114/114/407 109/109/408
f 109/109/409 114/114/410 115/115/411 111/111/412
f 111/111/413 115/115/414 113/113/415 108/108/416
f 102/102/417 107/107/418 110/110/419 103/103/420
f 103/103/421 110/110/422 112/112/423 105/105/424
f 105/105/425 112/112/426 107/107/427 102/102/428
f 98/98/429 101/101/430 104/104/431 99/99/432
f 99/99/433 104/104/434 106/106/435 100/100/436
f 100/100/437 106/106/438 101/101/439 98/98/440
