# This file uses centimeters as units for non-parametric coordinates.

mtllib coquillage_Text.mtl
g default
v -84.789497 0.000000 16.645500
v -84.899200 0.000000 18.966000
v -82.659302 1.687600 17.923599
v -82.337502 0.000000 13.874700
v -79.185600 0.326800 23.917000
v -80.379601 0.497400 23.703501
v -82.349998 0.296000 24.808800
v -79.185600 0.296000 24.136801
v -79.185600 1.898400 23.189600
v -81.290001 1.356500 23.031700
v -81.509300 0.000000 23.548901
v -82.785202 0.000000 24.567200
v -84.033401 0.000000 20.993000
v -82.643501 0.000000 22.412300
v -82.439400 1.983900 21.218599
v -79.185600 2.721500 17.158800
v -79.185600 2.897000 21.404400
v -79.185600 0.000000 12.966900
v -73.581703 0.000000 16.645500
v -76.033699 0.000000 13.874700
v -75.711899 1.687600 17.923599
v -73.472099 0.000000 18.966000
v -76.021301 0.296000 24.808800
v -77.991699 0.497400 23.703501
v -77.081299 1.356500 23.031700
v -75.585999 0.000000 24.567200
v -76.861900 0.000000 23.548901
v -74.337898 0.000000 20.993000
v -75.931801 1.983900 21.218599
v -75.727699 0.000000 22.412300
v -82.349998 -0.001800 24.991899
v -79.185600 -0.001800 24.319901
v -76.021301 -0.001800 24.991899
v -82.771103 -0.001800 25.021900
v -75.542198 -0.001800 24.991899
vt 0.338500 0.325744
vt 0.338500 0.266661
vt 0.411116 0.266661
vt 0.411116 0.325744
vt 0.496780 0.167899
vt 0.411309 0.167899
vt 0.411116 0.319421
vt 0.496345 0.232530
vt 0.494925 0.214949
vt 0.411116 0.214949
vt 0.338500 0.167899
vt 0.338500 0.319421
vt 0.338500 0.224659
vt 0.338500 0.214949
vt 0.411116 0.224659
vt 0.495361 0.266661
vt 0.494764 0.224659
vt 0.496345 0.325744
vt 0.338500 0.325744
vt 0.411116 0.325744
vt 0.411116 0.266661
vt 0.338500 0.266661
vt 0.411116 0.319421
vt 0.411309 0.167899
vt 0.411309 0.167899
vt 0.411116 0.214949
vt 0.411309 0.167899
vt 0.411116 0.319421
vt 0.338500 0.319421
vt 0.338500 0.167899
vt 0.338500 0.224659
vt 0.411116 0.224659
vt 0.411116 0.214949
vt 0.338500 0.214949
vt 0.338500 0.214949
vt 0.411116 0.214949
vt 0.411309 0.167899
vt 0.338500 0.167899
vt 0.338500 0.266661
vt 0.411116 0.266661
vt 0.411116 0.224659
vt 0.338500 0.224659
vt 0.411116 0.224659
vt 0.411116 0.266661
vt 0.411116 0.214949
vt 0.411116 0.224659
vt 0.411116 0.266661
vt 0.411116 0.325744
vt 0.411116 0.319421
vt 0.496345 0.232530
vt 0.411116 0.319421
vt 0.496345 0.232530
vt 0.411116 0.319421
vt 0.411116 0.319421
vt 0.411116 0.319421
vt 0.411116 0.319421
vt 0.411116 0.319421
vt 0.411116 0.319421
vt 0.411116 0.319421
vt 0.411116 0.319421
vt 0.411116 0.319421
vn 0.000000 1.000000 0.000000
vn -0.562529 0.818542 0.116406
vn -0.492294 0.843890 -0.213298
vn -0.202308 0.898135 -0.390415
vn 0.000000 0.841750 0.539868
vn -0.088895 0.800156 0.593168
vn -0.181696 0.933679 0.308593
vn 0.000000 0.862889 0.505394
vn -0.088895 0.800156 0.593168
vn 0.000000 0.841750 0.539868
vn 0.000000 0.697391 0.716691
vn -0.435677 0.536471 0.722762
vn -0.088895 0.800156 0.593168
vn -0.405015 0.914133 0.018001
vn -0.462498 0.859097 -0.219199
vn -0.181696 0.933679 0.308593
vn -0.724844 0.532632 0.436926
vn -0.663899 0.364100 0.653199
vn -0.435677 0.536471 0.722762
vn -0.553679 0.791070 0.260090
vn -0.663899 0.364100 0.653199
vn -0.405015 0.914133 0.018001
vn -0.088895 0.800156 0.593168
vn -0.435677 0.536471 0.722762
vn -0.562529 0.818542 0.116406
vn -0.724844 0.532632 0.436926
vn -0.553679 0.791070 0.260090
vn -0.492294 0.843890 -0.213298
vn 0.000000 0.947315 -0.320305
vn -0.492294 0.843890 -0.213298
vn -0.553679 0.791070 0.260090
vn 0.000000 0.973001 0.230800
vn 0.000000 0.973001 0.230800
vn -0.553679 0.791070 0.260090
vn -0.435677 0.536471 0.722762
vn 0.000000 0.697391 0.716691
vn 0.000000 0.838743 -0.544528
vn -0.202308 0.898135 -0.390415
vn -0.492294 0.843890 -0.213298
vn 0.000000 0.947315 -0.320305
vn 0.000000 1.000000 0.000000
vn 0.202308 0.898135 -0.390415
vn 0.492294 0.843890 -0.213298
vn 0.562529 0.818542 0.116406
vn 0.000000 0.841750 0.539868
vn 0.000000 0.862889 0.505394
vn 0.311204 0.874210 0.372704
vn 0.088895 0.800156 0.593168
vn 0.088895 0.800156 0.593168
vn 0.435677 0.536471 0.722762
vn 0.000000 0.697391 0.716691
vn 0.000000 0.841750 0.539868
vn 0.088895 0.800156 0.593168
vn 0.311204 0.874210 0.372704
vn 0.449220 0.859538 -0.243711
vn 0.405015 0.914133 0.018001
vn 0.724844 0.532632 0.436926
vn 0.553679 0.791070 0.260090
vn 0.435677 0.536471 0.722762
vn 0.663899 0.364100 0.653199
vn 0.663899 0.364100 0.653199
vn 0.435677 0.536471 0.722762
vn 0.088895 0.800156 0.593168
vn 0.405015 0.914133 0.018001
vn 0.562529 0.818542 0.116406
vn 0.492294 0.843890 -0.213298
vn 0.553679 0.791070 0.260090
vn 0.724844 0.532632 0.436926
vn 0.000000 0.947315 -0.320305
vn 0.000000 0.973001 0.230800
vn 0.553679 0.791070 0.260090
vn 0.492294 0.843890 -0.213298
vn 0.000000 0.973001 0.230800
vn 0.000000 0.697391 0.716691
vn 0.435677 0.536471 0.722762
vn 0.553679 0.791070 0.260090
vn 0.000000 0.838743 -0.544528
vn 0.000000 0.947315 -0.320305
vn 0.492294 0.843890 -0.213298
vn 0.202308 0.898135 -0.390415
vn 0.000000 0.862889 0.505394
vn -0.181696 0.933679 0.308593
vn 0.116703 0.520215 0.846024
vn 0.000000 0.523774 0.851857
vn 0.311204 0.874210 0.372704
vn 0.000000 0.862889 0.505394
vn 0.000000 0.523774 0.851857
vn -0.086200 0.521801 0.848701
vn 0.116703 0.520215 0.846024
vn -0.181696 0.933679 0.308593
vn -0.401593 0.835885 0.374193
vn 0.311204 0.874210 0.372704
vn -0.086200 0.521801 0.848701
vn 0.000000 0.999991 0.004300
vn 0.449220 0.859538 -0.243711
vn -0.181696 0.933679 0.308593
vn -0.462498 0.859097 -0.219199
vn -0.401593 0.835885 0.374193
s off
g coquillage:coquillage
usemtl phong1SG
f 1/1/1 2/2/2 3/3/3 4/4/4
f 5/5/5 6/6/6 7/7/7 8/8/8
f 6/6/9 5/5/10 9/9/11 10/10/12
f 6/6/13 11/11/14 12/12/15 7/7/16
f 13/13/17 14/14/18 10/10/19 15/15/20
f 14/14/21 11/11/22 6/6/23 10/10/24
f 2/2/25 13/13/26 15/15/27 3/3/28
f 16/16/29 3/3/30 15/15/31 17/17/32
f 17/17/33 15/15/34 10/10/35 9/9/36
f 18/18/37 4/4/38 3/3/39 16/16/40
f 19/19/41 20/20/42 21/21/43 22/22/44
f 5/5/45 8/8/46 23/23/47 24/24/48
f 24/25/49 25/26/50 9/9/51 5/5/52
f 24/27/53 23/28/54 26/29/55 27/30/56
f 28/31/57 29/32/58 25/33/59 30/34/60
f 30/35/61 25/36/62 24/37/63 27/38/64
f 22/39/65 21/40/66 29/41/67 28/42/68
f 16/16/69 17/17/70 29/43/71 21/44/72
f 17/17/73 9/9/74 25/45/75 29/46/76
f 18/18/77 16/16/78 21/47/79 20/48/80
f 8/8/81 7/7/82 31/49/83 32/50/84
f 23/51/85 8/8/86 32/52/87 33/53/88
f 31/54/89 7/7/90 34/55/91
f 23/56/92 33/57/93 35/58/94 26/59/95
f 7/7/96 12/60/97 34/61/98
