# 3ds Max Wavefront OBJ Exporter v0.97b - (c)2007 guruware
# File Created: 06.05.2020 17:04:00

mtllib palmierText02.mtl

#
# object palmier_Sphere007
#

v  -7.9027 143.8226 -4.6684
v  -0.3519 149.6673 9.2143
v  3.7486 151.8108 1.8077
v  5.8660 151.1283 -7.7573
v  10.6510 147.6653 22.0973
v  8.6658 151.3652 4.6108
v  17.1406 148.9660 -7.9465
v  21.6044 140.4241 29.8521
v  27.0638 141.4272 15.2784
v  31.8768 139.5508 -4.5468
v  19.3284 148.9660 -7.9465
v  32.1178 128.1829 30.3705
v  34.4487 137.8267 16.4021
v  43.4613 129.4586 0.9007
v  35.3554 125.4921 30.3705
v  42.0682 117.3277 22.9751
v  44.8640 122.5218 15.6818
v  48.4301 121.9365 6.8289
v  47.5135 115.0816 11.5093
v  -5.2279 144.7390 -4.4055
v  -12.4526 150.9897 9.8044
v  -4.3608 153.6487 10.3344
v  4.0567 153.0334 11.0400
v  -16.2005 148.9455 26.4215
v  -2.1850 153.5509 27.3396
v  11.7856 152.4853 22.8590
v  4.0567 153.0334 12.3533
v  -15.4673 139.1541 40.9935
v  0.7164 149.8420 35.8078
v  16.8482 143.2416 34.3707
v  -10.4495 124.7912 49.6156
v  4.0690 139.7536 46.2433
v  17.5366 127.7791 46.0531
v  16.8482 143.2416 36.8798
v  -10.4495 120.4013 49.6156
v  -2.4915 108.1973 49.9777
v  5.6003 110.8563 50.5077
v  13.6662 110.2411 47.9208
v  5.5208 95.3267 41.9826
v  -5.0184 143.5223 1.4104
v  -14.2398 149.6028 -11.9106
v  -18.1711 152.1895 -4.7786
v  -19.4526 151.5909 3.8057
v  -26.0633 147.6142 -23.1993
v  -32.0165 152.0944 -10.8465
v  -37.1198 149.8860 4.0221
v  -36.7495 138.0893 -29.4310
v  -39.8807 147.5077 -15.1671
v  -45.4426 143.1648 2.0015
v  -39.4224 149.8860 4.0221
v  -43.8371 118.7693 -26.7312
v  -48.4151 128.0604 -16.5830
v  -49.7708 127.0238 -1.7145
v  -46.5998 139.2479 0.5921
v  -43.8371 116.0541 -26.7312
v  -46.4004 107.9748 -21.8465
v  -48.9563 110.5614 -14.4035
v  -49.7344 109.2323 -6.1303
v  -44.3237 95.4543 -10.0626
v  -49.7344 107.5236 -6.1303
v  -7.6487 143.5223 1.9339
v  -2.7331 149.6028 -13.7260
v  -8.9684 152.1895 -15.2298
v  -16.3040 151.5909 -13.0917
v  3.3386 147.6142 -27.2430
v  -7.1837 152.0944 -30.6341
v  -21.0066 147.5618 -33.5229
v  12.1568 133.1851 -41.5963
v  -3.3700 143.2626 -41.5713
v  -19.9154 142.0656 -40.6965
v  -21.0066 148.3097 -37.5807
v  9.2220 129.4855 -41.5963
v  9.9893 123.5803 -44.6364
v  -1.1628 128.0605 -47.1726
v  -15.5001 127.0238 -46.5488
v  3.6064 107.9748 -46.0115
v  -2.7320 110.5614 -47.4356
v  -11.1607 109.9629 -47.0734
v  -8.2853 95.4543 -42.3714
v  -10.3325 136.9842 -0.9679
v  0.9910 142.7106 1.8817
v  -5.3719 143.9877 -3.1150
v  -12.9248 143.2128 -7.7418
v  12.1160 141.7497 1.0270
v  1.9386 144.4577 -8.6668
v  -10.5075 143.1468 -17.2778
v  27.9301 129.1658 -9.5151
v  12.6259 135.7489 -18.0160
v  -0.7125 134.4382 -28.7138
v  27.9301 126.0764 -9.5151
v  31.9416 116.7132 -14.7342
v  23.7152 126.7705 -26.6327
v  12.4609 109.8271 -33.2688
v  32.1286 101.2680 -20.6723
v  26.9955 113.1244 -27.1099
v  18.0884 102.2683 -31.9938
v  16.2642 110.6532 -33.7529
v  21.6588 90.0325 -23.0377
v  19.7475 102.2683 -31.9938
v  -3.4690 143.5223 -1.0314
v  -19.5870 149.6049 0.7948
v  -14.9844 152.1895 7.3392
v  -7.8451 151.5912 12.1754
v  -33.3867 147.6355 4.6364
v  -27.5361 152.0944 17.3953
v  -15.1711 151.0601 25.4659
v  -35.4994 147.6355 6.8565
v  -46.9838 138.4989 15.1536
v  -37.8297 143.4958 25.7887
v  -23.5905 142.4016 34.8292
v  -51.5779 126.0915 24.4664
v  -43.6840 130.3604 31.9260
v  -33.4714 123.2846 39.3091
v  -48.4262 114.8944 33.5298
v  -43.9891 117.6135 36.4088
v  -40.4882 115.7951 43.2763
v  -35.3356 122.3720 39.3091
v  -41.5850 105.7970 43.4990
v  -40.4882 113.7646 43.2763
v  -13.6490 0.0129 0.6158
v  -8.8993 0.0152 -2.9793
v  -2.9765 0.0152 -1.7046
v  -0.3407 0.0043 3.5058
v  -2.9765 0.0000 8.9303
v  -8.8993 0.0000 10.2821
v  -13.6490 0.0000 6.4943
v  -3.0241 20.0811 0.0464
v  -0.3640 20.3361 4.6457
v  -8.8789 19.9976 -1.0430
v  -13.6020 20.2113 2.1144
v  -13.6473 20.4235 7.3384
v  -8.8993 20.3782 10.6745
v  -2.9765 20.3885 9.4174
v  -3.2411 40.4349 2.4141
v  -0.6683 40.9077 6.6797
v  -8.8345 40.2967 1.4023
v  -13.3662 40.6625 4.3158
v  -13.4465 41.1087 9.1610
v  -8.8862 41.3085 12.2883
v  -3.1515 41.2450 11.1469
v  -4.3972 66.0157 8.0875
v  -1.9984 66.9454 11.7308
v  -9.1743 65.8558 7.4213
v  -12.8895 66.6143 10.0572
v  -12.8692 67.5778 14.1416
v  -8.9180 68.0550 16.7275
v  -3.9871 67.8137 15.6615
v  -4.6758 91.6229 8.4298
v  -2.7115 93.1009 11.5587
v  -8.4860 91.3451 7.9039
v  -11.4405 92.4937 10.2152
v  -11.4342 94.0990 13.7933
v  -8.2559 94.9751 16.0373
v  -4.2720 94.5660 15.0379
v  -4.8092 112.6940 4.2259
v  -3.1350 114.3024 6.6328
v  -7.8570 112.3779 3.9647
v  -10.0591 113.5944 5.9684
v  -9.8175 115.4040 8.8093
v  -7.2161 116.4522 10.3931
v  -4.1926 115.9706 9.4242
v  -5.4281 128.3068 -1.3532
v  -3.9891 129.7887 0.3526
v  -7.8761 128.0006 -1.3837
v  -9.5002 129.1010 0.2753
v  -9.0841 130.7794 2.3847
v  -6.9279 131.7715 3.3603
v  -4.6541 131.3305 2.4556
v  -6.1557 140.7492 -5.6049
v  -4.8217 142.1681 -4.1003
v  -8.3825 140.4449 -5.5793
v  -9.8255 141.4845 -4.0427
v  -9.3979 143.0850 -2.1523
v  -7.4218 144.0413 -1.3316
v  -5.3852 143.6332 -2.1985
# 175 vertices

vn -0.5158 0.8485 -0.1185
vn -0.2697 0.9545 0.1269
vn -0.2218 0.9751 -0.0004
vn -0.0908 0.9917 -0.0909
vn 0.3786 0.9133 0.1503
vn 0.1787 0.9776 0.1109
vn 0.1870 0.9805 -0.0611
vn 0.5869 0.7625 0.2723
vn 0.4165 0.9004 0.1260
vn 0.6098 0.7891 0.0734
vn 0.5226 0.8015 0.2906
vn 0.6444 0.5748 0.5044
vn 0.5622 0.7962 0.2233
vn 0.7344 0.6758 0.0622
vn 0.8530 0.4175 0.3133
vn 0.8600 0.1978 0.4705
vn 0.8363 0.3421 0.4285
vn 0.8196 0.4894 0.2978
vn 0.9167 0.1112 0.3839
vn -0.0814 0.8551 -0.5121
vn -0.2948 0.9357 -0.1935
vn -0.1083 0.9608 -0.2553
vn 0.1055 0.8483 -0.5190
vn -0.3142 0.8910 0.3277
vn -0.1038 0.9641 0.2443
vn 0.1757 0.9286 0.3269
vn 0.0734 0.9973 -0.0019
vn -0.1609 0.6173 0.7701
vn 0.0183 0.8544 0.5193
vn 0.3688 0.7972 0.4780
vn -0.2462 0.4342 0.8665
vn 0.1233 0.5902 0.7978
vn 0.2035 0.2137 0.9554
vn 0.1521 0.5093 0.8470
vn 0.1021 0.0959 0.9901
vn 0.0084 -0.2199 0.9755
vn 0.1341 -0.1286 0.9826
vn 0.2870 -0.1875 0.9394
vn 0.1682 -0.4750 0.8637
vn 0.5262 0.8476 0.0688
vn 0.3007 0.9376 -0.1743
vn 0.2602 0.9651 -0.0298
vn 0.1716 0.9807 0.0940
vn -0.2070 0.8835 -0.4202
vn -0.1732 0.9686 -0.1785
vn -0.0940 0.9890 0.1146
vn -0.7463 0.4683 -0.4730
vn -0.5767 0.7425 -0.3407
vn -0.7332 0.6767 -0.0664
vn -0.6862 0.6867 -0.2398
vn -0.8008 0.2157 -0.5587
vn -0.9086 0.2486 -0.3356
vn -0.9850 0.1530 -0.0791
vn -0.9263 0.2865 -0.2448
vn -0.9006 0.0234 -0.4339
vn -0.9511 -0.0856 -0.2968
vn -0.9687 -0.1365 -0.2072
vn -0.9957 0.0204 -0.0904
vn -0.9176 -0.3404 -0.2053
vn -0.9157 -0.3416 -0.2116
vn 0.1546 0.8866 0.4358
vn 0.3274 0.9184 0.2223
vn 0.1418 0.9717 0.1889
vn -0.0418 0.9901 0.1339
vn 0.4491 0.8527 -0.2668
vn 0.1477 0.9505 -0.2734
vn -0.2862 0.9504 -0.1215
vn 0.4846 0.7477 -0.4540
vn 0.2043 0.6445 -0.7368
vn -0.0769 0.3938 -0.9160
vn 0.2915 0.4674 -0.8346
vn 0.4893 0.4486 -0.7479
vn 0.2962 0.2099 -0.9318
vn 0.1347 0.2095 -0.9685
vn -0.0573 0.2051 -0.9771
vn 0.1559 -0.1550 -0.9755
vn 0.0675 -0.1376 -0.9882
vn -0.0331 -0.1333 -0.9905
vn 0.0208 -0.3246 -0.9456
vn -0.4668 0.5443 0.6970
vn -0.0356 0.9564 0.2898
vn -0.2575 0.8793 0.4007
vn -0.2467 0.9374 0.2457
vn 0.3775 0.9153 -0.1406
vn 0.1949 0.9678 -0.1594
vn 0.0923 0.9559 -0.2789
vn 0.4961 0.8319 -0.2489
vn 0.4089 0.8480 -0.3372
vn 0.4114 0.6885 -0.5972
vn 0.6437 0.5641 -0.5171
vn 0.8843 0.3054 -0.3533
vn 0.4982 0.6456 -0.5789
vn 0.1637 0.2636 -0.9506
vn 0.6503 -0.1253 -0.7493
vn 0.7286 0.0944 -0.6785
vn 0.5354 -0.0603 -0.8425
vn 0.6919 -0.0009 -0.7220
vn 0.6375 -0.2743 -0.7200
vn 0.7878 -0.2789 -0.5492
vn 0.3016 0.8387 -0.4535
vn -0.0236 0.9354 -0.3528
vn 0.0925 0.9630 -0.2531
vn 0.1859 0.9704 -0.1544
vn -0.2021 0.9497 -0.2392
vn -0.2817 0.9475 0.1513
vn -0.1169 0.9466 0.3004
vn -0.5777 0.8109 0.0934
vn -0.6776 0.6879 0.2600
vn -0.5346 0.7113 0.4564
vn -0.3655 0.6607 0.6556
vn -0.7302 0.4464 0.5173
vn -0.5622 0.4433 0.6982
vn -0.3525 0.3824 0.8541
vn -0.6481 0.3318 0.6855
vn -0.7414 0.2398 0.6267
vn -0.5412 0.7026 0.4619
vn -0.1397 0.5894 0.7957
vn -0.7769 0.2001 0.5970
vn -0.8515 0.1314 0.5077
vn -0.7063 -0.6047 -0.3680
vn -0.1708 -0.5882 -0.7905
vn 0.4824 -0.5940 -0.6438
vn 0.7851 -0.6190 -0.0193
vn 0.4863 -0.6288 0.6066
vn -0.1740 -0.6283 0.7583
vn -0.7042 -0.6288 0.3296
vn 0.5729 0.0863 -0.8151
vn 0.9998 0.0103 -0.0191
vn -0.1991 0.1057 -0.9743
vn -0.8767 0.0498 -0.4785
vn -0.8925 -0.0244 0.4504
vn -0.2018 -0.0473 0.9783
vn 0.6009 -0.0402 0.7983
vn 0.5538 0.1508 -0.8189
vn 0.9985 0.0415 -0.0347
vn -0.1865 0.1674 -0.9681
vn -0.8614 0.0969 -0.4986
vn -0.8942 -0.0451 0.4453
vn -0.2006 -0.1199 0.9723
vn 0.5936 -0.0892 0.7998
vn 0.5285 0.1197 -0.8405
vn 0.9990 0.0318 -0.0306
vn -0.2374 0.1315 -0.9625
vn -0.8957 0.0753 -0.4383
vn -0.8678 -0.0150 0.4967
vn -0.1806 -0.0603 0.9817
vn 0.5949 -0.0458 0.8025
vn 0.5629 -0.0660 -0.8239
vn 0.9992 0.0095 -0.0393
vn -0.2698 -0.0626 -0.9609
vn -0.9076 0.0097 -0.4198
vn -0.8839 0.1061 0.4555
vn -0.1876 0.1515 0.9705
vn 0.6370 0.1097 0.7630
vn 0.5466 -0.2106 -0.8105
vn 0.9951 -0.0003 -0.0993
vn -0.3375 -0.2285 -0.9132
vn -0.9411 -0.0487 -0.3346
vn -0.8627 0.1983 0.4652
vn -0.1316 0.3416 0.9306
vn 0.7060 0.2457 0.6642
vn 0.4850 -0.2682 -0.8324
vn 0.9807 -0.0130 -0.1952
vn -0.3942 -0.3023 -0.8679
vn -0.9625 -0.0852 -0.2576
vn -0.8265 0.2128 0.5212
vn -0.0517 0.3835 0.9221
vn 0.7699 0.2750 0.5758
vn 0.3136 0.2255 -0.9224
vn 0.7052 0.5043 -0.4984
vn -0.3681 0.1665 -0.9148
vn -0.7973 0.3853 -0.4647
vn -0.7030 0.7061 0.0848
vn -0.0919 0.9259 0.3665
vn 0.5665 0.8205 0.0766
# 175 vertex normals

vt 0.7346 0.7810 0.0000
vt 0.6732 0.9194 0.0000
vt 0.6987 0.9813 0.0000
vt 0.7364 0.9722 0.0000
vt 0.6265 0.8564 0.0000
vt 0.6886 0.9673 0.0000
vt 0.7401 0.9165 0.0000
vt 0.6067 0.6627 0.0000
vt 0.6613 0.7015 0.0000
vt 0.7400 0.6707 0.0000
vt 0.6216 0.3465 0.0000
vt 0.6619 0.6076 0.0000
vt 0.7330 0.4055 0.0000
vt 0.6253 0.2771 0.0000
vt 0.6649 0.0730 0.0000
vt 0.6858 0.2135 0.0000
vt 0.7206 0.2062 0.0000
vt 0.7157 0.0261 0.0000
vt 0.7323 0.7472 0.0000
vt 0.6691 0.8177 0.0000
vt 0.6634 0.8500 0.0000
vt 0.9305 0.7714 0.0000
vt 0.8444 0.8991 0.0000
vt 0.8403 0.8903 0.0000
vt 0.6081 0.7858 0.0000
vt 0.5982 0.8417 0.0000
vt 0.7452 0.8977 0.0000
vt 0.7713 0.8824 0.0000
vt 0.8326 0.8903 0.0000
vt 0.5656 0.6599 0.0000
vt 0.5708 0.7928 0.0000
vt 0.6957 0.8445 0.0000
vt 0.7041 0.7499 0.0000
vt 0.5523 0.4805 0.0000
vt 0.5446 0.6650 0.0000
vt 0.6348 0.6999 0.0000
vt 0.6359 0.5282 0.0000
vt 0.6895 0.7499 0.0000
vt 0.5584 0.4268 0.0000
vt 0.5738 0.2774 0.0000
vt 0.5681 0.3097 0.0000
vt 0.6099 0.2856 0.0000
vt 0.6250 0.2768 0.0000
vt 0.6222 0.1233 0.0000
vt 0.6597 0.0630 0.0000
vt 0.7117 0.8248 0.0000
vt 0.7545 0.9255 0.0000
vt 0.7235 0.9615 0.0000
vt 0.6914 0.9477 0.0000
vt 0.8006 0.9008 0.0000
vt 0.7469 0.9632 0.0000
vt 0.6929 0.9214 0.0000
vt 0.8376 0.7575 0.0000
vt 0.7699 0.8949 0.0000
vt 0.7099 0.8190 0.0000
vt 0.8539 0.4587 0.0000
vt 0.8021 0.5964 0.0000
vt 0.7464 0.5726 0.0000
vt 0.7207 0.7595 0.0000
vt 0.8576 0.4169 0.0000
vt 0.8500 0.2900 0.0000
vt 0.8190 0.3261 0.0000
vt 0.7879 0.3011 0.0000
vt 0.8220 0.0911 0.0000
vt 0.7903 0.2748 0.0000
vt 0.5293 0.7111 0.0000
vt 0.6581 0.7924 0.0000
vt 0.6704 0.8270 0.0000
vt 0.7303 0.8123 0.0000
vt 0.8384 0.9197 0.0000
vt 0.8274 0.9134 0.0000
vt 0.7692 0.7658 0.0000
vt 0.7971 0.8257 0.0000
vt 0.8951 0.9013 0.0000
vt 0.8827 0.8320 0.0000
vt 0.8872 0.5730 0.0000
vt 0.8870 0.7077 0.0000
vt 0.8907 0.7604 0.0000
vt 0.8813 0.7439 0.0000
vt 0.9016 0.8384 0.0000
vt 0.8872 0.5235 0.0000
vt 0.9122 0.4446 0.0000
vt 0.9331 0.5045 0.0000
vt 0.8339 0.5325 0.0000
vt 0.8263 0.5181 0.0000
vt 0.9235 0.2361 0.0000
vt 0.9352 0.2706 0.0000
vt 0.7455 0.2770 0.0000
vt 0.7411 0.2687 0.0000
vt 0.8936 0.0687 0.0000
vt 0.6495 0.0623 0.0000
vt 0.7298 0.8787 0.0000
vt 0.7110 0.9456 0.0000
vt 0.7284 0.9629 0.0000
vt 0.7473 0.9555 0.0000
vt 0.7156 0.9345 0.0000
vt 0.7491 0.9707 0.0000
vt 0.7840 0.9586 0.0000
vt 0.7734 0.7892 0.0000
vt 0.7970 0.8709 0.0000
vt 0.8399 0.8597 0.0000
vt 0.7777 0.7524 0.0000
vt 0.8106 0.6432 0.0000
vt 0.8425 0.7677 0.0000
vt 0.8913 0.5688 0.0000
vt 0.8547 0.4619 0.0000
vt 0.8631 0.6055 0.0000
vt 0.8969 0.4784 0.0000
vt 0.8921 0.5789 0.0000
vt 0.8793 0.3292 0.0000
vt 0.7211 0.8261 0.0000
vt 0.7057 0.9188 0.0000
vt 0.6770 0.9551 0.0000
vt 0.7964 0.8185 0.0000
vt 0.6472 0.9240 0.0000
vt 0.6202 0.8928 0.0000
vt 0.6936 0.8864 0.0000
vt 0.6385 0.9483 0.0000
vt 0.5789 0.8780 0.0000
vt 0.5341 0.8253 0.0000
vt 0.6851 0.8853 0.0000
vt 0.6658 0.7403 0.0000
vt 0.6181 0.8115 0.0000
vt 0.6118 0.6994 0.0000
vt 0.5610 0.6414 0.0000
vt 0.6471 0.5444 0.0000
vt 0.6126 0.6061 0.0000
vt 0.7081 0.4562 0.0000
vt 0.7319 0.3072 0.0000
vt 0.6277 0.3673 0.0000
vt 0.6129 0.4076 0.0000
vt 0.8118 0.2267 0.0000
vt 0.7836 0.1664 0.0000
vt 0.7415 0.2922 0.0000
vt 0.6020 0.2220 0.0000
vt 0.8876 0.0010 0.0000
vt 0.8051 0.1330 0.0000
vt 0.1498 0.9753 0.0000
vt 0.0591 0.9770 0.0000
vt 0.0913 0.9764 0.0000
vt 0.2228 0.9742 0.0000
vt 0.3597 0.9716 0.0000
vt 0.3938 0.9709 0.0000
vt 0.2982 0.9729 0.0000
vt 0.1144 0.0436 0.0000
vt 0.2302 0.0294 0.0000
vt 0.0870 0.0480 0.0000
vt 0.1665 0.0365 0.0000
vt 0.2981 0.0240 0.0000
vt 0.3824 0.0244 0.0000
vt 0.3506 0.0245 0.0000
vt 0.2984 0.9317 0.0000
vt 0.2107 0.9504 0.0000
vt 0.1786 0.0980 0.0000
vt 0.2590 0.0708 0.0000
vt 0.1901 0.9558 0.0000
vt 0.1596 0.1056 0.0000
vt 0.2501 0.9413 0.0000
vt 0.2143 0.0852 0.0000
vt 0.3500 0.9233 0.0000
vt 0.3060 0.0580 0.0000
vt 0.4144 0.9192 0.0000
vt 0.3655 0.0442 0.0000
vt 0.3902 0.9210 0.0000
vt 0.3438 0.0488 0.0000
vt 0.2271 0.8734 0.0000
vt 0.0955 0.8990 0.0000
vt 0.1799 0.1759 0.0000
vt 0.2905 0.1395 0.0000
vt 0.0643 0.9058 0.0000
vt 0.1597 0.1823 0.0000
vt 0.1541 0.8872 0.0000
vt 0.2394 0.1536 0.0000
vt 0.3040 0.8606 0.0000
vt 0.3636 0.1150 0.0000
vt 0.4010 0.8458 0.0000
vt 0.4427 0.0942 0.0000
vt 0.3656 0.8510 0.0000
vt 0.4102 0.1040 0.0000
vt 0.2607 0.9319 0.0000
vt 0.1738 0.9625 0.0000
vt 0.1752 0.1414 0.0000
vt 0.2497 0.0934 0.0000
vt 0.1579 0.9677 0.0000
vt 0.1627 0.1504 0.0000
vt 0.2207 0.9429 0.0000
vt 0.2177 0.1131 0.0000
vt 0.3182 0.9112 0.0000
vt 0.3029 0.0609 0.0000
vt 0.3799 0.8954 0.0000
vt 0.3563 0.0324 0.0000
vt 0.3545 0.9033 0.0000
vt 0.3325 0.0457 0.0000
vt 0.2578 0.9042 0.0000
vt 0.1807 0.9462 0.0000
vt 0.1549 0.2334 0.0000
vt 0.2157 0.1853 0.0000
vt 0.1677 0.9543 0.0000
vt 0.1478 0.2433 0.0000
vt 0.2248 0.9213 0.0000
vt 0.1980 0.2074 0.0000
vt 0.3126 0.8761 0.0000
vt 0.2695 0.1536 0.0000
vt 0.3672 0.8521 0.0000
vt 0.3096 0.1223 0.0000
vt 0.3428 0.8634 0.0000
vt 0.2856 0.1362 0.0000
vt 0.2109 0.8637 0.0000
vt 0.1404 0.9295 0.0000
vt 0.0931 0.1947 0.0000
vt 0.1451 0.1323 0.0000
vt 0.1319 0.9431 0.0000
vt 0.0905 0.2086 0.0000
vt 0.1898 0.8939 0.0000
vt 0.1390 0.1636 0.0000
vt 0.2725 0.8203 0.0000
vt 0.2024 0.0936 0.0000
vt 0.3188 0.7774 0.0000
vt 0.2330 0.0513 0.0000
vt 0.2914 0.7963 0.0000
vt 0.2075 0.0685 0.0000
vt 0.1892 0.2940 0.0000
vt 0.1718 0.3017 0.0000
vt 0.1283 0.2368 0.0000
vt 0.1437 0.2294 0.0000
vt 0.1715 0.3033 0.0000
vt 0.1286 0.2384 0.0000
vt 0.1884 0.2976 0.0000
vt 0.1443 0.2329 0.0000
vt 0.2100 0.2888 0.0000
vt 0.1636 0.2246 0.0000
vt 0.2199 0.2836 0.0000
vt 0.1719 0.2196 0.0000
vt 0.2107 0.2859 0.0000
vt 0.1631 0.2217 0.0000
# 235 texture coords

o palmier_Sphere007
g palmier_Sphere007
usemtl phong1SG
s 3
f 1/1/1 2/2/2 3/3/3 
s 6
f 1/1/1 3/3/3 4/4/4 
s 25
f 2/2/2 5/5/5 6/6/6 3/3/3 
s 20
f 6/6/6 7/7/7 4/4/4 3/3/3 
s 42
f 5/5/5 8/8/8 9/9/9 6/6/6 
s 96
f 9/9/9 10/10/10 11/7/11 6/6/6 
s 3
f 8/8/8 12/11/12 13/12/13 9/9/9 
s 69
f 13/12/13 14/13/14 10/10/10 9/9/9 
s 24
f 15/14/15 16/15/16 17/16/17 13/12/13 
s 52
f 17/16/17 18/17/18 14/13/14 13/12/13 
s 9
f 19/18/19 17/16/17 16/15/16 
s 33
f 19/18/19 18/17/18 17/16/17 
s 3
f 20/19/20 21/20/21 22/21/22 
s 2
f 20/22/20 22/23/22 23/24/23 
s 13
f 24/25/24 25/26/25 22/21/22 21/20/21 
s 24
f 25/27/25 26/28/26 27/29/27 22/23/22 
s 38
f 24/25/24 28/30/28 29/31/29 25/26/25 
s 48
f 29/32/29 30/33/30 26/28/26 25/27/25 
s 3
f 28/30/28 31/34/31 32/35/32 29/31/29 
s 9
f 32/36/32 33/37/33 34/38/34 29/32/29 
s 20
f 35/39/35 36/40/36 37/41/37 32/35/32 
s 56
f 37/42/37 38/43/38 33/37/33 32/36/32 
s 5
f 39/44/39 37/41/37 36/40/36 
s 33
f 39/45/39 38/43/38 37/42/37 
s 3
f 40/46/40 41/47/41 42/48/42 
s 6
f 40/46/40 42/48/42 43/49/43 
s 25
f 41/47/41 44/50/44 45/51/45 42/48/42 
s 20
f 45/51/45 46/52/46 43/49/43 42/48/42 
s 42
f 44/50/44 47/53/47 48/54/48 45/51/45 
s 32
f 48/54/48 49/55/49 50/52/50 45/51/45 
s 3
f 47/53/47 51/56/51 52/57/52 48/54/48 
s 5
f 52/57/52 53/58/53 54/59/54 48/54/48 
s 24
f 55/60/55 56/61/56 57/62/57 52/57/52 
s 20
f 57/62/57 58/63/58 53/58/53 52/57/52 
s 9
f 59/64/59 57/62/57 56/61/56 
s 1
f 59/64/59 60/65/60 57/62/57 
s 3
f 61/66/61 62/67/62 63/68/63 
s 6
f 61/69/61 63/70/63 64/71/64 
s 25
f 62/67/62 65/72/65 66/73/66 63/68/63 
s 20
f 66/74/66 67/75/67 64/71/64 63/70/63 
s 10
f 65/72/65 68/76/68 69/77/69 66/73/66 
s 34
f 69/78/69 70/79/70 71/80/71 66/74/66 
s 5
f 72/81/72 73/82/73 74/83/74 69/77/69 
s 52
f 69/78/69 74/84/74 75/85/75 70/79/70 
s 11
f 73/82/73 76/86/76 77/87/77 74/83/74 
s 88
f 77/88/77 78/89/78 75/85/75 74/84/74 
s 6
f 79/90/79 77/87/77 76/86/76 
s 68
f 79/91/79 78/89/78 77/88/77 
s 3
f 80/92/80 81/93/81 82/94/82 
s 6
f 80/92/80 82/94/82 83/95/83 
s 25
f 81/93/81 84/96/84 85/97/85 82/94/82 
s 52
f 85/97/85 86/98/86 83/95/83 82/94/82 
s 10
f 84/96/84 87/99/87 88/100/88 85/97/85 
s 98
f 85/97/85 88/100/88 89/101/89 86/98/86 
s 5
f 90/102/90 91/103/91 92/104/92 88/100/88 
s 68
f 92/104/92 93/105/93 89/101/89 88/100/88 
s 11
f 91/103/91 94/106/94 95/107/95 92/104/92 
s 8
f 95/107/95 96/108/96 97/109/97 92/104/92 
s 6
f 98/110/98 95/107/95 94/106/94 
s 4
f 98/110/98 99/108/99 95/107/95 
s 3
f 100/111/100 101/112/101 102/113/102 
s 6
f 100/114/100 102/115/102 103/116/103 
s 9
f 101/112/101 104/117/104 105/118/105 102/113/102 
s 28
f 102/115/102 105/119/105 106/120/106 103/116/103 
s 34
f 107/121/107 108/122/108 109/123/109 105/118/105 
s 112
f 105/119/105 109/124/109 110/125/110 106/120/106 
s 7
f 108/122/108 111/126/111 112/127/112 109/123/109 
s 68
f 112/128/112 113/129/113 110/125/110 109/124/109 
s 25
f 114/130/114 115/131/115 112/127/112 111/126/111 
s 16
f 115/132/115 116/133/116 117/134/117 112/128/112 
s 10
f 118/135/118 115/131/115 114/130/114 
s 2
f 118/136/118 119/137/119 115/132/115 
s 127
f 120/138/120 121/139/121 122/140/122 123/141/123 124/142/124 125/143/125 126/144/126 
s 912
f 123/141/123 122/140/122 127/145/127 128/146/128 
s 3208
f 122/140/122 121/139/121 129/147/129 127/145/127 
s 1796
f 120/138/120 130/148/130 129/147/129 121/139/121 
s 2434
f 126/144/126 131/149/131 130/148/130 120/138/120 
s 1665
f 125/143/125 132/150/132 131/149/131 126/144/126 
s 3360
f 124/142/124 133/151/133 132/150/132 125/143/125 
s 6720
f 124/142/124 123/141/123 128/146/128 133/151/133 
s 263
f 128/152/128 127/153/127 134/154/134 135/155/135 
s 2145
f 127/153/127 129/156/129 136/157/136 134/154/134 
s 4656
f 130/158/130 137/159/137 136/157/136 129/156/129 
s 2136
f 131/160/131 138/161/138 137/159/137 130/158/130 
s 8716
f 132/162/132 139/163/139 138/161/138 131/160/131 
s 24834
f 132/162/132 133/164/133 140/165/140 139/163/139 
s 20492
f 133/164/133 128/152/128 135/155/135 140/165/140 
s 658
f 135/166/135 134/167/134 141/168/141 142/169/142 
s 1224
f 134/167/134 136/170/136 143/171/143 141/168/141 
s 5126
f 137/172/137 144/173/144 143/171/143 136/170/136 
s 195
f 138/174/138 145/175/145 144/173/144 137/172/137 
s 1061
f 139/176/139 146/177/146 145/175/145 138/174/138 
s 114
f 139/176/139 140/178/140 147/179/147 146/177/146 
s 1608
f 140/178/140 135/166/135 142/169/142 147/179/147 
s 277
f 142/180/142 141/181/141 148/182/148 149/183/149 
s 2089
f 141/181/141 143/184/143 150/185/150 148/182/148 
s 308
f 144/186/144 151/187/151 150/185/150 143/184/143 
s 664
f 145/188/145 152/189/152 151/187/151 144/186/144 
s 3336
f 146/190/146 153/191/153 152/189/152 145/188/145 
s 6288
f 146/190/146 147/192/147 154/193/154 153/191/153 
s 13568
f 147/192/147 142/180/142 149/183/149 154/193/154 
s 582
f 149/194/149 148/195/148 155/196/155 156/197/156 
s 3202
f 148/195/148 150/198/150 157/199/157 155/196/155 
s 5440
f 151/200/151 158/201/158 157/199/157 150/198/150 
s 579
f 152/202/152 159/203/159 158/201/158 151/200/151 
s 293
f 153/204/153 160/205/160 159/203/159 152/202/152 
s 16518
f 153/204/153 154/206/154 161/207/161 160/205/160 
s 25096
f 154/206/154 149/194/149 156/197/156 161/207/161 
s 113
f 156/208/156 155/209/155 162/210/162 163/211/163 
s 8329
f 155/209/155 157/212/157 164/213/164 162/210/162 
s 4124
f 158/214/158 165/215/165 164/213/164 157/212/157 
s 2194
f 159/216/159 166/217/166 165/215/165 158/214/158 
s 3112
f 160/218/160 167/219/167 166/217/166 159/216/159 
s 5138
f 160/218/160 161/220/161 168/221/168 167/219/167 
s 4392
f 161/220/161 156/208/156 163/211/163 168/221/168 
s 534
f 163/222/163 162/223/162 169/224/169 170/225/170 
s 9474
f 162/223/162 164/226/164 171/227/171 169/224/169 
s 356
f 165/228/165 172/229/172 171/227/171 164/226/164 
s 16577
f 166/230/166 173/231/173 172/229/172 165/228/165 
s 40969
f 167/232/167 174/233/174 173/231/173 166/230/166 
s 73872
f 167/232/167 168/234/168 175/235/175 174/233/174 
s 2436
f 168/234/168 163/222/163 170/225/170 175/235/175 
s 118304
f 171/227/171 172/229/172 173/231/173 174/233/174 175/235/175 170/225/170 169/224/169 
# 99 polygons - 24 triangles

