# 3ds Max Wavefront OBJ Exporter v0.97b - (c)2007 guruware
# File Created: 08.06.2020 13:43:28

mtllib Petak.mtl

#
# object Petal
#

v  -2.4428 0.0000 1.1196
v  -1.7481 0.0000 1.3969
v  -1.7481 0.0000 0.6985
v  -3.2865 0.0000 0.6229
v  -0.5168 0.0000 1.6705
v  -0.5168 0.0000 0.8352
v  0.3928 0.0000 1.5612
v  1.0895 0.0000 1.1310
v  -1.7481 0.0000 -0.0000
v  -3.8986 0.0000 -0.0000
v  -0.5168 0.0000 -0.0000
v  1.5342 0.0000 -0.0000
v  -3.2865 0.0000 -0.6229
v  -1.7481 0.0000 -0.6985
v  -0.5168 0.0000 -0.8352
v  1.0895 0.0000 -1.1310
v  -2.4428 0.0000 -1.1196
v  -1.7481 0.0000 -1.3969
v  -0.5168 0.0000 -1.6705
v  0.3928 0.0000 -1.5612
# 20 vertices

vn 0.0000 1.0000 -0.0000
# 1 vertex normals

vt 0.3060 0.3966 0.0000
vt 0.3287 0.3856 0.0000
vt 0.3287 0.4097 0.0000
vt 0.2784 0.4126 0.0000
vt 0.3905 0.3797 0.0000
vt 0.3905 0.4068 0.0000
vt 0.4597 0.3910 0.0000
vt 0.4846 0.4077 0.0000
vt 0.3287 0.3320 0.0000
vt 0.2584 0.3320 0.0000
vt 0.3905 0.3320 0.0000
vt 0.4897 0.3320 0.0000
vt 0.2784 0.4552 0.0000
vt 0.3287 0.4581 0.0000
vt 0.3905 0.4610 0.0000
vt 0.4846 0.4601 0.0000
vt 0.3060 0.4713 0.0000
vt 0.3287 0.4823 0.0000
vt 0.3905 0.4882 0.0000
vt 0.4597 0.4769 0.0000
# 20 texture coords

o Petal
g Petal
usemtl Material__60
s 1
f 1/1/1 2/2/1 3/3/1 4/4/1 
f 2/2/1 5/5/1 6/6/1 3/3/1 
f 6/6/1 5/5/1 7/7/1 8/8/1 
f 4/4/1 3/3/1 9/9/1 10/10/1 
f 3/3/1 6/6/1 11/11/1 9/9/1 
f 11/11/1 6/6/1 8/8/1 12/12/1 
f 13/13/1 10/10/1 9/9/1 14/14/1 
f 14/14/1 9/9/1 11/11/1 15/15/1 
f 11/11/1 12/12/1 16/16/1 15/15/1 
f 17/17/1 13/13/1 14/14/1 18/18/1 
f 18/18/1 14/14/1 15/15/1 19/19/1 
f 15/15/1 16/16/1 20/20/1 19/19/1 
# 12 polygons

