# 3ds Max Wavefront OBJ Exporter v0.97b - (c)2007 guruware
# File Created: 02.05.2020 19:47:01

mtllib EtoileChateau_Flip.mtl

#
# object CroixChateau_Text_Plane001
#

v  0.0219 0.9098 -2.1408
v  0.0450 0.7097 -2.4992
v  0.4589 0.3081 -1.1102
v  0.4245 0.9285 -0.7530
v  0.0666 0.3395 -2.3196
v  0.5058 -0.4177 -1.1755
v  0.2810 -2.1090 1.1621
v  0.2955 -2.1496 1.5672
v  0.5768 -0.9659 0.6896
v  0.5831 -1.2521 0.0118
v  0.2544 -1.7501 1.6361
v  0.5485 -0.4058 1.1609
v  0.0962 0.9514 2.1212
v  0.4506 0.9443 0.7003
v  0.4983 0.3349 1.0975
v  0.1231 0.7560 2.4786
v  0.1410 0.3855 2.3058
v  0.2304 -1.7584 -1.5895
v  0.2709 -2.1563 -1.5061
v  0.5499 -0.9425 -0.6719
v  0.2601 -2.1003 -1.1003
v  -0.0236 2.2245 -0.3409
v  0.4274 1.0874 -0.0356
v  -0.0339 2.5054 -0.0444
v  -0.0197 2.2278 0.2567
v  0.6764 -0.0284 0.0134
v  -0.1614 0.8358 -2.1197
v  -0.5543 0.8071 -0.7029
v  -0.5205 0.2281 -1.1047
v  -0.1897 0.6696 -2.4242
v  -0.1233 0.3674 -2.2673
v  -0.4742 -0.4649 -1.0969
v  0.0936 -2.0638 1.1855
v  -0.4079 -1.2550 0.0227
v  -0.4137 -1.0461 0.6957
v  0.0589 -2.1109 1.5270
v  0.0719 -1.7656 1.5775
v  -0.4479 -0.4573 1.1147
v  -0.0894 0.8794 2.1078
v  -0.1148 0.7174 2.4189
v  -0.4955 0.2540 1.1033
v  -0.5386 0.8213 0.6759
v  -0.0505 0.4081 2.2610
v  0.0496 -1.7749 -1.5245
v  -0.4317 -1.0221 -0.6660
v  0.0361 -2.1146 -1.4622
v  0.0759 -2.0552 -1.1220
v  -0.2091 2.1779 -0.2892
v  -0.2669 2.4220 -0.0420
v  -0.5595 1.0070 -0.0300
v  -0.2039 2.1801 0.2087
v  -0.6592 -0.1359 0.0219
v  -0.0175 1.0081 -0.8282
v  -0.0746 1.0244 -2.1723
v  -0.1135 2.2862 -0.4474
v  -0.1378 2.6435 -0.0445
v  -0.1072 2.2921 0.3632
v  -0.0054 1.0246 0.7854
v  0.0027 1.0675 2.1539
v  0.0278 0.7937 2.6175
v  0.0643 0.2995 2.4055
v  0.1154 -0.4774 1.3012
v  0.1730 -1.7460 1.7649
v  0.2130 -2.2725 1.6565
v  0.2056 -2.2345 1.1189
v  0.1334 -1.4227 0.0186
v  0.1868 -2.2249 -1.0532
v  0.1867 -2.2824 -1.5891
v  0.1452 -1.7602 -1.7160
v  0.0504 -0.4936 -1.2981
v  -0.0168 0.2530 -2.4144
v  -0.0567 0.7443 -2.6325
# 72 vertices

vn -0.7898 -0.5609 0.2481
vn -0.8610 -0.2116 0.4625
vn -0.9831 -0.1066 0.1491
vn -0.8397 -0.4485 0.3062
vn -0.8491 0.2080 0.4855
vn -0.8728 0.1008 0.4775
vn -0.8837 0.4588 0.0927
vn -0.9182 0.2903 -0.2694
vn -0.9964 0.0508 -0.0672
vn -0.9011 0.4332 0.0159
vn -0.8487 0.0013 -0.5289
vn -0.8886 0.0908 -0.4496
vn -0.8118 -0.5426 -0.2156
vn -0.8440 -0.4660 -0.2654
vn -0.9865 -0.1130 -0.1185
vn -0.8810 -0.2090 -0.4245
vn -0.8703 0.1870 -0.4557
vn -0.8423 0.0164 0.5388
vn -0.9149 0.3019 0.2680
vn -0.9949 0.0394 0.0931
vn -0.8797 0.4662 -0.0935
vn -0.8165 -0.4226 0.3933
vn -0.9786 -0.2048 0.0201
vn -0.8546 -0.5193 0.0096
vn -0.8161 -0.4380 -0.3771
vn -0.9977 -0.0661 0.0145
vn 0.8774 -0.4364 0.1995
vn 0.9008 -0.3361 0.2749
vn 0.9901 0.0202 0.1390
vn 0.8996 -0.0640 0.4321
vn 0.8181 0.3599 0.4485
vn 0.8673 0.2186 0.4472
vn 0.7988 0.5900 0.1177
vn 0.8364 0.5481 -0.0066
vn 0.9738 0.2001 -0.1081
vn 0.8543 0.4359 -0.2832
vn 0.8274 0.0912 -0.5541
vn 0.8534 0.2018 -0.4807
vn 0.8615 -0.4603 -0.2143
vn 0.8800 -0.0815 -0.4679
vn 0.9858 0.0119 -0.1675
vn 0.8929 -0.3458 -0.2883
vn 0.7900 0.3632 -0.4940
vn 0.8375 0.1125 0.5347
vn 0.9755 0.2023 0.0862
vn 0.8606 0.4415 0.2540
vn 0.7902 0.5959 -0.1434
vn 0.8504 -0.3009 0.4316
vn 0.9109 -0.4125 -0.0053
vn 0.9957 -0.0917 -0.0092
vn 0.8409 -0.3115 -0.4426
vn 0.9975 0.0692 -0.0148
vn 0.0854 -0.8015 0.5918
vn 0.1325 -0.9560 0.2616
vn 0.0795 -0.5321 0.8429
vn 0.0630 -0.9980 0.0066
vn 0.0676 -0.5519 -0.8311
vn 0.0830 -0.8160 -0.5720
vn 0.1035 -0.9627 -0.2500
vn 0.0018 -0.3111 -0.9504
vn -0.0239 0.6287 -0.7773
vn -0.0159 0.2991 -0.9541
vn 0.0380 -0.0712 -0.9967
vn -0.0701 0.7939 -0.6040
vn -0.0224 0.9380 0.3460
vn -0.0241 0.9997 -0.0024
vn -0.0271 0.9302 -0.3660
vn -0.0570 0.8158 0.5755
vn 0.0589 -0.0354 0.9976
vn 0.0392 0.3289 0.9435
vn 0.0195 0.6447 0.7642
vn 0.0435 -0.2962 0.9541
# 72 vertex normals

vt 0.5543 0.8194 0.0000
vt 0.6304 0.8937 0.0000
vt 0.6297 0.4186 0.0000
vt 0.4487 0.4114 0.0000
vt 0.7099 0.7817 0.0000
vt 0.8159 0.3227 0.0000
vt 0.5512 0.8195 0.0000
vt 0.6510 0.9043 0.0000
vt 0.6455 0.4120 0.0000
vt 0.4105 0.3697 0.0000
vt 0.7461 0.8044 0.0000
vt 0.8783 0.3397 0.0000
vt 0.7379 0.8717 0.0000
vt 0.8690 0.4584 0.0000
vt 0.6506 0.4253 0.0000
vt 0.6463 0.9277 0.0000
vt 0.5524 0.7876 0.0000
vt 0.4244 0.2637 0.0000
vt 0.5410 0.8092 0.0000
vt 0.6408 0.9096 0.0000
vt 0.6312 0.4062 0.0000
vt 0.3930 0.3451 0.0000
vt 0.7398 0.8198 0.0000
vt 0.8766 0.3722 0.0000
vt 0.6986 0.7701 0.0000
vt 0.7854 0.4349 0.0000
vt 0.6422 0.4741 0.0000
vt 0.6386 0.8421 0.0000
vt 0.5798 0.7692 0.0000
vt 0.4964 0.4348 0.0000
vt 0.6321 0.0325 0.0000
vt 0.6395 0.0168 0.0000
vt 0.6460 0.0255 0.0000
vt 0.6367 0.1844 0.0000
vt 0.6442 0.0230 0.0000
vt 0.5603 0.7973 0.0000
vt 0.4256 0.3829 0.0000
vt 0.6435 0.4378 0.0000
vt 0.6420 0.8680 0.0000
vt 0.7186 0.7901 0.0000
vt 0.8548 0.3616 0.0000
vt 0.5593 0.8104 0.0000
vt 0.4195 0.3646 0.0000
vt 0.6367 0.4182 0.0000
vt 0.6387 0.8839 0.0000
vt 0.7213 0.7884 0.0000
vt 0.8642 0.3132 0.0000
vt 0.7295 0.8105 0.0000
vt 0.6405 0.8839 0.0000
vt 0.6395 0.4297 0.0000
vt 0.8749 0.3721 0.0000
vt 0.5571 0.7976 0.0000
vt 0.4047 0.3440 0.0000
vt 0.5689 0.7948 0.0000
vt 0.4209 0.3122 0.0000
vt 0.6498 0.4102 0.0000
vt 0.6542 0.8896 0.0000
vt 0.7343 0.8115 0.0000
vt 0.8831 0.3621 0.0000
vt 0.7205 0.7917 0.0000
vt 0.6512 0.8688 0.0000
vt 0.6478 0.4221 0.0000
vt 0.8363 0.3590 0.0000
vt 0.5810 0.7924 0.0000
vt 0.4501 0.3635 0.0000
vt 0.6408 0.0719 0.0000
vt 0.6576 0.0139 0.0000
vt 0.6445 0.0266 0.0000
vt 0.6333 0.0613 0.0000
vt 0.6357 0.0552 0.0000
vt 0.4342 0.4463 0.0000
vt 0.5279 0.8469 0.0000
vt 0.8000 0.4558 0.0000
vt 0.7195 0.7864 0.0000
vt 0.6381 0.8779 0.0000
vt 0.5584 0.7856 0.0000
vt 0.4792 0.4554 0.0000
vt 0.8849 0.5025 0.0000
vt 0.7694 0.9094 0.0000
vt 0.6445 0.9771 0.0000
vt 0.5175 0.7956 0.0000
vt 0.3900 0.2869 0.0000
vt 0.9017 0.3853 0.0000
vt 0.7811 0.8266 0.0000
vt 0.6511 0.9552 0.0000
vt 0.5157 0.8470 0.0000
vt 0.3795 0.4190 0.0000
vt 0.9115 0.4205 0.0000
vt 0.7768 0.8475 0.0000
vt 0.6427 0.9612 0.0000
vt 0.5070 0.8326 0.0000
vt 0.3745 0.3893 0.0000
vt 0.8438 0.3470 0.0000
vt 0.7384 0.7961 0.0000
vt 0.6314 0.9387 0.0000
vt 0.3768 0.4408 0.0000
vt 0.5079 0.8327 0.0000
vt 0.6402 0.9364 0.0000
vt 0.7685 0.8207 0.0000
vt 0.8839 0.4169 0.0000
vt 0.3723 0.3563 0.0000
vt 0.5141 0.8237 0.0000
vt 0.6536 0.9640 0.0000
vt 0.7871 0.8523 0.0000
vt 0.9157 0.4150 0.0000
vt 0.3847 0.4145 0.0000
vt 0.5076 0.8504 0.0000
vt 0.6398 0.9552 0.0000
vt 0.7740 0.8150 0.0000
vt 0.9087 0.3516 0.0000
vt 0.3766 0.3976 0.0000
vt 0.5048 0.8275 0.0000
vt 0.6428 0.9533 0.0000
vt 0.7859 0.8480 0.0000
vt 0.9291 0.4305 0.0000
vt 0.4195 0.4277 0.0000
vt 0.5377 0.8278 0.0000
vt 0.6519 0.9387 0.0000
vt 0.7648 0.8259 0.0000
vt 0.8715 0.4224 0.0000
# 120 texture coords

o CroixChateau_Text_Plane001
g CroixChateau_Text_Plane001
usemtl CroixChateau_Text_phong1SG
s 15
f 1/1/1 2/2/2 3/3/3 4/4/4 
s 116
f 3/3/3 2/2/2 5/5/5 6/6/6 
s 15
f 7/7/7 8/8/8 9/9/9 10/10/10 
s 114
f 9/9/9 8/8/8 11/11/11 12/12/12 
s 139
f 13/13/13 14/14/14 15/15/15 16/16/16 
s 1800
f 17/17/17 16/16/16 15/15/15 12/18/12 
s 393
f 18/19/18 19/20/19 20/21/20 6/22/6 
s 1232
f 20/21/20 19/20/19 21/23/21 10/24/10 
s 2272
f 22/25/22 4/26/4 23/27/23 24/28/24 
s 4180
f 25/29/25 24/28/24 23/27/23 14/30/14 
s 24594
f 3/3/3 6/6/6 26/31/26 4/4/4 
s 50432
f 26/32/26 6/22/6 20/21/20 10/24/10 
s 98340
f 26/33/26 10/10/10 9/9/9 12/12/12 
s 145408
f 26/34/26 14/30/14 23/27/23 4/26/4 
s 197248
f 26/35/26 12/18/12 15/15/15 14/14/14 
s 23
f 27/36/27 28/37/28 29/38/29 30/39/30 
s 169
f 31/40/31 30/39/30 29/38/29 32/41/32 
s 15
f 33/42/33 34/43/34 35/44/35 36/45/36 
s 177
f 37/46/37 36/45/36 35/44/35 38/47/38 
s 30
f 39/48/39 40/49/40 41/50/41 42/51/42 
s 2628
f 41/50/41 40/49/40 43/52/43 38/53/38 
s 338
f 44/54/44 32/55/32 45/56/45 46/57/46 
s 736
f 47/58/47 46/57/46 45/56/45 34/59/34 
s 456
f 48/60/48 49/61/49 50/62/50 28/63/28 
s 1793
f 50/62/50 49/61/49 51/64/51 42/65/42 
s 6180
f 29/38/29 28/37/28 52/66/52 32/41/32 
s 11008
f 45/56/45 32/55/32 52/67/52 34/59/34 
s 24600
f 35/44/35 34/43/34 52/68/52 38/47/38 
s 38016
f 52/69/52 28/63/28 50/62/50 42/65/42 
s 49218
f 52/70/52 42/51/42 41/50/41 38/53/38 
s 66305
f 53/71/53 54/72/54 1/1/1 4/4/4 
s 263552
f 53/73/53 4/26/4 22/25/22 55/74/55 
s 9250
f 55/74/55 22/25/22 24/28/24 56/75/56 
s 24848
f 57/76/57 56/75/56 24/28/24 25/29/25 
s 262436
f 58/77/58 57/76/57 25/29/25 14/30/14 
s 540706
f 58/78/58 14/14/14 13/13/13 59/79/59 
s 20485
f 59/79/59 13/13/13 16/16/16 60/80/60 
s 9252
f 61/81/61 60/80/60 16/16/16 17/17/17 
s 12545
f 62/82/62 61/81/61 17/17/17 12/18/12 
s 264209
f 62/83/62 12/12/12 11/11/11 63/84/63 
s 2880
f 63/84/63 11/11/11 8/8/8 64/85/64 
s 5640
f 65/86/65 64/85/64 8/8/8 7/7/7 
s 137217
f 66/87/66 65/86/65 7/7/7 10/10/10 
s 264720
f 66/88/66 10/24/10 21/23/21 67/89/67 
s 4676
f 67/89/67 21/23/21 19/20/19 68/90/68 
s 14344
f 69/91/69 68/90/68 19/20/19 18/19/18 
s 68097
f 70/92/70 69/91/69 18/19/18 6/22/6 
s 135712
f 70/93/70 6/6/6 5/5/5 71/94/71 
s 5440
f 71/94/71 5/5/5 2/2/2 72/95/72 
s 3592
f 54/72/54 72/95/72 2/2/2 1/1/1 
s 90128
f 53/96/53 28/37/28 27/36/27 54/97/54 
s 43010
f 54/97/54 27/36/27 30/39/30 72/98/72 
s 49536
f 71/99/71 72/98/72 30/39/30 31/40/31 
s 409608
f 70/100/70 71/99/71 31/40/31 32/41/32 
s 328720
f 70/101/70 32/55/32 44/54/44 69/102/69 
s 25602
f 69/102/69 44/54/44 46/57/46 68/103/68 
s 49284
f 67/104/67 68/103/68 46/57/46 47/58/47 
s 360480
f 66/105/66 67/104/67 47/58/47 34/59/34 
s 720900
f 66/106/66 34/43/34 33/42/33 65/107/65 
s 533506
f 65/107/65 33/42/33 36/45/36 64/108/64 
s 74112
f 63/109/63 64/108/64 36/45/36 37/46/37 
s 458784
f 62/110/62 63/109/63 37/46/37 38/47/38 
s 659968
f 62/111/62 38/53/38 43/52/43 61/112/61 
s 526496
f 61/112/61 43/52/43 40/49/40 60/113/60 
s 69776
f 59/114/59 60/113/60 40/49/40 39/48/39 
s 591880
f 58/115/58 59/114/59 39/48/39 42/51/42 
s 395265
f 58/116/58 42/65/42 51/64/51 57/117/57 
s 152064
f 57/117/57 51/64/51 49/61/49 56/118/56 
s 528450
f 55/119/55 56/118/56 49/61/49 48/60/48 
s 802824
f 53/120/53 55/119/55 48/60/48 28/63/28 
# 70 polygons

