# 3ds Max Wavefront OBJ Exporter v0.97b - (c)2007 guruware
# File Created: 08.06.2020 13:42:03

mtllib ModulePonton_Droite.mtl

#
# object ModulePonton_Droite001
#

v  0.1939 -4.0777 -4.7949
v  0.6675 -4.7848 -4.4850
v  -3.6430 -4.7848 5.3804
v  -4.3484 -4.0777 5.4252
v  -2.9377 -4.0777 5.3416
v  1.1411 -4.0777 -4.1722
v  0.6675 -3.3706 -4.4850
v  -3.6430 -3.3706 5.3804
v  8.4808 -3.3706 -11.5045
v  8.2390 -4.0777 -12.1690
v  5.4119 -4.0777 -1.2152
v  5.8854 -4.7848 -0.8723
v  4.1279 -4.7848 5.2842
v  3.4227 -4.0777 5.2628
v  4.1279 -3.3706 5.2842
v  4.8330 -4.0777 5.3115
v  6.3589 -4.0777 -0.5264
v  5.8854 -3.3706 -0.8723
v  10.9039 -4.0777 -4.8473
v  11.1457 -3.3706 -4.1829
v  1.5521 -3.4158 -8.9435
v  4.3216 -3.4158 -11.1000
v  9.6404 -3.4158 -1.2935
v  8.2779 -3.4158 -0.5041
v  1.5521 -2.4158 -8.9435
v  8.2779 -2.4158 -0.5041
v  9.6404 -2.4158 -1.2935
v  4.3216 -2.4158 -11.1000
v  4.5149 -3.4158 -12.1683
v  7.3617 -3.4158 -13.5242
v  11.9257 -3.4158 -1.9144
v  9.8614 -3.4158 -1.0146
v  4.5148 -2.4158 -12.1683
v  9.8614 -2.4158 -1.0146
v  11.9257 -2.4158 -1.9144
v  7.3617 -2.4158 -13.5242
v  -3.2186 -3.4158 -1.4723
v  6.6550 -3.4158 1.7622
v  6.2468 -3.4158 3.4148
v  -4.0656 -3.4158 1.3581
v  6.2468 -2.4158 3.4148
v  6.6550 -2.4158 1.7622
v  -3.2186 -2.4158 -1.4723
v  -4.0656 -2.4158 1.3581
v  -4.6546 -3.4158 1.8199
v  6.2046 -3.4158 3.6976
v  6.1170 -3.4158 5.1164
v  -4.9671 -3.4158 4.7288
v  6.1170 -2.4158 5.1164
v  6.2046 -2.4158 3.6976
v  -4.6546 -2.4158 1.8199
v  -4.9671 -2.4158 4.7288
v  7.0077 -2.7342 -10.8043
v  7.2589 -2.8474 -11.4035
v  6.8152 4.0662 -12.5608
v  6.4329 4.2473 -11.7553
v  6.8875 -3.0910 -11.9508
v  6.3422 3.6798 -13.2674
v  6.2352 -3.2214 -11.8774
v  5.4392 3.4744 -13.1377
v  6.0053 -3.1025 -11.2477
v  5.0969 3.6655 -12.2809
v  6.4052 -2.8591 -10.7228
v  5.6154 4.0516 -11.6069
v  10.4365 -3.0285 -3.1970
v  11.3107 3.7044 -1.8674
v  10.9202 3.5524 -1.2185
v  10.0894 -3.0927 -2.6425
v  10.2021 -2.9000 -3.6794
v  11.0101 4.0083 -2.5134
v  9.5622 -2.8358 -3.5520
v  10.2217 4.1603 -2.4136
v  9.2099 -2.9000 -2.9632
v  9.8187 4.0083 -1.7026
v  9.5014 -3.0285 -2.5356
v  10.2138 3.7044 -1.1520
v  2.6456 1.4562 -7.6865
v  2.4544 1.5788 -7.7692
v  5.9365 3.0384 -12.3024
v  6.1267 2.9245 -12.1980
v  2.3485 1.8241 -7.6595
v  5.7348 3.2661 -12.1569
v  2.4361 1.9467 -7.4696
v  5.7277 3.3800 -11.9098
v  2.6278 1.8241 -7.3888
v  5.9186 3.2661 -11.8074
v  2.7314 1.5788 -7.4960
v  6.1160 3.0384 -11.9501
v  -0.3683 0.9594 -3.0007
v  -0.5425 1.0886 -3.0872
v  -0.5428 1.3470 -3.0868
v  -0.3688 1.4763 -2.9999
v  -0.1945 1.3470 -2.9137
v  -0.1943 1.0886 -2.9141
v  -2.7673 1.4557 1.3594
v  -2.9465 1.5786 1.2731
v  -2.9127 1.8243 1.1504
v  -2.7005 1.9471 1.1175
v  -2.5224 1.8243 1.2055
v  -2.5555 1.5786 1.3248
v  -5.5079 2.9227 6.6934
v  -5.7116 3.0375 6.6468
v  -5.7136 3.2671 6.4596
v  -5.5118 3.3819 6.3247
v  -5.3094 3.2671 6.3746
v  -5.3075 3.0375 6.5562
v  10.5706 2.9245 -2.0616
v  8.9677 1.4562 -0.4256
v  8.7866 1.5788 -0.5244
v  10.4182 3.0384 -2.2095
v  8.7346 1.8241 -0.4712
v  10.3184 3.2661 -2.1414
v  8.8660 1.9467 -0.3221
v  10.3757 3.3800 -1.9301
v  9.0479 1.8241 -0.2252
v  10.5297 3.2661 -1.7851
v  9.0975 1.5788 -0.2756
v  10.6248 3.0384 -1.8485
v  7.5173 0.9594 1.8779
v  7.3241 1.0886 1.8033
v  7.3240 1.3470 1.8035
v  7.5170 1.4763 1.8783
v  7.7102 1.3470 1.9525
v  7.7103 1.0886 1.9523
v  6.4096 1.4557 4.3814
v  6.2020 1.5786 4.3190
v  6.2177 1.8243 4.2561
v  6.4403 1.9471 4.2576
v  6.6472 1.8243 4.3211
v  6.6322 1.5786 4.3820
v  5.6304 2.9227 6.6141
v  5.4078 3.0375 6.5700
v  5.4049 3.2671 6.4718
v  5.6248 3.3819 6.4201
v  5.8468 3.2671 6.4661
v  5.8495 3.0375 6.5620
v  8.4808 -4.7848 -11.5045
v  8.7227 -4.0777 -10.8400
v  11.1457 -4.7848 -4.1829
v  11.3876 -4.0777 -3.5184
v  -1.5780 -3.4158 -5.9990
v  1.0305 -3.4158 -8.9839
v  8.0176 -3.4158 -0.6519
v  7.2301 -3.4158 0.1689
v  -1.5780 -2.4158 -5.9990
v  7.2301 -2.4158 0.1689
v  8.0176 -2.4158 -0.6519
v  1.0305 -2.4158 -8.9839
v  -1.7642 -3.4158 -4.9999
v  7.5273 -3.4158 0.4907
v  6.9788 -3.4158 1.7241
v  -3.2734 -3.4158 -2.1236
v  6.9788 -2.4158 1.7241
v  7.5273 -2.4158 0.4907
v  -1.7642 -2.4158 -4.9999
v  -3.2734 -2.4158 -2.1236
v  -0.5808 -4.0563 -3.2611
v  0.2881 -3.9511 -3.4854
v  -0.6452 -21.0000 -4.0243
v  -1.5020 -21.0000 -3.7929
v  -0.4172 -21.0000 -3.1666
v  0.5104 -4.0820 -2.6311
v  -0.3406 -3.9511 -2.3964
v  -1.2739 -21.0000 -2.9353
v  5.0499 -4.0872 -0.1769
v  5.9005 -3.9511 -0.4118
v  6.8338 -21.0000 0.1271
v  5.9771 -21.0000 0.3584
v  6.2051 -21.0000 1.2160
v  7.0619 -21.0000 0.9847
v  6.1415 -4.0677 0.4533
v  5.2718 -3.9511 0.6772
# 172 vertices

vn -0.8137 0.0000 -0.5813
vn -0.0830 -0.9944 -0.0658
vn -0.2088 -0.9737 -0.0912
vn -0.9138 -0.0000 -0.4061
vn 0.9191 -0.0000 0.3940
vn 0.8071 -0.0000 0.5905
vn -0.0830 0.9944 -0.0658
vn -0.2088 0.9737 -0.0912
vn -0.1206 0.9836 -0.1343
vn -0.6757 -0.0000 -0.7372
vn -0.8018 -0.0000 -0.5976
vn -0.1381 -0.9846 -0.1072
vn -0.1079 -0.9937 -0.0308
vn -0.9559 -0.0000 -0.2935
vn -0.1079 0.9937 -0.0308
vn 0.9675 -0.0000 0.2529
vn 0.7975 -0.0000 0.6033
vn -0.1381 0.9846 -0.1072
vn -0.5516 -0.0000 -0.8341
vn -0.0517 0.9953 -0.0822
vn -0.8112 -0.5768 -0.0963
vn 0.1683 -0.5692 -0.8048
vn 0.7849 -0.5788 0.2209
vn -0.1502 -0.5855 0.7966
vn -0.8112 0.5768 -0.0963
vn -0.1502 0.5855 0.7966
vn 0.7849 0.5788 0.2209
vn 0.1683 0.5692 -0.8048
vn -0.7699 -0.5773 -0.2720
vn 0.3006 -0.5738 -0.7618
vn 0.7531 -0.5793 0.3119
vn -0.2844 -0.5793 0.7639
vn -0.7700 0.5772 -0.2720
vn -0.2844 0.5793 0.7639
vn 0.7531 0.5793 0.3119
vn 0.3007 0.5738 -0.7618
vn -0.3788 -0.5760 -0.7243
vn 0.7117 -0.5814 -0.3943
vn 0.4369 -0.5798 0.6878
vn -0.7025 -0.5726 0.4226
vn 0.4369 0.5798 0.6878
vn 0.7117 0.5814 -0.3943
vn -0.3788 0.5760 -0.7243
vn -0.7025 0.5726 0.4226
vn -0.4930 -0.5741 -0.6537
vn 0.6372 -0.5833 -0.5037
vn 0.5481 -0.5788 0.6038
vn -0.6187 -0.5737 0.5367
vn 0.5481 0.5788 0.6038
vn 0.6372 0.5833 -0.5037
vn -0.4930 0.5741 -0.6537
vn -0.6187 0.5737 0.5367
vn 0.5901 0.1565 0.7920
vn 0.9894 0.0401 -0.1396
vn 0.6763 0.6940 -0.2470
vn 0.3391 0.8256 0.4510
vn 0.3949 -0.1446 -0.9073
vn 0.2428 0.4397 -0.8647
vn -0.6112 -0.2160 -0.7614
vn -0.5807 0.3269 -0.7456
vn -0.9850 -0.1121 0.1314
vn -0.8951 0.4456 -0.0127
vn -0.4409 0.0641 0.8953
vn -0.4367 0.6826 0.5859
vn 0.9902 -0.1353 0.0342
vn 0.8780 0.4431 0.1808
vn 0.5048 0.3139 0.8042
vn 0.5484 -0.2402 0.8010
vn 0.4642 0.0944 -0.8807
vn 0.5050 0.6783 -0.5337
vn -0.5618 0.1842 -0.8065
vn -0.3203 0.8193 -0.4755
vn -0.9959 0.0798 0.0434
vn -0.6822 0.6940 0.2300
vn -0.3920 -0.1452 0.9084
vn -0.2450 0.4381 0.8649
vn 0.1298 -0.9835 -0.1259
vn -0.6402 -0.5236 -0.5621
vn -0.4775 -0.6605 -0.5794
vn 0.1225 -0.9677 -0.2204
vn -0.8068 0.3623 -0.4667
vn -0.8023 0.0240 -0.5964
vn -0.1437 0.9849 0.0970
vn -0.3880 0.9216 0.0099
vn 0.6603 0.5062 0.5548
vn 0.5772 0.5453 0.6078
vn 0.7769 -0.4241 0.4653
vn 0.7885 -0.3981 0.4687
vn -0.0116 -0.9999 -0.0023
vn -0.7520 -0.4893 -0.4417
vn -0.7673 0.4461 -0.4606
vn -0.0043 0.9999 -0.0095
vn 0.7660 0.4518 0.4573
vn 0.7442 -0.4974 0.4457
vn -0.0165 -0.9823 0.1867
vn -0.7831 -0.5402 -0.3080
vn -0.7907 0.3443 -0.5062
vn 0.0067 0.9835 -0.1810
vn 0.7856 0.5188 0.3371
vn 0.7802 -0.3915 0.4879
vn -0.1716 -0.9689 0.1783
vn -0.7368 -0.6446 -0.2041
vn -0.8892 -0.0543 -0.4543
vn -0.3281 0.8503 -0.4115
vn 0.7373 0.6391 0.2191
vn 0.8134 -0.2848 0.5073
vn 0.4195 -0.8404 -0.3432
vn 0.2088 -0.9319 -0.2967
vn -0.5537 -0.4929 -0.6712
vn -0.4169 -0.4474 -0.7912
vn -0.8150 0.3725 -0.4439
vn -0.8090 0.3099 -0.4995
vn -0.2684 0.9247 0.2700
vn -0.5254 0.8176 0.2355
vn 0.5989 0.4318 0.6744
vn 0.3117 0.5316 0.7875
vn 0.8005 -0.4783 0.3610
vn 0.8100 -0.3139 0.4952
vn -0.0177 -0.9997 -0.0142
vn -0.7601 -0.5142 -0.3972
vn -0.7946 0.4319 -0.4267
vn -0.0198 0.9997 -0.0113
vn 0.7884 0.4452 0.4244
vn 0.7497 -0.5345 0.3901
vn -0.0783 -0.9358 0.3437
vn -0.8395 -0.5343 -0.0987
vn -0.7961 0.3667 -0.4814
vn 0.0538 0.9256 -0.3746
vn 0.8662 0.4680 0.1752
vn 0.7403 -0.4637 0.4868
vn -0.0886 -0.8464 0.5252
vn -0.8840 -0.4673 -0.0090
vn -0.8193 0.2943 -0.4922
vn -0.0965 0.8122 -0.5753
vn 0.7913 0.6016 -0.1094
vn 0.8200 -0.2940 0.4911
vn -0.1206 -0.9836 -0.1343
vn 0.6604 -0.0000 0.7509
vn -0.0517 -0.9953 -0.0822
vn 0.5113 -0.0000 0.8594
vn -0.8143 -0.5719 0.0989
vn 0.0084 -0.5696 -0.8218
vn 0.8118 -0.5833 0.0272
vn 0.0790 -0.5859 0.8065
vn -0.8143 0.5719 0.0989
vn 0.0790 0.5859 0.8065
vn 0.8118 0.5833 0.0272
vn 0.0084 0.5696 -0.8218
vn -0.2237 -0.5747 -0.7872
vn 0.7735 -0.5837 -0.2472
vn 0.3146 -0.5806 0.7510
vn -0.7670 -0.5711 0.2923
vn 0.3146 0.5806 0.7510
vn 0.7735 0.5837 -0.2472
vn -0.2237 0.5747 -0.7872
vn -0.7670 0.5711 0.2923
vn -0.8643 0.0627 -0.4990
vn 0.5195 -0.0014 -0.8545
vn 0.4752 0.0018 -0.8799
vn -0.8644 0.0627 -0.4990
vn 0.8643 -0.0632 0.4990
vn -0.4802 -0.0014 0.8771
vn -0.5244 0.0018 0.8515
vn -0.8643 -0.0632 -0.4990
vn 0.4780 -0.0016 -0.8784
vn 0.5244 0.0018 -0.8515
vn -0.4752 0.0018 0.8799
vn 0.8643 0.0626 0.4990
vn -0.5217 -0.0016 0.8532
# 169 vertex normals

vt 0.5896 0.2849 0.0000
vt 0.5924 0.2672 0.0000
vt 0.5989 0.2672 0.0000
vt 0.5959 0.2849 0.0000
vt 0.6019 0.2849 0.0000
vt 0.5953 0.2849 0.0000
vt 0.5924 0.3026 0.0000
vt 0.5989 0.3026 0.0000
vt 0.6088 0.3026 0.0000
vt 0.6060 0.2849 0.0000
vt 0.6218 0.2849 0.0000
vt 0.6248 0.2672 0.0000
vt 0.6329 0.2672 0.0000
vt 0.6297 0.2849 0.0000
vt 0.6329 0.3026 0.0000
vt 0.6361 0.2849 0.0000
vt 0.6278 0.2849 0.0000
vt 0.6248 0.3026 0.0000
vt 0.6367 0.2849 0.0000
vt 0.6395 0.3026 0.0000
vt 0.5870 0.3082 0.0000
vt 0.5939 0.3082 0.0000
vt 0.6441 0.3082 0.0000
vt 0.6400 0.3082 0.0000
vt 0.5870 0.4490 0.0000
vt 0.6400 0.4490 0.0000
vt 0.6441 0.4490 0.0000
vt 0.5939 0.4490 0.0000
vt 0.5919 0.3218 0.0000
vt 0.6013 0.3218 0.0000
vt 0.6528 0.3218 0.0000
vt 0.6458 0.3218 0.0000
vt 0.5919 0.4626 0.0000
vt 0.6458 0.4626 0.0000
vt 0.6528 0.4626 0.0000
vt 0.6013 0.4626 0.0000
vt 0.5852 0.3082 0.0000
vt 0.6386 0.3082 0.0000
vt 0.6412 0.3082 0.0000
vt 0.5888 0.3082 0.0000
vt 0.6412 0.4490 0.0000
vt 0.6386 0.4490 0.0000
vt 0.5852 0.4490 0.0000
vt 0.5888 0.4490 0.0000
vt 0.5874 0.3082 0.0000
vt 0.6417 0.3082 0.0000
vt 0.6451 0.3082 0.0000
vt 0.5937 0.3082 0.0000
vt 0.6451 0.4490 0.0000
vt 0.6417 0.4490 0.0000
vt 0.5874 0.4490 0.0000
vt 0.5937 0.4490 0.0000
vt 0.5410 0.3280 0.0000
vt 0.5394 0.3280 0.0000
vt 0.5438 0.4695 0.0000
vt 0.5454 0.4695 0.0000
vt 0.5303 0.3280 0.0000
vt 0.5318 0.4695 0.0000
vt 0.5224 0.3280 0.0000
vt 0.5211 0.4695 0.0000
vt 0.5244 0.3280 0.0000
vt 0.5236 0.4695 0.0000
vt 0.5338 0.3280 0.0000
vt 0.5358 0.4695 0.0000
vt 0.5249 0.3280 0.0000
vt 0.5208 0.4695 0.0000
vt 0.5250 0.3280 0.0000
vt 0.5331 0.3280 0.0000
vt 0.5323 0.4695 0.0000
vt 0.5418 0.3280 0.0000
vt 0.5432 0.4695 0.0000
vt 0.5332 0.3280 0.0000
vt 0.5314 0.4695 0.0000
vt 0.5432 0.4741 0.0000
vt 0.5314 0.4741 0.0000
vt 0.5208 0.4741 0.0000
vt 0.5211 0.4741 0.0000
vt 0.5323 0.4741 0.0000
vt 0.5438 0.4741 0.0000
vt 0.5236 0.4741 0.0000
vt 0.5358 0.4741 0.0000
vt 0.5454 0.4741 0.0000
vt 0.5318 0.4741 0.0000
vt 0.7153 0.3556 0.0000
vt 0.7187 0.3968 0.0000
vt 0.7135 0.2943 0.0000
vt 0.7147 0.2591 0.0000
vt 0.7185 0.4308 0.0000
vt 0.7145 0.3166 0.0000
vt 0.7150 0.4307 0.0000
vt 0.7120 0.3166 0.0000
vt 0.7107 0.4307 0.0000
vt 0.7076 0.3165 0.0000
vt 0.7112 0.3967 0.0000
vt 0.7069 0.2942 0.0000
vt 0.7154 0.4099 0.0000
vt 0.7193 0.4545 0.0000
vt 0.7184 0.4951 0.0000
vt 0.7144 0.4950 0.0000
vt 0.7105 0.4950 0.0000
vt 0.7116 0.4545 0.0000
vt 0.7155 0.3556 0.0000
vt 0.7206 0.3968 0.0000
vt 0.7205 0.4308 0.0000
vt 0.7171 0.4308 0.0000
vt 0.7130 0.4307 0.0000
vt 0.7134 0.3968 0.0000
vt 0.7157 0.2592 0.0000
vt 0.7232 0.2944 0.0000
vt 0.7245 0.3167 0.0000
vt 0.7223 0.3167 0.0000
vt 0.7182 0.3166 0.0000
vt 0.7172 0.2943 0.0000
vt 0.7152 0.2592 0.0000
vt 0.7154 0.3556 0.0000
vt 0.7205 0.3968 0.0000
vt 0.7185 0.2943 0.0000
vt 0.7201 0.4308 0.0000
vt 0.7187 0.3167 0.0000
vt 0.7162 0.4307 0.0000
vt 0.7155 0.3166 0.0000
vt 0.7119 0.4307 0.0000
vt 0.7112 0.3166 0.0000
vt 0.7127 0.3967 0.0000
vt 0.7114 0.2943 0.0000
vt 0.7152 0.4099 0.0000
vt 0.7184 0.4545 0.0000
vt 0.7175 0.4950 0.0000
vt 0.7133 0.4950 0.0000
vt 0.7091 0.4949 0.0000
vt 0.7103 0.4544 0.0000
vt 0.7150 0.3556 0.0000
vt 0.7163 0.3968 0.0000
vt 0.7157 0.4307 0.0000
vt 0.7117 0.4307 0.0000
vt 0.7074 0.4306 0.0000
vt 0.7083 0.3967 0.0000
vt 0.7150 0.2591 0.0000
vt 0.7164 0.2943 0.0000
vt 0.7165 0.3166 0.0000
vt 0.7131 0.3166 0.0000
vt 0.7087 0.3165 0.0000
vt 0.7089 0.2942 0.0000
vt 0.6088 0.2672 0.0000
vt 0.6116 0.2849 0.0000
vt 0.6395 0.2672 0.0000
vt 0.6422 0.2849 0.0000
vt 0.5895 0.3390 0.0000
vt 0.5935 0.3390 0.0000
vt 0.6473 0.3390 0.0000
vt 0.6459 0.3390 0.0000
vt 0.5895 0.4798 0.0000
vt 0.6459 0.4798 0.0000
vt 0.6473 0.4798 0.0000
vt 0.5935 0.4798 0.0000
vt 0.5886 0.2913 0.0000
vt 0.6454 0.2913 0.0000
vt 0.6462 0.2913 0.0000
vt 0.5894 0.2913 0.0000
vt 0.6462 0.4321 0.0000
vt 0.6454 0.4321 0.0000
vt 0.5886 0.4321 0.0000
vt 0.5894 0.4321 0.0000
vt 0.6167 0.3463 0.0000
vt 0.5797 0.3470 0.0000
vt 0.5797 0.2561 0.0000
vt 0.6167 0.2565 0.0000
vt 0.6167 0.2557 0.0000
vt 0.6167 0.3461 0.0000
vt 0.6538 0.3470 0.0000
vt 0.6538 0.2561 0.0000
vt 0.6167 0.3460 0.0000
vt 0.6167 0.3462 0.0000
# 173 texture coords

o ModulePonton_Droite001
g ModulePonton_Droite001
usemtl Material__60
s 2
f 1/1/1 2/2/2 3/3/3 4/4/4 
s 4
f 5/5/5 6/6/6 7/7/7 8/8/8 
s 16
f 2/2/2 6/6/6 5/5/5 3/3/3 
s 64
f 1/1/1 7/7/7 9/9/9 10/10/10 
s 2
f 11/11/11 12/12/12 13/13/13 14/14/14 
s 4
f 15/15/15 16/16/16 17/17/17 18/18/18 
s 16
f 13/13/13 12/12/12 17/17/17 16/16/16 
s 64
f 19/19/19 11/11/11 18/18/18 20/20/20 
s 2
f 21/21/21 22/22/22 23/23/23 24/24/24 
s 4
f 25/25/25 26/26/26 27/27/27 28/28/28 
s 8
f 24/24/24 26/26/26 25/25/25 21/21/21 
s 16
f 23/23/23 27/27/27 26/26/26 24/24/24 
s 32
f 22/22/22 28/28/28 27/27/27 23/23/23 
s 64
f 21/21/21 25/25/25 28/28/28 22/22/22 
s 2
f 29/29/29 30/30/30 31/31/31 32/32/32 
s 4
f 33/33/33 34/34/34 35/35/35 36/36/36 
s 8
f 32/32/32 34/34/34 33/33/33 29/29/29 
s 16
f 31/31/31 35/35/35 34/34/34 32/32/32 
s 32
f 30/30/30 36/36/36 35/35/35 31/31/31 
s 64
f 29/29/29 33/33/33 36/36/36 30/30/30 
s 2
f 37/37/37 38/38/38 39/39/39 40/40/40 
s 4
f 41/41/41 42/42/42 43/43/43 44/44/44 
s 8
f 39/39/39 41/41/41 44/44/44 40/40/40 
s 16
f 38/38/38 42/42/42 41/41/41 39/39/39 
s 32
f 37/37/37 43/43/43 42/42/42 38/38/38 
s 64
f 40/40/40 44/44/44 43/43/43 37/37/37 
s 2
f 45/45/45 46/46/46 47/47/47 48/48/48 
s 4
f 49/49/49 50/50/50 51/51/51 52/52/52 
s 8
f 47/47/47 49/49/49 52/52/52 48/48/48 
s 16
f 46/46/46 50/50/50 49/49/49 47/47/47 
s 32
f 45/45/45 51/51/51 50/50/50 46/46/46 
s 64
f 48/48/48 52/52/52 51/51/51 45/45/45 
s 8
f 53/53/53 54/54/54 55/55/55 56/56/56 
f 54/54/54 57/57/57 58/58/58 55/55/55 
f 57/57/57 59/59/59 60/60/60 58/58/58 
f 61/61/61 62/62/62 60/60/60 59/59/59 
f 63/63/63 64/64/64 62/62/62 61/61/61 
f 53/53/53 56/56/56 64/64/64 63/63/63 
f 65/65/65 66/60/66 67/66/67 68/67/68 
f 69/68/69 70/69/70 66/60/66 65/65/65 
f 71/70/71 72/55/72 70/69/70 69/68/69 
f 71/70/71 73/70/73 74/71/74 72/55/72 
f 73/70/73 75/72/75 76/73/76 74/71/74 
f 75/72/75 68/67/68 67/66/67 76/73/76 
s off
f 74/74/74 76/75/76 67/76/67 66/77/66 70/78/70 72/79/72 
f 62/80/62 64/81/64 56/82/56 55/79/55 58/83/58 60/77/60 
s 1
f 77/84/77 78/85/78 79/86/79 80/87/80 
s 2
f 78/85/78 81/88/81 82/89/82 79/86/79 
s 1
f 81/88/81 83/90/83 84/91/84 82/89/82 
s 2
f 83/90/83 85/92/85 86/93/86 84/91/84 
s 1
f 86/93/86 85/92/85 87/94/87 88/95/88 
s 2
f 88/95/88 87/94/87 77/84/77 80/87/80 
s 1
f 89/96/89 90/97/90 78/85/78 77/84/77 
s 2
f 90/97/90 91/98/91 81/88/81 78/85/78 
s 1
f 91/98/91 92/99/92 83/90/83 81/88/81 
s 2
f 83/90/83 92/99/92 93/100/93 85/92/85 
s 1
f 85/92/85 93/100/93 94/101/94 87/94/87 
s 2
f 87/94/87 94/101/94 89/96/89 77/84/77 
s 1
f 95/102/95 96/103/96 90/97/90 89/96/89 
s 2
f 90/97/90 96/103/96 97/104/97 91/98/91 
s 1
f 91/98/91 97/104/97 98/105/98 92/99/92 
s 2
f 92/99/92 98/105/98 99/106/99 93/100/93 
s 1
f 99/106/99 100/107/100 94/101/94 93/100/93 
s 2
f 100/107/100 95/102/95 89/96/89 94/101/94 
s 1
f 101/108/101 102/109/102 96/103/96 95/102/95 
s 2
f 96/103/96 102/109/102 103/110/103 97/104/97 
s 1
f 97/104/97 103/110/103 104/111/104 98/105/98 
s 2
f 98/105/98 104/111/104 105/112/105 99/106/99 
s 1
f 105/112/105 106/113/106 100/107/100 99/106/99 
s 2
f 106/113/106 101/108/101 95/102/95 100/107/100 
s 1
f 107/114/107 108/115/108 109/116/109 110/117/110 
s 2
f 110/117/110 109/116/109 111/118/111 112/119/112 
s 1
f 112/119/112 111/118/111 113/120/113 114/121/114 
s 2
f 113/120/113 115/122/115 116/123/116 114/121/114 
s 1
f 115/122/115 117/124/117 118/125/118 116/123/116 
s 2
f 117/124/117 108/115/108 107/114/107 118/125/118 
s 1
f 119/126/119 120/127/120 109/116/109 108/115/108 
s 2
f 109/116/109 120/127/120 121/128/121 111/118/111 
s 1
f 111/118/111 121/128/121 122/129/122 113/120/113 
s 2
f 122/129/122 123/130/123 115/122/115 113/120/113 
s 1
f 123/130/123 124/131/124 117/124/117 115/122/115 
s 2
f 124/131/124 119/126/119 108/115/108 117/124/117 
s 1
f 125/132/125 126/133/126 120/127/120 119/126/119 
s 2
f 126/133/126 127/134/127 121/128/121 120/127/120 
s 1
f 121/128/121 127/134/127 128/135/128 122/129/122 
s 2
f 122/129/122 128/135/128 129/136/129 123/130/123 
s 1
f 123/130/123 129/136/129 130/137/130 124/131/124 
s 2
f 130/137/130 125/132/125 119/126/119 124/131/124 
s 1
f 131/138/131 132/139/132 126/133/126 125/132/125 
s 2
f 132/139/132 133/140/133 127/134/127 126/133/126 
s 1
f 127/134/127 133/140/133 134/141/134 128/135/128 
s 2
f 128/135/128 134/141/134 135/142/135 129/136/129 
s 1
f 129/136/129 135/142/135 136/143/136 130/137/130 
s 2
f 136/143/136 131/138/131 125/132/125 130/137/130 
f 1/1/1 10/10/10 137/144/137 2/2/2 
s 4
f 138/145/138 9/9/9 7/7/7 6/6/6 
s 16
f 2/2/2 137/144/137 138/145/138 6/6/6 
s 64
f 1/1/1 4/4/4 8/8/8 7/7/7 
s 2
f 19/19/19 139/146/139 12/12/12 11/11/11 
s 4
f 17/17/17 140/147/140 20/20/20 18/18/18 
s 16
f 139/146/139 140/147/140 17/17/17 12/12/12 
s 64
f 14/14/14 15/15/15 18/18/18 11/11/11 
s 2
f 141/148/141 142/149/142 143/150/143 144/151/144 
s 4
f 145/152/145 146/153/146 147/154/147 148/155/148 
s 8
f 144/151/144 146/153/146 145/152/145 141/148/141 
s 16
f 143/150/143 147/154/147 146/153/146 144/151/144 
s 32
f 142/149/142 148/155/148 147/154/147 143/150/143 
s 64
f 141/148/141 145/152/145 148/155/148 142/149/142 
s 2
f 149/156/149 150/157/150 151/158/151 152/159/152 
s 4
f 153/160/153 154/161/154 155/162/155 156/163/156 
s 8
f 151/158/151 153/160/153 156/163/156 152/159/152 
s 16
f 150/157/150 154/161/154 153/160/153 151/158/151 
s 32
f 149/156/149 155/162/155 154/161/154 150/157/150 
s 64
f 152/159/152 156/163/156 155/162/155 149/156/149 
s 2
f 157/164/157 158/165/158 159/166/159 160/167/160 
s 4
f 161/168/161 162/169/161 163/170/162 164/171/163 
s 16
f 158/165/158 162/169/161 161/168/161 159/166/159 
s 64
f 157/164/157 160/167/160 164/171/163 163/170/162 
s 2
f 165/172/164 166/165/165 167/166/166 168/168/164 
s 4
f 169/171/167 170/167/168 171/173/168 172/170/169 
s 16
f 167/166/166 166/165/165 171/173/168 170/167/168 
s 64
f 168/168/164 169/171/167 172/170/169 165/172/164 
# 122 polygons

